<?xml version="1.0" encoding="UTF-8" standalone="no"?>
<!-- Created with Inkscape (http://www.inkscape.org/) -->

<svg
   xmlns:dc="http://purl.org/dc/elements/1.1/"
   xmlns:cc="http://creativecommons.org/ns#"
   xmlns:rdf="http://www.w3.org/1999/02/22-rdf-syntax-ns#"
   xmlns:svg="http://www.w3.org/2000/svg"
   xmlns="http://www.w3.org/2000/svg"
   xmlns:sodipodi="http://sodipodi.sourceforge.net/DTD/sodipodi-0.dtd"
   xmlns:inkscape="http://www.inkscape.org/namespaces/inkscape"
   id="svg2985"
   version="1.1"
   inkscape:version="0.91 r13725"
   width="850.39368"
   height="184.6844"
   xml:space="preserve"
   sodipodi:docname="dakosy-logo.svg"><metadata
     id="metadata2991"><rdf:RDF><cc:Work
         rdf:about=""><dc:format>image/svg+xml</dc:format><dc:type
           rdf:resource="http://purl.org/dc/dcmitype/StillImage" /><dc:title></dc:title></cc:Work></rdf:RDF></metadata><defs
     id="defs2989"><clipPath
       clipPathUnits="userSpaceOnUse"
       id="clipPath3003"><path
         d="m 0,595.28 841.89,0 L 841.89,0 0,0 0,595.28 Z"
         id="path3005"
         inkscape:connector-curvature="0" /></clipPath></defs><sodipodi:namedview
     pagecolor="#ffffff"
     bordercolor="#666666"
     borderopacity="1"
     objecttolerance="10"
     gridtolerance="10"
     guidetolerance="10"
     inkscape:pageopacity="0"
     inkscape:pageshadow="2"
     inkscape:window-width="1920"
     inkscape:window-height="1028"
     id="namedview2987"
     showgrid="false"
     fit-margin-top="0"
     fit-margin-left="0"
     fit-margin-right="0"
     fit-margin-bottom="0"
     inkscape:zoom="0.89706872"
     inkscape:cx="265.23475"
     inkscape:cy="-66.63684"
     inkscape:window-x="0"
     inkscape:window-y="0"
     inkscape:window-maximized="1"
     inkscape:current-layer="g2993" /><g
     id="g2993"
     inkscape:groupmode="layer"
     inkscape:label="DAKOSY-SCHRIFTZUG_CMYK"
     transform="matrix(1.25,0,0,-1.25,-179.76025,500.51746)"><g
       id="g3050"
       transform="matrix(5.9999998,0,0,5.9999998,-719.04096,-1263.3319)"><g
         transform="matrix(0.22482993,0,0,0.22482993,245.67644,260.61836)"
         id="g2995"><path
           inkscape:connector-curvature="0"
           id="path2997"
           style="fill:#ed1c24;fill-opacity:1;fill-rule:nonzero;stroke:none"
           d="m 0,0 25.657,0 0,31.519 25.571,40.35 -27.424,0 L 12.01,53.745 1.404,71.869 l -26.424,0 24.62,-40.35 0,-31.119" /></g><g
         transform="matrix(0.22482993,0,0,0.22482993,111.47581,195.85943)"
         id="g2999"><g
           clip-path="url(#clipPath3003)"
           id="g3001"><g
             transform="translate(171.3252,310.5791)"
             id="g3007"><path
               inkscape:connector-curvature="0"
               id="path3009"
               style="fill:#ed1c24;fill-opacity:1;fill-rule:nonzero;stroke:none"
               d="m 0,0 1.944,0 c 8.848,0 15.637,3.518 15.637,12.996 0,10.15 -5.914,14.023 -15.637,14.023 L 0,27.019 0,0 Z m -27.517,49.443 27.903,0 c 24.599,0 42.853,-10.02 42.853,-36.543 0,-21.447 -14.934,-35.471 -36.422,-35.471 l -34.334,0 0,72.014 z" /></g><g
             transform="translate(509.2598,315.0508)"
             id="g3011"><path
               inkscape:connector-curvature="0"
               id="path3013"
               style="fill:#ed1c24;fill-opacity:1;fill-rule:nonzero;stroke:none"
               d="m 0,0 1.342,-1.06 c 4.695,-3.657 10.347,-7.639 16.383,-7.639 2.587,0 6.708,1.058 6.708,4.33 0,3.272 -3.451,3.56 -5.846,4.041 l -5.27,0.963 c -10.251,1.828 -18.874,9.89 -18.874,21.246 0,17.224 15.618,24.848 31.329,24.848 8.242,0 15.81,-2.022 22.9,-6.351 l -7.09,-17.572 c -4.503,3.079 -9.581,4.483 -15.233,4.483 -2.3,0 -5.654,-0.865 -5.654,-3.848 0,-2.695 3.258,-3.08 5.27,-3.56 l 5.939,-1.348 c 11.116,-2.502 19.163,-8.468 19.163,-20.785 0,-17.32 -15.713,-25.886 -31.33,-25.886 -10.482,0 -18.64,5.559 -26.785,9.697 L 0,0 Z" /></g><g
             transform="translate(323.9409,360.0361)"
             id="g3015"><path
               inkscape:connector-curvature="0"
               id="path3017"
               style="fill:#ed1c24;fill-opacity:1;fill-rule:nonzero;stroke:none"
               d="m 0,0 0,-71.849 27.396,0 0,30.646 19.112,-30.646 27.692,0 L 48.615,-36.632 73.932,0 46.301,0 26.932,-31.23 26.932,0 0,0 Z" /></g><g
             transform="translate(259.958,315.3555)"
             id="g3019"><path
               inkscape:connector-curvature="0"
               id="path3021"
               style="fill:#ed1c24;fill-opacity:1;fill-rule:nonzero;stroke:none"
               d="M 0,0 5.85,22.242 11.785,0 0,0 Z m 18.823,44.534 -26.46,0 -26.474,-71.702 27.819,0 2.516,8.671 20.127,0 2.574,-8.671 28.103,0 -28.205,71.702 z" /></g><g
             transform="translate(447.1924,309.7168)"
             id="g3023"><path
               inkscape:connector-curvature="0"
               id="path3025"
               style="fill:#ed1c24;fill-opacity:1;fill-rule:nonzero;stroke:none"
               d="m 0,0 c -7.91,0 -14.323,6.414 -14.323,14.324 0,7.91 6.413,14.324 14.323,14.324 7.911,0 14.324,-6.414 14.324,-14.324 C 14.324,6.414 7.911,0 0,0 m 0.001,52.475 c -21.069,0 -38.15,-17.08 -38.15,-38.151 0,-21.07 17.081,-38.15 38.15,-38.15 21.07,0 38.15,17.08 38.15,38.15 0,21.071 -17.08,38.151 -38.15,38.151" /></g><g
             transform="translate(229.0352,260.8027)"
             id="g3027"><path
               inkscape:connector-curvature="0"
               id="path3029"
               style="fill:#1a3576;fill-opacity:1;fill-rule:nonzero;stroke:none"
               d="m 0,0 c 0.315,-0.074 0.848,-0.074 1.284,-0.074 3.365,-0.024 5.569,1.816 5.569,5.715 0,3.39 -1.985,5.183 -5.182,5.183 C 0.872,10.824 0.315,10.751 0,10.678 L 0,0 Z m -3.681,13.293 c 1.356,0.219 3.124,0.363 4.965,0.363 3.123,0 5.157,-0.58 6.707,-1.743 1.696,-1.259 2.761,-3.268 2.761,-6.151 0,-3.123 -1.138,-5.278 -2.688,-6.61 -1.719,-1.429 -4.359,-2.107 -7.555,-2.107 -1.913,0 -3.294,0.121 -4.19,0.242 l 0,16.006 z" /></g><g
             transform="translate(249.8159,263.6113)"
             id="g3031"><path
               inkscape:connector-curvature="0"
               id="path3033"
               style="fill:#1a3576;fill-opacity:1;fill-rule:nonzero;stroke:none"
               d="m 0,0 c -1.938,0 -3.439,-0.461 -3.439,-1.865 0,-0.944 0.63,-1.405 1.453,-1.405 0.896,0 1.671,0.606 1.913,1.356 C -0.024,-1.721 0,-1.502 0,-1.283 L 0,0 Z m 3.56,-2.736 c 0,-1.116 0.048,-2.203 0.193,-2.858 l -3.317,0 -0.218,1.186 -0.073,0 c -0.775,-0.944 -1.986,-1.453 -3.39,-1.453 -2.398,0 -3.826,1.744 -3.826,3.632 0,3.077 2.76,4.53 6.95,4.53 l 0,0.144 c 0,0.655 -0.339,1.551 -2.155,1.551 -1.211,0 -2.495,-0.412 -3.269,-0.896 l -0.679,2.373 c 0.824,0.46 2.446,1.064 4.601,1.064 3.948,0 5.183,-2.324 5.183,-5.133 l 0,-4.14 z" /></g><g
             transform="translate(261.6841,273.0547)"
             id="g3035"><path
               inkscape:connector-curvature="0"
               id="path3037"
               style="fill:#1a3576;fill-opacity:1;fill-rule:nonzero;stroke:none"
               d="m 0,0 0,-3.196 2.64,0 0,-2.712 -2.64,0 0,-4.287 c 0,-1.428 0.363,-2.082 1.453,-2.082 0.508,0 0.751,0.025 1.089,0.097 l 0.025,-2.785 c -0.46,-0.17 -1.356,-0.314 -2.373,-0.314 -1.187,0 -2.18,0.412 -2.785,1.015 -0.678,0.703 -1.017,1.842 -1.017,3.512 l 0,4.844 -1.574,0 0,2.712 1.574,0 0,2.204 L 0,0 Z" /></g><g
             transform="translate(274.9561,265.2813)"
             id="g3039"><path
               inkscape:connector-curvature="0"
               id="path3041"
               style="fill:#1a3576;fill-opacity:1;fill-rule:nonzero;stroke:none"
               d="M 0,0 C 0,0.896 -0.388,2.398 -2.083,2.398 -3.632,2.398 -4.262,0.969 -4.359,0 L 0,0 Z m -4.334,-2.518 c 0.096,-1.525 1.622,-2.252 3.341,-2.252 1.26,0 2.276,0.17 3.269,0.508 l 0.485,-2.494 c -1.211,-0.508 -2.688,-0.75 -4.286,-0.75 -4.02,0 -6.321,2.324 -6.321,6.029 0,3.002 1.865,6.321 5.981,6.321 3.826,0 5.28,-2.979 5.28,-5.908 0,-0.631 -0.073,-1.188 -0.122,-1.454 l -7.627,0 z" /></g><g
             transform="translate(282.0054,266.0801)"
             id="g3043"><path
               inkscape:connector-curvature="0"
               id="path3045"
               style="fill:#1a3576;fill-opacity:1;fill-rule:nonzero;stroke:none"
               d="m 0,0 c 0,1.479 -0.048,2.713 -0.097,3.778 l 3.197,0 0.169,-1.647 0.073,0 c 0.484,0.775 1.671,1.914 3.657,1.914 2.421,0 4.237,-1.623 4.237,-5.109 l 0,-6.999 -3.681,0 0,6.563 c 0,1.525 -0.533,2.566 -1.864,2.566 -1.017,0 -1.623,-0.703 -1.889,-1.38 -0.097,-0.243 -0.121,-0.581 -0.121,-0.92 l 0,-6.829 L 0,-8.063 0,0 Z" /></g><g
             transform="translate(301.332,264.8711)"
             id="g3047"><path
               inkscape:connector-curvature="0"
               id="path3049"
               style="fill:#1a3576;fill-opacity:1;fill-rule:nonzero;stroke:none"
               d="m 0,0 0.049,0 c 0.266,0.508 0.556,0.992 0.847,1.428 l 2.397,3.559 4.432,0 -4.238,-4.794 4.844,-7.047 -4.529,0 L 0.92,-1.986 0,-3.148 l 0,-3.706 -3.681,0 0,17.194 L 0,10.34 0,0 Z" /></g><g
             transform="translate(315.0166,263.9492)"
             id="g3051"><path
               inkscape:connector-curvature="0"
               id="path3053"
               style="fill:#1a3576;fill-opacity:1;fill-rule:nonzero;stroke:none"
               d="m 0,0 c 0,-2.033 0.848,-3.559 2.421,-3.559 1.454,0 2.35,1.428 2.35,3.584 0,1.743 -0.679,3.536 -2.35,3.536 C 0.678,3.561 0,1.744 0,0 m 8.572,0.121 c 0,-4.334 -3.075,-6.32 -6.247,-6.32 -3.463,0 -6.127,2.277 -6.127,6.103 0,3.85 2.518,6.295 6.344,6.295 3.609,0 6.03,-2.494 6.03,-6.078" /></g><g
             transform="translate(327.3208,266.0801)"
             id="g3055"><path
               inkscape:connector-curvature="0"
               id="path3057"
               style="fill:#1a3576;fill-opacity:1;fill-rule:nonzero;stroke:none"
               d="m 0,0 c 0,1.479 -0.048,2.713 -0.097,3.778 l 3.124,0 0.145,-1.598 0.073,0 c 0.508,0.775 1.574,1.888 3.584,1.888 1.55,0 2.736,-0.798 3.245,-2.033 l 0.048,0 c 0.461,0.629 0.969,1.113 1.55,1.453 0.654,0.364 1.38,0.58 2.252,0.58 2.276,0 3.996,-1.597 3.996,-5.158 l 0,-6.973 -3.584,0 0,6.442 c 0,1.719 -0.557,2.711 -1.744,2.711 -0.871,0 -1.453,-0.58 -1.719,-1.283 -0.073,-0.266 -0.121,-0.629 -0.121,-0.944 l 0,-6.926 -3.584,0 0,6.659 C 7.168,0.074 6.635,1.09 5.449,1.09 4.504,1.09 3.947,0.363 3.729,-0.217 3.608,-0.508 3.584,-0.848 3.584,-1.162 l 0,-6.901 L 0,-8.063 0,0 Z" /></g><g
             transform="translate(349.603,266.0801)"
             id="g3059"><path
               inkscape:connector-curvature="0"
               id="path3061"
               style="fill:#1a3576;fill-opacity:1;fill-rule:nonzero;stroke:none"
               d="m 0,0 c 0,1.479 -0.048,2.713 -0.097,3.778 l 3.124,0 0.145,-1.598 0.073,0 c 0.508,0.775 1.574,1.888 3.584,1.888 1.55,0 2.736,-0.798 3.245,-2.033 l 0.048,0 c 0.461,0.629 0.969,1.113 1.55,1.453 0.654,0.364 1.38,0.58 2.252,0.58 2.276,0 3.996,-1.597 3.996,-5.158 l 0,-6.973 -3.584,0 0,6.442 c 0,1.719 -0.557,2.711 -1.744,2.711 -0.871,0 -1.453,-0.58 -1.719,-1.283 -0.073,-0.266 -0.121,-0.629 -0.121,-0.944 l 0,-6.926 -3.584,0 0,6.659 C 7.168,0.074 6.635,1.09 5.449,1.09 4.504,1.09 3.947,0.363 3.729,-0.217 3.608,-0.508 3.584,-0.848 3.584,-1.162 l 0,-6.901 L 0,-8.063 0,0 Z" /></g><g
             transform="translate(383.0488,261.8184)"
             id="g3063"><path
               inkscape:connector-curvature="0"
               id="path3065"
               style="fill:#1a3576;fill-opacity:1;fill-rule:nonzero;stroke:none"
               d="m 0,0 c 0,-1.549 0.048,-2.809 0.097,-3.801 l -3.197,0 -0.169,1.67 -0.073,0 c -0.46,-0.726 -1.574,-1.937 -3.705,-1.937 -2.421,0 -4.165,1.502 -4.165,5.158 l 0,6.95 3.681,0 0,-6.368 c 0,-1.719 0.557,-2.762 1.864,-2.762 1.018,0 1.623,0.703 1.841,1.283 0.097,0.219 0.145,0.485 0.145,0.801 l 0,7.046 L 0,8.04 0,0 Z" /></g><g
             transform="translate(387.459,266.0801)"
             id="g3067"><path
               inkscape:connector-curvature="0"
               id="path3069"
               style="fill:#1a3576;fill-opacity:1;fill-rule:nonzero;stroke:none"
               d="m 0,0 c 0,1.479 -0.048,2.713 -0.097,3.778 l 3.197,0 0.169,-1.647 0.073,0 c 0.484,0.775 1.671,1.914 3.657,1.914 2.421,0 4.237,-1.623 4.237,-5.109 l 0,-6.999 -3.681,0 0,6.563 c 0,1.525 -0.533,2.566 -1.864,2.566 -1.017,0 -1.623,-0.703 -1.889,-1.38 -0.097,-0.243 -0.121,-0.581 -0.121,-0.92 l 0,-6.829 L 0,-8.063 0,0 Z" /></g><path
             inkscape:connector-curvature="0"
             id="path3071"
             style="fill:#1a3576;fill-opacity:1;fill-rule:nonzero;stroke:none"
             d="m 403.081,269.858 3.681,0 0,-11.841 -3.681,0 0,11.841 z m 3.802,3.294 c 0,-1.017 -0.751,-1.84 -1.986,-1.84 -1.162,0 -1.913,0.823 -1.913,1.84 0,1.041 0.775,1.84 1.962,1.84 1.186,0 1.913,-0.799 1.937,-1.84" /><g
             transform="translate(414.8506,264.8711)"
             id="g3073"><path
               inkscape:connector-curvature="0"
               id="path3075"
               style="fill:#1a3576;fill-opacity:1;fill-rule:nonzero;stroke:none"
               d="m 0,0 0.049,0 c 0.266,0.508 0.556,0.992 0.847,1.428 l 2.397,3.559 4.432,0 -4.238,-4.794 4.843,-7.047 -4.528,0 L 0.92,-1.986 0,-3.148 l 0,-3.706 -3.681,0 0,17.194 L 0,10.34 0,0 Z" /></g><g
             transform="translate(432.168,263.6113)"
             id="g3077"><path
               inkscape:connector-curvature="0"
               id="path3079"
               style="fill:#1a3576;fill-opacity:1;fill-rule:nonzero;stroke:none"
               d="m 0,0 c -1.938,0 -3.438,-0.461 -3.438,-1.865 0,-0.944 0.628,-1.405 1.452,-1.405 0.896,0 1.671,0.606 1.913,1.356 C -0.024,-1.721 0,-1.502 0,-1.283 L 0,0 Z m 3.56,-2.736 c 0,-1.116 0.048,-2.203 0.193,-2.858 l -3.317,0 -0.218,1.186 -0.072,0 c -0.776,-0.944 -1.987,-1.453 -3.391,-1.453 -2.398,0 -3.826,1.744 -3.826,3.632 0,3.077 2.76,4.53 6.95,4.53 l 0,0.144 c 0,0.655 -0.339,1.551 -2.155,1.551 -1.211,0 -2.495,-0.412 -3.27,-0.896 l -0.678,2.373 c 0.824,0.46 2.446,1.064 4.601,1.064 3.947,0 5.183,-2.324 5.183,-5.133 l 0,-4.14 z" /></g><g
             transform="translate(444.0117,273.0547)"
             id="g3081"><path
               inkscape:connector-curvature="0"
               id="path3083"
               style="fill:#1a3576;fill-opacity:1;fill-rule:nonzero;stroke:none"
               d="m 0,0 0,-3.196 2.64,0 0,-2.712 -2.64,0 0,-4.287 c 0,-1.428 0.363,-2.082 1.453,-2.082 0.509,0 0.751,0.025 1.09,0.097 l 0.024,-2.785 c -0.461,-0.17 -1.356,-0.314 -2.374,-0.314 -1.186,0 -2.178,0.412 -2.784,1.015 -0.679,0.703 -1.017,1.842 -1.017,3.512 l 0,4.844 -1.574,0 0,2.712 1.574,0 0,2.204 L 0,0 Z" /></g><path
             inkscape:connector-curvature="0"
             id="path3085"
             style="fill:#1a3576;fill-opacity:1;fill-rule:nonzero;stroke:none"
             d="m 450.237,269.858 3.681,0 0,-11.841 -3.681,0 0,11.841 z m 3.802,3.294 c 0,-1.017 -0.751,-1.84 -1.986,-1.84 -1.162,0 -1.913,0.823 -1.913,1.84 0,1.041 0.775,1.84 1.962,1.84 1.186,0 1.913,-0.799 1.937,-1.84" /><g
             transform="translate(461.4492,263.9492)"
             id="g3087"><path
               inkscape:connector-curvature="0"
               id="path3089"
               style="fill:#1a3576;fill-opacity:1;fill-rule:nonzero;stroke:none"
               d="m 0,0 c 0,-2.033 0.848,-3.559 2.422,-3.559 1.453,0 2.349,1.428 2.349,3.584 0,1.743 -0.678,3.536 -2.349,3.536 C 0.679,3.561 0,1.744 0,0 m 8.572,0.121 c 0,-4.334 -3.075,-6.32 -6.247,-6.32 -3.463,0 -6.127,2.277 -6.127,6.103 0,3.85 2.519,6.295 6.345,6.295 3.608,0 6.029,-2.494 6.029,-6.078" /></g><g
             transform="translate(473.7549,266.0801)"
             id="g3091"><path
               inkscape:connector-curvature="0"
               id="path3093"
               style="fill:#1a3576;fill-opacity:1;fill-rule:nonzero;stroke:none"
               d="m 0,0 c 0,1.479 -0.049,2.713 -0.098,3.778 l 3.198,0 0.169,-1.647 0.073,0 c 0.484,0.775 1.671,1.914 3.656,1.914 2.422,0 4.237,-1.623 4.237,-5.109 l 0,-6.999 -3.68,0 0,6.563 c 0,1.525 -0.533,2.566 -1.865,2.566 -1.017,0 -1.623,-0.703 -1.888,-1.38 -0.097,-0.243 -0.121,-0.581 -0.121,-0.92 l 0,-6.829 L 0,-8.063 0,0 Z" /></g><g
             transform="translate(489.377,261.2129)"
             id="g3095"><path
               inkscape:connector-curvature="0"
               id="path3097"
               style="fill:#1a3576;fill-opacity:1;fill-rule:nonzero;stroke:none"
               d="m 0,0 c 0.678,-0.41 2.082,-0.871 3.172,-0.871 1.114,0 1.574,0.363 1.574,0.969 0,0.629 -0.363,0.92 -1.72,1.381 -2.469,0.822 -3.414,2.154 -3.389,3.558 0,2.229 1.888,3.899 4.818,3.899 1.381,0 2.592,-0.338 3.318,-0.702 L 7.144,5.691 C 6.61,5.982 5.569,6.369 4.576,6.369 3.681,6.369 3.172,6.006 3.172,5.426 3.172,4.844 3.632,4.553 5.085,4.045 7.337,3.27 8.258,2.107 8.281,0.389 c 0,-2.229 -1.718,-3.852 -5.109,-3.852 -1.55,0 -2.93,0.363 -3.826,0.848 L 0,0 Z" /></g><g
             transform="translate(501.3408,261.2129)"
             id="g3099"><path
               inkscape:connector-curvature="0"
               id="path3101"
               style="fill:#1a3576;fill-opacity:1;fill-rule:nonzero;stroke:none"
               d="m 0,0 c 0.678,-0.41 2.082,-0.871 3.172,-0.871 1.114,0 1.574,0.363 1.574,0.969 0,0.629 -0.363,0.92 -1.72,1.381 -2.469,0.822 -3.414,2.154 -3.389,3.558 0,2.229 1.888,3.899 4.818,3.899 1.381,0 2.592,-0.338 3.318,-0.702 L 7.144,5.691 C 6.61,5.982 5.569,6.369 4.576,6.369 3.681,6.369 3.172,6.006 3.172,5.426 3.172,4.844 3.632,4.553 5.085,4.045 7.337,3.27 8.258,2.107 8.281,0.389 c 0,-2.229 -1.718,-3.852 -5.109,-3.852 -1.55,0 -2.93,0.363 -3.826,0.848 L 0,0 Z" /></g><g
             transform="translate(516.0898,269.8584)"
             id="g3103"><path
               inkscape:connector-curvature="0"
               id="path3105"
               style="fill:#1a3576;fill-opacity:1;fill-rule:nonzero;stroke:none"
               d="M 0,0 1.769,-5.835 C 1.962,-6.515 2.204,-7.409 2.35,-8.04 l 0.096,0 c 0.146,0.654 0.339,1.525 0.509,2.228 L 4.432,0 8.354,0 5.595,-7.798 c -1.696,-4.721 -2.834,-6.586 -4.166,-7.773 -1.259,-1.114 -2.616,-1.526 -3.535,-1.621 l -0.799,3.099 c 0.46,0.096 1.041,0.315 1.597,0.629 0.558,0.291 1.187,0.897 1.527,1.477 0.121,0.195 0.193,0.388 0.193,0.533 0,0.146 -0.024,0.314 -0.145,0.605 L -4.092,0 0,0 Z" /></g><g
             transform="translate(527.0137,261.2129)"
             id="g3107"><path
               inkscape:connector-curvature="0"
               id="path3109"
               style="fill:#1a3576;fill-opacity:1;fill-rule:nonzero;stroke:none"
               d="m 0,0 c 0.678,-0.41 2.082,-0.871 3.172,-0.871 1.114,0 1.574,0.363 1.574,0.969 0,0.629 -0.363,0.92 -1.72,1.381 -2.469,0.822 -3.414,2.154 -3.389,3.558 0,2.229 1.888,3.899 4.818,3.899 1.381,0 2.592,-0.338 3.318,-0.702 L 7.144,5.691 C 6.61,5.982 5.569,6.369 4.576,6.369 3.681,6.369 3.172,6.006 3.172,5.426 3.172,4.844 3.632,4.553 5.085,4.045 7.337,3.27 8.258,2.107 8.281,0.389 c 0,-2.229 -1.718,-3.852 -5.109,-3.852 -1.55,0 -2.93,0.363 -3.826,0.848 L 0,0 Z" /></g><g
             transform="translate(543.1191,273.0547)"
             id="g3111"><path
               inkscape:connector-curvature="0"
               id="path3113"
               style="fill:#1a3576;fill-opacity:1;fill-rule:nonzero;stroke:none"
               d="m 0,0 0,-3.196 2.64,0 0,-2.712 -2.64,0 0,-4.287 c 0,-1.428 0.363,-2.082 1.453,-2.082 0.509,0 0.751,0.025 1.09,0.097 l 0.024,-2.785 c -0.461,-0.17 -1.356,-0.314 -2.374,-0.314 -1.186,0 -2.178,0.412 -2.784,1.015 -0.679,0.703 -1.017,1.842 -1.017,3.512 l 0,4.844 -1.574,0 0,2.712 1.574,0 0,2.204 L 0,0 Z" /></g><g
             transform="translate(556.3906,265.2813)"
             id="g3115"><path
               inkscape:connector-curvature="0"
               id="path3117"
               style="fill:#1a3576;fill-opacity:1;fill-rule:nonzero;stroke:none"
               d="M 0,0 C 0,0.896 -0.387,2.398 -2.082,2.398 -3.632,2.398 -4.262,0.969 -4.358,0 L 0,0 Z m -4.334,-2.518 c 0.097,-1.525 1.622,-2.252 3.342,-2.252 1.259,0 2.276,0.17 3.268,0.508 l 0.485,-2.494 c -1.211,-0.508 -2.688,-0.75 -4.286,-0.75 -4.02,0 -6.321,2.324 -6.321,6.029 0,3.002 1.866,6.321 5.982,6.321 3.826,0 5.279,-2.979 5.279,-5.908 0,-0.631 -0.073,-1.188 -0.121,-1.454 l -7.628,0 z" /></g><g
             transform="translate(563.4414,266.0801)"
             id="g3119"><path
               inkscape:connector-curvature="0"
               id="path3121"
               style="fill:#1a3576;fill-opacity:1;fill-rule:nonzero;stroke:none"
               d="m 0,0 c 0,1.479 -0.049,2.713 -0.098,3.778 l 3.124,0 0.146,-1.598 0.072,0 c 0.509,0.775 1.574,1.888 3.584,1.888 1.55,0 2.736,-0.798 3.245,-2.033 l 0.049,0 c 0.46,0.629 0.969,1.113 1.55,1.453 0.653,0.364 1.38,0.58 2.252,0.58 2.276,0 3.995,-1.597 3.995,-5.158 l 0,-6.973 -3.584,0 0,6.442 c 0,1.719 -0.557,2.711 -1.743,2.711 -0.872,0 -1.453,-0.58 -1.72,-1.283 -0.072,-0.266 -0.121,-0.629 -0.121,-0.944 l 0,-6.926 -3.584,0 0,6.659 C 7.167,0.074 6.635,1.09 5.448,1.09 4.504,1.09 3.947,0.363 3.729,-0.217 3.607,-0.508 3.584,-0.848 3.584,-1.162 l 0,-6.901 L 0,-8.063 0,0 Z" /></g><g
             transform="translate(600.1328,264.9668)"
             id="g3123"><path
               inkscape:connector-curvature="0"
               id="path3125"
               style="fill:#1a3576;fill-opacity:1;fill-rule:nonzero;stroke:none"
               d="m 0,0 -1.018,3.463 c -0.29,0.969 -0.581,2.18 -0.823,3.148 l -0.048,0 C -2.131,5.643 -2.373,4.407 -2.64,3.463 L -3.608,0 0,0 Z m -4.141,-2.76 -1.163,-4.189 -3.801,0 4.964,16.32 4.843,0 5.085,-16.32 -3.995,0 -1.259,4.189 -4.674,0 z" /></g><g
             transform="translate(622.5586,258.7676)"
             id="g3127"><path
               inkscape:connector-curvature="0"
               id="path3129"
               style="fill:#1a3576;fill-opacity:1;fill-rule:nonzero;stroke:none"
               d="m 0,0 c -1.138,-0.387 -3.293,-0.92 -5.448,-0.92 -2.979,0 -5.134,0.75 -6.635,2.18 -1.478,1.428 -2.301,3.558 -2.301,5.957 0.025,5.424 3.972,8.523 9.323,8.523 2.107,0 3.729,-0.412 4.529,-0.775 l -0.776,-2.979 c -0.895,0.412 -1.985,0.703 -3.777,0.703 -3.075,0 -5.425,-1.719 -5.425,-5.279 0,-3.39 2.132,-5.351 5.158,-5.351 0.824,0 1.502,0.097 1.792,0.218 l 0,3.438 -2.518,0 0,2.883 L 0,8.598 0,0 Z" /></g></g></g></g></g></svg>