<?xml version="1.0" encoding="UTF-8" standalone="no"?>
<svg
   xmlns:dc="http://purl.org/dc/elements/1.1/"
   xmlns:cc="http://creativecommons.org/ns#"
   xmlns:rdf="http://www.w3.org/1999/02/22-rdf-syntax-ns#"
   xmlns:svg="http://www.w3.org/2000/svg"
   xmlns="http://www.w3.org/2000/svg"
   xmlns:sodipodi="http://sodipodi.sourceforge.net/DTD/sodipodi-0.dtd"
   xmlns:inkscape="http://www.inkscape.org/namespaces/inkscape"
   width="19.865591"
   height="20"
   id="svg2"
   version="1.1"
   inkscape:version="0.91 r13725"
   sodipodi:docname="icon-linkedin.svg">
  <metadata
     id="metadata12">
    <rdf:RDF>
      <cc:Work
         rdf:about="">
        <dc:format>image/svg+xml</dc:format>
        <dc:type
           rdf:resource="http://purl.org/dc/dcmitype/StillImage" />
        <dc:title></dc:title>
      </cc:Work>
    </rdf:RDF>
  </metadata>
  <defs
     id="defs10" />
  <sodipodi:namedview
     pagecolor="#ffffff"
     bordercolor="#666666"
     borderopacity="1"
     objecttolerance="10"
     gridtolerance="10"
     guidetolerance="10"
     inkscape:pageopacity="0"
     inkscape:pageshadow="2"
     inkscape:window-width="916"
     inkscape:window-height="480"
     id="namedview8"
     showgrid="false"
     fit-margin-top="0"
     fit-margin-left="0"
     fit-margin-right="0"
     fit-margin-bottom="0"
     inkscape:zoom="0.20813857"
     inkscape:cx="150.00512"
     inkscape:cy="430.43131"
     inkscape:window-x="0"
     inkscape:window-y="0"
     inkscape:window-maximized="0"
     inkscape:current-layer="svg2" />
  <path
     d="m 0,0 19.865592,0 0,20 -19.8648864,0 z"
     id="path4"
     inkscape:connector-curvature="0"
     style="fill:#007eb3" />
  <path
     d="m 10.514526,9.07625 c 0,-0.019 0,-0.0416 0,-0.0646 0,-0.26281 0,-0.52563 0,-0.78845 0,-0.10231 -7.06e-4,-0.10231 -0.101247,-0.10231 -0.650169,0 -1.299985,0 -1.950153,0 -0.111478,0 -0.111478,0 -0.111478,0.10936 0,2.32551 0,4.65102 0,6.97653 0,0.11747 0,0.11782 0.116417,0.11782 0.670982,0 1.341964,0 2.012947,0 0.12065,0 0.12065,0 0.12065,-0.12206 0,-1.19238 -0.0014,-2.38407 0.0011,-3.5761 7.05e-4,-0.28928 0.02752,-0.57609 0.112889,-0.85372 0.08714,-0.28222 0.231774,-0.52317 0.492477,-0.67874 0.190499,-0.11289 0.400049,-0.15875 0.61736,-0.17145 0.205669,-0.012 0.408163,0.007 0.599721,0.0882 0.299155,0.12488 0.458611,0.36548 0.549274,0.66428 0.09278,0.30692 0.10795,0.623 0.108656,0.93909 0.0035,1.19698 0.0014,2.3936 0.0014,3.59057 0,0.11465 0.0046,0.11994 0.117827,0.11994 0.673805,0 1.346904,0 2.020356,0 0.11183,0 0.11183,0 0.11183,-0.115 0,-1.30704 -0.0011,-2.61408 0,-3.92147 7.06e-4,-0.37536 -0.01482,-0.74966 -0.07197,-1.12184 -0.05221,-0.34113 -0.132644,-0.67451 -0.28081,-0.98918 -0.213783,-0.45509 -0.539749,-0.7994 -1.00471,-0.99836 -0.594782,-0.254 -1.217081,-0.2988 -1.847847,-0.19332 -0.49036,0.0825 -0.920749,0.30197 -1.267176,0.66498 -0.125236,0.13159 -0.230716,0.28222 -0.347485,0.42616 z m -3.5478811,2.64301 c 0,-1.16134 0,-2.32269 0,-3.48403 0,-0.11289 -0.00212,-0.11465 -0.1135943,-0.11465 -0.6755684,0 -1.3511368,0 -2.027058,0 -0.018697,0 -0.040569,-0.006 -0.055739,10e-4 -0.021872,0.0106 -0.045861,0.0275 -0.056444,0.048 -0.00953,0.0212 -0.00494,0.0508 -0.00494,0.0765 0,2.31563 0,4.63126 0,6.94618 0,0.12348 0.00882,0.13194 0.1319387,0.13194 0.666749,0 1.3327924,0 1.9988358,0 0.01905,0 0.037747,0 0.056444,-7e-4 0.045861,-0.002 0.067733,-0.0272 0.069497,-0.0716 0.00106,-0.0282 0.00106,-0.0564 0.00106,-0.0847 0,-1.14935 0,-2.29905 0,-3.4484 z M 5.8349355,7.14727 C 6.4893373,7.16777 7.1437391,6.62974 7.1451502,5.84764 7.1465602,5.07505 6.5052123,4.55118 5.8596299,4.54024 5.1374949,4.52794 4.5374208,5.13855 4.5314236,5.83494 4.5250736,6.5419 5.1255005,7.16561 5.8352883,7.14727 Z"
     id="path6"
     inkscape:connector-curvature="0"
     style="fill:#ffffff" />
</svg>
