<?xml version="1.0" encoding="UTF-8" standalone="no"?>
<!-- Generator: Adobe Illustrator 16.0.0, SVG Export Plug-In . SVG Version: 6.00 Build 0)  -->

<svg
   xmlns:dc="http://purl.org/dc/elements/1.1/"
   xmlns:cc="http://creativecommons.org/ns#"
   xmlns:rdf="http://www.w3.org/1999/02/22-rdf-syntax-ns#"
   xmlns:svg="http://www.w3.org/2000/svg"
   xmlns="http://www.w3.org/2000/svg"
   xmlns:sodipodi="http://sodipodi.sourceforge.net/DTD/sodipodi-0.dtd"
   xmlns:inkscape="http://www.inkscape.org/namespaces/inkscape"
   version="1.1"
   id="svg2268"
   x="0px"
   y="0px"
   width="17.020533"
   height="20"
   viewBox="426.896 102.499 17.020533 20"
   xml:space="preserve"
   inkscape:version="0.91 r13725"
   sodipodi:docname="icon-xing.svg"><metadata
     id="metadata10"><rdf:RDF><cc:Work
         rdf:about=""><dc:format>image/svg+xml</dc:format><dc:type
           rdf:resource="http://purl.org/dc/dcmitype/StillImage" /><dc:title></dc:title></cc:Work></rdf:RDF></metadata><defs
     id="defs8" /><sodipodi:namedview
     pagecolor="#ffffff"
     bordercolor="#666666"
     borderopacity="1"
     objecttolerance="10"
     gridtolerance="10"
     guidetolerance="10"
     inkscape:pageopacity="0"
     inkscape:pageshadow="2"
     inkscape:window-width="1920"
     inkscape:window-height="1028"
     id="namedview6"
     showgrid="false"
     fit-margin-top="0"
     fit-margin-left="0"
     fit-margin-right="0"
     fit-margin-bottom="0"
     inkscape:zoom="1.18"
     inkscape:cx="85.103008"
     inkscape:cy="99.999189"
     inkscape:window-x="0"
     inkscape:window-y="0"
     inkscape:window-maximized="1"
     inkscape:current-layer="svg2268" /><g
     id="layer1"
     transform="matrix(0.1,0,0,0.1,364.71927,59.815701)"><path
       id="path19359"
       style="fill:#005a5f"
       d="m 637.265,466.334 c -1.736,0 -3.197,0.61 -3.934,1.804 -0.76,1.231 -0.645,2.818 0.166,4.424 L 653,506.323 c 0.033,0.064 0.033,0.105 0,0.164 l -30.648,54.084 c -0.799,1.592 -0.76,3.191 0,4.425 0.736,1.187 2.033,1.966 3.771,1.966 l 28.844,0 c 4.312,0 6.393,-2.91 7.867,-5.57 0,0 29.973,-53.01 31.139,-55.068 -0.117,-0.19 -19.83,-34.581 -19.83,-34.581 -1.438,-2.556 -3.605,-5.409 -8.029,-5.409 l -28.849,0 0,0 z"
       inkscape:connector-curvature="0" /><path
       id="path19375"
       style="fill:#d4d600"
       d="m 758.445,426.836 c -4.309,0 -6.176,2.714 -7.723,5.494 0,0 -62.141,110.2 -64.188,113.818 0.105,0.196 40.984,75.191 40.984,75.191 1.432,2.558 3.641,5.494 8.059,5.494 l 28.811,0 c 1.738,0 3.096,-0.654 3.828,-1.843 0.77,-1.231 0.748,-2.857 -0.059,-4.458 l -40.664,-74.295 c -0.039,-0.06 -0.039,-0.131 0,-0.189 l 63.863,-112.921 c 0.803,-1.593 0.82,-3.219 0.061,-4.451 -0.736,-1.188 -2.098,-1.843 -3.836,-1.843 l -29.139,0 0,0.002 0.003,0 z"
       inkscape:connector-curvature="0" /></g></svg>