<?xml version="1.0" encoding="UTF-8" standalone="no"?>
<!-- Generator: Adobe Illustrator 16.0.0, SVG Export Plug-In . SVG Version: 6.00 Build 0)  -->

<svg
   xmlns:dc="http://purl.org/dc/elements/1.1/"
   xmlns:cc="http://creativecommons.org/ns#"
   xmlns:rdf="http://www.w3.org/1999/02/22-rdf-syntax-ns#"
   xmlns:svg="http://www.w3.org/2000/svg"
   xmlns="http://www.w3.org/2000/svg"
   xmlns:sodipodi="http://sodipodi.sourceforge.net/DTD/sodipodi-0.dtd"
   xmlns:inkscape="http://www.inkscape.org/namespaces/inkscape"
   version="1.1"
   id="Layer_1"
   x="0px"
   y="0px"
   width="22.025076"
   height="20.000002"
   viewBox="0 0 22.025076 20.000002"
   xml:space="preserve"
   inkscape:version="0.91 r13725"
   sodipodi:docname="icon-keybase.svg"><metadata
     id="metadata69"><rdf:RDF><cc:Work
         rdf:about=""><dc:format>image/svg+xml</dc:format><dc:type
           rdf:resource="http://purl.org/dc/dcmitype/StillImage" /><dc:title></dc:title></cc:Work></rdf:RDF></metadata><defs
     id="defs67" /><sodipodi:namedview
     pagecolor="#ffffff"
     bordercolor="#666666"
     borderopacity="1"
     objecttolerance="10"
     gridtolerance="10"
     guidetolerance="10"
     inkscape:pageopacity="0"
     inkscape:pageshadow="2"
     inkscape:window-width="1920"
     inkscape:window-height="1028"
     id="namedview65"
     showgrid="false"
     fit-margin-top="0"
     fit-margin-left="0"
     fit-margin-right="0"
     fit-margin-bottom="0"
     inkscape:zoom="13.350176"
     inkscape:cx="22.983052"
     inkscape:cy="14.472563"
     inkscape:window-x="0"
     inkscape:window-y="0"
     inkscape:window-maximized="1"
     inkscape:current-layer="Layer_1" /><style
     type="text/css"
     id="style3"><![CDATA[
	.st0{fill-rule:evenodd;clip-rule:evenodd;fill:#076BB3;}
	.st1{fill-rule:evenodd;clip-rule:evenodd;fill:#0776C1;}
	.st2{fill-rule:evenodd;clip-rule:evenodd;fill:#0777C1;}
	.st3{fill-rule:evenodd;clip-rule:evenodd;fill:#3BA1EA;}
	.st4{fill-rule:evenodd;clip-rule:evenodd;fill:#0969B1;}
	.st5{fill-rule:evenodd;clip-rule:evenodd;fill:#3D5877;}
	.st6{fill-rule:evenodd;clip-rule:evenodd;fill:#3DA5EF;}
	.st7{fill-rule:evenodd;clip-rule:evenodd;fill:#0B67AF;}
	.st8{fill-rule:evenodd;clip-rule:evenodd;fill:#0D66AD;}
	.st9{fill-rule:evenodd;clip-rule:evenodd;fill:#0D7CC7;}
	.st10{fill-rule:evenodd;clip-rule:evenodd;fill:#0E64AB;}
	.st11{fill-rule:evenodd;clip-rule:evenodd;fill:#405873;}
	.st12{fill-rule:evenodd;clip-rule:evenodd;fill:#414042;}
	.st13{fill-rule:evenodd;clip-rule:evenodd;fill:#425E7D;}
	.st14{fill-rule:evenodd;clip-rule:evenodd;fill:#445C78;}
	.st15{fill-rule:evenodd;clip-rule:evenodd;fill:#445F7F;}
	.st16{fill-rule:evenodd;clip-rule:evenodd;fill:#445F80;}
	.st17{fill-rule:evenodd;clip-rule:evenodd;fill:#454A75;}
	.st18{fill-rule:evenodd;clip-rule:evenodd;fill:#456284;}
	.st19{fill-rule:evenodd;clip-rule:evenodd;fill:#466284;}
	.st20{fill-rule:evenodd;clip-rule:evenodd;fill:#466486;}
	.st21{fill-rule:evenodd;clip-rule:evenodd;fill:#484948;}
	.st22{fill-rule:evenodd;clip-rule:evenodd;fill:#486588;}
	.st23{fill-rule:evenodd;clip-rule:evenodd;fill:#48989B;}
	.st24{fill-rule:evenodd;clip-rule:evenodd;fill:#1063AA;}
	.st25{fill-rule:evenodd;clip-rule:evenodd;fill:#AE4CBF;}
	.st26{fill-rule:evenodd;clip-rule:evenodd;fill:#1162A9;}
	.st27{fill-rule:evenodd;clip-rule:evenodd;fill:#AF4CBF;}
	.st28{fill-rule:evenodd;clip-rule:evenodd;fill:#AF4CC0;}
	.st29{fill-rule:evenodd;clip-rule:evenodd;fill:#1280CA;}
	.st30{fill-rule:evenodd;clip-rule:evenodd;fill:#1360A6;}
	.st31{fill-rule:evenodd;clip-rule:evenodd;fill:#1361A7;}
	.st32{fill-rule:evenodd;clip-rule:evenodd;fill:#1370B5;}
	.st33{fill-rule:evenodd;clip-rule:evenodd;fill:#1371B5;}
	.st34{fill-rule:evenodd;clip-rule:evenodd;fill:#E3B371;}
	.st35{fill-rule:evenodd;clip-rule:evenodd;fill:#E3B372;}
	.st36{fill-rule:evenodd;clip-rule:evenodd;fill:#1583CD;}
	.st37{fill-rule:evenodd;clip-rule:evenodd;fill:#165EA3;}
	.st38{fill-rule:evenodd;clip-rule:evenodd;fill:#4A698D;}
	.st39{fill-rule:evenodd;clip-rule:evenodd;fill:#16A0FE;}
	.st40{fill-rule:evenodd;clip-rule:evenodd;fill:#4A9DA0;}
	.st41{fill-rule:evenodd;clip-rule:evenodd;fill:#4B698E;}
	.st42{fill-rule:evenodd;clip-rule:evenodd;fill:#4C6888;}
	.st43{fill-rule:evenodd;clip-rule:evenodd;fill:#4C6B8F;}
	.st44{fill-rule:evenodd;clip-rule:evenodd;fill:#195CA0;}
	.st45{fill-rule:evenodd;clip-rule:evenodd;fill:#4D647F;}
	.st46{fill-rule:evenodd;clip-rule:evenodd;fill:#4D6C91;}
	.st47{fill-rule:evenodd;clip-rule:evenodd;fill:#4E647E;}
	.st48{fill-rule:evenodd;clip-rule:evenodd;fill:#4E6C92;}
	.st49{fill-rule:evenodd;clip-rule:evenodd;fill:#4E6D93;}
	.st50{fill-rule:evenodd;clip-rule:evenodd;fill:#4F6E94;}
	.st51{fill-rule:evenodd;clip-rule:evenodd;fill:#4F6F94;}
	.st52{fill-rule:evenodd;clip-rule:evenodd;fill:#4F6F95;}
	.st53{fill-rule:evenodd;clip-rule:evenodd;fill:#B04DC1;}
	.st54{fill-rule:evenodd;clip-rule:evenodd;fill:#821CA7;}
	.st55{fill-rule:evenodd;clip-rule:evenodd;fill:#B2B2B2;}
	.st56{fill-rule:evenodd;clip-rule:evenodd;fill:#1D88D2;}
	.st57{fill-rule:evenodd;clip-rule:evenodd;fill:#8991B1;}
	.st58{fill-rule:evenodd;clip-rule:evenodd;fill:#1E88D2;}
	.st59{fill-rule:evenodd;clip-rule:evenodd;fill:#506F96;}
	.st60{fill-rule:evenodd;clip-rule:evenodd;fill:#507097;}
	.st61{fill-rule:evenodd;clip-rule:evenodd;fill:#517198;}
	.st62{fill-rule:evenodd;clip-rule:evenodd;fill:#52729A;}
	.st63{fill-rule:evenodd;clip-rule:evenodd;fill:#52739A;}
	.st64{fill-rule:evenodd;clip-rule:evenodd;fill:#53749C;}
	.st65{fill-rule:evenodd;clip-rule:evenodd;fill:#54759D;}
	.st66{fill-rule:evenodd;clip-rule:evenodd;fill:#55769E;}
	.st67{fill-rule:evenodd;clip-rule:evenodd;fill:#55779E;}
	.st68{fill-rule:evenodd;clip-rule:evenodd;fill:#578FCB;}
	.st69{fill-rule:evenodd;clip-rule:evenodd;fill:#BA945F;}
	.st70{fill-rule:evenodd;clip-rule:evenodd;fill:#594A42;}
	.st71{fill-rule:evenodd;clip-rule:evenodd;fill:#BCBEC0;}
	.st72{fill-rule:evenodd;clip-rule:evenodd;}
	.st73{fill:#FFA400;}
	.st74{fill-rule:evenodd;clip-rule:evenodd;fill:#F1F1F1;}
	.st75{fill-rule:evenodd;clip-rule:evenodd;fill:#F3F3F3;}
	.st76{fill-rule:evenodd;clip-rule:evenodd;fill:#292A29;}
	.st77{fill-rule:evenodd;clip-rule:evenodd;fill:#295789;}
	.st78{fill-rule:evenodd;clip-rule:evenodd;fill:#F7F7F7;}
	.st79{fill-rule:evenodd;clip-rule:evenodd;fill:#297EE1;}
	.st80{fill-rule:evenodd;clip-rule:evenodd;fill:#98BCE4;}
	.st81{fill:#003A70;}
	.st82{fill-rule:evenodd;clip-rule:evenodd;fill:#FDFCFC;}
	.st83{fill-rule:evenodd;clip-rule:evenodd;fill:#FDFDFD;}
	.st84{fill-rule:evenodd;clip-rule:evenodd;fill:#FDFEFE;}
	.st85{fill-rule:evenodd;clip-rule:evenodd;fill:#FE7100;}
	.st86{fill-rule:evenodd;clip-rule:evenodd;fill:#FEFEFE;}
	.st87{fill-rule:evenodd;clip-rule:evenodd;fill:#62688E;}
	.st88{fill-rule:evenodd;clip-rule:evenodd;fill:#63D2D6;}
	.st89{fill-rule:evenodd;clip-rule:evenodd;fill:#9C1CB1;}
	.st90{fill-rule:evenodd;clip-rule:evenodd;fill:#9F7757;}
	.st91{fill-rule:evenodd;clip-rule:evenodd;fill:#333333;}
	.st92{fill-rule:evenodd;clip-rule:evenodd;fill:#344D6A;}
	.st93{fill-rule:evenodd;clip-rule:evenodd;fill:#00458D;}
	.st94{fill-rule:evenodd;clip-rule:evenodd;fill:#005196;}
	.st95{fill-rule:evenodd;clip-rule:evenodd;fill:#0171BC;}
	.st96{fill-rule:evenodd;clip-rule:evenodd;fill:#025B92;}
	.st97{fill-rule:evenodd;clip-rule:evenodd;fill:#025D94;}
	.st98{fill-rule:evenodd;clip-rule:evenodd;fill:#0270BB;}
	.st99{fill-rule:evenodd;clip-rule:evenodd;fill:#036EB8;}
	.st100{fill-rule:evenodd;clip-rule:evenodd;fill:#055890;}
	.st101{fill-rule:evenodd;clip-rule:evenodd;fill:#056CB5;}
]]></style><path
     class="st76"
     d="M 1.4136177,12.818266 C 0.718209,12.430666 0.239403,11.872056 0,11.108246 c 0,-0.171 0,-0.342 0,-0.51301 0.1938024,-0.4446 0.5700071,-0.513 0.9918124,-0.5016 0.2736034,-0.0456 0.5358067,-0.0456 0.8094101,0 0.2508032,0.0342 0.4560057,0.0114 0.6612083,-0.1596 0.2280028,-0.19381 0.478806,-0.33061 0.7296091,-0.49021 0.068401,-0.0456 0.1368017,-0.114 0.2280029,-0.0342 0.057001,0.2166 0.057001,0.4446 0.057001,0.67261 -0.0114,0.0228 -0.0342,0.057 -0.0342,0.0456 -0.1710022,-0.114 -0.2622033,0.0342 -0.3762047,0.1026 -0.239403,0.1482 -0.4332055,0.3534 -0.6954087,0.46741 -0.4560057,0 -0.9120115,-0.0342 -1.3680172,-0.057 -0.0228,0 -0.057001,-0.0114 -0.079801,-0.0114 -0.3306041,-0.0228 -0.4446055,0.11401 -0.3648045,0.43321 0.045601,0.1596 0.1026013,0.3078 0.1938024,0.44461 0.3648046,0.5928 0.8892111,0.93481 1.5618195,1.06021 0.079801,0.0114 0.1710022,0.0342 0.2508032,0.057 0.3078038,0.2508 0.6042075,0.52441 0.957612,0.70681 1.2198152,0.64981 2.5194315,1.07161 3.8988487,1.24261 1.0032125,0.12541 1.9380245,-0.1254 2.8614365,-0.4674 0.490206,-0.1824 0.957612,-0.39901 1.436418,-0.61561 0.296403,-0.1254 0.592807,-0.2394 0.912011,-0.3192 0.125402,-0.0228 0.250803,-0.0228 0.387605,-0.0114 0.433205,0.0114 0.752409,0.2964 0.866411,0.77521 0.0342,0.342 -0.136802,0.6042 -0.353405,0.84361 -0.456005,0.4902 -1.048813,0.77521 -1.664421,0.99181 -1.037413,0.3648 -2.097626,0.4674 -3.19204,0.342 -0.478805,-0.057 -0.923411,-0.1938 -1.3338165,-0.4446 -0.068401,-0.0456 -0.1254016,-0.1254 -0.2280028,-0.0684 -0.1254016,0.2166 -0.0114,0.4104 0.1026012,0.57 0.2280029,0.31921 0.5358071,0.55861 0.8892111,0.72961 0.615608,0.29641 1.276816,0.43321 1.960825,0.52441 0.364804,0.0456 0.741009,0.0456 1.105814,0.057 0.364804,0.0114 0.741009,-0.0114 1.105814,-0.0456 0.136801,-0.0114 0.273603,-0.0228 0.410405,-0.0228 0.136801,0 0.205202,-0.057 0.228003,-0.2052 0.125401,-0.85501 0.558607,-1.53902 1.231215,-2.06343 0.77521,-0.61561 1.504819,-1.27681 2.120426,-2.06342 0.570008,-0.72961 1.014613,-1.52762 1.208416,-2.43964 0.0114,-0.0684 0.0342,-0.1368 0.0798,-0.1938 0.125401,-0.0798 0.171002,-0.2052 0.159602,-0.3534 0,-0.1596 0,-0.33061 0,-0.49021 0.0228,-0.1368 -0.0456,-0.2394 -0.136802,-0.3192 -0.0342,-0.0456 -0.057,-0.1026 -0.057,-0.1596 -0.057,-0.46741 -0.250803,-0.87782 -0.570007,-1.21982 -0.182402,-0.2052 -0.285004,-0.4446 -0.330604,-0.70681 -0.0798,-0.4104 -0.136802,-0.82081 -0.228003,-1.21981 -0.0456,-0.22801 -0.102601,-0.44461 -0.216603,-0.64981 -0.102601,-0.1596 -0.205202,-0.1824 -0.319204,-0.0228 -0.250803,0.3192 -0.387605,0.69541 -0.524406,1.07161 -0.0456,0.1368 0.0798,0.1824 0.159602,0.2508 0.387605,0.30781 0.399005,0.37621 0.114001,0.79801 -0.0228,0.0342 -0.0456,0.0684 -0.0684,0.10261 -0.535806,0.6498 -1.265416,0.95761 -2.052025,1.14001 -0.570007,0.1368 -1.151415,0.1938 -1.744222,0.1938 -1.037413,0.0114 -2.086226,-0.0114 -3.112239,-0.2166 -0.353404,-0.0684 -0.695409,-0.1596 -1.0032129,-0.3534 -0.1710022,-0.11401 -0.2964037,-0.25081 -0.319204,-0.45601 0,-0.0342 0.0114,-0.0684 0.0228,-0.1026 0.057001,-0.0684 0.1254015,-0.057 0.1938024,-0.0114 0.5814065,0.3534 1.2426155,0.4218 1.8924235,0.513 0.763809,0.0912 1.527619,0.12541 2.291428,0.0912 0.957612,-0.0456 1.892424,-0.15961 2.758835,-0.60421 0.513006,-0.2622 0.524406,-0.34201 0.0684,-0.67261 -0.0798,-0.057 -0.159602,-0.1026 -0.171002,-0.2052 0.0114,-0.1026 0.102601,-0.1482 0.182402,-0.19381 0.102601,-0.0684 0.205202,-0.1254 0.307804,-0.1938 0.0912,-0.057 0.114001,-0.1368 0.0684,-0.2394 -0.0456,-0.1026 -0.0684,-0.2052 -0.102602,-0.2964 -0.0456,-0.11401 -0.0912,-0.22801 -0.136801,-0.36481 -0.125402,0.0912 -0.228003,0.1824 -0.353405,0.2394 -0.0798,0.0342 -0.159602,0.11401 -0.250803,0.057 -0.0912,-0.1482 -0.102601,-0.3078 -0.148202,-0.4674 -0.0912,-0.38761 -0.205202,-0.77521 -0.353404,-1.14002 -0.0798,-0.1824 -0.193803,-0.3306 -0.342004,-0.456 -0.250804,-0.2166 -0.535807,-0.2166 -0.79801,-0.0228 -0.307804,0.228 -0.535807,0.53581 -0.843611,0.76381 -0.057,0.0456 -0.114001,0.0912 -0.171002,0.1254 -0.239403,0.1596 -0.410405,0.1368 -0.615608,-0.0456 -0.193802,-0.171 -0.330604,-0.38761 -0.524406,-0.57001 -0.114002,-0.114 -0.239403,-0.1938 -0.399005,-0.2394 -0.205203,-0.057 -0.296404,0 -0.319204,0.2166 -0.0798,0.62701 -0.171003,1.25402 -0.330605,1.86963 -0.0342,0.114 -0.057,0.2166 -0.102601,0.3306 -0.057,0.2166 -0.136802,0.4218 -0.250803,0.62701 -0.0456,0.0684 -0.0684,0.1596 -0.182402,0.1482 -0.0684,-0.0684 -0.0684,-0.171 -0.0912,-0.2622 -0.0684,-0.34201 -0.159602,-0.68401 -0.273604,-1.01462 -0.0228,-0.057 -0.0342,-0.1254 -0.0684,-0.1824 -0.057,-0.0912 -0.0798,-0.2166 -0.216602,-0.2166 -0.114002,0 -0.159602,0.1026 -0.216603,0.1824 -0.1824019,0.2622 -0.2850032,0.55861 -0.4104048,0.84361 -0.1938024,0.46741 -0.399005,0.93481 -0.5700071,1.40222 -0.159602,0.4218 -0.4560057,0.67261 -0.877811,0.80941 -0.2736034,0 -0.5472068,0.0114 -0.7866098,-0.1368 -0.0114,-0.114 0.091201,-0.1368 0.159602,-0.17101 0.1710021,-0.0912 0.3534044,-0.1824 0.5358067,-0.2736 0.2166027,-0.1026 0.3534044,-0.2736 0.4446055,-0.4902 0.239403,-0.62701 0.4902062,-1.25402 0.7752097,-1.85823 0.091201,-0.1938 0.1824023,-0.3762 0.3078039,-0.5472 0.3648039,-0.53581 1.0146119,-0.50161 1.3338159,0.0684 0.0228,0.0342 0.0228,0.0798 0.0684,0.114 0.0798,-0.43321 0.159602,-0.85501 0.193803,-1.28822 0.0342,-0.3648 0.159602,-0.69541 0.399005,-0.98041 0.228002,-0.2736 0.524406,-0.41041 0.900611,-0.3306 0.307804,0.057 0.581407,0.2052 0.80941,0.4218 0.353404,0.3306 0.353404,0.3306 0.661208,-0.0456 0.171002,-0.2052 0.342005,-0.39901 0.535807,-0.58141 0.478806,-0.4446 1.368017,-0.3078 1.755622,0.20521 0.193802,0.2508 0.353404,0.5244 0.467406,0.82081 0.228003,0.5814 0.456005,1.15141 0.684008,1.76702 0.0798,-0.1368 0.148202,-0.25081 0.239403,-0.35341 0.399005,-0.4446 0.969012,-0.3762 1.265416,0.1368 0.193803,0.34201 0.262203,0.70681 0.330604,1.08302 0.0684,0.3192 0.102602,0.64981 0.182403,0.96901 0.136801,0.46741 0.399005,0.84361 0.877811,1.01461 0.900611,0.33061 1.778422,0.71821 2.644833,1.12862 0.114001,0.057 0.205202,0.114 0.285003,0.2052 0.216603,0.1368 0.456006,0.2622 0.661208,0.4218 0.125402,0.10261 0.216603,0.23941 0.319204,0.35341 0,0.1482 0,0.285 0,0.4332 -0.319204,0.49021 -0.763809,0.87782 -1.151414,1.31102 -0.0456,0.1254 -0.125402,0.2052 -0.216603,0.285 -0.490206,0.41041 -0.934811,0.88922 -1.402217,1.32242 -1.174215,1.09442 -2.325629,2.20023 -3.442843,3.35164 -0.296404,0.29641 -0.581408,0.61561 -0.820811,0.95762 -0.114001,0.1596 -0.273603,0.2508 -0.467405,0.2508 -0.684009,-0.0228 -1.368017,0.0684 -2.052026,0.0456 -1.105814,-0.0456 -2.211628,-0.0456 -3.306041,-0.2964 -0.820811,-0.19381 -1.5846198,-0.47881 -2.1888273,-1.10582 -0.2850036,-0.2964 -0.478806,-0.63841 -0.4560058,-1.07161 0.0114,-0.1482 0.0342,-0.29641 0.1254016,-0.42181 0.1026013,-0.1368 0.057001,-0.1938 -0.1026013,-0.2166 -0.8550107,-0.1824 -1.6872211,-0.44461 -2.485231,-0.79801 -0.5928075,-0.2622 -1.1628146,-0.54721 -1.6416206,-1.00321 -0.1026013,-0.1026 -0.239403,-0.114 -0.3762047,-0.1482 -0.2508031,-0.0912 -0.478806,-0.11401 -0.6270078,-0.28501 z"
     id="path5"
     inkscape:connector-curvature="0"
     style="clip-rule:evenodd;fill:#292a29;fill-rule:evenodd" /><path
     class="st85"
     d="m 3.3744422,9.375426 c -0.3534044,0.2052 -0.6954087,0.4446 -1.0146127,0.69541 -0.091201,0.0684 -0.1710021,0.1026 -0.2964037,0.0912 -0.3534044,-0.0342 -0.718209,-0.0456 -1.0830135,-0.0684 0.0228,-2.78164 0.9690121,-5.19847 2.9412367,-7.17069 2.0178253,-2.01782999 4.491656,-2.99823999 7.341692,-2.91843999 4.765259,0.1254 8.732509,3.54544999 9.57612,8.23089999 0.0684,0.39901 0.125401,0.78661 0.136801,1.18562 -1.037413,-0.52441 -2.097626,-0.98041 -3.180639,-1.36802 -0.0798,-0.0228 -0.125402,-0.0798 -0.182403,-0.1368 -0.467406,-0.4218 -0.558607,-0.99181 -0.638408,-1.56182 -0.0684,-0.4446 -0.136801,-0.90061 -0.364804,-1.31102 -0.285004,-0.5016 -0.832211,-0.5472 -1.197015,-0.1026 -0.057,0.0684 -0.102602,0.13681 -0.148202,0.21661 -0.0342,0.057 -0.0684,0.114 -0.114002,0.1938 -0.057,-0.1368 -0.102601,-0.2508 -0.136801,-0.36481 -0.216603,-0.57 -0.433206,-1.15141 -0.684009,-1.71002 -0.0912,-0.1938 -0.182402,-0.3648 -0.319204,-0.5358 -0.524406,-0.67261 -1.356617,-0.71821 -1.938024,-0.0798 -0.193802,0.2166 -0.376205,0.4332 -0.547207,0.6612 -0.0912,0.114 -0.159602,0.1254 -0.262203,0.0114 -0.296404,-0.285 -0.592808,-0.57 -1.037413,-0.6498 -0.353405,-0.057 -0.615608,0.057 -0.843611,0.3078 -0.239403,0.2736 -0.353404,0.61561 -0.387605,0.98041 -0.0456,0.46741 -0.125401,0.92341 -0.228002,1.40222 -0.0798,-0.1254 -0.136802,-0.2394 -0.205203,-0.35341 -0.273603,-0.3876 -0.78661,-0.4104 -1.0944136,-0.0456 -0.2622033,0.31921 -0.4104052,0.70681 -0.5700071,1.07162 -0.1938025,0.456 -0.3876049,0.92341 -0.5700072,1.39081 -0.1026013,0.27361 -0.2622033,0.45601 -0.5358067,0.58141 -0.2280028,0.1026 -0.4446055,0.228 -0.6612082,0.34201 -0.057001,0.0912 -0.1482019,0.057 -0.2280029,0.057 -0.3762047,-0.0342 -0.7410093,-0.114 -1.117214,-0.1482 -0.2508031,-0.0228 -0.2964037,0.0228 -0.3078038,0.2736 0.0114,0.228 -0.045601,0.4446 -0.045601,0.67261 0.0114,0.0684 0,0.1254 -0.057001,0.1596 z"
     id="path7"
     inkscape:connector-curvature="0"
     style="clip-rule:evenodd;fill:#fe7100;fill-rule:evenodd" /><path
     class="st85"
     d="m 1.4136177,12.818266 c 0.2622033,0.114 0.5244065,0.2166 0.8094101,0.26221 0.0342,0.0114 0.079801,0.0342 0.1140014,0.057 0.7524094,0.6954 1.6644208,1.06021 2.5992325,1.40221 0.5472069,0.20521 1.117214,0.35341 1.6872211,0.46741 0.1254016,0.0228 0.1710022,0.0456 0.079801,0.1596 -0.319204,0.38761 -0.2280028,0.91201 0.045601,1.28822 0.3648046,0.513 0.8664108,0.82081 1.4250172,1.04881 0.75241,0.3078 1.539019,0.42181 2.337029,0.50161 0.78661,0.0684 1.58462,0.0912 2.37123,0.0798 0.524407,0 1.060213,-0.0228 1.58462,-0.0342 0.148202,0 0.285003,-0.057 0.376205,-0.1824 0.684008,-0.92342 1.527619,-1.69863 2.348429,-2.49664 1.174215,-1.15141 2.37123,-2.26862 3.568245,-3.40864 0.0114,-0.0114 0.0342,-0.0228 0.0456,-0.0342 -0.102601,0.68401 -0.307804,1.34522 -0.592807,1.98363 -1.516219,3.34024 -4.081251,5.36946 -7.695096,5.96227 -4.8906612,0.78661 -9.6445207,-2.21163 -11.0695385,-6.91989 -0.0228,-0.0456 -0.0228,-0.0912 -0.0342,-0.1368 z"
     id="path9"
     inkscape:connector-curvature="0"
     style="clip-rule:evenodd;fill:#fe7100;fill-rule:evenodd" /><path
     class="st35"
     d="m 2.4054301,10.640836 c 0.3078038,-0.2394 0.6156077,-0.4674 0.957612,-0.684 0.0228,0.0684 0.0456,0.114 0.057001,0.171 0.079801,0.057 0.068401,0.1482 0.091201,0.228 0.057001,0.285 0.159602,0.54721 0.3420043,0.77521 0.2280028,0.33061 0.5700071,0.51301 0.957612,0.54721 0.6612082,0.057 1.3110164,0.0114 1.9380242,-0.23941 0.5700071,-0.2166 1.0032124,-0.5928 1.3224164,-1.10581 0.057,-0.0912 0.102601,-0.1938 0.193802,-0.2508 0.0798,-0.0342 0.159602,-0.0114 0.228003,0.0228 0.0684,0.0456 0.114002,0.1026 0.125402,0.1938 0.239403,1.28822 1.128614,1.96083 2.280028,2.37123 0.387605,0.1368 0.77521,0.228 1.197015,0.1368 0.296404,-0.0684 0.547207,-0.2052 0.74101,-0.4332 0.364804,-0.44461 0.570007,-0.95762 0.706808,-1.50482 0.0684,-0.27361 0.136802,-0.34201 0.433206,-0.34201 0.83221,0 1.664421,-0.0798 2.508031,-0.0912 0.273604,0 0.535807,-0.0456 0.80941,-0.0342 0.0798,0 0.171002,-0.0114 0.239403,0.0684 -0.159602,0.98041 -0.627008,1.82403 -1.219815,2.61064 -0.615608,0.79801 -1.345217,1.48201 -2.143227,2.08622 -0.695408,0.53581 -1.117214,1.23122 -1.231215,2.10903 -0.0114,0.1026 -0.0342,0.1596 -0.148202,0.171 -1.459218,0.1254 -2.907036,0.171 -4.320654,-0.3306 -0.478806,-0.17101 -0.9348116,-0.41041 -1.2540156,-0.82081 -0.1710021,-0.21661 -0.3420042,-0.45601 -0.1824022,-0.75241 0.068401,-0.0456 0.1026012,0 0.1482018,0.0342 0.649808,0.4902 1.413617,0.68401 2.188827,0.79801 1.071614,0.1596 2.074826,-0.0684 3.021038,-0.55861 0.478806,-0.2508 0.923412,-0.54721 1.208415,-1.02601 0.148202,-0.25081 0.262203,-0.52441 0.205203,-0.83221 -0.159602,-0.55861 -0.467406,-0.77521 -1.037413,-0.72961 -0.057,0 -0.114002,0 -0.171002,0.0114 -0.866411,0.0684 -1.687222,0.3534 -2.508032,0.6042 -0.77521,0.23941 -1.57322,0.36481 -2.38263,0.38761 -0.9120108,0.0228 -1.8012219,-0.1596 -2.6562326,-0.52441 -0.8322104,-0.3534 -1.6302204,-0.80941 -2.4054301,-1.26541 -0.0228,-0.0114 -0.045601,-0.0342 -0.068401,-0.057 -0.0342,-0.0684 -0.0342,-0.13681 -0.0228,-0.21661 0.0342,-0.4446 -0.0114,-0.87781 -0.1482018,-1.29961 0,-0.0912 -0.057001,-0.1482 0,-0.22801 z"
     id="path11"
     inkscape:connector-curvature="0"
     style="clip-rule:evenodd;fill:#e3b372;fill-rule:evenodd" /><path
     class="st72"
     d="m 8.493106,10.162036 c -0.0684,-0.0228 -0.136801,-0.0456 -0.216602,-0.0342 -0.148202,-0.0228 -0.057,-0.1938 -0.148202,-0.2508 -0.0684,0.0228 -0.0798,0.1026 -0.102602,0.1596 -0.3762043,0.91201 -1.0830132,1.39081 -2.029225,1.55042 -0.478806,0.0798 -0.957612,0.0912 -1.4250178,-0.0342 -0.2850036,-0.0798 -0.5472069,-0.19381 -0.7752097,-0.39901 -0.2508032,-0.2964 -0.3420043,-0.64981 -0.3876049,-1.02601 -0.0114,-0.2508 -0.0342,-0.50161 -0.0456,-0.75241 0.0228,-0.285 0.0456,-0.57001 0.057001,-0.85501 0.0456,-0.1596 0.1710021,-0.1254 0.2850035,-0.114 0.8208103,0.1026 1.6416206,0.228 2.4624308,0.342 2.4738311,0.34201 4.9476621,0.69541 7.4328931,1.02601 0.228003,0.0342 0.456006,-0.0114 0.684009,-0.0342 0.900611,-0.0684 1.789822,-0.114 2.690433,-0.1938 0.193803,-0.0228 0.399005,-0.0114 0.592808,-0.0456 0.0684,-0.0114 0.125401,0.0114 0.182402,0.057 0,0.2052 0,0.41041 0,0.61561 0,0.1596 -0.0456,0.2622 -0.216603,0.285 -0.934811,0.0342 -1.869623,0.0798 -2.804435,0.114 -0.285003,0.0114 -0.570007,0.0342 -0.85501,0.0342 -0.148202,0 -0.228003,0.0456 -0.250804,0.20521 -0.0798,0.399 -0.205202,0.78661 -0.410405,1.14001 -0.102601,0.171 -0.205202,0.34201 -0.353404,0.47881 -0.570007,0.3306 -1.185615,0.342 -1.801223,0.1824 -0.513006,-0.1368 -0.980412,-0.3534 -1.390817,-0.69541 -0.513007,-0.4218 -0.80941,-0.96901 -0.889211,-1.63022 -0.0228,-0.1482 -0.0114,-0.1482 -0.0798,-0.2508 -0.0798,0.0114 -0.0684,0.1938 -0.205203,0.1254 z"
     id="path13"
     inkscape:connector-curvature="0"
     style="clip-rule:evenodd;fill-rule:evenodd" /><path
     class="st21"
     d="m 9.051713,6.183386 c 0.228003,-0.74101 0.353405,-1.49342 0.433206,-2.25723 0.0228,-0.1938 0.148201,-0.2736 0.353404,-0.228 0.307804,0.0684 0.501606,0.2964 0.695409,0.513 0.0684,0.0798 0.136801,0.15961 0.205202,0.23941 0.296404,0.2964 0.456006,0.285 0.78661,0.0114 0.296404,-0.25081 0.535807,-0.54721 0.855011,-0.77521 0.307804,-0.22801 0.627008,-0.2052 0.912011,0.0456 0.342005,0.3078 0.421806,0.72961 0.558607,1.14001 0.102602,0.30781 0.159602,0.63841 0.239403,0.95761 0,0.0456 -0.0228,0.0684 -0.057,0.10261 -0.376205,0.1938 -0.78661,0.3078 -1.197015,0.3876 -0.934812,0.1938 -1.869624,0.1824 -2.804436,0.0798 -0.250803,-0.0228 -0.501606,-0.0456 -0.741009,-0.0912 -0.102601,-0.0342 -0.193802,-0.0342 -0.239403,-0.1254 z"
     id="path15"
     inkscape:connector-curvature="0"
     style="clip-rule:evenodd;fill:#484948;fill-rule:evenodd" /><path
     class="st33"
     d="m 14.204578,17.594926 c -0.250803,0.057 -0.490206,-0.0228 -0.74101,0 -0.0798,0.0114 -0.0456,-0.1026 -0.0456,-0.1596 0.0342,-0.57001 0.262203,-1.06021 0.627008,-1.49342 0.330604,-0.3876 0.763809,-0.63841 1.128614,-0.98041 1.174214,-1.06021 2.200227,-2.23443 2.679033,-3.77345 0.250803,-0.78661 0.307804,-1.59602 0.114002,-2.40543 -0.0114,-0.0456 -0.0114,-0.0912 -0.0342,-0.1824 0.615608,0.228 1.208415,0.46741 1.789823,0.74101 -0.136802,1.21981 -0.558607,2.32563 -1.311017,3.30604 -0.535806,0.69541 -1.162814,1.31102 -1.835423,1.89242 -0.581407,0.51301 -1.185615,1.01462 -1.767022,1.52762 -0.182402,0.1596 -0.330604,0.35341 -0.490206,0.53581 -0.159602,0.2052 -0.228003,0.45601 -0.262203,0.71821 0.0114,0.1254 0.0684,0.2052 0.148202,0.2736 z"
     id="path17"
     inkscape:connector-curvature="0"
     style="clip-rule:evenodd;fill:#1371b5;fill-rule:evenodd" /><path
     class="st39"
     d="m 14.204578,17.594926 c -0.148202,0 -0.182403,-0.0684 -0.182403,-0.2052 0.0114,-0.45601 0.239403,-0.80941 0.535807,-1.12861 0.421805,-0.43321 0.900611,-0.80942 1.356617,-1.20842 1.048813,-0.91201 2.120427,-1.81262 2.861436,-3.00964 0.467406,-0.76381 0.752409,-1.59602 0.866411,-2.48523 0.0114,-0.0798 0.0228,-0.1596 0.0912,-0.2052 0.535806,0.228 1.048813,0.4788 1.527619,0.80941 0.296404,0.2052 0.307804,0.2736 0.0798,0.53581 -0.570007,0.6612 -1.219815,1.25401 -1.846823,1.85822 -0.832211,0.79801 -1.675821,1.59602 -2.519432,2.39403 -0.752409,0.71821 -1.493418,1.43642 -2.166027,2.22303 -0.057,0.0684 -0.125401,0.1368 -0.171002,0.2166 -0.0912,0.1596 -0.228003,0.2394 -0.433205,0.2052 z"
     id="path19"
     inkscape:connector-curvature="0"
     style="clip-rule:evenodd;fill:#16a0fe;fill-rule:evenodd" /><path
     class="st21"
     d="m 14.37558,6.776196 c 0.0114,0.1482 0.159602,0.171 0.250803,0.2508 0.433205,0.3648 0.478806,0.3648 -0.0342,0.67261 -0.604207,0.3534 -1.288216,0.4788 -1.972224,0.58141 -0.706809,0.1026 -1.425018,0.114 -2.131827,0.0684 -0.855011,-0.0456 -1.698621,-0.10261 -2.519431,-0.37621 -0.159602,-0.057 -0.3078042,-0.114 -0.4446059,-0.2052 -0.045601,-0.0342 -0.091201,-0.1026 -0.1710021,-0.0456 -0.068401,-0.1026 0,-0.171 0.057001,-0.2394 0.2166027,-0.18241 0.467406,-0.26221 0.741009,-0.29641 0.0798,-0.0114 0.171002,-0.0342 0.250803,-0.057 0.057,-0.0228 0.114001,-0.0342 0.171002,-0.0228 0.490206,0.057 0.991813,0.1482 1.482019,0.1938 1.447818,0.1482 2.861436,0.114 4.206652,-0.513 0.0114,-0.0114 0.0228,-0.0114 0.0456,-0.0114 0.0228,-0.0228 0.0456,-0.0114 0.0684,0 z"
     id="path21"
     inkscape:connector-curvature="0"
     style="clip-rule:evenodd;fill:#484948;fill-rule:evenodd" /><path
     class="st35"
     d="m 15.435793,6.650786 c -0.250803,-0.1596 -0.250803,-0.1596 -0.136802,-0.4446 0.125402,-0.2964 0.239403,-0.59281 0.421806,-0.86641 0.0684,-0.1026 0.136801,-0.2394 0.285003,-0.2166 0.136802,0.0228 0.193803,0.1482 0.250803,0.2736 0.171002,0.4104 0.216603,0.84361 0.296404,1.26542 0.0456,0.2052 0.0798,0.4218 0.114001,0.627 0.0342,0.19381 0.114002,0.36481 0.239403,0.49021 0.399005,0.4104 0.604208,0.90061 0.661209,1.47062 -0.0798,0.0912 -0.193803,0.0912 -0.296404,0.1026 -0.843611,0.0456 -1.675821,0.1254 -2.508031,0.1824 -0.250804,0.0114 -0.501607,0.0342 -0.74101,0.0684 -0.239403,0.0342 -0.478806,0.0342 -0.718209,-0.0456 -0.102601,-0.057 -0.057,-0.114 0.0114,-0.1596 0.057,-0.0342 0.125401,-0.0342 0.182402,-0.057 0.353404,-0.0798 0.672608,-0.2166 0.991812,-0.38761 0.490206,-0.2736 0.82081,-0.6954 1.003213,-1.21981 0.0342,-0.1026 0.0456,-0.2052 0.114001,-0.29641 0.171002,-0.0798 0.353405,0.0114 0.524407,0.0114 0.125401,0.0114 0.182402,-0.0114 0.148202,-0.1482 -0.0912,-0.4104 -0.148202,-0.83221 -0.239403,-1.24261 -0.0114,-0.0684 -0.0114,-0.1596 -0.102602,-0.171 -0.0798,0 -0.102601,0.0798 -0.148202,0.1368 -0.0798,0.1254 -0.125401,0.2736 -0.182402,0.4104 -0.0342,0.114 -0.0456,0.2166 -0.171002,0.2166 z"
     id="path23"
     inkscape:connector-curvature="0"
     style="clip-rule:evenodd;fill:#e3b372;fill-rule:evenodd" /><path
     class="st39"
     d="m 14.329979,6.776196 c -0.535806,0.3078 -1.117214,0.456 -1.721421,0.5586 -1.083014,0.18241 -2.166027,0.0684 -3.237641,-0.0684 -0.285003,-0.0342 -0.570007,-0.057 -0.84361,-0.1482 -0.0228,-0.114 0.0456,-0.1596 0.148201,-0.1824 0.182403,-0.228 0.262204,-0.50161 0.364805,-0.76381 0.342004,0.0912 0.695409,0.114 1.048813,0.1482 1.003213,0.1026 2.006425,0.0912 2.986838,-0.1482 0.319204,-0.0798 0.627007,-0.1938 0.923411,-0.3078 0.0684,-0.0228 0.114001,0.0114 0.136802,0.0684 0.0798,0.2508 0.159602,0.5016 0.193802,0.76381 0.0342,0.0342 0.0228,0.057 0,0.0798 z"
     id="path25"
     inkscape:connector-curvature="0"
     style="clip-rule:evenodd;fill:#16a0fe;fill-rule:evenodd" /><path
     class="st86"
     d="m 7.6038951,15.303496 c 0.079801,-0.2166 0.2280029,-0.2508 0.4218049,-0.2622 0.991813,-0.0114 1.915224,-0.3078 2.827236,-0.69541 0.501606,-0.2166 0.991812,-0.4218 1.493418,-0.63841 0.159602,-0.0684 0.319204,-0.114 0.490207,-0.1254 0.262203,-0.0228 0.399005,0.057 0.535806,0.27361 0.114002,0.2052 0.0228,0.3534 -0.0912,0.5016 -0.273603,0.34201 -0.638408,0.57001 -1.026013,0.75241 -1.231215,0.55861 -2.508031,0.74101 -3.841848,0.50161 -0.285003,-0.0456 -0.558607,-0.15961 -0.8094099,-0.30781 z"
     id="path27"
     inkscape:connector-curvature="0"
     style="clip-rule:evenodd;fill:#fefefe;fill-rule:evenodd" /><path
     class="st69"
     d="m 15.618195,7.471606 c -0.136801,0.7068 -0.524406,1.21981 -1.140014,1.57321 -0.342004,0.19381 -0.706809,0.34201 -1.094414,0.39901 -0.057,0.0114 -0.0912,0.0342 -0.125401,0.0798 -0.0798,0.0798 -0.171002,0.0456 -0.262203,0.0342 -1.242616,-0.1596 -2.485232,-0.3306 -3.727847,-0.4902 -0.535807,-0.0684 -1.071613,-0.17101 -1.6074202,-0.22801 -0.079801,-0.0114 -0.1710021,-0.0114 -0.239403,-0.0684 -0.1938024,-0.2052 -0.2508031,-0.456 -0.2166027,-0.72961 0.0114,-0.0912 0.0114,-0.1938 0.1254016,-0.2166 0.057001,0.2736 0.2622033,0.4104 0.4902063,0.52441 0.513006,0.2394 1.060213,0.3192 1.61882,0.3762 0.855011,0.0912 1.710021,0.1254 2.565032,0.0798 1.026013,-0.0456 2.029226,-0.2052 2.907036,-0.79801 0.216603,-0.1482 0.410406,-0.3306 0.581408,-0.5358 0.0456,-0.0456 0.0912,-0.0456 0.125401,0 z"
     id="path29"
     inkscape:connector-curvature="0"
     style="clip-rule:evenodd;fill:#ba945f;fill-rule:evenodd" /><path
     class="st69"
     d="m 2.6220328,12.350866 c 0.4104051,0.171 0.7866098,0.4332 1.1742147,0.6498 0.8664108,0.46741 1.7556219,0.88922 2.7360342,1.06022 0.8436105,0.1368 1.6758213,0.1026 2.5194313,-0.0456 0.855011,-0.1482 1.675821,-0.46741 2.508032,-0.68401 0.342004,-0.0912 0.695408,-0.1482 1.060213,-0.114 -0.77521,0.228 -1.493419,0.6042 -2.234428,0.91201 -1.459218,0.61561 -2.9412369,0.68401 -4.4574559,0.228 -0.9462118,-0.285 -1.8696233,-0.61561 -2.7132339,-1.14001 -0.2508031,-0.1596 -0.4674058,-0.35341 -0.6726084,-0.57001 -0.068401,-0.1254 -0.0342,-0.2166 0.079801,-0.2964 z"
     id="path31"
     inkscape:connector-curvature="0"
     style="clip-rule:evenodd;fill:#ba945f;fill-rule:evenodd" /><path
     class="st12"
     d="m 7.4214928,8.702816 c 0.4560062,0.0684 0.9120112,0.1482 1.3680172,0.2052 1.413618,0.19381 2.838635,0.37621 4.252253,0.57001 0.0684,0.0114 0.136802,0.0228 0.205203,0.0342 0.570007,0.1254 1.140014,-0.0114 1.698621,-0.0456 0.877811,-0.0456 1.744222,-0.1368 2.622033,-0.2052 0.159602,0.0456 0.205202,0.1596 0.182402,0.3078 -0.706809,0.057 -1.413618,0.114 -2.131827,0.1596 -0.456005,0.0342 -0.912011,0.0456 -1.368017,0.0912 -0.752409,0.0798 -1.470618,-0.1026 -2.200227,-0.1938 -0.77521,-0.0912 -1.55042,-0.2166 -2.325629,-0.3192 -0.889212,-0.1254 -1.778423,-0.25081 -2.6562336,-0.37621 -0.7638096,-0.1026 -1.516219,-0.2052 -2.2800285,-0.3078 -0.3762047,-0.057 -0.7638096,-0.1026 -1.1400143,-0.1596 -0.091201,-0.0114 -0.1710021,-0.0342 -0.2280028,0.0684 0,-0.28501 0.068401,-0.34201 0.3420042,-0.29641 0.4104052,0.057 0.8322105,0.11401 1.2426156,0.17101 0.045601,0 0.079801,-0.0114 0.1254016,-0.0228 0.2622032,0.0912 0.5358067,0.114 0.8208102,0.1254 0.5130064,0.0114 0.9918124,0.0456 1.4706184,0.1938 z"
     id="path33"
     inkscape:connector-curvature="0"
     style="clip-rule:evenodd;fill:#414042;fill-rule:evenodd" /><path
     class="st34"
     d="m 7.4214928,8.702816 c -0.4902061,-0.057 -0.9804122,-0.0912 -1.4592182,-0.2166 0.478806,-0.1824 0.7182089,-0.55861 0.8892111,-1.02601 0.2166027,-0.59281 0.4560057,-1.18562 0.7296091,-1.75563 0.0342,-0.0684 0.057001,-0.1254 0.1026013,-0.1938 0.091201,-0.1254 0.1368019,-0.3306 0.3306039,-0.3192 0.193803,0.0228 0.228003,0.2166 0.285004,0.3648 0.171002,0.44461 0.262203,0.90061 0.364804,1.35662 -0.0456,0.057 -0.102601,0.1254 -0.148202,0.1824 -0.0456,0.0114 -0.0912,0.0228 -0.125401,0.0342 -0.0798,-0.0684 -0.0798,-0.1824 -0.114001,-0.2736 -0.0798,-0.26221 -0.114002,-0.54721 -0.228003,-0.79801 -0.0228,-0.0456 -0.0456,-0.114 -0.114002,-0.114 -0.057,0 -0.0798,0.057 -0.102601,0.1026 -0.2052026,0.399 -0.3306042,0.83221 -0.4902062,1.25401 -0.0342,0.0798 0.0228,0.114 0.057001,0.17101 -0.0342,0.0684 -0.079801,0.1368 -0.079801,0.2166 0,0.0228 -0.0114,0.057 -0.0114,0.0798 -0.1482019,0.3534 -0.057001,0.64981 0.1140014,0.93481 z"
     id="path35"
     inkscape:connector-curvature="0"
     style="clip-rule:evenodd;fill:#e3b371;fill-rule:evenodd" /><path
     class="st69"
     d="m 13.816973,13.935486 c 0.125401,0.4674 -0.0798,0.84361 -0.376205,1.16281 -0.638408,0.67261 -1.459218,1.03741 -2.348429,1.24262 -0.399005,0.0912 -0.80941,0.1596 -1.231216,0.1254 -0.912011,-0.0684 -1.789822,-0.25081 -2.5650318,-0.75241 -0.091201,-0.057 -0.1368017,-0.171 -0.2622032,-0.1824 0.057001,-0.10261 0.1254015,-0.0342 0.1824022,0 0.9120118,0.5928 1.9266238,0.6156 2.9526368,0.5244 0.843611,-0.0684 1.641621,-0.285 2.39403,-0.67261 0.342004,-0.1824 0.661208,-0.3876 0.923412,-0.684 0.205202,-0.20521 0.353404,-0.44461 0.330604,-0.76381 z"
     id="path37"
     inkscape:connector-curvature="0"
     style="clip-rule:evenodd;fill:#ba945f;fill-rule:evenodd" /><path
     class="st90"
     d="m 2.4054301,10.640836 c 0.2280028,0.42181 0.2166027,0.88922 0.2508031,1.34522 0,0.057 0.0114,0.114 -0.0342,0.1596 -0.079801,-0.0912 -0.1824023,-0.114 -0.2964037,-0.1254 -0.3876049,-0.0114 -0.7752097,-0.0912 -1.1514144,-0.2166 -0.1710022,-0.057 -0.3306041,-0.1254 -0.4560057,-0.2736 -0.1824023,-0.20521 -0.2508032,-0.44461 -0.2622033,-0.70681 -0.0114,-0.1596 0.068401,-0.22801 0.2166027,-0.26221 0.1482019,-0.0342 0.2964037,0.0114 0.4446056,0.0114 0.4332054,0.0114 0.8664108,0.057 1.2882161,0.0684 z"
     id="path39"
     inkscape:connector-curvature="0"
     style="clip-rule:evenodd;fill:#9f7757;fill-rule:evenodd" /><path
     class="st90"
     d="m 15.618195,7.471606 c -0.0456,0 -0.0912,0 -0.125401,-0.0114 0.0114,-0.0228 0.0228,-0.0342 0.0342,-0.057 0.273604,-0.399 0.273604,-0.456 -0.0912,-0.75241 0.148202,-0.1596 0.182402,-0.3876 0.285004,-0.57 0.0342,-0.057 0.057,-0.114 0.0912,-0.171 0.0342,-0.0456 0.0684,-0.12541 0.148202,-0.11401 0.0912,0.0114 0.102601,0.0912 0.114001,0.15961 0.0798,0.3876 0.148202,0.77521 0.216603,1.17421 0.0228,0.1254 0.125401,0.285 0.0456,0.38761 -0.0798,0.1026 -0.239403,-0.0342 -0.364804,-0.0114 -0.114002,0.0114 -0.228003,-0.0684 -0.353405,-0.0342 z"
     id="path41"
     inkscape:connector-curvature="0"
     style="clip-rule:evenodd;fill:#9f7757;fill-rule:evenodd" /><path
     class="st70"
     d="m 0.7296091,11.541456 c 0.5358067,0.2964 1.117214,0.4104 1.7100214,0.4218 0.1482019,0 0.1938024,0.057 0.1824023,0.1824 0,0.0684 0,0.13681 -0.0114,0.20521 -0.0228,0.1026 -0.057001,0.1938 -0.079801,0.2964 -0.7410093,-0.0684 -1.3338167,-0.41041 -1.7670221,-1.01461 -0.0228,-0.0228 -0.0228,-0.057 -0.0342,-0.0912 z"
     id="path43"
     inkscape:connector-curvature="0"
     style="clip-rule:evenodd;fill:#594a42;fill-rule:evenodd" /><path
     class="st32"
     d="m 14.329979,6.776196 c -0.0684,-0.26221 -0.136802,-0.51301 -0.205202,-0.77521 -0.0114,-0.057 -0.0114,-0.1254 -0.102602,-0.1368 0.0114,-0.0114 0.0342,-0.0342 0.0456,-0.0456 0.182402,-0.0684 0.342004,-0.171 0.490206,-0.285 0.0798,-0.0684 0.136802,-0.0912 0.171002,0.0456 0.0684,0.228 0.148202,0.44461 0.239403,0.66121 0.0456,0.1026 0.0228,0.1596 -0.0684,0.2052 -0.182402,0.1026 -0.364804,0.22801 -0.547207,0.33061 0,0 -0.0114,0 -0.0228,0 z"
     id="path45"
     inkscape:connector-curvature="0"
     style="clip-rule:evenodd;fill:#1370b5;fill-rule:evenodd" /><path
     class="st12"
     d="m 8.493106,10.162036 c 0.0456,-0.0114 0.0684,-0.0342 0.0912,-0.0798 0.0228,-0.0684 0.0456,-0.171 0.136802,-0.171 0.114001,0.0114 0.0912,0.1368 0.102601,0.2052 0.0228,0.1824 0.0456,0.3648 0.0912,0.54721 0.205203,0.7638 0.718209,1.26541 1.402218,1.59602 0.501606,0.2508 1.026013,0.4218 1.59602,0.3762 0.330604,-0.0228 0.638408,-0.114 0.957612,-0.2166 -0.342004,0.3762 -0.77521,0.5244 -1.254016,0.456 -0.79801,-0.1026 -1.527619,-0.4218 -2.143227,-0.95761 -0.478806,-0.4218 -0.763809,-0.94621 -0.889211,-1.57322 -0.0114,-0.0456 -0.0114,-0.1254 -0.0912,-0.1824 z"
     id="path47"
     inkscape:connector-curvature="0"
     style="clip-rule:evenodd;fill:#414042;fill-rule:evenodd" /><path
     class="st12"
     d="m 3.8076476,11.153846 c 0.3534044,0.1596 0.6840086,0.36481 1.0716134,0.39901 0.9234116,0.0912 1.8012225,-0.0342 2.5194315,-0.68401 0.2736034,-0.23941 0.4560055,-0.55861 0.5928075,-0.90061 0.0342,-0.0798 0.0342,-0.21661 0.148202,-0.19381 0.114001,0.0228 0.0798,0.14821 0.0912,0.23941 0,0.0456 0,0.0912 0.0456,0.114 -0.148202,0.1938 -0.250804,0.4104 -0.410406,0.60421 -0.5016059,0.5814 -1.151414,0.86641 -1.8924233,0.98041 -0.4446056,0.0684 -0.9006113,0.1026 -1.3452168,0 -0.3306042,-0.0798 -0.638408,-0.2394 -0.8208103,-0.55861 z"
     id="path49"
     inkscape:connector-curvature="0"
     style="clip-rule:evenodd;fill:#414042;fill-rule:evenodd" /><path
     class="st86"
     d="m 11.924549,10.378636 c -0.262203,0.34201 -0.296404,0.67261 -0.0456,1.00321 -0.661209,0.10261 -1.379418,-0.3306 -1.59602,-0.93481 -0.0798,-0.2052 -0.0342,-0.2622 0.182402,-0.2394 0.478806,0.0456 0.957612,0.1026 1.459218,0.171 z"
     id="path51"
     inkscape:connector-curvature="0"
     style="clip-rule:evenodd;fill:#fefefe;fill-rule:evenodd" /><path
     class="st83"
     d="m 6.4296804,10.481236 c -0.6270078,0.0342 -1.1742147,-0.2736 -1.3794172,-0.77521 -0.091201,-0.228 -0.045601,-0.2736 0.1824022,-0.2508 0.399005,0.0456 0.8094102,0.1026 1.2198153,0.1482 -0.2052026,0.28501 -0.239403,0.57001 -0.0228,0.87781 z"
     id="path53"
     inkscape:connector-curvature="0"
     style="clip-rule:evenodd;fill:#fdfdfd;fill-rule:evenodd" /><path
     class="st78"
     d="m 12.471756,10.481236 c 0.353404,-0.0342 0.399005,0.0342 0.330604,0.35341 -0.0456,0.171 -0.125401,0.3078 -0.319204,0.4218 0.0912,-0.2736 0.136802,-0.5244 -0.0114,-0.77521 z"
     id="path55"
     inkscape:connector-curvature="0"
     style="clip-rule:evenodd;fill:#f7f7f7;fill-rule:evenodd" /><path
     class="st74"
     d="m 6.9312867,10.355836 c 0.1254015,-0.2508 0.1254015,-0.4674 0,-0.69541 0.1254015,0.0342 0.2622033,-0.0228 0.3078038,0.1254 0.057001,0.15961 -0.079801,0.43321 -0.3078038,0.57001 z"
     id="path57"
     inkscape:connector-curvature="0"
     style="clip-rule:evenodd;fill:#f1f1f1;fill-rule:evenodd" /><path
     class="st90"
     d="m 7.4214928,7.505806 c -0.1026013,0.0114 -0.1938024,0.0228 -0.1368017,-0.13681 0.1710021,-0.4332 0.2964037,-0.88921 0.5130069,-1.31101 0.0342,-0.0684 0.057,-0.1824 0.159602,-0.171 0.102601,0.0114 0.125401,0.114 0.148201,0.1938 0.136802,0.3534 0.216603,0.71821 0.296404,1.09441 -0.102601,0.0684 -0.228003,0.0684 -0.342004,0.0798 -0.228003,0.0228 -0.4332056,0.1254 -0.6384082,0.25081 z"
     id="path59"
     inkscape:connector-curvature="0"
     style="clip-rule:evenodd;fill:#9f7757;fill-rule:evenodd" /><path
     class="st71"
     d="m 13.258366,13.901286 c -0.627008,0.83221 -3.807648,1.82402 -4.571457,1.42501 1.65302,-0.0798 3.157839,-0.6042 4.571457,-1.42501 z"
     id="path61"
     inkscape:connector-curvature="0"
     style="clip-rule:evenodd;fill:#bcbec0;fill-rule:evenodd" /><path
     class="st82"
     d="m 0.5244066,10.971446 c 0.0114,-0.1938 0.1140014,-0.285 0.2736034,-0.31921 0.2280028,-0.0456 0.4560057,0 0.6726084,0.0456 0.045601,0.0114 0.079801,0.0342 0.079801,0.0798 0,0.057 -0.0228,0.1026 -0.079801,0.1026 -0.2964037,0 -0.558607,0.114 -0.8094101,0.2622 -0.1368017,0.0798 -0.091201,-0.1254 -0.1368017,-0.171 z"
     id="path63"
     inkscape:connector-curvature="0"
     style="clip-rule:evenodd;fill:#fdfcfc;fill-rule:evenodd" /></svg>