<?xml version="1.0" encoding="UTF-8" standalone="no"?>
<!-- Generator: Adobe Illustrator 19.0.0, SVG Export Plug-In . SVG Version: 6.00 Build 0)  -->

<svg
   xmlns:dc="http://purl.org/dc/elements/1.1/"
   xmlns:cc="http://creativecommons.org/ns#"
   xmlns:rdf="http://www.w3.org/1999/02/22-rdf-syntax-ns#"
   xmlns:svg="http://www.w3.org/2000/svg"
   xmlns="http://www.w3.org/2000/svg"
   xmlns:sodipodi="http://sodipodi.sourceforge.net/DTD/sodipodi-0.dtd"
   xmlns:inkscape="http://www.inkscape.org/namespaces/inkscape"
   version="1.1"
   id="Layer_1"
   x="0px"
   y="0px"
   viewBox="0 0 20 20"
   xml:space="preserve"
   inkscape:version="0.91 r13725"
   sodipodi:docname="icon-mail.svg"
   width="20"
   height="20"><metadata
     id="metadata12"><rdf:RDF><cc:Work
         rdf:about=""><dc:format>image/svg+xml</dc:format><dc:type
           rdf:resource="http://purl.org/dc/dcmitype/StillImage" /><dc:title></dc:title></cc:Work></rdf:RDF></metadata><defs
     id="defs10" /><sodipodi:namedview
     pagecolor="#ffffff"
     bordercolor="#666666"
     borderopacity="1"
     objecttolerance="10"
     gridtolerance="10"
     guidetolerance="10"
     inkscape:pageopacity="0"
     inkscape:pageshadow="2"
     inkscape:window-width="916"
     inkscape:window-height="480"
     id="namedview8"
     showgrid="false"
     fit-margin-top="0"
     fit-margin-left="0"
     fit-margin-right="0"
     fit-margin-bottom="0"
     inkscape:zoom="2.4583333"
     inkscape:cx="27.5"
     inkscape:cy="27.399999"
     inkscape:window-x="859"
     inkscape:window-y="190"
     inkscape:window-maximized="0"
     inkscape:current-layer="Layer_1" /><style
     type="text/css"
     id="style3">
	.st0{fill:#3498DB;}
	.st1{fill:#FFFFFF;}
</style><g
     id="XMLID_1_"
     transform="matrix(0.36429872,0,0,0.36429872,-7.4681238,-7.4681238)"><path
       id="XMLID_3_"
       class="st0"
       d="m 23.2,20.5 49.5,0 c 1.5,0 2.7,1.2 2.7,2.7 l 0,49.5 c 0,1.5 -1.2,2.7 -2.7,2.7 l -49.5,0 c -1.5,0 -2.7,-1.2 -2.7,-2.7 l 0,-49.5 c 0,-1.5 1.2,-2.7 2.7,-2.7 z"
       inkscape:connector-curvature="0"
       style="fill:#3498db" /><path
       id="XMLID_8_"
       class="st1"
       d="M 48,51.2 63.9,37.4 32.1,37.4 48,51.2 Z m -4.3,-1.5 4.3,3.5 4.2,-3.5 11.6,10 -31.7,0 11.6,-10 z m -12.6,8.9 0,-20.1 11.6,10 -11.6,10.1 z m 33.8,0 0,-20.1 -11.6,10 11.6,10.1 z"
       inkscape:connector-curvature="0"
       style="fill:#ffffff" /></g></svg>