<?xml version="1.0" encoding="UTF-8" standalone="no"?>
<svg
   xmlns:dc="http://purl.org/dc/elements/1.1/"
   xmlns:cc="http://creativecommons.org/ns#"
   xmlns:rdf="http://www.w3.org/1999/02/22-rdf-syntax-ns#"
   xmlns:svg="http://www.w3.org/2000/svg"
   xmlns="http://www.w3.org/2000/svg"
   xmlns:sodipodi="http://sodipodi.sourceforge.net/DTD/sodipodi-0.dtd"
   xmlns:inkscape="http://www.inkscape.org/namespaces/inkscape"
   width="250"
   height="67.795403"
   viewBox="131.839 407.304 250 67.795403"
   id="svg2"
   version="1.1"
   inkscape:version="0.91 r13725"
   sodipodi:docname="logo-hhla.svg">
  <metadata
     id="metadata16">
    <rdf:RDF>
      <cc:Work
         rdf:about="">
        <dc:format>image/svg+xml</dc:format>
        <dc:type
           rdf:resource="http://purl.org/dc/dcmitype/StillImage" />
        <dc:title></dc:title>
      </cc:Work>
    </rdf:RDF>
  </metadata>
  <defs
     id="defs14" />
  <sodipodi:namedview
     pagecolor="#ffffff"
     bordercolor="#666666"
     borderopacity="1"
     objecttolerance="10"
     gridtolerance="10"
     guidetolerance="10"
     inkscape:pageopacity="0"
     inkscape:pageshadow="2"
     inkscape:window-width="1920"
     inkscape:window-height="1028"
     id="namedview12"
     showgrid="false"
     fit-margin-top="0"
     fit-margin-left="0"
     fit-margin-right="0"
     fit-margin-bottom="0"
     inkscape:zoom="1.8266289"
     inkscape:cx="97.720005"
     inkscape:cy="26.500014"
     inkscape:window-x="0"
     inkscape:window-y="0"
     inkscape:window-maximized="1"
     inkscape:current-layer="svg2" />
  <path
     d="m 131.839,407.30399 207.62532,0 0,67.7954 -207.62532,0 z"
     id="path4"
     inkscape:connector-curvature="0"
     style="fill:#002369" />
  <path
     d="m 373.36458,407.30399 8.47442,0 0,67.7954 -8.47315,0 z"
     id="path6"
     inkscape:connector-curvature="0"
     style="fill:#c2bebe" />
  <path
     d="m 347.94002,407.30399 16.94885,0 0,67.7954 -16.94885,0 z"
     id="path8"
     inkscape:connector-curvature="0"
     style="fill:#be0033" />
  <path
     d="m 254.08433,435.90598 -2.92287,8.26336 5.824,0 m -9.53484,2.54169 6.63499,-18.58106 6.62988,18.58234 -13.26487,0 z m 0.48864,-26.69348 12.29015,0 15.67481,42.36956 -13.49512,0 -2.60693,-7.83484 -11.43568,0 -2.60948,7.83484 -43.58093,0.003 0,-16.1046 -11.01355,0 0,16.10204 -22.88414,0 0,-16.10204 -11.01356,0 0,16.1046 -12.71483,-0.003 0,-42.3734 12.71483,0 0,15.46759 11.01356,0 -0.003,-15.46759 22.88798,0 0,15.46759 11.01355,0 0,-15.46759 22.88415,0 0,31.57219 11.20542,0 11.67233,-31.56963 z m -36.01599,39.4032 0,-36.44067 -6.77954,0 0,15.46758 -16.94885,0 0,-15.46758 -6.7757,0 0,36.44067 6.77954,0 0,-16.10461 16.94885,0 0,16.10461 6.77698,0 z m -40.67724,-16.10205 -0.004,16.10205 6.77954,0 0.003,-36.43939 -6.77954,0 0,15.46758 -16.94884,0 0,-15.46758 -6.77699,0 0,36.43811 6.77954,0 0,-16.10205 16.94885,0 z m 67.09826,11.23357 -16.25043,0 0,-31.57219 -6.77954,0 0,36.44067 28.34871,0 2.5839,-7.83741 15.67736,0 2.60693,7.83613 7.18247,0 -13.53733,-36.43811 -8.18022,0 -11.65313,31.56963 z"
     id="path10"
     inkscape:connector-curvature="0"
     style="fill:#ffffff" />
</svg>
