<?xml version="1.0" encoding="UTF-8" standalone="no"?>
<!-- Created with Inkscape (http://www.inkscape.org/) -->

<svg
   xmlns:dc="http://purl.org/dc/elements/1.1/"
   xmlns:cc="http://creativecommons.org/ns#"
   xmlns:rdf="http://www.w3.org/1999/02/22-rdf-syntax-ns#"
   xmlns:svg="http://www.w3.org/2000/svg"
   xmlns="http://www.w3.org/2000/svg"
   xmlns:sodipodi="http://sodipodi.sourceforge.net/DTD/sodipodi-0.dtd"
   xmlns:inkscape="http://www.inkscape.org/namespaces/inkscape"
   version="1.0"
   width="250"
   height="100.80808"
   id="svg2"
   xml:space="preserve"
   inkscape:version="0.91 r13725"
   sodipodi:docname="logo-reemtsma.svg"><metadata
     id="metadata33"><rdf:RDF><cc:Work
         rdf:about=""><dc:format>image/svg+xml</dc:format><dc:type
           rdf:resource="http://purl.org/dc/dcmitype/StillImage" /><dc:title></dc:title></cc:Work></rdf:RDF></metadata><sodipodi:namedview
     pagecolor="#ffffff"
     bordercolor="#666666"
     borderopacity="1"
     objecttolerance="10"
     gridtolerance="10"
     guidetolerance="10"
     inkscape:pageopacity="0"
     inkscape:pageshadow="2"
     inkscape:window-width="1920"
     inkscape:window-height="1028"
     id="namedview31"
     showgrid="false"
     fit-margin-top="0"
     fit-margin-left="0"
     fit-margin-right="0"
     fit-margin-bottom="0"
     inkscape:zoom="0.714"
     inkscape:cx="250.00001"
     inkscape:cy="100.80808"
     inkscape:window-x="0"
     inkscape:window-y="0"
     inkscape:window-maximized="1"
     inkscape:current-layer="svg2" /><defs
     id="defs6" /><g
     transform="matrix(0.625,0,0,-0.625,-111.00169,540.22989)"
     id="g12"><path
       d="m 366.79197,826.40796 c 0,1.06231 0.18645,2.74943 -1.19863,3.18546 l 0,0.0717 5.13116,0 0,-0.0717 c -1.34718,-0.43603 -1.18707,-2.14719 -1.18707,-3.18546 l 0,-8.70548 c 0,-1.03941 -0.16006,-2.72487 1.18707,-3.16495 l 0,-0.0635 -5.13116,0 0,0.0635 c 1.35873,0.41604 1.19863,2.12554 1.19863,3.16495 l 0,8.70548 z"
       id="path606"
       style="fill:#aa0c31;fill-opacity:1;fill-rule:nonzero;stroke:none"
       inkscape:connector-curvature="0" /><path
       d="m 373.16947,825.08952 c 0.52336,0 1.09144,0.024 1.47425,0.30297 l 0.0712,0 0,-1.82599 c 0.842,1.24645 1.77474,1.82599 3.37626,1.82599 1.69217,0 2.84118,-0.64629 3.72275,-2.00918 0.93779,1.24643 2.0605,2.00918 3.81701,2.00918 3.40916,0 4.28248,-1.8689 4.28248,-4.80174 l 0,-3.556 c 0,-0.99403 -0.14028,-2.12069 1.05338,-2.49722 l 0,-0.0635 -4.13565,0 0,0.0635 c 1.05328,0.58367 0.91299,1.43461 0.91299,2.49722 l 0,2.97658 c 0,2.35744 -0.76605,3.85578 -2.68108,3.85578 -2.14623,0 -2.74551,-1.31515 -2.74551,-3.48441 l 0,-3.34795 c 0,-1.06261 -0.14687,-1.91355 0.89973,-2.49722 l 0,-0.0635 -3.9837,0 0,0.0635 c 1.04832,0.58367 0.90632,1.43461 0.90632,2.49722 l 0,3.18382 c 0,2.42593 -1.23813,3.64854 -2.72244,3.64854 -1.82262,0 -2.70254,-1.08232 -2.70254,-3.30029 l 0,-3.53207 c 0,-1.06261 -0.14028,-1.88962 0.87992,-2.49722 l 0,-0.0635 -3.96389,0 0,0.0635 c 1.05987,0.58367 0.91293,1.43461 0.91293,2.49722 l 0,5.51721 c 0,1.06243 0.14687,1.89447 -0.91293,2.47061 l 0,0.0669 1.53863,0 z"
       id="path608"
       style="fill:#aa0c31;fill-opacity:1;fill-rule:nonzero;stroke:none"
       inkscape:connector-curvature="0" /><path
       d="m 392.7283,825.08952 c 0.54322,0 1.12425,0.0478 1.46925,0.30297 l 0.0695,0 0,-1.64185 c 0.83712,1.08634 2.64318,1.64185 4.00845,1.64185 3.39602,0 5.59341,-2.47225 5.59341,-5.49257 0,-3.21281 -2.46487,-5.72973 -5.88059,-5.72973 -0.6438,0 -1.24969,0.0958 -1.80601,0.3038 l -1.32752,1.88951 c 0.85527,-0.39136 1.74339,-0.66773 2.66788,-0.66773 2.58541,0 3.88137,1.63936 3.88137,3.94811 0,2.14555 -1.23153,4.13235 -3.74102,4.13235 -1.02683,0 -2.02905,-0.39292 -2.7125,-1.1077 -0.70162,-0.71497 -0.68347,-1.5462 -0.68347,-2.47399 l 0,-7.91882 c 0,-1.06231 -0.14704,-1.89271 0.9328,-2.46821 l 0,-0.0717 -4.07949,0 0,0.0717 c 1.07314,0.5755 0.92625,1.4059 0.92625,2.46821 l 0,10.27624 c 0,1.06243 0.14688,1.91852 -0.92625,2.47061 l 0,0.0669 1.60806,0 z"
       id="path610"
       style="fill:#aa0c31;fill-opacity:1;fill-rule:nonzero;stroke:none"
       inkscape:connector-curvature="0" /><path
       d="m 414.03047,821.48884 c -0.26748,1.61554 -1.40334,2.37827 -3.17154,2.37827 -1.64757,0 -2.87921,-0.92284 -3.17316,-2.37827 l 6.3447,0 z m -6.44042,-1.33721 c 0.0512,-2.8165 2.14472,-4.45586 4.91483,-4.45586 1.48092,0 2.89747,0.39294 4.02833,1.22251 l 0.0695,0 -1.23174,-2.17195 c -1.05328,-0.41604 -2.227,-0.57614 -3.38265,-0.57614 -4.17541,0 -7.04802,2.46905 -7.04802,5.68186 0,3.20776 2.47648,5.54044 6.13487,5.54044 3.33825,0 5.62322,-2.26428 5.52754,-5.24086 l -9.01262,0 z"
       id="path612"
       style="fill:#aa0c31;fill-opacity:1;fill-rule:nonzero;stroke:none"
       inkscape:connector-curvature="0" /><path
       d="m 418.66466,825.08952 c 0.59425,0 1.20014,0.024 1.5651,0.30297 l 0.0759,0 0,-1.75407 c 0.56783,1.03918 1.74994,1.75407 3.0261,1.75407 l 0.92454,-0.0718 0,-2.12069 c -0.2872,0.27583 -0.74618,0.3665 -1.18032,0.3665 -1.94656,0 -2.77032,-0.92201 -2.77032,-3.30007 l 0,-3.23169 c 0,-1.06261 -0.15346,-1.91355 0.98397,-2.49721 l 0,-0.0636 -4.29751,0 0,0.0636 c 1.13101,0.58366 0.97736,1.4346 0.97736,2.49721 l 0,5.51722 c 0,1.06242 0.15363,1.89447 -0.95095,2.47061 l 0,0.0669 1.64611,0 z"
       id="path614"
       style="fill:#aa0c31;fill-opacity:1;fill-rule:nonzero;stroke:none"
       inkscape:connector-curvature="0" /><path
       d="m 427.36004,826.47634 c -1.02191,0 -1.78791,0.67032 -1.78791,1.52548 0,0.8073 0.87503,1.36291 1.78791,1.36291 0.9444,0 1.65273,-0.67207 1.65273,-1.4347 0,-0.75778 -0.70833,-1.45369 -1.65273,-1.45369 z m -0.52982,-1.38682 c 0.64375,0 1.32732,0.024 1.79293,0.37147 l 0.0891,0 0,-8.42624 c 0,-1.06261 -0.1716,-1.91355 1.04677,-2.49722 l 0,-0.0635 -4.60119,0 0,0.0635 c 1.21178,0.58367 1.04662,1.43461 1.04662,2.49722 l 0,5.51721 c 0,1.06243 0.16513,1.89447 -1.04662,2.47061 l 0,0.0669 1.67242,0 z"
       id="path616"
       style="fill:#aa0c31;fill-opacity:1;fill-rule:nonzero;stroke:none"
       inkscape:connector-curvature="0" /><path
       d="m 440.58594,814.17019 c -1.62131,0.0958 -3.24911,0.55065 -3.24911,2.40211 l 0,3.64627 c -0.70828,-0.34269 -1.5388,-0.53095 -2.35596,-0.71499 -1.18036,-0.2551 -2.50788,-0.50762 -2.50788,-1.91674 0,-1.43139 1.37214,-1.89107 2.68785,-1.89107 0.58613,0 1.18037,0.16005 1.76165,0.32443 l -1.44295,-1.73023 c -0.42768,-0.072 -0.86182,-0.11983 -1.27615,-0.11983 -2.48973,0 -4.20672,1.47761 -4.20672,3.39601 0,4.29173 7.34016,2.30968 7.34016,4.82567 0,1.10789 -1.44291,1.47524 -2.35596,1.47524 -1.25143,0 -2.23364,-0.43925 -3.33823,-0.92284 l 1.64761,2.30958 1.59489,0.13859 c 2.65639,0 4.66712,-0.71489 4.69199,-3.51073 l 0,-3.46027 c 0,-1.82516 0.0446,-2.5161 2.08834,-2.72572 l -1.07953,-1.52558 z"
       id="path618"
       style="fill:#aa0c31;fill-opacity:1;fill-rule:nonzero;stroke:none"
       inkscape:connector-curvature="0" /><path
       d="m 443.63024,829.66512 c 0.6389,0 1.35367,-0.0238 1.77476,0.36652 l 0.0776,0 0,-12.99689 c 0,-1.06261 -0.19146,-1.91355 1.02032,-2.49722 l 0,-0.0635 -4.55003,0 0,0.0635 c 1.18041,0.58367 1.01371,1.43461 1.01371,2.49722 l 0,10.06405 c 0,1.0623 0.16665,1.91829 -1.01371,2.49462 l 0,0.0717 1.67737,0 z"
       id="path620"
       style="fill:#aa0c31;fill-opacity:1;fill-rule:nonzero;stroke:none"
       inkscape:connector-curvature="0" /><path
       d="m 369.30801,795.3363 c 0,-1.31092 -0.0265,-2.21405 1.26945,-2.92387 l 0,-0.0727 -4.83226,0 0,0.0727 c 1.22002,0.43098 1.07968,2.11811 1.07968,3.1567 l 0,10.29934 -2.15783,0 c -1.04657,0 -2.14447,-0.25676 -2.9039,-0.92706 l -0.071,0 0.85512,2.74798 0.071,0 c 0.28734,-0.11138 0.60589,-0.11138 0.93109,-0.15921 l 0.60759,0 9.10826,0 c 0.41438,0 0.80405,0.0237 1.12425,0.15921 l 0.0693,0 -0.77919,-2.74798 -0.0759,0 c -0.30716,0.81565 -1.28941,0.92706 -2.10002,0.92706 l -2.19573,0 0,-10.53217 z"
       id="path622"
       style="fill:#aa0c31;fill-opacity:1;fill-rule:nonzero;stroke:none"
       inkscape:connector-curvature="0" /><path
       d="m 381.14357,797.34208 c 0,2.23715 -1.0665,4.39487 -3.6519,4.39487 -2.24686,0 -3.55605,-1.69547 -3.55605,-3.77068 0,-2.12657 1.18036,-4.40312 3.65839,-4.40312 2.22054,0 3.54956,1.70042 3.54956,3.77893 z m -9.79992,0.21466 c 0,3.46027 2.92377,5.70569 6.40896,5.70569 1.55193,0 2.87914,-0.39962 4.04806,-1.36537 1.22493,-1.04003 1.97777,-2.56551 1.97777,-4.13225 0,-3.32339 -2.89731,-5.7288 -6.31307,-5.7288 -3.30695,0 -6.12172,2.2453 -6.12172,5.52073 z"
       id="path624"
       style="fill:#aa0c31;fill-opacity:1;fill-rule:nonzero;stroke:none"
       inkscape:connector-curvature="0" /><path
       d="m 386.0651,807.53021 c 0.60589,0 1.23159,0 1.5832,0.36652 l 0.0693,0 0,-13.96708 c 0.67685,-0.16022 1.37181,-0.27078 2.07534,-0.27078 2.75692,0 4.33356,1.63781 4.33356,3.92263 0,2.23705 -1.23159,3.97214 -3.75253,3.97214 -0.81065,0 -1.42974,-0.18331 -2.10666,-0.51176 l 1.35212,1.96462 c 0.57464,0.18495 1.17548,0.25593 1.77476,0.25593 2.8545,0 5.2533,-2.10171 5.2533,-5.26491 0,-3.62883 -2.8463,-5.96151 -7.40443,-5.96151 -1.70382,0 -3.32498,0.25593 -4.55162,0.41604 l 0,0.071 c 0.82382,0.3204 0.74788,1.088 0.74788,1.84568 l 0,10.62079 c 0,1.06313 0.14687,1.89436 -0.92623,2.46883 l 0,0.0718 1.55193,0 z"
       id="path626"
       style="fill:#aa0c31;fill-opacity:1;fill-rule:nonzero;stroke:none"
       inkscape:connector-curvature="0" /><path
       d="m 408.68794,792.03601 c -1.65421,0.0958 -3.31338,0.55963 -3.31338,2.40541 l 0,3.64368 c -0.72814,-0.34505 -1.57015,-0.52836 -2.40056,-0.71157 -1.20678,-0.25428 -2.5589,-0.51021 -2.5589,-1.9184 0,-1.42975 1.40318,-1.89198 2.73236,-1.89198 0.5993,0 1.20011,0.15836 1.806,0.3268 l -1.4875,-1.73499 c -0.42099,-0.071 -0.86826,-0.11898 -1.29601,-0.11898 -2.52754,0 -4.28915,1.47917 -4.28915,3.39591 0,4.2908 7.49376,2.30812 7.49376,4.82741 0,1.111 -1.47431,1.47762 -2.40056,1.47762 -1.2828,0 -2.28482,-0.43904 -3.40751,-0.92789 l 1.67732,2.30978 1.63446,0.14366 c 2.70089,0 4.74979,-0.71808 4.77455,-3.51485 l 0,-3.4604 c 0,-1.82101 0.0512,-2.51773 2.13297,-2.72404 l -1.09785,-1.52714 z"
       id="path628"
       style="fill:#aa0c31;fill-opacity:1;fill-rule:nonzero;stroke:none"
       inkscape:connector-curvature="0" /><path
       d="m 419.51484,800.60265 -0.0644,0 c -0.70157,0.76768 -1.85729,1.1343 -2.94357,1.1343 -2.32947,0 -3.8351,-1.57334 -3.8351,-3.77068 0,-2.65483 2.15597,-4.40312 4.82555,-4.40312 1.22514,0 2.57221,0.46223 3.50995,1.1343 l 0.071,0 -1.24474,-2.19744 c -1.00876,-0.36817 -2.12647,-0.464 -3.17985,-0.464 -3.7013,0 -6.58726,2.33268 -6.58726,5.33752 0,3.97224 3.22442,5.8889 6.85646,5.8889 0.86181,0 1.74839,-0.0958 2.59196,-0.27903 l 0,-2.38075 z"
       id="path630"
       style="fill:#aa0c31;fill-opacity:1;fill-rule:nonzero;stroke:none"
       inkscape:connector-curvature="0" /><path
       d="m 430.79417,800.60265 -0.0644,0 c -0.70168,0.76768 -1.85069,1.1343 -2.93537,1.1343 -2.33774,0 -3.74107,-1.62131 -3.74107,-3.8105 0,-2.66288 2.06199,-4.3633 4.72987,-4.3633 1.23159,0 2.57226,0.46223 3.50505,1.1343 l 0.0759,0 -1.25134,-2.19744 c -1.00222,-0.36817 -2.11327,-0.464 -3.17809,-0.464 -3.69642,0 -6.58248,2.33268 -6.58248,5.33752 0,3.97224 3.22427,5.8889 6.85651,5.8889 0.86188,0 1.75495,-0.0958 2.5854,-0.27903 l 0,-2.38075 z"
       id="path632"
       style="fill:#aa0c31;fill-opacity:1;fill-rule:nonzero;stroke:none"
       inkscape:connector-curvature="0" /><path
       d="m 442.72546,797.34208 c 0,2.23715 -1.04828,4.39487 -3.63374,4.39487 -2.25346,0 -3.53631,-1.64597 -3.53631,-3.72282 0,-2.12647 1.16226,-4.45098 3.63204,-4.45098 2.2223,0 3.53801,1.70042 3.53801,3.77893 z m -9.78021,0.21466 c 0,3.46027 2.92381,5.70569 6.40905,5.70569 1.54519,0 2.87925,-0.39962 4.03492,-1.36537 1.23153,-1.04003 1.97777,-2.56551 1.97777,-4.13225 0,-3.32339 -2.89086,-5.7288 -6.30669,-5.7288 -3.31333,0 -6.11505,2.2453 -6.11505,5.52073 z"
       id="path634"
       style="fill:#aa0c31;fill-opacity:1;fill-rule:nonzero;stroke:none"
       inkscape:connector-curvature="0" /><path
       d="m 344.88881,787.67424 c 0,0 4.22637,0.11223 5.34743,4.23303 l 12.54062,47.29466 c 1.09295,3.87973 4.01511,4.10254 4.01511,4.10254 l -14.44748,0 c -2.55896,-0.11155 -6.83988,-0.44327 -8.07142,-4.5623 l -11.82571,-45.58845 c -1.51897,-5.61656 -3.80379,-5.50598 -3.80379,-5.50598 l 16.24524,0.0265 z"
       id="path636"
       style="fill:#aa0c31;fill-opacity:1;fill-rule:nonzero;stroke:none"
       inkscape:connector-curvature="0" /><path
       d="m 322.85036,787.68239 c 0,0 4.22642,0.1107 5.34577,4.22488 l 12.54382,47.29788 c 1.0881,3.87971 4.01191,4.10262 4.01191,4.10262 l -14.44577,0 c -2.5573,-0.11155 -6.83988,-0.44325 -8.07157,-4.56251 l -11.82571,-45.5833 c -1.5188,-5.6248 -3.81043,-5.51422 -3.81043,-5.51422 l 16.25198,0.0346 z"
       id="path638"
       style="fill:#aa0c31;fill-opacity:1;fill-rule:nonzero;stroke:none"
       inkscape:connector-curvature="0" /><path
       d="m 314.94728,846.95137 c 0,0 4.25118,8.01463 8.51893,11.37836 3.99519,3.16659 9.68443,5.78987 16.805,6.0135 7.11713,0.22386 11.24122,-1.11356 15.03176,-2.67112 3.77903,-1.56108 10.89626,-6.56921 12.79811,-7.90303 1.88379,-1.33743 6.91416,-5.19145 10.90941,-6.56839 7.97921,-2.75294 11.65582,0.0825 11.65582,0.0825 0,0 -4.49387,-4.11409 -7.99237,-6.31648 0,0 -4.11074,-3.36704 -9.95181,-3.78399 -5.60997,-0.40365 -11.41308,2.56159 -11.41308,2.56159 -3.89942,2.00164 -11.39637,6.1538 -14.55961,7.62398 -8.26304,3.83753 -11.99411,5.28058 -20.44526,4.34206 -6.02109,-0.67042 -11.3569,-4.75891 -11.3569,-4.75891 z"
       id="path640"
       style="fill:#aa0c31;fill-opacity:1;fill-rule:nonzero;stroke:none"
       inkscape:connector-curvature="0" /><path
       d="m 196.49447,756.58196 c 10.63541,0 16.4286,-5.5621 16.4286,-12.78655 0,-6.9836 -6.10602,-12.4547 -12.62733,-13.96698 l 11.44273,-14.36661 c 3.32588,-4.13389 8.32743,-8.25644 12.8502,-11.11748 l -7.30309,0 c -4.20323,0 -6.82328,1.03528 -9.20481,3.9707 l -9.68695,11.98916 -7.30289,11.19649 c 6.35531,0.951 13.73753,3.88137 13.73753,11.34381 0,5.71218 -4.92136,9.05538 -10.23586,8.81596 -1.83258,-0.0808 -3.581,-0.32185 -5.40354,-0.6406 l 0,-35.55804 c 0,-3.65513 -0.47881,-9.445 3.57096,-10.87465 l 0,-0.24283 -15.15731,0 0,0.24283 c 4.04404,1.42965 3.48509,7.30368 3.48509,10.87465 l 0,29.92343 c 0,3.65029 0.55895,9.44501 -3.48509,10.95739 l 0,0.23932 18.89176,0 z"
       id="path642"
       style="fill:#aa0c31;fill-opacity:1;fill-rule:nonzero;stroke:none"
       inkscape:connector-curvature="0" /><path
       d="m 232.3703,711.00927 10.08562,-0.95099 c 5.24096,-0.47215 10.71469,1.19373 14.68514,4.68547 l 0.24274,0 -3.58095,-10.39941 -33.09893,0 0,0.24283 c 4.04398,1.42965 3.57183,7.30368 3.57183,10.87465 l 0,29.92343 c 0,3.65029 0.47215,9.44501 -3.57183,10.95739 l 0,0.23932 25.40396,0 c 1.34963,0 2.69341,-0.16022 3.73107,0.39787 l 0.23944,0 0,-9.28986 -0.23944,0 c -2.46162,2.85939 -5.71966,3.1698 -9.36505,3.1698 -2.78012,0 -5.56021,-0.071 -8.1036,-0.55149 l 0,-14.76757 9.4476,0 c 1.27695,0 2.5408,0 3.49828,0.47876 l 0.23944,0 0,-8.41324 -0.23944,0 c -1.27705,2.30143 -4.60291,2.2222 -7.06348,2.2222 l -5.8824,0 0,-18.81916 z"
       id="path644"
       style="fill:#aa0c31;fill-opacity:1;fill-rule:nonzero;stroke:none"
       inkscape:connector-curvature="0" /><path
       d="m 273.65214,711.00927 10.08239,-0.95099 c 5.24502,-0.47215 10.71462,1.19373 14.68852,4.68547 l 0.23941,0 -3.58105,-10.39941 -33.09485,0 0,0.24283 c 4.04083,1.42965 3.56205,7.30368 3.56205,10.87465 l 0,29.92343 c 0,3.65029 0.47878,9.44501 -3.56205,10.95739 l 0,0.23932 25.39336,0 c 1.35694,0 2.70084,-0.16022 3.73762,0.39787 l 0.24262,0 0,-9.28986 -0.24262,0 c -2.4616,2.85939 -5.71881,3.1698 -9.36418,3.1698 -2.78014,0 -5.56032,-0.071 -8.10122,-0.55149 l 0,-14.76757 9.44501,0 c 1.26961,0 2.54095,0 3.49193,0.47876 l 0.23937,0 0,-8.41324 -0.23937,0 c -1.27134,2.30143 -4.60293,2.2222 -7.0644,2.2222 l -5.87254,0 0,-18.81916 z"
       id="path646"
       style="fill:#aa0c31;fill-opacity:1;fill-rule:nonzero;stroke:none"
       inkscape:connector-curvature="0" /><path
       d="m 349.69961,751.57969 c 0.63246,1.66907 1.19038,3.25057 1.19038,4.9214 l 0,0.0808 13.73915,0 0,-0.23932 c -1.915,-0.56139 -2.46478,-2.86117 -2.46478,-4.68218 l 5.23515,-38.9788 c 0.47875,-3.73438 0.87998,-5.8724 4.05297,-8.09449 l 0,-0.24284 -15.32075,0 0,0.24284 c 2.77696,0.86836 3.24912,3.24901 3.24912,5.94985 l -4.51872,38.26239 -17.78057,-45.48199 c -3.97064,3.01319 -5.07993,5.15101 -6.99184,9.60024 l -15.07801,35.79912 -4.52363,-34.12663 c -0.63733,-4.84052 -1.19694,-8.34227 2.5408,-10.00298 l 0,-0.24284 -12.94504,0 0,0.24284 c 3.34158,2.93035 3.81373,6.82494 4.44263,11.11408 l 4.52193,33.25837 c 0.32361,2.22034 1.20031,5.40024 -2.45979,7.38302 l 0,0.23932 13.89601,0 0,-0.0808 c 0,-1.26967 0.63224,-2.45998 1.11103,-3.57098 l 14.92783,-35.00666 13.17613,33.65624 z"
       id="path648"
       style="fill:#aa0c31;fill-opacity:1;fill-rule:nonzero;stroke:none"
       inkscape:connector-curvature="0" /><path
       d="m 393.2005,714.66123 c 0,-4.52032 -0.0825,-7.61584 4.13054,-10.07406 l 0,-0.24283 -15.72193,0 0,0.24283 c 3.9772,1.50721 3.49844,7.30368 3.49844,10.87465 l 0,35.39795 -6.98352,0 c -3.42244,0 -6.98339,-0.87168 -9.44843,-3.1698 l -0.23602,0 2.77688,9.4418 0.23602,0 c 0.9444,-0.39136 1.98607,-0.39136 3.00634,-0.54981 l 1.99287,0 29.60618,0 c 1.35887,0 2.61687,0.0793 3.65694,0.54981 l 0.23127,0 -2.52934,-9.4418 -0.24272,0 c -1.04003,2.77862 -4.21151,3.1698 -6.82328,3.1698 l -7.15024,0 0,-36.19854 z"
       id="path650"
       style="fill:#aa0c31;fill-opacity:1;fill-rule:nonzero;stroke:none"
       inkscape:connector-curvature="0" /><path
       d="m 441.86363,747.13685 c -3.09051,3.17143 -8.0185,4.99411 -12.46795,4.99411 -4.52021,0 -10.23245,-1.7417 -10.23245,-7.22445 0,-10.87477 27.30164,-10.71466 27.30164,-25.39982 0,-8.49742 -8.89209,-16.4318 -21.2756,-16.4318 -4.84573,0 -9.69119,0.71157 -14.20975,2.38065 l -2.30478,9.92706 c 4.68541,-4.05467 11.19665,-6.59377 17.38935,-6.59377 4.52527,0 11.34861,2.6992 11.34861,8.26274 0,12.37723 -27.30822,10.15679 -27.30822,26.98645 0,10.00309 10.23906,13.81349 19.92359,13.81349 3.97715,0 8.02368,-0.55798 11.83556,-1.74831 l 0,-8.96635 z"
       id="path652"
       style="fill:#aa0c31;fill-opacity:1;fill-rule:nonzero;stroke:none"
       inkscape:connector-curvature="0" /><path
       d="m 498.93852,751.57969 c 0.63065,1.66907 1.18697,3.25057 1.18697,4.9214 l 0,0.0808 13.73096,0 0,-0.23932 c -1.90186,-0.56139 -2.45169,-2.86117 -2.45169,-4.68218 l 5.2352,-38.9788 c 0.47221,-3.73438 0.86678,-5.8724 4.05297,-8.09449 l 0,-0.24284 -15.32736,0 0,0.24284 c 2.77693,0.86836 3.25567,3.24901 3.25567,5.94985 l -4.51855,38.26239 -17.78563,-45.48199 c -3.96398,3.01319 -5.08654,5.15101 -6.98353,9.60024 l -15.08969,35.79912 -4.52021,-34.12663 c -0.6373,-4.84052 -1.19373,-8.34227 2.54075,-10.00298 l 0,-0.24284 -12.94506,0 0,0.24284 c 3.33825,2.93035 3.81705,6.82494 4.4493,11.11408 l 4.52532,33.25837 c 0.31864,2.22034 1.18697,5.40024 -2.45822,7.38302 l 0,0.23932 13.89099,0 0,-0.0808 c 0,-1.26967 0.63885,-2.45998 1.11105,-3.57098 l 14.91787,-35.00666 13.18289,33.65624 z"
       id="path654"
       style="fill:#aa0c31;fill-opacity:1;fill-rule:nonzero;stroke:none"
       inkscape:connector-curvature="0" /><path
       d="m 548.07242,749.82789 -7.85198,-19.99946 15.6262,0 -7.77422,19.99946 z m -9.92061,-25.87196 -4.12421,-11.19671 c -1.67231,-4.44418 -2.22694,-6.7424 1.59001,-8.17205 l 0,-0.24283 -14.60603,0 0,0.24283 c 4.6029,2.29812 5.94336,6.74076 7.69181,11.26758 l 13.25875,33.10487 c 1.11766,2.85939 2.61838,6.19269 -1.19373,7.38302 l 0,0.23932 12.55065,0 16.50777,-40.72721 c 1.82591,-4.52682 3.24896,-8.96946 7.77588,-11.26758 l 0,-0.24283 -16.27171,0 0,0.24283 c 3.89303,1.74344 3.26052,2.61821 1.10951,8.17205 l -4.28909,11.19671 -19.99961,0 z"
       id="path656"
       style="fill:#aa0c31;fill-opacity:1;fill-rule:nonzero;stroke:none"
       inkscape:connector-curvature="0" /></g></svg>