<?xml version="1.0" encoding="UTF-8" standalone="no"?>
<!-- Generator: Adobe Illustrator 14.0.0, SVG Export Plug-In . SVG Version: 6.00 Build 43363)  -->

<svg
   xmlns:dc="http://purl.org/dc/elements/1.1/"
   xmlns:cc="http://creativecommons.org/ns#"
   xmlns:rdf="http://www.w3.org/1999/02/22-rdf-syntax-ns#"
   xmlns:svg="http://www.w3.org/2000/svg"
   xmlns="http://www.w3.org/2000/svg"
   xmlns:xlink="http://www.w3.org/1999/xlink"
   xmlns:sodipodi="http://sodipodi.sourceforge.net/DTD/sodipodi-0.dtd"
   xmlns:inkscape="http://www.inkscape.org/namespaces/inkscape"
   version="1.1"
   id="Layer_1"
   x="0px"
   y="0px"
   width="250"
   height="56.221359"
   viewBox="0 0 249.99999 56.221361"
   enable-background="new 0 0 170.279 38.28"
   xml:space="preserve"
   inkscape:version="0.91 r13725"
   sodipodi:docname="logo-dhl.svg"><metadata
     id="metadata43"><rdf:RDF><cc:Work
         rdf:about=""><dc:format>image/svg+xml</dc:format><dc:type
           rdf:resource="http://purl.org/dc/dcmitype/StillImage" /><dc:title></dc:title></cc:Work></rdf:RDF></metadata><defs
     id="defs41" /><sodipodi:namedview
     pagecolor="#ffffff"
     bordercolor="#666666"
     borderopacity="1"
     objecttolerance="10"
     gridtolerance="10"
     guidetolerance="10"
     inkscape:pageopacity="0"
     inkscape:pageshadow="2"
     inkscape:window-width="1920"
     inkscape:window-height="1028"
     id="namedview39"
     showgrid="false"
     fit-margin-top="0"
     fit-margin-left="0"
     fit-margin-right="0"
     fit-margin-bottom="0"
     inkscape:zoom="2.0965591"
     inkscape:cx="85.139503"
     inkscape:cy="19.14"
     inkscape:window-x="0"
     inkscape:window-y="0"
     inkscape:window-maximized="1"
     inkscape:current-layer="Layer_1" /><g
     id="g3"
     transform="scale(1.4686876,1.4686876)"><defs
       id="defs5"><rect
         id="SVGID_1_"
         width="170.27901"
         height="38.279999"
         x="0"
         y="0" /></defs><clipPath
       id="SVGID_2_"><use
         xlink:href="#SVGID_1_"
         overflow="visible"
         id="use9"
         style="overflow:visible"
         x="0"
         y="0"
         width="100%"
         height="100%" /></clipPath><path
       clip-path="url(#SVGID_2_)"
       d="m 170.22,-0.06 0,38.34 -21.24,0 c -42.58,0 -85.16,0 -127.74,0 l -21.24,0 0,-38.34 21.239,0 c 42.58,0 85.16,0 127.74,0 l 21.241,0"
       id="path11"
       inkscape:connector-curvature="0"
       style="fill:#ffcc00" /></g><path
     d="m 43.971037,10.045823 -7.929444,11.103278 43.884385,0 c 0.505229,0.186524 1.389379,-0.04259 1.40994,0.793091 l 0,0.352486 c -1.506873,2.648043 -3.640876,5.097814 -5.288744,7.666549 l 0,0.264363 -0.08812,0.176243 0.08812,0.08812 c 0.02937,0.86212 1.797674,0.831277 2.379274,0.793091 l 17.800494,0 5.287278,-7.314064 0.26583,-0.440606 c 1.38938,-2.289684 1.22929,-5.294619 -0.0896,-7.578428 l -0.26436,-0.616849 -0.44061,-0.528727 C 98.569498,11.225179 94.151686,10.101633 90.058454,10.045823 l -46.087417,0"
     id="path13"
     inkscape:connector-curvature="0"
     style="clip-rule:evenodd;fill:#d40511;fill-rule:evenodd" /><path
     d="m 32.779638,46.087416 16.038068,-22.206556 20.269358,0 c 1.816766,0.155681 1.752144,0.960522 0.703501,2.291153 l -4.053578,5.727881 -0.176242,0.264364 -0.264364,0.352485 -0.08959,0.176243 0,0.70497 0.08959,0.176242 0.176243,0.176243 0.264363,0.08812 0.353954,0.08812 0.440606,0.08812 0.176243,0 0.264364,0.08812 27.229467,0 -0.440606,0.616848 c -5.037598,6.79856 -13.269592,11.623199 -21.854071,11.367647 l -39.127306,0"
     id="path15"
     inkscape:connector-curvature="0"
     style="clip-rule:evenodd;fill:#d40511;fill-rule:evenodd" /><polyline
     points="84.899,23.22 78.96,31.38 63.359,31.38 69.239,23.22   84.899,23.22 "
     id="polyline17"
     transform="scale(1.4686876,1.4686876)"
     style="clip-rule:evenodd;fill:#d40511;fill-rule:evenodd" /><polyline
     points="108.84,21.3 70.56,21.3 81.06,6.84 96.659,6.84   90.659,15.18 97.619,15.18 103.619,6.84 119.279,6.84 108.84,21.3 "
     id="polyline19"
     transform="scale(1.4686876,1.4686876)"
     style="clip-rule:evenodd;fill:#d40511;fill-rule:evenodd" /><polyline
     points="107.46,23.22 101.52,31.38 85.92,31.38 91.859,23.22   107.46,23.22 "
     id="polyline21"
     transform="scale(1.4686876,1.4686876)"
     style="clip-rule:evenodd;fill:#d40511;fill-rule:evenodd" /><polyline
     points="0,26.4 23.04,26.4 21.779,28.2 0,28.2 0,26.4 "
     id="polyline23"
     transform="scale(1.4686876,1.4686876)"
     style="clip-rule:evenodd;fill:#d40511;fill-rule:evenodd" /><polyline
     points="0,23.22 25.38,23.22 24.119,24.9 0,24.9 0,23.22 "
     id="polyline25"
     transform="scale(1.4686876,1.4686876)"
     style="clip-rule:evenodd;fill:#d40511;fill-rule:evenodd" /><polyline
     points="0,29.64 20.699,29.64 19.439,31.38 0,31.38 0,29.64 "
     id="polyline27"
     transform="scale(1.4686876,1.4686876)"
     style="clip-rule:evenodd;fill:#d40511;fill-rule:evenodd" /><polyline
     points="170.22,28.2 147.3,28.2 148.56,26.4 170.22,26.4   170.22,28.2 "
     id="polyline29"
     transform="scale(1.4686876,1.4686876)"
     style="clip-rule:evenodd;fill:#d40511;fill-rule:evenodd" /><polyline
     points="170.22,31.38 144.96,31.38 146.279,29.64 170.22,29.64   170.22,31.38 "
     id="polyline31"
     transform="scale(1.4686876,1.4686876)"
     style="clip-rule:evenodd;fill:#d40511;fill-rule:evenodd" /><polyline
     points="150.899,23.22 170.22,23.22 170.22,24.9 149.699,24.9   150.899,23.22 "
     id="polyline33"
     transform="scale(1.4686876,1.4686876)"
     style="clip-rule:evenodd;fill:#d40511;fill-rule:evenodd" /><polyline
     points="140.939,6.84 130.439,21.3 113.88,21.3 124.38,6.84   140.939,6.84 "
     id="polyline35"
     transform="scale(1.4686876,1.4686876)"
     style="clip-rule:evenodd;fill:#d40511;fill-rule:evenodd" /><path
     d="m 165.31547,34.102926 -2.46739,3.436729 c -4.27535,6.253671 4.20485,8.89584 9.07649,8.547761 l 36.83468,0 8.72401,-11.98449 -52.16779,0"
     id="path37"
     inkscape:connector-curvature="0"
     style="clip-rule:evenodd;fill:#d40511;fill-rule:evenodd" /></svg>