<?xml version="1.0" encoding="UTF-8" standalone="no"?>
<!-- Created with Inkscape (http://www.inkscape.org/) -->

<svg
   xmlns:dc="http://purl.org/dc/elements/1.1/"
   xmlns:cc="http://creativecommons.org/ns#"
   xmlns:rdf="http://www.w3.org/1999/02/22-rdf-syntax-ns#"
   xmlns:svg="http://www.w3.org/2000/svg"
   xmlns="http://www.w3.org/2000/svg"
   xmlns:sodipodi="http://sodipodi.sourceforge.net/DTD/sodipodi-0.dtd"
   xmlns:inkscape="http://www.inkscape.org/namespaces/inkscape"
   id="svg2985"
   version="1.1"
   inkscape:version="0.91 r13725"
   width="149.99864"
   height="100"
   sodipodi:docname="logo-china-shipping.svg">
  <metadata
     id="metadata2991">
    <rdf:RDF>
      <cc:Work
         rdf:about="">
        <dc:format>image/svg+xml</dc:format>
        <dc:type
           rdf:resource="http://purl.org/dc/dcmitype/StillImage" />
        <dc:title></dc:title>
      </cc:Work>
    </rdf:RDF>
  </metadata>
  <defs
     id="defs2989" />
  <sodipodi:namedview
     pagecolor="#ffffff"
     bordercolor="#666666"
     borderopacity="1"
     objecttolerance="10"
     gridtolerance="10"
     guidetolerance="10"
     inkscape:pageopacity="0"
     inkscape:pageshadow="2"
     inkscape:window-width="1920"
     inkscape:window-height="1028"
     id="namedview2987"
     showgrid="false"
     inkscape:zoom="0.87830106"
     inkscape:cx="216.80832"
     inkscape:cy="-101.75276"
     inkscape:window-x="0"
     inkscape:window-y="0"
     inkscape:window-maximized="1"
     inkscape:current-layer="svg2985"
     fit-margin-top="0"
     fit-margin-left="0"
     fit-margin-right="0"
     fit-margin-bottom="0" />
  <path
     style="fill:#003abd;fill-opacity:1;stroke:none"
     d="m 56.274376,0 37.172664,0 0.177907,12.441761 50.522173,0 c 0,0 2.79732,-0.09613 4.30872,1.415272 1.5114,1.511408 1.54108,4.497425 1.54108,4.497425 l 0,19.121914 -25.03461,0 0,-2.516041 -31.198917,0 0,5.032082 56.233527,0 0,42.127477 c 0,0 0.10101,2.18867 -1.24537,3.6987 -1.34645,1.51004 -3.74297,1.6012 -3.74297,1.6012 l -51.245187,0 0,12.58021 -37.614818,0 0,-12.58021 -50.4008434,0 c 0,0 -2.2770993,0.42073 -4.0714527,-1.44356 -1.79435332,-1.8643 -1.63542732,-3.85037 -1.63542732,-3.85037 l 0,-62.791695 c 0,0 -0.48514933,-2.49197 1.88834002,-4.878262 2.37349,-2.386292 4.8420717,-2.014142 4.8420717,-2.014142 l 45.7290517,0 0,22.644372 -27.676456,0 0,30.947307 31.463051,0 0,-3.521 37.450263,0 0,2.49075 31.223377,0 0,-5.07046 -68.67364,0 z"
     id="path3765"
     inkscape:connector-curvature="0"
     sodipodi:nodetypes="cccczcccccccczcccccczcczccccccccccccc" />
</svg>
