<?xml version="1.0" encoding="UTF-8" standalone="no"?>
<!-- Created with Inkscape (http://www.inkscape.org/) -->

<svg
   xmlns:dc="http://purl.org/dc/elements/1.1/"
   xmlns:cc="http://creativecommons.org/ns#"
   xmlns:rdf="http://www.w3.org/1999/02/22-rdf-syntax-ns#"
   xmlns:svg="http://www.w3.org/2000/svg"
   xmlns="http://www.w3.org/2000/svg"
   xmlns:sodipodi="http://sodipodi.sourceforge.net/DTD/sodipodi-0.dtd"
   xmlns:inkscape="http://www.inkscape.org/namespaces/inkscape"
   version="1.0"
   width="250"
   height="52.03146"
   id="svg2772"
   inkscape:version="0.91 r13725"
   sodipodi:docname="logo-kuehne-nagel.svg">
  <metadata
     id="metadata36">
    <rdf:RDF>
      <cc:Work
         rdf:about="">
        <dc:format>image/svg+xml</dc:format>
        <dc:type
           rdf:resource="http://purl.org/dc/dcmitype/StillImage" />
        <dc:title></dc:title>
      </cc:Work>
    </rdf:RDF>
  </metadata>
  <sodipodi:namedview
     pagecolor="#ffffff"
     bordercolor="#666666"
     borderopacity="1"
     objecttolerance="10"
     gridtolerance="10"
     guidetolerance="10"
     inkscape:pageopacity="0"
     inkscape:pageshadow="2"
     inkscape:window-width="1920"
     inkscape:window-height="1028"
     id="namedview34"
     showgrid="false"
     fit-margin-top="0"
     fit-margin-left="0"
     fit-margin-right="0"
     fit-margin-bottom="0"
     inkscape:zoom="0.37098602"
     inkscape:cx="481.15021"
     inkscape:cy="100.13979"
     inkscape:window-x="0"
     inkscape:window-y="0"
     inkscape:window-maximized="1"
     inkscape:current-layer="svg2772" />
  <defs
     id="defs2774">
    <clipPath
       id="clipPath19">
      <path
         d="m 0.059998,841.89 1234.428002,0 0,-841.83 -1234.428002,0 0,841.83 z"
         id="path21"
         inkscape:connector-curvature="0" />
    </clipPath>
    <clipPath
       id="clipPath209">
      <path
         d="m 0.059998,841.89 1234.428002,0 0,-841.83 -1234.428002,0 0,841.83 z"
         id="path211"
         inkscape:connector-curvature="0" />
    </clipPath>
    <clipPath
       id="clipPath203">
      <path
         d="m 1112.943,101.779 130.21,0 0,-100.35 -130.21,0 0,100.35 z"
         id="path205"
         inkscape:connector-curvature="0" />
    </clipPath>
    <clipPath
       id="clipPath197">
      <path
         d="m 1196.148,79.751 -354.492,0 0,-45.612 354.492,0 0,45.612 z"
         id="path199"
         inkscape:connector-curvature="0" />
    </clipPath>
    <clipPath
       id="clipPath237">
      <path
         d="m 0.059998,841.89 1234.428002,0 0,-841.83 -1234.428002,0 0,841.83 z"
         id="path239"
         inkscape:connector-curvature="0" />
    </clipPath>
    <clipPath
       id="clipPath231">
      <path
         d="m 660.983,81.264 202.929,0 0,-47.031 -202.929,0 0,47.031 z"
         id="path233"
         inkscape:connector-curvature="0" />
    </clipPath>
    <clipPath
       id="clipPath225">
      <path
         d="m 1039.176,79.658 -354.492,0 0,-45.612 354.492,0 0,45.612 z"
         id="path227"
         inkscape:connector-curvature="0" />
    </clipPath>
  </defs>
  <g
     transform="matrix(0.25979413,0,0,0.25979413,66.510841,-55.602667)"
     id="layer1">
    <rect
       width="962.30042"
       height="200.27959"
       x="-256.01364"
       y="214.02588"
       id="rect2837"
       style="fill:#003d79;fill-opacity:1;fill-rule:nonzero;stroke:none;stroke-width:0.63599998;stroke-miterlimit:4;stroke-dasharray:none;stroke-opacity:1" />
    <path
       d="m 522.0898,315.80387 0.0849,3.18909 c 0.66809,14.18111 5.76547,28.1629 14.55392,39.32841 l 1.87876,2.29215 -10.70782,12.01815 -2.61696,-2.94548 c -45.30056,-53.95983 -9.30151,-133.76087 61.74061,-138.02036 l 4.49941,-0.0812 4.41453,0.0812 c 71.08641,4.29272 107.04117,84.01623 61.7406,138.02036 l -2.61327,2.94548 -10.71519,-12.01815 1.88245,-2.29215 1.79754,-2.36968 c 24.83356,-35.27191 12.33557,-83.81693 -26.49453,-102.70046 l -3.03037,-1.38784 -3.18539,-1.22545 c -42.45475,-15.54311 -88.22778,13.11439 -92.81947,58.05323 l -0.24361,3.5139 -0.16609,3.5988"
       id="path215"
       style="fill:#00b9f2;fill-opacity:1;fill-rule:evenodd;stroke:none"
       inkscape:connector-curvature="0" />
    <path
       d="m 569.5238,306.88992 13.49457,0 0,-1.71635 -1.22544,-0.57212 -1.14423,-0.73821 c -15.83101,-10.74471 -8.71463,-33.825 9.81088,-34.99507 l 2.04486,0 c 18.51811,1.17007 25.6751,24.27988 9.81456,34.99507 l -1.14792,0.73821 -1.22544,0.57212 0,1.71635 13.49457,0 0,10.3018 -13.49457,0 0,67.37687 2.45087,-0.3285 c 11.15812,-1.6979 21.81057,-6.32651 30.83524,-13.08117 l 1.87876,-1.47275 10.14308,11.85575 -2.78308,2.12606 c -30.34802,21.70352 -71.62161,21.69244 -101.97701,0 l -2.77938,-2.12606 10.13938,-11.85575 1.88245,1.47275 c 9.04313,6.71775 19.65867,11.40173 30.82786,13.08117 l 2.45456,0.3285 0,-67.37687 -13.49457,0 0,-10.3018 z m 14.39519,-18.88722 0.0812,0.73452 0.0812,0.73453 c 1.91197,8.43779 13.87475,7.88782 14.8861,-0.73453 l 0.0775,-0.73452 -0.0775,-0.81942 c -0.97075,-8.58175 -13.01472,-9.12065 -14.8861,-0.73452 l -0.0812,0.73452 -0.0812,0.81942"
       id="path219"
       style="fill:#ffffff;fill-opacity:1;fill-rule:evenodd;stroke:none"
       inkscape:connector-curvature="0" />
    <path
       d="m -48.066641,345.42106 12.922453,0 0,-20.60359 16.927269,0 0,20.60359 12.9224533,0 0,-49.55268 -12.9224533,0 0,18.2339 -16.927269,0 0,-18.2339 -12.922453,0 0,49.55268"
       id="path243"
       style="fill:#ffffff;fill-opacity:1;fill-rule:evenodd;stroke:none"
       inkscape:connector-curvature="0" />
    <path
       d="m 8.9309412,345.42106 12.1030348,0 0,-31.15268 17.418181,31.15268 13.166064,0 0,-49.55268 -12.103034,0 0,30.74665 -17.336978,-30.74665 -13.2472678,0 0,49.55268"
       id="path247"
       style="fill:#ffffff;fill-opacity:1;fill-rule:evenodd;stroke:none"
       inkscape:connector-curvature="0" />
    <path
       d="m 65.851005,345.42106 37.372135,0 0,-10.63031 -24.453372,0 0,-9.89576 20.36735,0 0,-10.05449 -20.36735,0 0,-8.83274 23.390342,0 0,-10.13938 -36.309105,0 0,49.55268"
       id="path251"
       style="fill:#ffffff;fill-opacity:1;fill-rule:evenodd;stroke:none"
       inkscape:connector-curvature="0" />
    <path
       d="m 321.49116,340.02101 0,-22.15752 -20.69217,0 0,9.48237 8.34183,0 0,7.2788 -0.56842,0.4097 -0.73821,0.32482 c -13.81201,5.07153 -20.13851,-4.3813 -18.97583,-17.66179 l 0.16611,-1.38784 0.2473,-1.47275 c 0.87848,-10.01388 12.47953,-13.98916 17.41818,-6.37817 l 0.65333,1.22543 0.49091,1.31033 13.08116,0 -0.1624,-1.06303 -0.24361,-0.98182 c -5.9537,-21.35287 -39.15123,-19.24895 -43.83521,3.76121 l -0.24362,1.22912 -0.2473,1.30665 c -3.79811,27.75688 19.16406,39.5314 42.60608,26.81934 l 1.55394,-1.14422 1.14793,-0.90063"
       id="path255"
       style="fill:#ffffff;fill-opacity:1;fill-rule:evenodd;stroke:none"
       inkscape:connector-curvature="0" />
    <path
       d="m 334.24751,345.42106 37.37582,0 0,-10.63031 -24.45337,0 0,-9.89576 20.36365,0 0,-10.05449 -20.36365,0 0,-8.83274 23.38665,0 0,-10.13938 -36.3091,0 0,49.55268"
       id="path259"
       style="fill:#ffffff;fill-opacity:1;fill-rule:evenodd;stroke:none"
       inkscape:connector-curvature="0" />
    <path
       d="m 383.31296,345.42106 35.24608,0 0,-10.63031 -22.40852,0 0,-38.92237 -12.83756,0 0,49.55268"
       id="path263"
       style="fill:#ffffff;fill-opacity:1;fill-rule:evenodd;stroke:none"
       inkscape:connector-curvature="0" />
    <path
       d="m 170.5262,345.42106 12.10303,0 0,-31.15268 17.41818,31.15268 13.24727,0 0,-49.55268 -12.18424,0 0,30.74665 -17.33698,-30.74665 -13.24726,0 0,49.55268"
       id="path267"
       style="fill:#ffffff;fill-opacity:1;fill-rule:evenodd;stroke:none"
       inkscape:connector-curvature="0" />
    <path
       d="m 240.93714,295.86838 11.85942,0 19.95396,49.55268 -14.314,0 -3.27029,-9.24245 -19.38183,0 -3.2703,9.24245 -13.25095,0 19.87644,-49.55268 1.79755,0 z m 10.8776,30.74296 -6.21577,-17.66179 -6.38187,17.66179 12.59764,0"
       id="path271"
       style="fill:#ffffff;fill-opacity:1;fill-rule:evenodd;stroke:none"
       inkscape:connector-curvature="0" />
    <path
       d="m 140.26676,345.42106 -7.52241,0 0,-19.62545 -19.30063,0 0,-6.95029 19.30063,0 0,-19.62176 7.52241,0 0,19.62176 19.30063,0 0,6.95029 -19.30063,0 0,19.62545"
       id="path275"
       style="fill:#00b9f2;fill-opacity:1;fill-rule:evenodd;stroke:none"
       inkscape:connector-curvature="0" />
    <path
       d="m -95.334539,344.92645 37.290922,0 0,-10.5454 -24.372162,0 0,-9.97697 20.363655,0 0,-9.97698 -20.363655,0 0,-8.82905 23.390341,0 0,-10.22059 -36.309101,0 0,49.54899"
       id="path279"
       style="fill:#ffffff;fill-opacity:1;fill-rule:evenodd;stroke:none"
       inkscape:connector-curvature="0" />
    <path
       d="m -172.61457,295.86838 14.80121,0 -16.27394,19.78786 18.4812,29.76482 -15.61693,0 -11.04001,-19.87275 -4.82793,5.80607 0,14.06668 -13.16606,0 0,-49.55268 13.16606,0 0,19.45935 14.4764,-19.45935"
       id="path283"
       style="fill:#ffffff;fill-opacity:1;fill-rule:evenodd;stroke:none"
       inkscape:connector-curvature="0" />
    <path
       d="m -107.35636,295.86838 -12.91876,0 0,30.17084 -0.0849,1.14424 c -0.0886,4.96081 -2.25155,8.13513 -7.4412,8.42303 l -1.14423,0.0812 -1.14424,-0.0812 c -5.18226,-0.22885 -7.34155,-3.52129 -7.5261,-8.42303 l 0,-31.31508 -12.91876,0 0,29.27023 c -3.2223,29.09304 46.30454,29.05613 43.1782,0 l 0,-29.27023"
       id="path287"
       style="fill:#ffffff;fill-opacity:1;fill-rule:evenodd;stroke:none"
       inkscape:connector-curvature="0" />
  </g>
</svg>
