<?xml version="1.0" encoding="UTF-8" standalone="no"?>
<!-- Generator: Adobe Illustrator 14.0.0, SVG Export Plug-In . SVG Version: 6.00 Build 43363)  -->

<svg
   xmlns:dc="http://purl.org/dc/elements/1.1/"
   xmlns:cc="http://creativecommons.org/ns#"
   xmlns:rdf="http://www.w3.org/1999/02/22-rdf-syntax-ns#"
   xmlns:svg="http://www.w3.org/2000/svg"
   xmlns="http://www.w3.org/2000/svg"
   xmlns:sodipodi="http://sodipodi.sourceforge.net/DTD/sodipodi-0.dtd"
   xmlns:inkscape="http://www.inkscape.org/namespaces/inkscape"
   version="1.1"
   id="Ebene_1"
   x="0px"
   y="0px"
   width="250"
   height="106.61887"
   viewBox="0 0 250 106.61887"
   enable-background="new 0 0 1024 437"
   xml:space="preserve"
   inkscape:version="0.91 r13725"
   sodipodi:docname="logo-eurogate.svg"><metadata
     id="metadata31"><rdf:RDF><cc:Work
         rdf:about=""><dc:format>image/svg+xml</dc:format><dc:type
           rdf:resource="http://purl.org/dc/dcmitype/StillImage" /><dc:title></dc:title></cc:Work></rdf:RDF></metadata><defs
     id="defs29" /><sodipodi:namedview
     pagecolor="#ffffff"
     bordercolor="#666666"
     borderopacity="1"
     objecttolerance="10"
     gridtolerance="10"
     guidetolerance="10"
     inkscape:pageopacity="0"
     inkscape:pageshadow="2"
     inkscape:window-width="1920"
     inkscape:window-height="1028"
     id="namedview27"
     showgrid="false"
     fit-margin-top="0"
     fit-margin-left="0"
     fit-margin-right="0"
     fit-margin-bottom="0"
     inkscape:zoom="0.34863281"
     inkscape:cx="512.97962"
     inkscape:cy="218.614"
     inkscape:window-x="0"
     inkscape:window-y="0"
     inkscape:window-maximized="1"
     inkscape:current-layer="Ebene_1" /><path
     d="m 26.623259,39.97396 c 5.441242,-15.89122 20.6322,-27.33045 38.524619,-27.33045 17.88949,0 33.083621,11.43923 38.524862,27.33045 l 3.14715,0 C 100.41429,16.96785 78.945148,0.04905978 53.441385,0.04905978 27.940551,0.04905978 6.4714056,16.96785 0.06458895,39.97396 l 26.55867005,0"
     id="path3"
     inkscape:connector-curvature="0"
     style="fill:#004494" /><path
     d="m 26.623259,39.97396 c 5.441242,-15.89122 20.6322,-27.33045 38.524619,-27.33045 17.88949,0 33.083621,11.43923 38.524862,27.33045 l 3.14715,0 C 100.41429,16.96785 78.945148,0.04905978 53.441385,0.04905978 27.940551,0.04905978 6.4714056,16.96785 0.06458895,39.97396 l 26.55867005,0 z"
     id="path5"
     inkscape:connector-curvature="0"
     style="fill:none;stroke:#004494;stroke-width:0.09811956" /><path
     d="M 80.510667,66.66467 C 75.069425,82.55882 59.875294,93.99512 41.989222,93.99512 24.096559,93.99512 8.9058446,82.55907 3.4646025,66.66467 l -3.15202979,0 C 6.7228064,89.67688 28.191708,106.59104 53.692542,106.59104 c 25.504007,0 46.969978,-16.91416 53.379968,-39.92637 l -26.561843,0"
     id="path7"
     inkscape:connector-curvature="0"
     style="fill:#e2001a" /><path
     d="M 80.510667,66.66467 C 75.069425,82.55882 59.875294,93.99512 41.989222,93.99512 24.096559,93.99512 8.9058446,82.55907 3.4646025,66.66467 l -3.15202979,0 C 6.7228064,89.67688 28.191708,106.59104 53.692542,106.59104 c 25.504007,0 46.969978,-16.91416 53.379968,-39.92637 l -26.561843,0 z"
     id="path9"
     inkscape:connector-curvature="0"
     style="fill:none;stroke:#e2001a;stroke-width:0.0556499" /><polyline
     points="175.367,177.716 261.267,177.716 250.264,196.32 188.482,196.32 180.816,209.278 239.352,209.278 229.496,225.966   170.947,225.966 163.308,238.911 226.498,238.911 215.129,258.153 127.835,258.153 175.367,177.716 "
     id="polyline11"
     transform="matrix(0.2440785,0,0,0.2440785,0.23910508,-0.07127022)" /><path
     d="m 67.528132,43.30538 5.880339,0 -6.704592,11.34721 c -1.476431,2.49766 -1.183781,3.47471 1.225274,3.47471 l 5.813461,0 c 2.408811,0 3.859614,-0.97705 5.336289,-3.47471 l 6.704592,-11.34721 5.884977,0 -7.479542,12.64864 c -2.885984,4.88108 -6.726803,7.21032 -12.129725,7.21032 l -8.406796,0 c -5.403166,0 -6.488095,-2.32924 -3.60211,-7.21032 l 7.477833,-12.64864"
     id="path13"
     inkscape:connector-curvature="0" /><path
     d="m 148.64957,50.18181 c 3.4049,-5.75952 7.3536,-7.10879 12.64229,-7.10879 l 8.82051,0 c 6.66945,0 6.14785,2.45641 3.88207,6.28771 l -0.37222,0.63021 -5.77539,0 c 1.1645,-1.97289 0.22602,-2.22112 -1.64826,-2.22112 l -6.36093,0 c -2.95603,0 -4.15885,0.73834 -6.16689,4.13665 l -1.44787,2.44371 c -1.9951,3.38244 -1.6673,4.12395 1.28873,4.12395 l 6.25574,0 c 1.53061,0 3.21061,-0.24847 4.34362,-2.16375 l 0.34049,-0.57286 -7.2899,0 2.40882,-4.07294 13.17023,0 -3.31557,5.60356 c -3.32532,5.62918 -6.35116,5.89962 -12.96056,5.89962 l -7.04826,0 c -5.28845,0 -7.64307,-1.34927 -4.24159,-7.10244 l 3.47494,-5.88351"
     id="path15"
     inkscape:connector-curvature="0" /><polyline
     points="832.683,177.729 924.41,177.729 912.599,197.728 878.781,197.728 843.06,258.153 818.955,258.153 854.676,197.728   820.857,197.728 832.683,177.729 "
     id="polyline17"
     transform="matrix(0.2440785,0,0,0.2440785,0.23910508,-0.07127022)" /><polyline
     points="937.395,177.716 1023.281,177.716 1012.278,196.32 950.496,196.32 942.844,209.278 1001.366,209.278   991.511,225.966 932.975,225.966 925.322,238.911 988.512,238.911 977.144,258.153 889.849,258.153 937.395,177.716 "
     id="polyline19"
     transform="matrix(0.2440785,0,0,0.2440785,0.23910508,-0.07127022)" /><path
     d="m 109.26335,50.25503 -0.38662,0.65218 c -0.83523,1.40955 -1.80105,2.06197 -3.38707,2.06197 l -9.695773,0 2.827161,-4.7793 9.167582,0 c 1.85036,0 2.50425,0.32463 1.47472,2.06515 m 4.08075,-6.94647 -17.722044,0 -11.604957,19.62977 5.883512,0 3.007047,-5.08806 9.221282,0 c 1.82498,0 2.00486,0.6778 0.78911,2.73343 l -1.38735,2.35438 5.88205,0 1.96654,-3.32825 c 1.89649,-3.20451 0.90187,-3.99044 -0.65413,-4.31799 l 0.032,-0.0542 c 3.08661,-0.65242 4.58672,-2.20183 6.14907,-4.84301 l 0.73687,-1.25041 c 2.08931,-3.53182 2.23405,-5.83567 -2.29898,-5.83567 z"
     id="path21"
     inkscape:connector-curvature="0" /><path
     d="m 190.91323,55.24107 -7.50981,0 8.07607,-7.39485 -0.56626,7.39485 m -0.56016,-11.93569 -21.97488,19.63295 6.56132,0 3.77053,-3.46836 11.90077,0 -0.22259,3.46836 6.53569,0 1.07541,-19.63295 -7.64625,0 z"
     id="path23"
     inkscape:connector-curvature="0" /><path
     d="m 137.75122,52.05926 -1.25359,2.12251 c -1.68975,2.85742 -2.91478,3.94577 -5.68971,3.94577 l -7.50712,0 c -2.7764,0 -2.7144,-1.08835 -1.02464,-3.94577 l 1.25383,-2.12251 c 1.44787,-2.45006 2.91454,-3.94577 6.00531,-3.94577 l 6.87325,0 c 3.09589,0 2.79372,1.49547 1.34267,3.94577 m 2.90527,-8.98599 -9.4124,0 c -5.29089,0 -9.2413,1.35561 -12.64302,7.11171 l -3.47617,5.87399 c -3.39684,5.75318 -1.04685,7.10537 4.24477,7.10537 l 9.41167,0 c 5.29479,0 9.24715,-1.35219 12.64546,-7.10537 l 3.4747,-5.87399 c 3.40124,-5.75635 1.04661,-7.11171 -4.24501,-7.11171 z"
     id="path25"
     inkscape:connector-curvature="0" /></svg>