<?xml version="1.0" encoding="UTF-8" standalone="no"?>
<!-- Generator: Adobe Illustrator 14.0.0, SVG Export Plug-In . SVG Version: 6.00 Build 43363)  -->

<svg
   xmlns:dc="http://purl.org/dc/elements/1.1/"
   xmlns:cc="http://creativecommons.org/ns#"
   xmlns:rdf="http://www.w3.org/1999/02/22-rdf-syntax-ns#"
   xmlns:svg="http://www.w3.org/2000/svg"
   xmlns="http://www.w3.org/2000/svg"
   xmlns:sodipodi="http://sodipodi.sourceforge.net/DTD/sodipodi-0.dtd"
   xmlns:inkscape="http://www.inkscape.org/namespaces/inkscape"
   version="1.1"
   id="Ebene_1"
   x="0px"
   y="0px"
   width="249.99995"
   height="38.24292"
   viewBox="0 0 249.99995 38.24292"
   enable-background="new 0 0 1024 157"
   xml:space="preserve"
   inkscape:version="0.91 r13725"
   sodipodi:docname="logo-hapag-lloyd.svg"><metadata
     id="metadata31"><rdf:RDF><cc:Work
         rdf:about=""><dc:format>image/svg+xml</dc:format><dc:type
           rdf:resource="http://purl.org/dc/dcmitype/StillImage" /><dc:title></dc:title></cc:Work></rdf:RDF></metadata><defs
     id="defs29" /><sodipodi:namedview
     pagecolor="#ffffff"
     bordercolor="#666666"
     borderopacity="1"
     objecttolerance="10"
     gridtolerance="10"
     guidetolerance="10"
     inkscape:pageopacity="0"
     inkscape:pageshadow="2"
     inkscape:window-width="1920"
     inkscape:window-height="1028"
     id="namedview27"
     showgrid="false"
     fit-margin-top="0"
     fit-margin-left="0"
     fit-margin-right="0"
     fit-margin-bottom="0"
     inkscape:zoom="0.34863281"
     inkscape:cx="512.398"
     inkscape:cy="78.5"
     inkscape:window-x="0"
     inkscape:window-y="0"
     inkscape:window-maximized="1"
     inkscape:current-layer="Ebene_1" /><polyline
     points="61.621,0.357 130.231,0.357 87.479,71.735 98.711,71.735 141.562,0.357 210.588,0.357   167.85,71.735 215.707,71.735 196.37,103.389 148.562,103.368 185.771,154.62 116.837,154.62 79.67,103.389 67.875,103.389   105.063,154.62 36.939,154.62 -0.398,103.389 "
     id="polyline3"
     transform="matrix(0.24414063,0,0,0.24414063,0.09716797,-0.0871582)"
     style="fill:#003674" /><polyline
     points="298.106,130.55 319.281,130.55 319.281,88.995 358.259,88.995 358.259,130.55 379.434,130.55 379.434,34.208   358.259,34.208 358.259,71.186 319.281,71.186 319.281,34.208 298.106,34.208 "
     id="polyline5"
     transform="matrix(0.24414063,0,0,0.24414063,0.09716797,-0.0871582)" /><path
     d="m 99.160645,19.991462 c 0.163574,-1.84473 1.317135,-2.56861 3.094725,-2.56861 1.64697,0 3.03101,0.29566 3.03101,2.30713 0,1.91016 -2.66822,1.81055 -5.532474,2.23877 -2.898681,0.39697 -5.797363,1.31836 -5.797363,5.17285 0,3.49024 2.568603,5.10449 5.797363,5.10449 2.073484,0 4.246824,-0.55883 5.728514,-2.1062 0.0347,0.55884 0.16699,1.11939 0.33032,1.64527 l 4.7417,0 c -0.42627,-0.69092 -0.59326,-2.23828 -0.59326,-3.78931 l 0,-8.85889 c 0,-4.08667 -4.08154,-4.84301 -7.4751,-4.84301 -3.820064,0 -7.738277,1.31689 -8.001461,5.69751 m 10.801511,5.20581 c 0,1.02124 -0.13232,3.92163 -3.78759,3.92163 -1.516362,0 -2.864019,-0.42994 -2.864019,-2.17481 0,-1.7124 1.317139,-2.20752 2.766109,-2.50488 1.44776,-0.26318 3.09473,-0.2959 3.8855,-0.98853 l 0,1.74659 z"
     id="path7"
     inkscape:connector-curvature="0"
     style="clip-rule:evenodd;fill-rule:evenodd" /><path
     d="m 120.0752,28.721682 c -3.02906,0 -4.0813,-2.6355 -4.0813,-5.40161 0,-2.76807 0.98681,-5.50171 4.04882,-5.50171 2.99634,0 4.08472,2.80078 4.08472,5.50171 0,2.76611 -0.98852,5.40161 -4.05224,5.40161 m -8.59424,9.0603 4.67627,0 0,-8.10425 0.0654,0 c 1.11914,1.67969 3.06372,2.56861 5.10424,2.56861 4.97193,0 7.47535,-4.25 7.47535,-8.79419 0,-4.84473 -2.40357,-9.1582 -7.73829,-9.1582 -2.10791,0 -3.95239,0.82348 -5.07006,2.63549 l -0.0671,0 0,-2.1748 -4.4458,0 0,23.02734 z"
     id="path9"
     inkscape:connector-curvature="0"
     style="clip-rule:evenodd;fill-rule:evenodd" /><path
     d="m 134.63379,19.991462 c 0.16333,-1.84473 1.31714,-2.56861 3.09473,-2.56861 1.64697,0 3.031,0.29566 3.031,2.30713 0,1.91016 -2.66821,1.81055 -5.53418,2.23877 -2.89697,0.39697 -5.79541,1.31836 -5.79541,5.17285 0,3.49024 2.57007,5.10449 5.79541,5.10449 2.0752,0 4.24805,-0.55883 5.73023,-2.1062 0.0347,0.55884 0.16699,1.11939 0.33032,1.64527 l 4.7417,0 c -0.42652,-0.69092 -0.59326,-2.23828 -0.59326,-3.78931 l 0,-8.85889 c 0,-4.08667 -4.08155,-4.84301 -7.4751,-4.84301 -3.82007,0 -7.73828,1.31689 -8.00147,5.69751 m 10.80152,5.20581 c 0,1.02124 -0.13233,3.92163 -3.7876,3.92163 -1.51636,0 -2.86401,-0.42994 -2.86401,-2.17481 0,-1.7124 1.31689,-2.20752 2.76611,-2.50488 1.44775,-0.26318 3.09473,-0.2959 3.8855,-0.98853 l 0,1.74659 z"
     id="path11"
     inkscape:connector-curvature="0"
     style="clip-rule:evenodd;fill-rule:evenodd" /><path
     d="m 155.54858,27.767582 c -2.86425,0 -3.78759,-2.66821 -3.78759,-5.10596 0,-2.53784 1.15356,-4.84326 3.78759,-4.84326 3.02906,0 3.98511,2.47046 3.98511,5.23852 0,2.43604 -1.31714,4.7107 -3.98511,4.7107 m 8.43091,-13.01294 -4.4458,0 0,2.27295 -0.0671,0 c -1.11914,-1.97534 -2.82983,-2.73535 -5.07007,-2.73535 -4.77612,0 -7.31005,4.01953 -7.31005,8.43481 0,4.67798 2.17309,8.56519 7.27758,8.56519 2.04248,0 4.08155,-0.8562 5.10254,-2.63575 l 0.0671,0 0,2.24024 c 0.0327,2.43774 -1.15381,4.21728 -3.75488,4.21728 -1.64527,0 -3.06201,-0.59326 -3.49024,-2.33984 l -4.64379,0 c 0.23046,3.88721 4.15039,5.46875 7.50805,5.46875 7.83789,0 8.82642,-4.74341 8.82642,-7.54395 l 0,-15.94433 z"
     id="path13"
     inkscape:connector-curvature="0"
     style="clip-rule:evenodd;fill-rule:evenodd" /><rect
     x="165.26538"
     y="20.782228"
     width="9.9116211"
     height="4.0195312"
     id="rect15" /><polyline
     points="722.268,130.55 790.385,130.55 790.385,112.741 743.449,112.741 743.449,34.208 722.268,34.208 "
     id="polyline17"
     transform="matrix(0.24414063,0,0,0.24414063,0.09716797,-0.0871582)" /><rect
     x="194.15038"
     y="8.2643986"
     width="4.6745605"
     height="23.520752"
     id="rect19" /><path
     d="m 204.55347,23.287112 c 0,-2.7334 0.95776,-5.46875 4.11767,-5.46875 3.19434,0 4.14844,2.73535 4.14844,5.46875 0,2.70093 -0.9541,5.43652 -4.14844,5.43652 -3.15991,0 -4.11767,-2.73535 -4.11767,-5.43652 m -4.67432,0 c 0,5.40185 3.45728,8.96069 8.79224,8.96069 5.36743,0 8.8247,-3.55884 8.8247,-8.96069 0,-5.43628 -3.45727,-8.99512 -8.8247,-8.99512 -5.33496,0 -8.79224,3.55908 -8.79224,8.99512 z"
     id="path21"
     inkscape:connector-curvature="0"
     style="clip-rule:evenodd;fill-rule:evenodd" /><path
     d="m 233.93188,14.754642 -4.8413,0 -3.72217,11.66162 -0.0654,0 -3.85083,-11.66162 -5.0083,0 5.99511,15.97851 c 0.52588,1.34961 0,3.0293 -1.6145,3.19434 -0.91967,0.0347 -1.84301,-0.0979 -2.73169,-0.16504 l 0,3.85449 c 0.9541,0.0996 1.91016,0.16504 2.86426,0.16504 3.22705,0 4.84131,-1.12085 5.86255,-3.85449"
     id="path23"
     inkscape:connector-curvature="0" /><path
     d="m 245.48706,23.221922 c 0,2.79908 -0.91992,5.50171 -4.01611,5.50171 -2.89868,0 -4.11768,-2.80078 -4.11768,-5.4707 0,-2.79907 1.05567,-5.43457 4.11768,-5.43457 3.02905,0 4.01611,2.6355 4.01611,5.40356 m 0.0671,8.56348 4.4458,0 0,-23.5210002 -4.67627,0 0,8.5669002 -0.0654,0 0.033,0 c -1.08667,-1.6814 -3.06201,-2.5376 -5.07031,-2.5376 -5.0083,0 -7.54224,4.25 -7.54224,8.82837 0,4.7124 2.50317,9.12573 7.64014,9.12573 2.17163,0 4.08325,-0.79077 5.16821,-2.6355 l 0.0669,0 0,2.1731 z"
     id="path25"
     inkscape:connector-curvature="0"
     style="clip-rule:evenodd;fill-rule:evenodd" /></svg>