<?xml version="1.0" encoding="UTF-8" standalone="no"?>
<!-- Created with Inkscape (http://www.inkscape.org/) -->

<svg
   xmlns:dc="http://purl.org/dc/elements/1.1/"
   xmlns:cc="http://creativecommons.org/ns#"
   xmlns:rdf="http://www.w3.org/1999/02/22-rdf-syntax-ns#"
   xmlns:svg="http://www.w3.org/2000/svg"
   xmlns="http://www.w3.org/2000/svg"
   xmlns:sodipodi="http://sodipodi.sourceforge.net/DTD/sodipodi-0.dtd"
   xmlns:inkscape="http://www.inkscape.org/namespaces/inkscape"
   version="1.0"
   width="250"
   height="42.424389"
   id="Logo_DB_Schenker"
   xml:space="preserve"
   sodipodi:version="0.32"
   inkscape:version="0.91 r13725"
   sodipodi:docname="logo-db-schenker.svg"
   inkscape:output_extension="org.inkscape.output.svg.inkscape"><metadata
     id="metadata2437"><rdf:RDF><cc:Work
         rdf:about=""><dc:format>image/svg+xml</dc:format><dc:type
           rdf:resource="http://purl.org/dc/dcmitype/StillImage" /><dc:title></dc:title></cc:Work></rdf:RDF></metadata><sodipodi:namedview
     inkscape:window-height="998"
     inkscape:window-width="1280"
     inkscape:pageshadow="2"
     inkscape:pageopacity="0.0"
     guidetolerance="10.0"
     gridtolerance="10.0"
     objecttolerance="10.0"
     borderopacity="1.0"
     bordercolor="#666666"
     pagecolor="#ffffff"
     id="base"
     showgrid="false"
     inkscape:zoom="0.5329192"
     inkscape:cx="411.12827"
     inkscape:cy="-52.955188"
     inkscape:window-x="0"
     inkscape:window-y="0"
     inkscape:current-layer="Logo_DB_Schenker"
     inkscape:window-maximized="0"
     fit-margin-top="0"
     fit-margin-left="0"
     fit-margin-right="0"
     fit-margin-bottom="0" /><defs
     id="defs5"><inkscape:perspective
       sodipodi:type="inkscape:persp3d"
       inkscape:vp_x="0 : 86.612999 : 1"
       inkscape:vp_y="0 : 1000 : 0"
       inkscape:vp_z="1020.7926 : 86.612999 : 1"
       inkscape:persp3d-origin="510.3963 : 57.741999 : 1"
       id="perspective2439" /></defs><path
     d="m 244.96641,26.61168 c -0.65832,-1.08666 -1.34234,-1.76738 -2.08992,-2.22768 3.04212,-1.00951 4.40687,-2.76734 4.40687,-5.86089 0,-4.69158 -2.85073,-6.97032 -8.71198,-6.97032 l -8.90007,0 0,23.54714 5.98579,0 c 0,0 0,-8.82696 0,-9.29057 0.28103,0 0.76044,0 0.76044,0 1.34895,0 1.8346,0.36112 2.88893,2.16376 l 4.1611,7.12681 6.53243,0 -5.03359,-8.48825 z M 235.6571,16.09705 c 0.40557,0 2.72582,0 2.72582,0 2.32981,0 3.07445,0.66823 3.07445,2.74236 0,2.0609 -0.83097,2.82831 -3.07445,2.82831 0,0 -2.32025,0 -2.72582,0 l 0,-5.57067 m -20.81471,14.22829 0,-4.93146 c 0.45406,0 7.96734,0 7.96734,0 l 0,-4.55051 c 0,0 -7.51328,0 -7.96734,0 l 0,-4.51929 c 0.46361,0 10.09252,0 10.09252,0 l 0,-4.77129 -16.0717,0 0,23.54714 16.55111,0 0.4221,-4.77459 c 0,0 -10.53042,0 -10.99403,0 m -18.24795,-7.68006 c 0.22703,-0.29059 8.75973,-11.09249 8.75973,-11.09249 l -6.21906,0 c 0,0 -6.86452,9.03783 -7.64112,10.05065 0,-1.23985 0,-10.05065 0,-10.05065 l -5.97955,0 0,23.54714 5.97955,0 c 0,0 0,-8.70573 0,-9.95843 0.7766,1.02273 7.51952,9.95843 7.51952,9.95843 l 7.10772,0 c 0,0 -9.29976,-12.15709 -9.52679,-12.45465 M 175.38702,11.55279 c 0,0 0,11.56859 0,12.86978 -0.79277,-1.058 -9.63553,-12.86978 -9.63553,-12.86978 l -5.02073,0 0,23.54714 5.0751,0 c 0,0 0,-12.92745 0,-14.23452 0.79901,1.06094 10.67075,14.23452 10.67075,14.23452 l 3.98514,0 0,-23.54714 -5.07473,0 m -29.48812,18.77255 0,-4.93146 c 0.45075,0 7.97065,0 7.97065,0 l 0,-4.55051 c 0,0 -7.5199,0 -7.97065,0 l 0,-4.51929 c 0.46031,0 10.09253,0 10.09253,0 l 0,-4.77129 -16.07501,0 0,23.54714 16.55772,0 0.41512,-4.77459 c 0,0 -10.53005,0 -10.99036,0 M 128.88419,11.55279 c 0,0 0,8.67047 0,9.13371 l -8.26748,0 c 0,-0.46324 0,-9.13371 0,-9.13371 l -5.98248,0 0,23.54714 5.98248,0 c 0,0 0,-9.23951 0,-9.70605 l 8.26748,0 c 0,0.46654 0,9.70605 0,9.70605 l 5.98284,0 0,-23.54714 -5.98284,0 m -18.56095,18.2193 c -2.21189,0.83428 -3.64974,1.12523 -5.51299,1.12523 -3.87347,0 -5.381857,-2.09654 -5.381857,-7.49124 0,-5.62798 1.466877,-7.7179 5.413817,-7.7179 1.83129,0 3.43262,0.32916 5.34988,1.08996 l 0.32916,0.13409 0,-4.87342 -0.1565,-0.061 c -1.79934,-0.66162 -3.60198,-0.96506 -5.67904,-0.96506 -3.2247,0 -5.969987,0.9173 -7.938687,2.66227 -2.463894,2.17294 -3.611162,5.27311 -3.611162,9.763 0,3.80623 0.779907,6.52912 2.457652,8.56173 1.95584,2.33936 5.033587,3.57296 8.903737,3.57296 2.1667,0 4.24707,-0.44451 6.01114,-1.29128 l 0.13739,-0.0606 0,-4.56998 -0.32254,0.12123 M 84.650909,20.98994 c 0.0033,0.004 -0.373603,-0.15943 -0.373603,-0.15943 -2.409892,-1.04845 -2.505778,-1.08703 -3.07776,-1.4959 -0.789461,-0.56243 -1.051385,-1.00033 -1.051385,-1.73211 0,-1.28797 1.060939,-1.94628 3.160411,-1.94628 1.85701,0 3.21515,0.3196 5.372298,1.28173 l 0.338707,0.14694 0,-4.92154 -0.159808,-0.061 c -2.073752,-0.76374 -3.809169,-1.08959 -5.800266,-1.08959 -5.356134,0 -8.423971,2.6079 -8.423971,7.15841 0,3.42601 1.52749,5.39507 5.458259,7.01514 4.173595,1.75782 4.569979,2.19865 4.569979,3.48332 0,1.49883 -1.24646,2.25964 -3.7008,2.25964 -2.115637,0 -3.7166,-0.42504 -6.107021,-1.62043 l -0.351567,-0.1756 0,4.92448 0.14033,0.0705 c 2.221074,1.02898 4.161106,1.44447 6.695539,1.44447 5.857943,0 9.085585,-2.6079 9.085585,-7.34724 0,-3.59206 -1.457323,-5.41674 -5.774927,-7.23555"
     id="SCHENKER"
     style="fill:#000000;fill-opacity:1;fill-rule:nonzero;stroke:none"
     inkscape:connector-curvature="0" /><path
     d="m 18.257725,35.09663 -10.0446216,0 0,-27.7718 10.0446216,0 c 7.075565,0 10.865856,4.49981 10.865856,13.75769 0,8.0375 -2.524766,13.95019 -10.865856,14.01411 z m 4.362268,-13.43552 c 0,-5.59565 -0.571977,-9.96138 -6.509904,-9.96138 l -1.329404,0 0,18.89378 2.339359,0 c 3.473843,0 5.499949,-2.82501 5.499949,-8.9324 m 20.024955,13.43552 -10.613334,0 0,-27.7718 11.121765,0 c 5.244086,0 8.085259,2.1891 8.085259,7.39499 0,2.70047 -2.211516,4.62765 -4.611489,5.84839 3.349233,0.96175 5.621367,3.02339 5.621367,6.49055 0,5.65994 -4.675414,8.03787 -9.603568,8.03787 z m -4.106736,-16.77851 2.27581,0 c 2.147594,0 3.726148,-0.96138 3.726148,-3.34262 0,-2.63618 -2.023063,-3.34262 -4.17066,-3.34262 l -1.831298,0 0,6.68524 z m 6.759458,8.61316 c 0,-2.82832 -1.767381,-3.47083 -4.355807,-3.47083 l -2.403651,0 0,7.13306 2.339361,0 c 2.33936,0 4.420097,-0.76999 4.420097,-3.66223 M 53.766454,0 5.9984634,0 C 2.7164553,0 0,2.63325 0,6.04016 l 0,30.27721 c 0,3.40654 2.7164553,6.10702 5.9984634,6.10702 l 47.7679906,0 c 3.221392,0 5.940971,-2.70048 5.940971,-6.10702 l 0,-30.27721 C 59.707425,2.63325 56.987846,0 53.766454,0 Z m 1.578919,36.31737 c 0,0.96506 -0.632962,1.73873 -1.578919,1.73873 l -47.7679906,0 c -0.945956,0 -1.639497,-0.77367 -1.639497,-1.73873 l 0,-30.27721 c 0,-0.96542 0.693541,-1.73541 1.639497,-1.73541 l 47.7679906,0 c 0.945957,0 1.578919,0.76999 1.578919,1.73541 l 0,30.27721"
     id="DB"
     style="fill:#ff0000;fill-opacity:1;fill-rule:nonzero;stroke:none"
     inkscape:connector-curvature="0" /></svg>