<?xml version="1.0" encoding="UTF-8" standalone="no"?>
<!-- Creator: CorelDRAW -->

<svg
   xmlns:dc="http://purl.org/dc/elements/1.1/"
   xmlns:cc="http://creativecommons.org/ns#"
   xmlns:rdf="http://www.w3.org/1999/02/22-rdf-syntax-ns#"
   xmlns:svg="http://www.w3.org/2000/svg"
   xmlns="http://www.w3.org/2000/svg"
   xmlns:sodipodi="http://sodipodi.sourceforge.net/DTD/sodipodi-0.dtd"
   xmlns:inkscape="http://www.inkscape.org/namespaces/inkscape"
   xml:space="preserve"
   width="70.555542mm"
   height="13.264562mm"
   viewBox="0 0 70.555541 15.006376"
   id="svg2"
   version="1.1"
   inkscape:version="0.91 r13725"
   sodipodi:docname="logo-olympus.svg"
   style="clip-rule:evenodd;fill-rule:evenodd;image-rendering:optimizeQuality;shape-rendering:geometricPrecision;text-rendering:geometricPrecision"><metadata
     id="metadata25"><rdf:RDF><cc:Work
         rdf:about=""><dc:format>image/svg+xml</dc:format><dc:type
           rdf:resource="http://purl.org/dc/dcmitype/StillImage" /><dc:title></dc:title></cc:Work></rdf:RDF></metadata><defs
     id="defs23" /><sodipodi:namedview
     pagecolor="#ffffff"
     bordercolor="#666666"
     borderopacity="1"
     objecttolerance="10"
     gridtolerance="10"
     guidetolerance="10"
     inkscape:pageopacity="0"
     inkscape:pageshadow="2"
     inkscape:window-width="1920"
     inkscape:window-height="1028"
     id="namedview21"
     showgrid="false"
     fit-margin-top="0"
     fit-margin-left="0"
     fit-margin-right="0"
     fit-margin-bottom="0"
     inkscape:zoom="2.3747788"
     inkscape:cx="46.455129"
     inkscape:cy="-48.102752"
     inkscape:window-x="0"
     inkscape:window-y="0"
     inkscape:window-maximized="1"
     inkscape:current-layer="svg2" /><g
     id="Ebene_x0020_1"
     transform="matrix(0.33443745,0,0,0.33443745,-4.8547069,-1.0097335)"><metadata
       id="CorelCorpID_0Corel-Layer" /><g
       id="_138079608"><path
         id="_137995520"
         d="m 205.809,40.111 c 0.48698,0.02284 0.78007,0.450909 0.78007,0.878982 0,0.481018 -0.43883,0.786036 -0.67083,0.863418 l 0.61149,1.31447 -0.54008,0 -0.64232,-1.34196 -0.72829,0 0,1.34196 -0.5632,0 0,-3.05687 1.75316,0 z m -1.18996,1.29164 1.09105,0 c 0.29905,-0.08349 0.32654,-0.241455 0.33556,-0.4432 0.008,-0.197091 -0.18196,-0.420364 -0.37338,-0.420364 l -1.05324,0 0,0.863564 z"
         inkscape:connector-curvature="0"
         style="fill:#ffffff;fill-rule:nonzero" /><path
         id="_138002232"
         d="m 205.217,44.3273 c 1.48131,0 2.67869,-1.19898 2.67869,-2.67869 0,-1.48 -1.19738,-2.68029 -2.67869,-2.68029 -1.48,0 -2.67913,1.20029 -2.67913,2.68029 0,1.47971 1.19913,2.67869 2.67913,2.67869 z m -2.2432,-2.70007 c 0,-1.23825 1.0016,-2.24335 2.2432,-2.24335 1.23869,0 2.2416,1.00509 2.2416,2.24335 0,1.24029 -1.00291,2.24495 -2.2416,2.24495 -1.2416,0 -2.2432,-1.00465 -2.2432,-2.24495 z"
         inkscape:connector-curvature="0"
         style="fill:#ffffff;fill-rule:nonzero" /><polygon
         id="_137713304"
         points="0.664582,43.5034 0.664582,44.8797 117.527,47.8897 234.392,44.8797 234.392,43.5034 117.527,40.4892 "
         style="fill:#f6d900;fill-rule:nonzero" /><g
         id="g10"><polygon
           id="_137792048"
           points="41.1139,31.5312 41.1139,4.75433 52.2726,4.75433 52.2726,25.5023 66.3031,25.5023 66.3031,31.5312 "
           style="fill:#343e8b;fill-rule:nonzero" /><path
           id="_137791288"
           d="m 182.528,32.6054 c -8.69513,0 -16.0097,-2.58778 -16.0097,-9.7152 l 0,-18.1359 10.7991,0 0,17.3085 c 0,3.34982 2.47549,4.87985 5.21062,4.87985 2.73804,0 5.21062,-1.53004 5.21062,-4.87985 l 0,-17.3085 10.7977,0 0,18.1359 c 0,7.12742 -7.30982,9.7152 -16.0083,9.7152 z"
           inkscape:connector-curvature="0"
           style="fill:#343e8b;fill-rule:nonzero" /><path
           id="_137791360"
           d="m 221.163,11.8739 11.4138,0 c -0.59796,-6.14982 -9.25571,-7.98647 -15.9644,-7.98647 -6.70531,0 -15.4404,2.19331 -15.4404,8.90211 0,4.90211 4.79505,6.46996 8.15985,7.15142 2.38749,0.481455 6.36713,1.15985 8.35825,1.59825 2.76989,0.605818 4.20305,1.16902 4.20305,2.80175 0,1.74545 -1.61033,2.63825 -4.91636,2.63825 -3.13425,0 -5.00713,-0.974545 -5.52771,-3.18458 l -11.6307,0.0017 c 0.68291,7.29469 10.0294,8.8896 17.4058,8.8896 7.42211,0 16.2919,-1.76655 16.2919,-8.99593 0,-3.92509 -2.52858,-6.53702 -8.75156,-7.78167 -3.25687,-0.651055 -7.77265,-1.49949 -9.50865,-1.7984 -2.29964,-0.401018 -3.12058,-1.22967 -3.12058,-2.36029 0,-1.16553 1.11695,-2.3892395 4.34196,-2.3892395 2.72596,0 4.2,0.7956355 4.68567,2.5134495 z"
           inkscape:connector-curvature="0"
           style="fill:#343e8b;fill-rule:nonzero" /><path
           id="_137708120"
           d="m 154.403,21.673 c 8.0352,0 10.0797,-5.11025 10.0797,-8.37542 0,-3.00524 -1.72873,-8.54327 -10.0689,-8.54327 l -21.601,0 10e-4,26.7769 10.6032,0 0,-9.85818 10.9857,0 z m -10.9871,-5.8464 0,-5.22269 7.07884,0 c 1.76393,0 3.27229,0.823855 3.27229,2.52553 0,1.49935 -0.86647,2.69716 -3.28567,2.69716 l -7.06545,0 z"
           inkscape:connector-curvature="0"
           style="fill:#343e8b;fill-rule:nonzero" /><path
           id="_137709352"
           d="m 79.7261,5.40655 0.303855,-0.652218 11.1952,0 -11.6492,17.7612 0,9.01571 -10.5911,0 0,-9.01571 -11.6109,-17.7612 11.1556,0 0.311127,0.652218 5.048,8.8656 c 0.332509,0.569164 0.432727,0.569164 0.800145,0 l 5.03724,-8.8656 z"
           inkscape:connector-curvature="0"
           style="fill:#343e8b;fill-rule:nonzero" /><path
           id="_137710928"
           d="m 113.585,31.5312 0.19738,-0.533091 5.68873,-13.2291 c 0.14706,-0.347636 0.49004,-0.254691 0.49469,0.05047 l 0,13.7117 9.13396,0 0,-26.7769003 -11.039,0 -0.20305,0.576582 -6.80422,15.3600003 c -0.25091,0.582836 -0.48451,0.579927 -0.73498,0 l -6.80116,-15.3600003 -0.2035,-0.576582 -11.040395,0 0,26.7769003 9.138755,0 0,-13.7117 c 0.002,-0.305164 0.34459,-0.398109 0.49353,-0.05047 l 5.68262,13.2291 0.20175,0.533091 5.79491,0 z"
           inkscape:connector-curvature="0"
           style="fill:#343e8b;fill-rule:nonzero" /><path
           id="_137711944"
           d="m 38.5927,18.1443 c 0,8.99578 -7.80145,14.4125 -18.6839,14.4125 -10.8825,0 -18.6841,-5.41673 -18.6841,-14.4125 0,-9.00058 7.8016,-14.4148 18.6841,-14.4148 10.8825,0 18.6839,5.41425 18.6839,14.4148 z m -11.2332,0 c 0,-5.41716 -2.80335,-8.76102 -7.45076,-8.76102 -4.64916,0 -7.44916,3.34385 -7.44916,8.76102 0,5.41542 2.8,8.75753 7.44916,8.75753 4.64742,0 7.45076,-3.34211 7.45076,-8.75753 z"
           inkscape:connector-curvature="0"
           style="fill:#343e8b;fill-rule:nonzero" /><path
           id="_137715720"
           d="m 236.886,4.35942 c 0.57047,0.025746 0.91505,0.5296 0.91505,1.03215 0,0.5632 -0.51447,0.9216 -0.78778,1.01411 l 0.71811,1.54196 -0.63462,0 -0.75418,-1.57556 -0.8544,0 0,1.57556 -0.66051,0 0,-3.58822 2.05833,0 z m -1.39782,1.51651 1.28073,0 c 0.35069,-0.098909 0.38429,-0.283927 0.39331,-0.520582 0.009,-0.232291 -0.21251,-0.495127 -0.43709,-0.495127 l -1.23695,0 0,1.01571 z"
           inkscape:connector-curvature="0"
           style="fill:#343e8b;fill-rule:nonzero" /><path
           id="_137715792"
           d="m 236.189,9.30764 c 1.73949,0 3.14633,-1.40698 3.14633,-3.14342 0,-1.73775 -1.40684,-3.14502 -3.14633,-3.14502 -1.73644,0 -3.14327,1.40727 -3.14327,3.14502 0,1.73644 1.40684,3.14342 3.14327,3.14342 z m -2.63185,-3.16785 c 0,-1.45556 1.17629,-2.63491 2.63185,-2.63491 1.45542,0 2.63302,1.17935 2.63302,2.63491 0,1.45411 -1.1776,2.63345 -2.63302,2.63345 -1.45556,0 -2.63185,-1.17935 -2.63185,-2.63345 z"
           inkscape:connector-curvature="0"
           style="fill:#343e8b;fill-rule:nonzero" /></g></g></g></svg>