<?xml version="1.0" encoding="UTF-8" standalone="no"?>
<!-- Created with Inkscape (http://www.inkscape.org/) -->

<svg
   xmlns:dc="http://purl.org/dc/elements/1.1/"
   xmlns:cc="http://creativecommons.org/ns#"
   xmlns:rdf="http://www.w3.org/1999/02/22-rdf-syntax-ns#"
   xmlns:svg="http://www.w3.org/2000/svg"
   xmlns="http://www.w3.org/2000/svg"
   xmlns:xlink="http://www.w3.org/1999/xlink"
   xmlns:sodipodi="http://sodipodi.sourceforge.net/DTD/sodipodi-0.dtd"
   xmlns:inkscape="http://www.inkscape.org/namespaces/inkscape"
   width="195.34375"
   height="59.8125"
   viewBox="0 0 195.34375 59.812501"
   id="svg2"
   version="1.1"
   inkscape:version="0.48.5 r10040"
   sodipodi:docname="doctales-logo.svg">
  <defs
     id="defs4">
    <linearGradient
       inkscape:collect="always"
       id="linearGradient4299">
      <stop
         style="stop-color:#ffff00;stop-opacity:1;"
         offset="0"
         id="stop4301" />
      <stop
         style="stop-color:#ff0000;stop-opacity:1"
         offset="1"
         id="stop4303" />
    </linearGradient>
    <linearGradient
       inkscape:collect="always"
       id="linearGradient4291">
      <stop
         style="stop-color:#ffff00;stop-opacity:1"
         offset="0"
         id="stop4293" />
      <stop
         style="stop-color:#ff0000;stop-opacity:1"
         offset="1"
         id="stop4295" />
    </linearGradient>
    <linearGradient
       inkscape:collect="always"
       id="linearGradient4283">
      <stop
         style="stop-color:#ff0000;stop-opacity:1;"
         offset="0"
         id="stop4285" />
      <stop
         style="stop-color:#ffff00;stop-opacity:1"
         offset="1"
         id="stop4287" />
    </linearGradient>
    <linearGradient
       inkscape:collect="always"
       id="linearGradient4243">
      <stop
         style="stop-color:#ff0000;stop-opacity:1;"
         offset="0"
         id="stop4245" />
      <stop
         style="stop-color:#ffff00;stop-opacity:1"
         offset="1"
         id="stop4247" />
    </linearGradient>
    <linearGradient
       inkscape:collect="always"
       xlink:href="#linearGradient4243"
       id="linearGradient4249"
       x1="107.91724"
       y1="236.45381"
       x2="100.9641"
       y2="260.73953"
       gradientUnits="userSpaceOnUse" />
    <linearGradient
       inkscape:collect="always"
       xlink:href="#linearGradient4283"
       id="linearGradient4289"
       x1="137.34804"
       y1="236.27524"
       x2="126.10921"
       y2="258.77524"
       gradientUnits="userSpaceOnUse" />
    <linearGradient
       inkscape:collect="always"
       xlink:href="#linearGradient4291"
       id="linearGradient4297"
       x1="148.33298"
       y1="267.21414"
       x2="172.78331"
       y2="234.35699"
       gradientUnits="userSpaceOnUse" />
    <linearGradient
       inkscape:collect="always"
       xlink:href="#linearGradient4299"
       id="linearGradient4305"
       x1="176.44678"
       y1="258.67618"
       x2="193.91887"
       y2="230.46188"
       gradientUnits="userSpaceOnUse" />
  </defs>
  <sodipodi:namedview
     id="base"
     pagecolor="#ffffff"
     bordercolor="#666666"
     borderopacity="1.0"
     inkscape:pageopacity="0.0"
     inkscape:pageshadow="2"
     inkscape:zoom="1.979899"
     inkscape:cx="-22.017117"
     inkscape:cy="-43.521555"
     inkscape:document-units="px"
     inkscape:current-layer="layer2"
     showgrid="false"
     inkscape:window-width="1920"
     inkscape:window-height="1029"
     inkscape:window-x="0"
     inkscape:window-y="0"
     inkscape:window-maximized="1"
     fit-margin-top="0"
     fit-margin-left="0"
     fit-margin-right="0"
     fit-margin-bottom="0" />
  <metadata
     id="metadata7">
    <rdf:RDF>
      <cc:Work
         rdf:about="">
        <dc:format>image/svg+xml</dc:format>
        <dc:type
           rdf:resource="http://purl.org/dc/dcmitype/StillImage" />
        <dc:title />
      </cc:Work>
    </rdf:RDF>
  </metadata>
  <g
     inkscape:label="Ebene 1"
     inkscape:groupmode="layer"
     id="layer1"
     style="display:none"
     sodipodi:insensitive="true"
     transform="translate(-379.125,-226.25)">
    <path
       style="fill:#37abc8;fill-opacity:1;stroke:#006680;stroke-width:2.58400011;stroke-miterlimit:4;stroke-opacity:1;stroke-dasharray:none"
       d="m 313.92913,138.56891 a 66.436447,66.436447 0 0 0 -64.34375,50.22266 l 128.70899,0 a 66.436447,66.436447 0 0 0 -64.36524,-50.22266 z"
       id="path4377"
       inkscape:connector-curvature="0" />
    <rect
       style="opacity:0.81000001;fill:#000000;fill-opacity:0.86458333;stroke:#828082;stroke-width:1.24372447;stroke-opacity:1"
       id="rect4315-2"
       width="81.899139"
       height="32.541988"
       x="355.21115"
       y="176.25194" />
    <rect
       style="opacity:0.81000001;fill:#000000;fill-opacity:0.86458333;stroke:#828082;stroke-width:1.13290834;stroke-opacity:1"
       id="rect4315"
       width="67.724243"
       height="32.652802"
       x="277.53076"
       y="176.19655" />
    <path
       style="font-size:medium;font-style:normal;font-variant:normal;font-weight:normal;font-stretch:normal;line-height:125%;letter-spacing:0px;word-spacing:0px;fill:#000000;fill-opacity:1;stroke:none;font-family:SF Fedora Shadow;-inkscape-font-specification:SF Fedora Shadow"
       d="m 197.18059,231.73004 q -3.33985,11.95313 -5.54688,28.10547 l -2.61719,0.17578 q -0.11718,0.72266 -0.21484,1.42578 -0.0781,0.6836 -0.17578,1.40625 l -8.59375,0.56641 0.80078,-4.04297 q -1.03516,-0.11719 -2.05078,-0.11719 l -0.80078,0 -0.83985,1.5625 -1.44531,0.0781 -1.54297,2.91015 -8.92578,0.56641 q 1.67969,-2.89062 3.78906,-6.38672 2.12891,-3.51562 4.58985,-7.42187 2.46093,-3.92578 5.17578,-8.16407 2.73437,-4.25781 5.60547,-8.63281 l 1.03515,0 q 0.48828,-0.74219 0.95703,-1.48437 0.48829,-0.76172 0.9961,-1.52344 l 9.04297,-0.0391 0.76172,1.01562 0,0 z"
       id="path3361"
       inkscape:connector-curvature="0" />
    <path
       style="font-size:medium;font-style:normal;font-variant:normal;font-weight:normal;font-stretch:normal;line-height:125%;letter-spacing:0px;word-spacing:0px;fill:url(#linearGradient4305);fill-opacity:1;stroke:none;font-family:SF Fedora Shadow;-inkscape-font-specification:SF Fedora Shadow"
       d="m 187.82512,231.55426 q -5.76172,8.76953 -10.29297,15.95703 -4.51172,7.16797 -7.8711,12.96875 l 6.97266,-0.42969 2.38281,-4.45312 q 0.6836,-0.0781 1.38672,-0.11719 0.70313,-0.0391 1.38672,-0.0391 1.60156,0 2.98828,0.23437 l -0.76172,3.84766 6.89453,-0.44922 q 2.07032,-15.33203 5.50782,-27.55859 l -8.59375,0.0391 z"
       id="path4271"
       inkscape:connector-curvature="0" />
    <path
       style="font-size:medium;font-style:normal;font-variant:normal;font-weight:normal;font-stretch:normal;line-height:125%;letter-spacing:0px;word-spacing:0px;fill:#000000;fill-opacity:1;stroke:none;font-family:SF Fedora Shadow;-inkscape-font-specification:SF Fedora Shadow"
       d="m 173.23531,240.12848 -1.36718,2.94922 -5.83985,0.0781 q -3.125,6.75782 -5.70312,12.96875 -2.57813,6.19141 -4.60938,11.91407 l -1.875,-0.0781 q -0.3125,0.78125 -0.58594,1.54297 -0.27343,0.76172 -0.54687,1.54297 l -9.74609,-0.3711 q 2.46093,-7.10937 5.21484,-13.90625 2.75391,-6.79687 5.9375,-13.35937 l -7.71484,0.0781 4.27734,-9.35546 1.64062,0 1.34766,-3.00782 25.52734,-0.44922 -4.3164,9.41407 -1.64063,0.0391 z"
       id="path3359"
       inkscape:connector-curvature="0" />
    <path
       style="font-size:medium;font-style:normal;font-variant:normal;font-weight:normal;font-stretch:normal;line-height:125%;letter-spacing:0px;word-spacing:0px;fill:#000000;fill-opacity:1;stroke:none;font-family:SF Fedora Shadow;-inkscape-font-specification:SF Fedora Shadow"
       d="m 136.79,245.67535 q -0.21484,-4.02343 -2.69531,-4.02343 -1.54297,0 -3.10547,1.03515 -0.0977,0.0977 -0.17578,0.17578 -0.0586,0.0781 -0.11719,0.17579 l 0,-0.0391 q -1.44531,2.07032 -2.1875,4.02344 -0.72266,1.95313 -0.72266,3.82813 0,0.89843 0.35157,1.34765 0.37109,0.44922 1.17187,0.44922 0.78125,0 1.5625,-0.27344 0.80078,-0.27343 1.6211,-0.78125 l 0.2539,-0.35156 0.15625,0.0391 0.0391,0 q 0.72266,-0.54687 1.42579,-1.30859 0.70312,-0.76172 1.36718,-1.73828 l 7.12891,1.77734 q -2.57813,3.71094 -5.33203,6.03516 -1.19141,1.40625 -2.44141,2.51953 -1.25,1.11328 -2.55859,1.95312 -2.22656,1.48438 -4.45313,2.20704 -2.20703,0.72265 -4.49218,0.72265 -7.01172,0 -7.01172,-7.48047 0,-2.42187 0.78125,-4.98047 0.78125,-2.55859 2.30468,-5.3125 1.23047,-2.24609 2.77344,-4.10156 1.54297,-1.875 3.37891,-3.45703 1.97265,-2.26562 4.375,-4.08203 4.96094,-3.71094 9.96094,-3.71094 6.89453,0 7.91015,6.875 l -3.16406,2.12891 q 0.0391,0.21484 0.0781,0.44922 0.0586,0.21484 0.0977,0.42968 l -8.28125,5.46875 0,0 z"
       id="path3357"
       inkscape:connector-curvature="0" />
    <path
       style="font-size:medium;font-style:normal;font-variant:normal;font-weight:normal;font-stretch:normal;line-height:125%;letter-spacing:0px;word-spacing:0px;fill:#000000;fill-opacity:1;stroke:none;font-family:SF Fedora Shadow;-inkscape-font-specification:SF Fedora Shadow"
       d="m 118.80172,238.6441 q 0.15625,0.60547 0.23437,1.19141 0.0781,0.58594 0.0781,1.13281 0,1.05469 -0.33203,2.36328 -0.3125,1.3086 -0.91797,2.83204 -1.11328,2.65625 -2.8125,5 -1.69922,2.34375 -4.0625,4.35546 -0.74219,0.87891 -1.58203,1.69922 -0.82031,0.80078 -1.73828,1.54297 -5.56641,4.6875 -11.074222,4.6875 -7.128906,0 -7.128906,-7.55859 0,-2.42188 0.78125,-4.96094 0.78125,-2.53906 2.304688,-5.29297 1.210937,-2.1875 2.714843,-4.04297 1.503907,-1.85547 3.320313,-3.39843 1.992184,-2.32422 4.492184,-4.16016 5.07813,-3.71094 9.96094,-3.71094 6.89453,0 7.91016,6.875 l -2.14844,1.44531 0,0 z"
       id="path3355"
       inkscape:connector-curvature="0" />
    <path
       style="font-size:medium;font-style:normal;font-variant:normal;font-weight:normal;font-stretch:normal;line-height:125%;letter-spacing:0px;word-spacing:0px;fill:url(#linearGradient4249);fill-opacity:1;stroke:none;font-family:SF Fedora Shadow;-inkscape-font-specification:SF Fedora Shadow"
       d="m 120.07125,236.80817 q -0.85937,-5.6836 -7.03125,-5.6836 -4.64844,0 -9.49219,3.55469 -4.472653,3.30078 -7.324215,8.35938 -2.949219,5.23437 -2.949219,9.84375 0,6.75781 6.308594,6.75781 5.27344,0 10.56641,-4.47266 4.82421,-4.0625 7.01171,-9.3164 1.15235,-2.92969 1.15235,-4.88282 0,-1.26953 -0.44922,-2.67578 l 2.20703,-1.48437 0,0 z"
       id="path3405"
       inkscape:connector-curvature="0" />
    <path
       style="font-size:medium;font-style:normal;font-variant:normal;font-weight:normal;font-stretch:normal;line-height:125%;letter-spacing:0px;word-spacing:0px;fill:#000000;fill-opacity:1;stroke:none;font-family:SF Fedora Shadow;-inkscape-font-specification:SF Fedora Shadow"
       d="m 110.91109,241.55426 q 0.41016,0.9375 0.41016,1.97266 0,3.00781 -3.00781,6.38672 -3.04688,3.53515 -6.03516,3.53515 -2.363279,0 -2.363279,-2.8125 0,-3.6914 2.949219,-7.94922 3.18359,-4.53125 6.64062,-4.80468 l 0.44922,0 q 2.71485,0 3.32032,2.1289 l -2.36329,1.54297 z"
       id="path3407"
       inkscape:connector-curvature="0" />
    <path
       inkscape:connector-curvature="0"
       id="path3353"
       style="font-size:medium;font-style:normal;font-variant:normal;font-weight:normal;font-stretch:normal;line-height:125%;letter-spacing:0px;word-spacing:0px;fill:#000000;fill-opacity:1;stroke:none;font-family:SF Fedora Shadow;-inkscape-font-specification:SF Fedora Shadow"
       d="m 78.391563,247.92145 q 0,-1.21094 -0.546875,-2.12891 -0.527343,-0.9375 -1.601562,-1.66015 -0.46875,-0.35157 -0.9375,-0.56641 -1.582031,3.04687 -3.144531,6.64062 -1.5625,3.57422 -3.125,7.83204 1.71875,-0.50782 3.300781,-1.36719 1.601562,-0.87891 3.183594,-2.14844 0.07813,-0.0781 0.15625,-0.11719 0.664062,-0.8789 1.191406,-1.77734 0.527344,-0.89844 0.878906,-1.875 0.3125,-0.87891 0.46875,-1.58203 0.175781,-0.70313 0.175781,-1.25 z m 3.808594,-3.00781 q 0,1.25 -0.683594,3.125 -1.503906,3.94531 -5.527343,7.1289 -3.867188,3.125 -8.242188,4.04297 2.167969,-5.97656 4.238281,-10.625 2.089844,-4.66797 4.121094,-8.18359 l -1.542969,-1.64063 q 1.582032,0.19531 2.851563,0.60547 1.269531,0.41016 2.265625,1.07422 2.519531,1.67969 2.519531,4.47266 z m 8.242188,-2.75391 q 0,-5.46875 -5.253907,-8.32031 -4.140625,-2.2461 -10.15625,-2.2461 -1.601562,0 -3.222656,0.19532 -1.601562,0.17578 -3.300781,0.5664 l -1.796875,7.2461 q 0.605469,-0.15625 1.191406,-0.29297 0.605469,-0.15625 1.171875,-0.3125 -3.59375,7.20703 -6.660156,14.23828 -3.066406,7.01172 -5.664063,14.08203 5.644532,-0.35156 6.796875,-0.46875 7.832032,-0.64453 15.292969,-6.25 7.5,-5.625 10.390625,-12.91016 1.210938,-3.04687 1.210938,-5.52734 z m 0.800781,0 q 0,1.34766 -0.3125,2.8125 -0.3125,1.46484 -0.9375,2.98828 -2.441406,6.15234 -8.125,11.21094 -2.382813,2.67578 -5.546875,5.07812 -3.828125,2.85157 -7.734375,4.45313 -3.90625,1.60156 -7.949219,1.93359 -0.292969,0.0391 -1.054687,0.0977 -0.761719,0.0586 -1.855469,0.11719 -1.09375,0.0781 -2.441406,0.17578 -1.328125,0.0976 -2.734375,0.17578 2.65625,-7.20703 5.625,-14.16016 2.988281,-6.95312 6.386718,-13.84765 -0.546875,0.15625 -1.09375,0.29296 -0.527343,0.13672 -0.839843,0.19532 l 2.246093,-8.96485 q 1.171875,-0.29297 2.363282,-0.46875 l 0.644531,-2.51953 q 2.050781,-0.48828 3.808594,-0.70312 1.777343,-0.21485 3.339843,-0.21485 6.152344,0 10.527344,2.30469 2.832031,1.54297 4.257813,3.80859 1.425781,2.2461 1.425781,5.23438 z" />
    <path
       style="font-size:medium;font-style:normal;font-variant:normal;font-weight:normal;font-stretch:normal;line-height:125%;letter-spacing:0px;word-spacing:0px;fill:#ffffff;fill-opacity:1;stroke:none;font-family:SF Fedora Shadow;-inkscape-font-specification:SF Fedora Shadow"
       d="m 102.27828,252.64801 q 1.54297,0 3.14453,-1.13281 2.08985,-2.67578 2.08985,-5 0,-0.44922 -0.13672,-1.01563 -0.13672,-0.5664 -0.46875,-1.25 l 2.36328,-1.5625 q -0.60547,-0.99609 -2.32422,-0.99609 l -0.35156,0 q -1.42578,0.17578 -2.79297,1.07422 -0.0977,0.0977 -0.17578,0.19531 -0.0586,0.0977 -0.11719,0.19531 l 0,-0.0391 q -1.38672,2.03125 -2.08984,3.90625 -0.70313,1.875 -0.70313,3.61328 0,2.01172 1.5625,2.01172 z"
       id="path3409"
       inkscape:connector-curvature="0" />
    <path
       style="font-size:medium;font-style:normal;font-variant:normal;font-weight:normal;font-stretch:normal;line-height:125%;letter-spacing:0px;word-spacing:0px;fill:url(#linearGradient4289);fill-opacity:1;stroke:none;font-family:SF Fedora Shadow;-inkscape-font-specification:SF Fedora Shadow"
       d="m 147.18063,236.80817 q -0.85938,-5.6836 -7.03125,-5.6836 -4.70704,0 -9.49219,3.55469 -4.39453,3.30078 -7.32422,8.39844 -2.94922,5.23437 -2.94922,9.88281 0,6.67969 6.19141,6.67969 4.27734,0 8.53515,-2.79297 3.71094,-2.42188 6.46485,-6.36719 l -5.50782,-1.34765 q -1.28906,1.8164 -2.92968,2.94921 -1.95313,1.36719 -3.82813,1.36719 -2.32422,0 -2.32422,-2.59765 0,-3.86719 3.08594,-8.28125 3.37891,-4.72657 7.03125,-4.72657 3.32031,0 3.4375,3.35938 l 6.64063,-4.39453 0,0 z"
       id="path4281"
       inkscape:connector-curvature="0" />
    <path
       style="font-size:medium;font-style:normal;font-variant:normal;font-weight:normal;font-stretch:normal;line-height:125%;letter-spacing:0px;word-spacing:0px;fill:url(#linearGradient4297);fill-opacity:1;stroke:none;font-family:SF Fedora Shadow;-inkscape-font-specification:SF Fedora Shadow"
       d="m 154.19234,231.92535 -3.55468,7.75391 7.79297,-0.11719 q -3.35938,6.83594 -6.17188,13.65235 -2.79297,6.79687 -5.17578,13.71093 l 8.06641,0.27344 q 2.20703,-6.11328 4.96093,-12.69531 2.75391,-6.58203 6.17188,-13.78906 l -2.57813,-1.26953 10.64453,-0.15625 3.61329,-7.77344 -23.76954,0.41015 z"
       id="path4277"
       inkscape:connector-curvature="0" />
    <path
       style="font-size:medium;font-style:normal;font-variant:normal;font-weight:normal;font-stretch:normal;line-height:125%;letter-spacing:0px;word-spacing:0px;fill:#000000;fill-opacity:1;stroke:none;font-family:SF Fedora Shadow;-inkscape-font-specification:SF Fedora Shadow"
       d="m 187.86422,240.92926 q -0.625,3.02734 -1.07422,5.25391 -0.44922,2.22656 -0.72266,3.73047 -0.41015,-0.0391 -0.89843,-0.0586 -0.46875,-0.0195 -1.01563,-0.0195 -0.5664,0 -1.07422,0.0195 -0.48828,0.0195 -0.89843,0.0586 1.89453,-3.04688 3.28125,-5.27344 1.40625,-2.2461 2.40234,-3.71094 z"
       id="path4273"
       inkscape:connector-curvature="0" />
    <path
       style="font-size:medium;font-style:normal;font-variant:normal;font-weight:normal;font-stretch:normal;line-height:125%;letter-spacing:0px;word-spacing:0px;fill:#000000;fill-opacity:1;stroke:none;font-family:SF Fedora Shadow;-inkscape-font-specification:SF Fedora Shadow"
       d="m 207.31734,231.84723 q -3.35937,6.85547 -6.28906,13.92578 -2.92969,7.07031 -5.48828,14.51172 l 0.9375,0 q 3.28125,0 6.54297,-0.23438 3.26172,-0.2539 6.60156,-0.68359 l 3.20313,-6.67969 q -2.05078,0.3125 -3.88672,0.48828 -1.81641,0.15625 -3.51563,0.15625 l -0.625,0 q 1.77735,-4.70703 4.0625,-10.03906 2.30469,-5.35156 5.17578,-11.48437 l -6.71875,0.0391 z"
       id="path4267"
       inkscape:connector-curvature="0" />
    <path
       style="font-size:medium;font-style:normal;font-variant:normal;font-weight:normal;font-stretch:normal;line-height:125%;letter-spacing:0px;word-spacing:0px;fill:#000000;fill-opacity:1;stroke:none;font-family:SF Fedora Shadow;-inkscape-font-specification:SF Fedora Shadow"
       d="m 214.73922,232.12067 q -2.69531,5.76172 -4.88281,10.85937 -2.16797,5.09766 -3.90625,9.55078 3.125,-0.0586 8.28125,-0.8789 l -4.08203,8.47656 -1.67969,0.23437 -1.32813,2.75391 q -3.49609,0.48828 -6.89453,0.72266 -3.39844,0.23437 -6.77734,0.23437 l -2.05078,0 q 2.77343,-8.02734 5.85937,-15.54687 3.08594,-7.51953 6.50391,-14.49219 l 1.5625,0 1.44531,-2.98828 7.24609,-0.0391 0.70313,1.11328 0,0 z"
       id="path3363"
       inkscape:connector-curvature="0" />
    <path
       style="font-size:medium;font-style:normal;font-variant:normal;font-weight:normal;font-stretch:normal;line-height:125%;letter-spacing:0px;word-spacing:0px;fill:#000000;fill-opacity:1;stroke:none;font-family:SF Fedora Shadow;-inkscape-font-specification:SF Fedora Shadow"
       d="m 245.77438,230.75348 q -4.60938,0.44922 -9.49219,0.76172 -4.88281,0.29297 -10.25391,0.41015 l -2.32422,5.91797 2.36328,-0.0391 q -2.48046,5.48828 -4.76562,11.07422 -2.28516,5.56641 -4.43359,11.40625 4.49218,-0.52734 8.6914,-0.80078 4.19922,-0.27344 8.33985,-0.35156 l 2.59765,-6.32813 q -2.57812,0.0391 -5.09765,0.19531 -2.51954,0.15625 -5.0586,0.44922 0.39063,-1.28906 0.85938,-2.46094 0.48828,-1.1914 1.09375,-2.30468 1.99218,-0.27344 3.92578,-0.41016 1.93359,-0.15625 4.0039,-0.15625 l 0.9961,0 2.59765,-6.30859 q -2.1875,0.0391 -4.39453,0.15625 -2.1875,0.11718 -4.47265,0.39062 0.50781,-1.40625 0.95703,-2.57812 0.46875,-1.19141 0.91797,-2.12891 2.30468,-0.25391 4.80468,-0.39062 2.51954,-0.15625 5.27344,-0.21485 l 2.8711,-6.28906 0,0 z"
       id="path4263"
       inkscape:connector-curvature="0" />
    <path
       style="font-size:medium;font-style:normal;font-variant:normal;font-weight:normal;font-stretch:normal;line-height:125%;letter-spacing:0px;word-spacing:0px;fill:#000000;fill-opacity:1;stroke:none;font-family:SF Fedora Shadow;-inkscape-font-specification:SF Fedora Shadow"
       d="m 243.43063,237.84332 q -0.42969,0.0391 -0.85938,0.0391 -0.41016,0 -0.83984,0 l -1.3086,2.96875 q -2.26562,0.0586 -4.3164,0.15625 -2.05078,0.0781 -3.88672,0.23437 -0.0781,0.0781 -0.0781,0.15625 1.95313,-0.17578 4.17969,-0.25391 2.22656,-0.0977 4.70703,-0.13671 l -3.28125,7.91015 -1.75781,0 -1.25,3.00781 -1.52344,0 q -1.44531,0 -2.83203,0.0781 -1.38672,0.0781 -2.8125,0.23437 -0.0391,0.0586 -0.0586,0.13672 -0.0195,0.0586 -0.0586,0.15625 2.26563,-0.21484 4.76563,-0.35156 2.51953,-0.13672 5.48828,-0.17578 l -3.28125,7.91016 q -0.44922,0.0391 -0.89844,0.0586 -0.44922,0 -0.89844,0 l -1.21093,2.94922 q -4.29688,0.0976 -8.94532,0.41015 -4.6289,0.3125 -9.80468,0.91797 1.01562,-2.77343 2.1289,-5.66406 1.11328,-2.89062 2.28516,-5.76172 1.17187,-2.89062 2.36328,-5.70312 1.19141,-2.83203 2.38281,-5.46875 l -2.32422,0.0391 2.94922,-7.55859 q 0.44922,0 0.89844,0 0.46875,-0.0195 0.95703,-0.0586 l 1.15235,-2.94922 q 2.69531,-0.0586 5.54687,-0.17578 2.85156,-0.13672 5.64453,-0.29297 2.8125,-0.17578 5.46875,-0.37109 2.65625,-0.21484 4.94141,-0.44922 l -3.63281,8.00781 0,0 z"
       id="path3365"
       inkscape:connector-curvature="0" />
    <path
       style="font-size:medium;font-style:normal;font-variant:normal;font-weight:normal;font-stretch:normal;line-height:125%;letter-spacing:0px;word-spacing:0px;fill:#000000;fill-opacity:1;stroke:none;font-family:SF Fedora Shadow;-inkscape-font-specification:SF Fedora Shadow"
       d="m 267.53219,231.35895 q -0.83985,-0.0781 -1.73828,-0.13672 -0.87891,-0.0586 -1.81641,-0.0586 -3.82812,0 -6.23047,0.99609 -3.08594,1.28906 -5.37109,3.80859 -2.67578,2.91016 -2.67578,5.83985 0,1.07422 0.35156,2.79297 0.21484,0.99609 0.33203,1.67968 0.11719,0.6836 0.15625,1.07422 0.0391,0.44922 0.0586,0.9375 0.0195,0.46875 0.0195,0.9961 0,1.21093 -0.42969,1.77734 -0.41016,0.58594 -1.5625,0.97656 -0.97656,0.33203 -2.32422,0.60547 -1.32813,0.27344 -3.08594,0.46875 l -2.07031,7.16797 q 2.30469,-0.15625 4.41406,-0.58594 2.10938,-0.44922 4.0625,-1.13281 4.84375,-1.73828 7.07031,-4.72656 0.3711,-0.44922 0.6836,-1.07422 0.33203,-0.625 0.64453,-1.40625 0.68359,-1.81641 0.68359,-3.55469 0,-0.35156 -0.11718,-1.54297 -0.11719,-1.1914 -0.41016,-3.26172 -0.15625,-1.28906 -0.23438,-1.97265 -0.0781,-0.70313 -0.0781,-0.85938 0,-1.5625 2.67578,-1.97265 0.19531,-0.0391 3.84766,-0.15625 l 3.14453,-6.67969 0,0 z"
       id="path4259"
       inkscape:connector-curvature="0" />
    <path
       style="font-size:medium;font-style:normal;font-variant:normal;font-weight:normal;font-stretch:normal;line-height:125%;letter-spacing:0px;word-spacing:0px;fill:#000000;fill-opacity:1;stroke:none;font-family:SF Fedora Shadow;-inkscape-font-specification:SF Fedora Shadow"
       d="m 264.01656,238.83942 q -0.21484,0 -0.39062,0.0195 -0.17578,0.0195 -0.33203,0.0195 l -1.38672,2.96875 -0.83985,0 q -0.72265,0.0391 -1.26953,0.0586 -0.54687,0.0195 -0.97656,0.0195 0.0391,0.21485 0.0586,0.44922 0.0391,0.23438 0.0977,0.50782 0.27344,2.05078 0.39063,3.28125 0.13671,1.21093 0.13671,1.64062 0,1.93359 -0.72265,3.84766 -0.3125,0.82031 -0.66406,1.5039 -0.35157,0.66407 -0.78125,1.17188 -0.56641,0.72265 -1.23047,1.38672 -0.66407,0.64453 -1.48438,1.21093 -0.0586,0.0977 -0.13672,0.19532 -0.0781,0.0976 -0.13672,0.19531 -2.48046,3.22266 -7.4414,5 -2.03125,0.74219 -4.47266,1.21094 -2.4414,0.44922 -5.37109,0.64453 l 2.55859,-8.76953 q 0.60547,-0.0586 1.15235,-0.13672 0.54687,-0.0781 1.05468,-0.13672 l 0.80078,-2.73438 q 1.23047,-0.11718 2.28516,-0.27343 1.05469,-0.17578 1.91406,-0.39063 -0.0391,-0.33203 -0.0781,-0.66406 -0.0195,-0.33203 -0.0195,-0.66406 -0.0391,-0.33203 -0.15625,-0.97657 -0.0977,-0.66406 -0.3125,-1.66015 -0.17578,-0.87891 -0.27344,-1.60156 -0.0977,-0.74219 -0.0977,-1.36719 0,-3.26172 2.89063,-6.38672 l 0,0.0391 q 0.48828,-0.54687 1.01562,-1.03515 0.52735,-0.50782 1.05469,-0.9375 0.21484,-0.27344 0.44922,-0.52735 0.23437,-0.27344 0.48828,-0.54687 l 0,0.0391 q 1.19141,-1.34766 2.59766,-2.34375 1.40625,-0.99609 3.02734,-1.66016 2.55859,-1.07422 6.5625,-1.07422 0.97656,0 2.1875,0.0781 1.23047,0.0781 2.57813,0.23437 l -3.84766,8.16407 -0.87891,0 z"
       id="path3367"
       inkscape:connector-curvature="0" />
    <flowRoot
       xml:space="preserve"
       id="flowRoot3340"
       style="font-size:40px;font-style:normal;font-weight:normal;line-height:125%;letter-spacing:0px;word-spacing:0px;fill:#000000;fill-opacity:1;stroke:none;font-family:sans-serif"><flowRegion
         id="flowRegion3342"><rect
           id="rect3344"
           width="88.640884"
           height="48.739861"
           x="36.870567"
           y="305.10187" /></flowRegion><flowPara
         id="flowPara3346" /></flowRoot>    <rect
       style="opacity:0.81000001;fill:#000000;fill-opacity:0.86458333;stroke:#828082;stroke-width:0.82851201;stroke-opacity:1"
       id="rect4315-24"
       width="35.88578"
       height="32.957199"
       x="231.89639"
       y="176.04433" />
    <rect
       style="opacity:0.81000001;fill:#000000;fill-opacity:0.86458333;stroke:#828082;stroke-width:1.24372447;stroke-opacity:1"
       id="rect4315-24-6"
       width="81.899139"
       height="32.541988"
       x="447.12186"
       y="176.25194" />
    <rect
       style="opacity:0.81000001;fill:#000000;fill-opacity:0.86458333;stroke:#828082;stroke-width:0.48057991;stroke-opacity:1"
       id="rect4315-24-4"
       width="11.947998"
       height="33.30513"
       x="210.526"
       y="175.87038" />
    <circle
       style="fill:#37abc8;fill-opacity:1;stroke:#006680;stroke-width:2.58400011;stroke-miterlimit:4;stroke-opacity:1;stroke-dasharray:none"
       id="path4377-0"
       cx="468.21426"
       cy="192.00505"
       r="66.436447"
       sodipodi:cx="468.21426"
       sodipodi:cy="192.00505"
       sodipodi:rx="66.436447"
       sodipodi:ry="66.436447"
       d="m 534.65071,192.00505 c 0,36.69184 -29.74461,66.43645 -66.43645,66.43645 -36.69183,0 -66.43644,-29.74461 -66.43644,-66.43645 0,-36.69184 29.74461,-66.43645 66.43644,-66.43645 36.69184,0 66.43645,29.74461 66.43645,66.43645 z" />
    <circle
       style="fill:#aaeeff;fill-opacity:0.95977017;stroke:#d5f6ff;stroke-width:2.63499999;stroke-miterlimit:4;stroke-opacity:1;stroke-dasharray:none"
       id="path4377-9-9"
       cx="468.21426"
       cy="192.00505"
       r="43.407009"
       sodipodi:cx="468.21426"
       sodipodi:cy="192.00505"
       sodipodi:rx="43.407009"
       sodipodi:ry="43.407009"
       d="m 511.62127,192.00505 c 0,23.97303 -19.43398,43.40701 -43.40701,43.40701 -23.97303,0 -43.40701,-19.43398 -43.40701,-43.40701 0,-23.97303 19.43398,-43.40701 43.40701,-43.40701 23.97303,0 43.40701,19.43398 43.40701,43.40701 z" />
    <text
       xml:space="preserve"
       style="font-size:40px;font-style:normal;font-weight:normal;line-height:125%;letter-spacing:0px;word-spacing:0px;fill:#000000;fill-opacity:1;stroke:none;font-family:sans-serif"
       x="320"
       y="249.8622"
       id="text4550"
       sodipodi:linespacing="125%"><tspan
         sodipodi:role="line"
         id="tspan4552"
         x="320"
         y="249.8622" /></text>
    <text
       xml:space="preserve"
       style="font-size:16.9826355px;font-style:normal;font-weight:normal;line-height:125%;letter-spacing:0px;word-spacing:0px;fill:#000000;fill-opacity:1;stroke:none;font-family:sans-serif"
       x="259.15921"
       y="389.87442"
       id="text4581"
       sodipodi:linespacing="125%"><tspan
         sodipodi:role="line"
         id="tspan4583"
         x="259.15921"
         y="389.87442">publishing prozessing</tspan><tspan
         sodipodi:role="line"
         x="259.15921"
         y="411.10272"
         id="tspan4585">information architecture</tspan><tspan
         sodipodi:role="line"
         x="259.15921"
         y="432.33099"
         id="tspan4587">usable documentation</tspan></text>
    <text
       xml:space="preserve"
       style="font-size:16.9826355px;font-style:normal;font-weight:normal;line-height:125%;letter-spacing:0px;word-spacing:0px;fill:#000000;fill-opacity:1;stroke:none;font-family:sans-serif"
       x="259.41483"
       y="478.53653"
       id="text4581-0"
       sodipodi:linespacing="125%"><tspan
         sodipodi:role="line"
         x="259.41483"
         y="478.53653"
         id="tspan4587-1">Publikationen erzeugen</tspan><tspan
         sodipodi:role="line"
         x="259.41483"
         y="499.76483"
         id="tspan4618">Informationen strukturien</tspan><tspan
         sodipodi:role="line"
         x="259.41483"
         y="520.9931"
         id="tspan4620">Dokumentation entwerfen</tspan></text>
    <g
       id="g4658"
       transform="matrix(0.34256866,0,0,0.34256866,162.85999,251.56046)">
      <circle
         r="36.308071"
         cy="408.79077"
         cx="213.57143"
         id="path4377-0-6"
         style="fill:#37abc8;fill-opacity:1;stroke:#006680;stroke-width:1.41217756;stroke-miterlimit:4;stroke-opacity:1;stroke-dasharray:none"
         d="m 249.8795,408.79077 c 0,20.0524 -16.25568,36.30807 -36.30807,36.30807 -20.0524,0 -36.30807,-16.25567 -36.30807,-36.30807 0,-20.05239 16.25567,-36.30807 36.30807,-36.30807 20.05239,0 36.30807,16.25568 36.30807,36.30807 z"
         sodipodi:cx="213.57143"
         sodipodi:cy="408.79077"
         sodipodi:rx="36.308071"
         sodipodi:ry="36.308071" />
      <circle
         r="23.722292"
         cy="408.79077"
         cx="213.57143"
         id="path4377-9-9-8"
         style="fill:#aaeeff;fill-opacity:0.95977017;stroke:#d5f6ff;stroke-width:1.44004953;stroke-miterlimit:4;stroke-opacity:1;stroke-dasharray:none"
         d="m 237.29372,408.79077 c 0,13.10146 -10.62083,23.72229 -23.72229,23.72229 -13.10146,0 -23.7223,-10.62083 -23.7223,-23.72229 0,-13.10146 10.62084,-23.72229 23.7223,-23.72229 13.10146,0 23.72229,10.62083 23.72229,23.72229 z"
         sodipodi:cx="213.57143"
         sodipodi:cy="408.79077"
         sodipodi:rx="23.722292"
         sodipodi:ry="23.722292" />
    </g>
    <g
       id="g4662"
       transform="matrix(0.34256866,0,0,0.34256866,164.02408,312.06963)">
      <circle
         r="36.308071"
         cy="493.07648"
         cx="216.42856"
         id="path4377-0-6-9"
         style="fill:#37abc8;fill-opacity:1;stroke:#006680;stroke-width:1.41217756;stroke-miterlimit:4;stroke-opacity:1;stroke-dasharray:none"
         d="m 252.73663,493.07648 c 0,20.05239 -16.25568,36.30807 -36.30807,36.30807 -20.0524,0 -36.30807,-16.25568 -36.30807,-36.30807 0,-20.0524 16.25567,-36.30807 36.30807,-36.30807 20.05239,0 36.30807,16.25567 36.30807,36.30807 z"
         sodipodi:cx="216.42856"
         sodipodi:cy="493.07648"
         sodipodi:rx="36.308071"
         sodipodi:ry="36.308071" />
      <circle
         r="23.722292"
         cy="493.07648"
         cx="216.42856"
         id="path4377-9-9-8-6"
         style="fill:#aaeeff;fill-opacity:0.95977017;stroke:#d5f6ff;stroke-width:1.44004953;stroke-miterlimit:4;stroke-opacity:1;stroke-dasharray:none"
         d="m 240.15085,493.07648 c 0,13.10146 -10.62083,23.72229 -23.72229,23.72229 -13.10146,0 -23.72229,-10.62083 -23.72229,-23.72229 0,-13.10146 10.62083,-23.72229 23.72229,-23.72229 13.10146,0 23.72229,10.62083 23.72229,23.72229 z"
         sodipodi:cx="216.42856"
         sodipodi:cy="493.07648"
         sodipodi:rx="23.722292"
         sodipodi:ry="23.722292" />
    </g>
    <path
       inkscape:connector-curvature="0"
       id="path4517-3-8"
       style="font-size:medium;font-style:normal;font-variant:normal;font-weight:normal;font-stretch:normal;line-height:125%;letter-spacing:0px;word-spacing:0px;fill:#004455;fill-opacity:1;stroke:#fefefe;stroke-width:0.5529002px;stroke-linecap:butt;stroke-linejoin:miter;stroke-opacity:1;font-family:SF Fedora;-inkscape-font-specification:SF Fedora"
       d="m 233.7418,393.89334 0.50354,5.68187 -4.60682,0.31566 -0.46068,-5.86691 5.17463,-6.19346 4.58539,-0.0218 -5.19606,6.08461 z" />
    <path
       inkscape:connector-curvature="0"
       id="path4525-7-7"
       style="font-size:medium;font-style:normal;font-variant:normal;font-weight:normal;font-stretch:normal;line-height:125%;letter-spacing:0px;word-spacing:0px;fill:#004455;fill-opacity:1;stroke:#fefefe;stroke-width:0.5529002px;stroke-linecap:butt;stroke-linejoin:miter;stroke-opacity:1;font-family:SF Fedora;-inkscape-font-specification:SF Fedora"
       d="m 239.79464,395.20419 -4.69253,0.32654 5.39962,-6.19346 -0.41783,-5.61656 4.62824,-0.31566 0.39641,5.63833 -5.31391,6.16081 z" />
    <rect
       style="fill:#5fbcd3;fill-opacity:1;stroke:#004455;stroke-width:0.875;stroke-miterlimit:4;stroke-opacity:1;stroke-dasharray:none"
       id="rect4315-2-6-8"
       width="172.56566"
       height="27.137091"
       x="517.0329"
       y="293.15433" />
    <path
       inkscape:connector-curvature="0"
       id="path3370-1"
       style="font-size:medium;font-style:normal;font-variant:normal;font-weight:normal;font-stretch:normal;line-height:125%;letter-spacing:0px;word-spacing:0px;fill:#004455;fill-opacity:1;stroke:#fefefe;stroke-width:0.875;stroke-linecap:butt;stroke-linejoin:miter;stroke-miterlimit:4;stroke-opacity:1;stroke-dasharray:none;font-family:SF Fedora;-inkscape-font-specification:SF Fedora"
       d="m 542.31343,303.2475 q 0,-2.79296 -2.51953,-4.47264 -1.99219,-1.28907 -5.11719,-1.67969 l 1.5625,1.64062 q -2.05078,3.51563 -4.14062,8.16407 -2.07031,4.62889 -4.21875,10.64452 4.25781,-0.87891 8.22266,-4.04297 4.0039,-3.14453 5.52734,-7.12891 0.68359,-1.93359 0.68359,-3.125 z m 8.24219,-2.75389 q 0,2.48047 -1.21094,5.52733 -2.94922,7.40235 -10.39062,12.91017 -7.46094,5.60547 -15.29297,6.25 -1.11328,0.11718 -6.79688,0.46875 1.3086,-3.55469 2.71485,-7.05078 1.42578,-3.51563 2.94922,-7.03125 1.52343,-3.51563 3.18359,-7.05078 1.66016,-3.55469 3.47656,-7.1875 -0.5664,0.17578 -1.17187,0.3125 -0.58594,0.13671 -1.19141,0.29296 l 1.79688,-7.24609 q 3.28125,-0.76172 6.52343,-0.76172 6.01563,0 10.15625,2.2461 5.25391,2.85156 5.25391,8.32031 z" />
    <path
       inkscape:connector-curvature="0"
       id="path3372-9"
       style="font-size:medium;font-style:normal;font-variant:normal;font-weight:normal;font-stretch:normal;line-height:125%;letter-spacing:0px;word-spacing:0px;fill:#004455;fill-opacity:1;stroke:#fefefe;stroke-width:0.875;stroke-linecap:butt;stroke-linejoin:miter;stroke-miterlimit:4;stroke-opacity:1;stroke-dasharray:none;font-family:SF Fedora;-inkscape-font-specification:SF Fedora"
       d="m 568.18453,298.34516 q -0.60547,-2.12891 -3.32032,-2.12891 l -0.44921,0 q -3.47657,0.3125 -6.64063,4.80469 -2.94922,4.25781 -2.94922,7.94922 0,2.8125 2.36328,2.8125 2.98828,0 6.03516,-3.53516 3.00781,-3.3789 3.00781,-6.38671 0,-1.11329 -0.41015,-1.97266 l 2.36328,-1.54297 z m 4.58984,-1.71875 q 0.44922,1.46484 0.44922,2.67578 0,1.9336 -1.15234,4.88281 -2.26563,5.33204 -7.01172,9.31641 -5.29297,4.47266 -10.54688,4.47266 -6.32812,0 -6.32812,-6.75782 0,-4.58983 2.96875,-9.84375 1.42578,-2.55858 3.24218,-4.62889 1.81641,-2.07032 4.0625,-3.73048 4.90235,-3.55469 9.49219,-3.55469 6.17188,0 7.03125,5.6836 l -2.20703,1.48438 z" />
    <path
       inkscape:connector-curvature="0"
       id="path3374-8"
       style="font-size:medium;font-style:normal;font-variant:normal;font-weight:normal;font-stretch:normal;line-height:125%;letter-spacing:0px;word-spacing:0px;fill:#004455;fill-opacity:1;stroke:#fefefe;stroke-width:0.875;stroke-linecap:butt;stroke-linejoin:miter;stroke-miterlimit:4;stroke-opacity:1;stroke-dasharray:none;font-family:SF Fedora;-inkscape-font-specification:SF Fedora"
       d="m 589.6756,299.89371 q -0.11719,-3.35938 -3.4375,-3.35938 -3.65235,0 -7.03125,4.72656 -3.08594,4.41407 -3.08594,8.28125 0,2.59767 2.32422,2.59767 1.875,0 3.82812,-1.36719 1.6211,-1.09375 2.92969,-2.94923 l 5.50781,1.34767 q -2.7539,3.94531 -6.46484,6.36719 -4.25781,2.79297 -8.53516,2.79297 -6.1914,0 -6.1914,-6.67969 0,-4.62891 2.96875,-9.88281 2.89062,-5.09766 7.30468,-8.39844 4.78516,-3.55469 9.49219,-3.55469 6.17188,0 7.03125,5.6836 l -6.64062,4.39453 z" />
    <path
       inkscape:connector-curvature="0"
       id="path3376-6"
       style="font-size:medium;font-style:normal;font-variant:normal;font-weight:normal;font-stretch:normal;line-height:125%;letter-spacing:0px;word-spacing:0px;fill:#004455;fill-opacity:1;stroke:#fefefe;stroke-width:0.875;stroke-linecap:butt;stroke-linejoin:miter;stroke-miterlimit:4;stroke-opacity:1;stroke-dasharray:none;font-family:SF Fedora;-inkscape-font-specification:SF Fedora"
       d="m 623.00204,297.1225 -10.625,0.15625 2.55859,1.26954 q -3.39843,7.24609 -6.17187,13.78907 -2.75391,6.54297 -4.96094,12.69531 l -8.0664,-0.27344 q 1.1914,-3.47656 2.48046,-6.89453 1.28907,-3.4375 2.69532,-6.83594 1.40625,-3.39843 2.92968,-6.79687 1.54297,-3.39844 3.24219,-6.83594 l -7.79297,0.11719 3.55469,-7.75391 23.76953,-0.41015 -3.61328,7.77343 z" />
    <path
       inkscape:connector-curvature="0"
       id="path3378-3"
       style="font-size:medium;font-style:normal;font-variant:normal;font-weight:normal;font-stretch:normal;line-height:125%;letter-spacing:0px;word-spacing:0px;fill:#004455;fill-opacity:1;stroke:#fefefe;stroke-width:0.875;stroke-linecap:butt;stroke-linejoin:miter;stroke-miterlimit:4;stroke-opacity:1;stroke-dasharray:none;font-family:SF Fedora;-inkscape-font-specification:SF Fedora"
       d="m 628.02883,298.76313 q -0.99609,1.46484 -2.38281,3.71094 -1.36719,2.24609 -3.30078,5.27343 0.41015,-0.0391 0.89843,-0.0586 0.50782,-0.0195 1.07422,-0.0195 0.54688,0 1.01563,0.0195 0.48828,0.0195 0.89844,0.0586 0.27343,-1.50389 0.72265,-3.73046 0.44922,-2.22656 1.07422,-5.25391 z m 8.55469,-9.41406 q -3.39844,12.14843 -5.50781,27.55859 l -6.875,0.44922 0.74218,-3.84766 q -1.38672,-0.23437 -2.98828,-0.23437 -0.68359,0 -1.38672,0.0391 -0.70312,0.0391 -1.36718,0.11719 l -2.40235,4.45312 -6.97265,0.42969 q 1.69921,-2.92969 3.65234,-6.15234 1.97266,-3.24219 4.21875,-6.83594 2.26562,-3.59375 4.82422,-7.55858 2.55859,-3.98438 5.46875,-8.37892 l 8.59375,-0.0391 z" />
    <path
       inkscape:connector-curvature="0"
       id="path3380-2"
       style="font-size:medium;font-style:normal;font-variant:normal;font-weight:normal;font-stretch:normal;line-height:125%;letter-spacing:0px;word-spacing:0px;fill:#004455;fill-opacity:1;stroke:#fefefe;stroke-width:0.875;stroke-linecap:butt;stroke-linejoin:miter;stroke-miterlimit:4;stroke-opacity:1;stroke-dasharray:none;font-family:SF Fedora;-inkscape-font-specification:SF Fedora"
       d="m 648.99758,289.64204 q -2.89062,6.11328 -5.17578,11.48437 -2.26563,5.35156 -4.0625,10.03906 l 0.625,0 q 1.60156,0.0391 3.41797,-0.13672 1.8164,-0.19531 3.98437,-0.50781 l -3.20312,6.67969 q -3.4961,0.46875 -6.73828,0.72266 -3.24219,0.23437 -6.40625,0.19531 l -0.91797,0 q 5.05859,-14.78516 11.75781,-28.4375 l 6.71875,-0.0391 z" />
    <path
       inkscape:connector-curvature="0"
       id="path3382-1"
       style="font-size:medium;font-style:normal;font-variant:normal;font-weight:normal;font-stretch:normal;line-height:125%;letter-spacing:0px;word-spacing:0px;fill:#004455;fill-opacity:1;stroke:#fefefe;stroke-width:0.875;stroke-linecap:butt;stroke-linejoin:miter;stroke-miterlimit:4;stroke-opacity:1;stroke-dasharray:none;font-family:SF Fedora;-inkscape-font-specification:SF Fedora"
       d="m 670.66164,294.87641 q -2.7539,0.0586 -5.27343,0.21484 -2.5,0.13672 -4.80469,0.39063 -0.44922,0.9375 -0.91797,2.12891 -0.44922,1.17187 -0.95703,2.57812 2.28515,-0.27344 4.47265,-0.39062 2.20704,-0.11719 4.39454,-0.15625 l -2.59766,6.30859 -0.99609,0 q -1.9336,-0.0391 -3.88672,0.11719 -1.9336,0.13672 -4.04297,0.44922 -0.60547,1.11328 -1.09375,2.30468 -0.46875,1.17188 -0.85938,2.46094 2.53907,-0.29297 5.0586,-0.44922 2.51953,-0.15625 5.09765,-0.19531 l -2.59765,6.32812 q -4.14063,0.0781 -8.33985,0.35157 -4.19922,0.27343 -8.6914,0.80078 2.14843,-5.87891 4.41406,-11.40625 2.26562,-5.54688 4.78516,-11.07422 l -2.36329,0.0391 2.32422,-5.91797 q 5.39063,-0.11718 10.27344,-0.41015 4.88281,-0.3125 9.47266,-0.76172 l -2.8711,6.28906 z" />
    <path
       inkscape:connector-curvature="0"
       id="path3384-6"
       style="font-size:medium;font-style:normal;font-variant:normal;font-weight:normal;font-stretch:normal;line-height:125%;letter-spacing:0px;word-spacing:0px;fill:#004455;fill-opacity:1;stroke:#fefefe;stroke-width:0.875;stroke-linecap:butt;stroke-linejoin:miter;stroke-miterlimit:4;stroke-opacity:1;stroke-dasharray:none;font-family:SF Fedora;-inkscape-font-specification:SF Fedora"
       d="m 684.94289,295.8725 q -3.6914,0.11719 -3.84765,0.15625 -2.67578,0.41017 -2.67578,1.97267 0,0.15625 0.0781,0.85937 0.0781,0.68359 0.23438,1.97265 0.29296,2.07031 0.41015,3.26173 0.11719,1.19141 0.11719,1.54297 0,1.67969 -0.68359,3.55469 -0.625,1.62109 -1.3086,2.48047 -2.26562,2.96875 -7.08984,4.72656 -1.95313,0.68359 -4.0625,1.13281 -2.10938,0.42969 -4.41406,0.58594 l 2.07031,-7.16797 q 1.75781,-0.19531 3.10547,-0.46875 1.34765,-0.27344 2.30468,-0.60547 1.15235,-0.39063 1.5625,-0.97656 0.42969,-0.56642 0.42969,-1.77736 0,-0.52733 -0.0195,-0.99608 -0.0195,-0.48828 -0.0586,-0.9375 -0.0977,-0.76173 -0.46875,-2.75392 -0.3711,-1.67968 -0.3711,-2.79296 0,-2.92968 2.67578,-5.83985 2.28516,-2.51952 5.3711,-3.80858 2.36328,-0.99611 6.23047,-0.99611 0.9375,0 1.83593,0.0586 0.89844,0.0586 1.73829,0.13672 l -3.16407,6.67968 z" />
    <path
       inkscape:connector-curvature="0"
       id="path4517-9"
       style="font-size:medium;font-style:normal;font-variant:normal;font-weight:normal;font-stretch:normal;line-height:125%;letter-spacing:0px;word-spacing:0px;fill:#004455;fill-opacity:1;stroke:#fefefe;stroke-width:0.875;stroke-linecap:butt;stroke-linejoin:miter;stroke-miterlimit:4;stroke-opacity:1;stroke-dasharray:none;font-family:SF Fedora;-inkscape-font-specification:SF Fedora"
       d="m 514.77688,305.16026 0.91741,12.64633 -8.39322,0.70258 -0.83932,-13.0582 9.42773,-13.78498 8.35416,-0.0485 -9.46676,13.54273 z" />
    <path
       inkscape:connector-curvature="0"
       id="path4525-2"
       style="font-size:medium;font-style:normal;font-variant:normal;font-weight:normal;font-stretch:normal;line-height:125%;letter-spacing:0px;word-spacing:0px;fill:#004455;fill-opacity:1;stroke:#fefefe;stroke-width:0.875;stroke-linecap:butt;stroke-linejoin:miter;stroke-miterlimit:4;stroke-opacity:1;stroke-dasharray:none;font-family:SF Fedora;-inkscape-font-specification:SF Fedora"
       d="m 689.88628,316.14404 -9.50477,0.72468 10.937,-13.74494 -0.84631,-12.46465 9.37457,-0.70055 0.80292,12.51298 -10.76341,13.67248 z" />
    <path
       inkscape:connector-curvature="0"
       id="path4517-3-7"
       style="font-size:medium;font-style:normal;font-variant:normal;font-weight:normal;font-stretch:normal;line-height:125%;letter-spacing:0px;word-spacing:0px;fill:#004455;fill-opacity:1;stroke:#fefefe;stroke-width:0.5529002px;stroke-linecap:butt;stroke-linejoin:miter;stroke-opacity:1;font-family:SF Fedora;-inkscape-font-specification:SF Fedora"
       d="m 538.55755,340.9265 0.50354,5.68187 -4.60682,0.31566 -0.46068,-5.86691 5.17463,-6.19346 4.58539,-0.0218 -5.19606,6.08461 z" />
    <path
       inkscape:connector-curvature="0"
       id="path4525-7-9"
       style="font-size:medium;font-style:normal;font-variant:normal;font-weight:normal;font-stretch:normal;line-height:125%;letter-spacing:0px;word-spacing:0px;fill:#004455;fill-opacity:1;stroke:#fefefe;stroke-width:0.5529002px;stroke-linecap:butt;stroke-linejoin:miter;stroke-opacity:1;font-family:SF Fedora;-inkscape-font-specification:SF Fedora"
       d="m 544.61039,342.23735 -4.69253,0.32654 5.39962,-6.19346 -0.41783,-5.61656 4.62824,-0.31566 0.39641,5.63833 -5.31391,6.16081 z" />
    <text
       xml:space="preserve"
       style="font-size:16.75075722px;font-style:normal;font-weight:normal;line-height:125%;letter-spacing:0px;word-spacing:0px;fill:#004455;fill-opacity:1;stroke:none;font-family:sans-serif"
       x="551.79425"
       y="339.41608"
       id="text4554-2"
       sodipodi:linespacing="125%"><tspan
         sodipodi:role="line"
         id="tspan4556-5"
         x="551.79425"
         y="339.41608"
         style="font-style:normal;font-variant:normal;font-weight:normal;font-stretch:normal;font-family:OpenSymbol;-inkscape-font-specification:OpenSymbol">push for content</tspan></text>
    <path
       style="fill:#004455;fill-opacity:1;fill-rule:evenodd;stroke:#004455;stroke-width:1.17262435;stroke-linecap:butt;stroke-linejoin:miter;stroke-miterlimit:4;stroke-opacity:1;stroke-dasharray:none"
       d="m 534.72122,346.96949 154.71774,0 0,0.12562 0,0"
       id="path4564-1"
       inkscape:connector-curvature="0" />
  </g>
  <g
     inkscape:groupmode="layer"
     id="layer2"
     inkscape:label="Ebene"
     transform="translate(-379.125,-226.25)">
    <rect
       style="fill:#5fbcd3;fill-opacity:1;stroke:#004455;stroke-width:1.64862287;stroke-opacity:1;display:inline"
       id="rect4315-2-6"
       width="172.56566"
       height="27.137091"
       x="390.25446"
       y="231.39871" />
    <path
       inkscape:connector-curvature="0"
       id="path3370"
       style="font-size:medium;font-style:normal;font-variant:normal;font-weight:normal;font-stretch:normal;line-height:125%;letter-spacing:0px;word-spacing:0px;fill:#004455;fill-opacity:1;stroke:#fefefe;stroke-width:1px;stroke-linecap:butt;stroke-linejoin:miter;stroke-opacity:1;display:inline;font-family:SF Fedora;-inkscape-font-specification:SF Fedora"
       d="m 415.535,241.49189 q 0,-2.79296 -2.51953,-4.47264 -1.99219,-1.28907 -5.11719,-1.67969 l 1.5625,1.64062 q -2.05078,3.51563 -4.14062,8.16407 -2.07031,4.62889 -4.21875,10.64452 4.25781,-0.87891 8.22266,-4.04297 4.0039,-3.14453 5.52734,-7.12891 0.68359,-1.93359 0.68359,-3.125 z m 8.24219,-2.75389 q 0,2.48047 -1.21094,5.52733 -2.94922,7.40235 -10.39062,12.91017 -7.46094,5.60547 -15.29297,6.25 -1.11328,0.11718 -6.79688,0.46875 1.3086,-3.55469 2.71485,-7.05078 1.42578,-3.51563 2.94922,-7.03125 1.52343,-3.51563 3.18359,-7.05078 1.66016,-3.55469 3.47656,-7.1875 -0.5664,0.17578 -1.17187,0.3125 -0.58594,0.13671 -1.19141,0.29296 l 1.79688,-7.24609 q 3.28125,-0.76172 6.52343,-0.76172 6.01563,0 10.15625,2.2461 5.25391,2.85156 5.25391,8.32031 z" />
    <path
       inkscape:connector-curvature="0"
       id="path3372"
       style="font-size:medium;font-style:normal;font-variant:normal;font-weight:normal;font-stretch:normal;line-height:125%;letter-spacing:0px;word-spacing:0px;fill:#004455;fill-opacity:1;stroke:#fefefe;stroke-width:1px;stroke-linecap:butt;stroke-linejoin:miter;stroke-opacity:1;display:inline;font-family:SF Fedora;-inkscape-font-specification:SF Fedora"
       d="m 441.4061,236.58955 q -0.60547,-2.12891 -3.32032,-2.12891 l -0.44921,0 q -3.47657,0.3125 -6.64063,4.80469 -2.94922,4.25781 -2.94922,7.94922 0,2.8125 2.36328,2.8125 2.98828,0 6.03516,-3.53516 3.00781,-3.3789 3.00781,-6.38671 0,-1.11329 -0.41015,-1.97266 l 2.36328,-1.54297 z m 4.58984,-1.71875 q 0.44922,1.46484 0.44922,2.67578 0,1.9336 -1.15234,4.88281 -2.26563,5.33204 -7.01172,9.31641 -5.29297,4.47266 -10.54688,4.47266 -6.32812,0 -6.32812,-6.75782 0,-4.58983 2.96875,-9.84375 1.42578,-2.55858 3.24218,-4.62889 1.81641,-2.07032 4.0625,-3.73048 4.90235,-3.55469 9.49219,-3.55469 6.17188,0 7.03125,5.6836 l -2.20703,1.48438 z" />
    <path
       inkscape:connector-curvature="0"
       id="path3374"
       style="font-size:medium;font-style:normal;font-variant:normal;font-weight:normal;font-stretch:normal;line-height:125%;letter-spacing:0px;word-spacing:0px;fill:#004455;fill-opacity:1;stroke:#fefefe;stroke-width:1px;stroke-linecap:butt;stroke-linejoin:miter;stroke-opacity:1;display:inline;font-family:SF Fedora;-inkscape-font-specification:SF Fedora"
       d="m 462.89717,238.1381 q -0.11719,-3.35938 -3.4375,-3.35938 -3.65235,0 -7.03125,4.72656 -3.08594,4.41407 -3.08594,8.28125 0,2.59767 2.32422,2.59767 1.875,0 3.82812,-1.36719 1.6211,-1.09375 2.92969,-2.94923 l 5.50781,1.34767 q -2.7539,3.94531 -6.46484,6.36719 -4.25781,2.79297 -8.53516,2.79297 -6.1914,0 -6.1914,-6.67969 0,-4.62891 2.96875,-9.88281 2.89062,-5.09766 7.30468,-8.39844 4.78516,-3.55469 9.49219,-3.55469 6.17188,0 7.03125,5.6836 l -6.64062,4.39453 z" />
    <path
       inkscape:connector-curvature="0"
       id="path3376"
       style="font-size:medium;font-style:normal;font-variant:normal;font-weight:normal;font-stretch:normal;line-height:125%;letter-spacing:0px;word-spacing:0px;fill:#004455;fill-opacity:1;stroke:#fefefe;stroke-width:1px;stroke-linecap:butt;stroke-linejoin:miter;stroke-opacity:1;display:inline;font-family:SF Fedora;-inkscape-font-specification:SF Fedora"
       d="m 496.22361,235.36689 -10.625,0.15625 2.55859,1.26954 q -3.39843,7.24609 -6.17187,13.78907 -2.75391,6.54297 -4.96094,12.69531 l -8.0664,-0.27344 q 1.1914,-3.47656 2.48046,-6.89453 1.28907,-3.4375 2.69532,-6.83594 1.40625,-3.39843 2.92968,-6.79687 1.54297,-3.39844 3.24219,-6.83594 l -7.79297,0.11719 3.55469,-7.75391 23.76953,-0.41015 -3.61328,7.77343 z" />
    <path
       inkscape:connector-curvature="0"
       id="path3378"
       style="font-size:medium;font-style:normal;font-variant:normal;font-weight:normal;font-stretch:normal;line-height:125%;letter-spacing:0px;word-spacing:0px;fill:#004455;fill-opacity:1;stroke:#fefefe;stroke-width:1px;stroke-linecap:butt;stroke-linejoin:miter;stroke-opacity:1;display:inline;font-family:SF Fedora;-inkscape-font-specification:SF Fedora"
       d="m 501.2504,237.00752 q -0.99609,1.46484 -2.38281,3.71094 -1.36719,2.24609 -3.30078,5.27343 0.41015,-0.0391 0.89843,-0.0586 0.50782,-0.0195 1.07422,-0.0195 0.54688,0 1.01563,0.0195 0.48828,0.0195 0.89844,0.0586 0.27343,-1.50389 0.72265,-3.73046 0.44922,-2.22656 1.07422,-5.25391 z m 8.55469,-9.41406 q -3.39844,12.14843 -5.50781,27.55859 l -6.875,0.44922 0.74218,-3.84766 q -1.38672,-0.23437 -2.98828,-0.23437 -0.68359,0 -1.38672,0.0391 -0.70312,0.0391 -1.36718,0.11719 l -2.40235,4.45312 -6.97265,0.42969 q 1.69921,-2.92969 3.65234,-6.15234 1.97266,-3.24219 4.21875,-6.83594 2.26562,-3.59375 4.82422,-7.55858 2.55859,-3.98438 5.46875,-8.37892 l 8.59375,-0.0391 z" />
    <path
       inkscape:connector-curvature="0"
       id="path3380"
       style="font-size:medium;font-style:normal;font-variant:normal;font-weight:normal;font-stretch:normal;line-height:125%;letter-spacing:0px;word-spacing:0px;fill:#004455;fill-opacity:1;stroke:#fefefe;stroke-width:1px;stroke-linecap:butt;stroke-linejoin:miter;stroke-opacity:1;display:inline;font-family:SF Fedora;-inkscape-font-specification:SF Fedora"
       d="m 522.21915,227.88643 q -2.89062,6.11328 -5.17578,11.48437 -2.26563,5.35156 -4.0625,10.03906 l 0.625,0 q 1.60156,0.0391 3.41797,-0.13672 1.8164,-0.19531 3.98437,-0.50781 l -3.20312,6.67969 q -3.4961,0.46875 -6.73828,0.72266 -3.24219,0.23437 -6.40625,0.19531 l -0.91797,0 q 5.05859,-14.78516 11.75781,-28.4375 l 6.71875,-0.0391 z" />
    <path
       inkscape:connector-curvature="0"
       id="path3382"
       style="font-size:medium;font-style:normal;font-variant:normal;font-weight:normal;font-stretch:normal;line-height:125%;letter-spacing:0px;word-spacing:0px;fill:#004455;fill-opacity:1;stroke:#fefefe;stroke-width:1px;stroke-linecap:butt;stroke-linejoin:miter;stroke-opacity:1;display:inline;font-family:SF Fedora;-inkscape-font-specification:SF Fedora"
       d="m 543.88321,233.1208 q -2.7539,0.0586 -5.27343,0.21484 -2.5,0.13672 -4.80469,0.39063 -0.44922,0.9375 -0.91797,2.12891 -0.44922,1.17187 -0.95703,2.57812 2.28515,-0.27344 4.47265,-0.39062 2.20704,-0.11719 4.39454,-0.15625 l -2.59766,6.30859 -0.99609,0 q -1.9336,-0.0391 -3.88672,0.11719 -1.9336,0.13672 -4.04297,0.44922 -0.60547,1.11328 -1.09375,2.30468 -0.46875,1.17188 -0.85938,2.46094 2.53907,-0.29297 5.0586,-0.44922 2.51953,-0.15625 5.09765,-0.19531 l -2.59765,6.32812 q -4.14063,0.0781 -8.33985,0.35157 -4.19922,0.27343 -8.6914,0.80078 2.14843,-5.87891 4.41406,-11.40625 2.26562,-5.54688 4.78516,-11.07422 l -2.36329,0.0391 2.32422,-5.91797 q 5.39063,-0.11718 10.27344,-0.41015 4.88281,-0.3125 9.47266,-0.76172 l -2.8711,6.28906 z" />
    <path
       inkscape:connector-curvature="0"
       id="path3384"
       style="font-size:medium;font-style:normal;font-variant:normal;font-weight:normal;font-stretch:normal;line-height:125%;letter-spacing:0px;word-spacing:0px;fill:#004455;fill-opacity:1;stroke:#fefefe;stroke-width:1px;stroke-linecap:butt;stroke-linejoin:miter;stroke-opacity:1;display:inline;font-family:SF Fedora;-inkscape-font-specification:SF Fedora"
       d="m 558.16446,234.11689 q -3.6914,0.11719 -3.84765,0.15625 -2.67578,0.41017 -2.67578,1.97267 0,0.15625 0.0781,0.85937 0.0781,0.68359 0.23438,1.97265 0.29296,2.07031 0.41015,3.26173 0.11719,1.19141 0.11719,1.54297 0,1.67969 -0.68359,3.55469 -0.625,1.62109 -1.3086,2.48047 -2.26562,2.96875 -7.08984,4.72656 -1.95313,0.68359 -4.0625,1.13281 -2.10938,0.42969 -4.41406,0.58594 l 2.07031,-7.16797 q 1.75781,-0.19531 3.10547,-0.46875 1.34765,-0.27344 2.30468,-0.60547 1.15235,-0.39063 1.5625,-0.97656 0.42969,-0.56642 0.42969,-1.77736 0,-0.52733 -0.0195,-0.99608 -0.0195,-0.48828 -0.0586,-0.9375 -0.0977,-0.76173 -0.46875,-2.75392 -0.3711,-1.67968 -0.3711,-2.79296 0,-2.92968 2.67578,-5.83985 2.28516,-2.51952 5.3711,-3.80858 2.36328,-0.99611 6.23047,-0.99611 0.9375,0 1.83593,0.0586 0.89844,0.0586 1.73829,0.13672 l -3.16407,6.67968 z" />
    <path
       inkscape:connector-curvature="0"
       id="path4517"
       style="font-size:medium;font-style:normal;font-variant:normal;font-weight:normal;font-stretch:normal;line-height:125%;letter-spacing:0px;word-spacing:0px;fill:#004455;fill-opacity:1;stroke:#fefefe;stroke-width:1.11338902px;stroke-linecap:butt;stroke-linejoin:miter;stroke-opacity:1;display:inline;font-family:SF Fedora;-inkscape-font-specification:SF Fedora"
       d="m 387.99845,243.40465 0.91741,12.64633 -8.39322,0.70258 -0.83932,-13.0582 9.42773,-13.78498 8.35416,-0.0485 -9.46676,13.54273 z" />
    <path
       inkscape:connector-curvature="0"
       id="path4525"
       style="font-size:medium;font-style:normal;font-variant:normal;font-weight:normal;font-stretch:normal;line-height:125%;letter-spacing:0px;word-spacing:0px;fill:#004455;fill-opacity:1;stroke:#fefefe;stroke-width:1.17224741px;stroke-linecap:butt;stroke-linejoin:miter;stroke-opacity:1;display:inline;font-family:SF Fedora;-inkscape-font-specification:SF Fedora"
       d="m 563.10785,254.38843 -9.50477,0.72468 10.937,-13.74494 -0.84631,-12.46465 9.37457,-0.70055 0.80292,12.51298 -10.76341,13.67248 z" />
    <path
       inkscape:connector-curvature="0"
       id="path4517-3"
       style="font-size:medium;font-style:normal;font-variant:normal;font-weight:normal;font-stretch:normal;line-height:125%;letter-spacing:0px;word-spacing:0px;fill:#004455;fill-opacity:1;stroke:#fefefe;stroke-width:0.5529002px;stroke-linecap:butt;stroke-linejoin:miter;stroke-opacity:1;display:inline;font-family:SF Fedora;-inkscape-font-specification:SF Fedora"
       d="m 411.77912,279.17089 0.50354,5.68187 -4.60682,0.31566 -0.46068,-5.86691 5.17463,-6.19346 4.58539,-0.0218 -5.19606,6.08461 z" />
    <path
       inkscape:connector-curvature="0"
       id="path4525-7"
       style="font-size:medium;font-style:normal;font-variant:normal;font-weight:normal;font-stretch:normal;line-height:125%;letter-spacing:0px;word-spacing:0px;fill:#004455;fill-opacity:1;stroke:#fefefe;stroke-width:0.5529002px;stroke-linecap:butt;stroke-linejoin:miter;stroke-opacity:1;display:inline;font-family:SF Fedora;-inkscape-font-specification:SF Fedora"
       d="m 417.83196,280.48174 -4.69253,0.32654 5.39962,-6.19346 -0.41783,-5.61656 4.62824,-0.31566 0.39641,5.63833 -5.31391,6.16081 z" />
    <g
       style="font-size:16.75075722px;font-style:normal;font-weight:normal;line-height:125%;letter-spacing:0px;word-spacing:0px;fill:#004455;fill-opacity:1;stroke:none;display:inline;font-family:sans-serif"
       id="text4554">
      <path
         d="m 427.87163,277.00067 0,4.85837 -1.51313,0 0,-12.64485 1.51313,0 0,1.39044 c 0.31625,-0.54526 0.7143,-0.94877 1.19414,-1.2105 0.48529,-0.26718 1.06328,-0.40077 1.73397,-0.40078 1.11235,10e-6 2.01477,0.44168 2.70727,1.32501 0.69794,0.88335 1.04692,2.04478 1.04693,3.48429 -1e-5,1.43952 -0.34899,2.60095 -1.04693,3.48429 -0.6925,0.88334 -1.59492,1.32501 -2.70727,1.32501 -0.67069,0 -1.24868,-0.13087 -1.73397,-0.3926 -0.47984,-0.26718 -0.87789,-0.67341 -1.19414,-1.21868 m 5.1201,-3.19802 c -1e-5,-1.1069 -0.22902,-1.97388 -0.68704,-2.60095 -0.45258,-0.63251 -1.07692,-0.94876 -1.87301,-0.94877 -0.7961,1e-5 -1.42316,0.31626 -1.88119,0.94877 -0.45258,0.62707 -0.67887,1.49405 -0.67886,2.60095 -10e-6,1.10691 0.22628,1.97661 0.67886,2.60913 0.45803,0.62706 1.08509,0.94059 1.88119,0.94059 0.79609,0 1.42043,-0.31353 1.87301,-0.94059 0.45802,-0.63252 0.68703,-1.50222 0.68704,-2.60913"
         style="font-variant:normal;font-stretch:normal;font-family:OpenSymbol;-inkscape-font-specification:OpenSymbol"
         id="path3080" />
      <path
         d="m 436.89315,274.7596 0,-5.54541 1.50495,0 0,5.48816 c 0,0.86698 0.16904,1.51858 0.50711,1.9548 0.33806,0.43077 0.84516,0.64615 1.52131,0.64615 0.81245,0 1.45314,-0.25901 1.92208,-0.77702 0.47438,-0.518 0.71157,-1.22413 0.71158,-2.11838 l 0,-5.19371 1.50495,0 0,9.16057 -1.50495,0 0,-1.40681 c -0.36534,0.55618 -0.79065,0.97059 -1.27594,1.24322 -0.47984,0.26719 -1.03874,0.40078 -1.67671,0.40078 -1.05238,0 -1.8512,-0.32716 -2.39647,-0.98149 -0.54527,-0.65433 -0.81791,-1.61128 -0.81791,-2.87086 m 3.78692,-5.76625 0,0"
         style="font-variant:normal;font-stretch:normal;font-family:OpenSymbol;-inkscape-font-specification:OpenSymbol"
         id="path3082" />
      <path
         d="m 453.52122,269.4841 0,1.42316 c -0.42531,-0.21811 -0.86698,-0.38169 -1.32501,-0.49075 -0.45803,-0.10905 -0.93242,-0.16357 -1.42316,-0.16358 -0.74702,1e-5 -1.30865,0.11451 -1.68489,0.34352 -0.37078,0.22902 -0.55618,0.57254 -0.55617,1.03056 -1e-5,0.34898 0.13358,0.62435 0.40077,0.82609 0.26718,0.19631 0.80427,0.38442 1.61128,0.56436 l 0.51528,0.11451 c 1.06873,0.22901 1.82666,0.55345 2.27379,0.97331 0.45256,0.41441 0.67885,0.99512 0.67886,1.74214 -1e-5,0.85063 -0.33808,1.52404 -1.01421,2.02023 -0.67069,0.4962 -1.59492,0.7443 -2.7727,0.7443 -0.49075,0 -1.00331,-0.0491 -1.53767,-0.14722 -0.52892,-0.0927 -1.08782,-0.23447 -1.67671,-0.42532 l 0,-1.55402 c 0.55617,0.28899 1.10417,0.5071 1.64399,0.65432 0.53982,0.14178 1.07418,0.21266 1.6031,0.21266 0.70885,0 1.25412,-0.11996 1.63582,-0.35988 0.38168,-0.24537 0.57253,-0.58889 0.57253,-1.03056 0,-0.40895 -0.13905,-0.72249 -0.41713,-0.9406 -0.27264,-0.2181 -0.87517,-0.42803 -1.80758,-0.62979 l -0.52346,-0.12268 c -0.93242,-0.1963 -1.60583,-0.4962 -2.02023,-0.8997 -0.41441,-0.40895 -0.62161,-0.96785 -0.62161,-1.67671 0,-0.86153 0.30535,-1.52676 0.91606,-1.9957 0.6107,-0.46892 1.47768,-0.70339 2.60094,-0.7034 0.55618,10e-6 1.07964,0.0409 1.57039,0.12269 0.49074,0.0818 0.94331,0.20448 1.35772,0.36806"
         style="font-variant:normal;font-stretch:normal;font-family:OpenSymbol;-inkscape-font-specification:OpenSymbol"
         id="path3084" />
      <path
         d="m 464.03134,272.8457 0,5.52906 -1.50495,0 0,-5.47999 c -10e-6,-0.86697 -0.16904,-1.51585 -0.5071,-1.94662 -0.33808,-0.43076 -0.84518,-0.64614 -1.52131,-0.64615 -0.81246,10e-6 -1.45315,0.25902 -1.92208,0.77702 -0.46894,0.51801 -0.70341,1.22414 -0.7034,2.11838 l 0,5.17736 -1.51313,0 0,-12.72665 1.51313,0 0,4.98924 c 0.35987,-0.55072 0.78246,-0.9624 1.26775,-1.23505 0.49074,-0.27262 1.0551,-0.40894 1.69307,-0.40895 1.05237,10e-6 1.84847,0.32717 2.38829,0.98149 0.53981,0.64888 0.80972,1.60583 0.80973,2.87086"
         style="font-variant:normal;font-stretch:normal;font-family:OpenSymbol;-inkscape-font-specification:OpenSymbol"
         id="path3086" />
      <path
         d="m 477.01972,265.64811 0,1.2514 -1.43951,0 c -0.53983,10e-6 -0.91606,0.10906 -1.12872,0.32716 -0.2072,0.21812 -0.31081,0.61071 -0.3108,1.17779 l 0,0.80973 2.47826,0 0,1.1696 -2.47826,0 0,7.99097 -1.51313,0 0,-7.99097 -1.43952,0 0,-1.1696 1.43952,0 0,-0.63797 c 0,-1.01965 0.23719,-1.76122 0.71158,-2.22471 0.47438,-0.46892 1.22686,-0.70339 2.25742,-0.7034 l 1.42316,0"
         style="font-variant:normal;font-stretch:normal;font-family:OpenSymbol;-inkscape-font-specification:OpenSymbol"
         id="path3088" />
      <path
         d="m 481.82084,270.26929 c -0.80701,10e-6 -1.44497,0.31626 -1.9139,0.94877 -0.46894,0.62707 -0.70341,1.4886 -0.7034,2.58459 -10e-6,1.096 0.23173,1.96026 0.69522,2.59277 0.46893,0.62706 1.10962,0.94059 1.92208,0.94059 0.80155,0 1.43679,-0.31625 1.90573,-0.94877 0.46892,-0.63251 0.70339,-1.49404 0.7034,-2.58459 -1e-5,-1.08509 -0.23448,-1.94389 -0.7034,-2.57641 -0.46894,-0.63796 -1.10418,-0.95694 -1.90573,-0.95695 m 0,-1.27594 c 1.30865,10e-6 2.33649,0.42532 3.08352,1.27594 0.74701,0.85063 1.12052,2.02841 1.12053,3.53336 -1e-5,1.4995 -0.37352,2.67729 -1.12053,3.53336 -0.74703,0.85063 -1.77487,1.27594 -3.08352,1.27594 -1.31411,0 -2.34467,-0.42531 -3.09169,-1.27594 -0.74157,-0.85607 -1.11236,-2.03386 -1.11236,-3.53336 0,-1.50495 0.37079,-2.68273 1.11236,-3.53336 0.74702,-0.85062 1.77758,-1.27593 3.09169,-1.27594"
         style="font-variant:normal;font-stretch:normal;font-family:OpenSymbol;-inkscape-font-specification:OpenSymbol"
         id="path3090" />
      <path
         d="m 493.81956,270.62099 c -0.16905,-0.0981 -0.35444,-0.16903 -0.55618,-0.21266 -0.19631,-0.0491 -0.41441,-0.0736 -0.65433,-0.0736 -0.85063,10e-6 -1.50495,0.2781 -1.96298,0.83427 -0.45258,0.55073 -0.67886,1.3441 -0.67886,2.38011 l 0,4.82566 -1.51313,0 0,-9.16057 1.51313,0 0,1.42316 c 0.31625,-0.55617 0.72793,-0.96785 1.23504,-1.23505 0.5071,-0.27262 1.12325,-0.40894 1.84847,-0.40895 0.1036,10e-6 0.2181,0.008 0.34352,0.0245 0.12541,0.0109 0.26445,0.03 0.41714,0.0572 l 0.008,1.54585"
         style="font-variant:normal;font-stretch:normal;font-family:OpenSymbol;-inkscape-font-specification:OpenSymbol"
         id="path3092" />
      <path
         d="m 507.33957,269.56589 0,1.4068 c -0.42532,-0.23446 -0.85336,-0.40895 -1.28411,-0.52346 -0.42532,-0.11996 -0.85609,-0.17993 -1.2923,-0.17994 -0.97604,10e-6 -1.73397,0.31081 -2.27378,0.93241 -0.53982,0.61617 -0.80973,1.48315 -0.80973,2.60095 0,1.11781 0.26991,1.98752 0.80973,2.60913 0.53981,0.61616 1.29774,0.92423 2.27378,0.92423 0.43621,0 0.86698,-0.0573 1.2923,-0.17176 0.43075,-0.11996 0.85879,-0.29717 1.28411,-0.53164 l 0,1.39045 c -0.41986,0.19629 -0.85608,0.34352 -1.30865,0.44167 -0.44713,0.0981 -0.92424,0.14722 -1.43134,0.14722 -1.37954,0 -2.47554,-0.43349 -3.28799,-1.30047 -0.81246,-0.86699 -1.21868,-2.03659 -1.21868,-3.50883 0,-1.49404 0.40895,-2.6691 1.22686,-3.52518 0.82336,-0.85607 1.94934,-1.28411 3.37796,-1.28412 0.46347,10e-6 0.91605,0.0491 1.35773,0.14722 0.44166,0.0927 0.8697,0.23448 1.28411,0.42532"
         style="font-variant:normal;font-stretch:normal;font-family:OpenSymbol;-inkscape-font-specification:OpenSymbol"
         id="path3094" />
      <path
         d="m 513.52296,270.26929 c -0.80701,10e-6 -1.44497,0.31626 -1.91391,0.94877 -0.46893,0.62707 -0.7034,1.4886 -0.7034,2.58459 0,1.096 0.23174,1.96026 0.69523,2.59277 0.46893,0.62706 1.10962,0.94059 1.92208,0.94059 0.80154,0 1.43679,-0.31625 1.90573,-0.94877 0.46892,-0.63251 0.70339,-1.49404 0.7034,-2.58459 -10e-6,-1.08509 -0.23448,-1.94389 -0.7034,-2.57641 -0.46894,-0.63796 -1.10419,-0.95694 -1.90573,-0.95695 m 0,-1.27594 c 1.30865,10e-6 2.33648,0.42532 3.08351,1.27594 0.74702,0.85063 1.12053,2.02841 1.12054,3.53336 -10e-6,1.4995 -0.37352,2.67729 -1.12054,3.53336 -0.74703,0.85063 -1.77486,1.27594 -3.08351,1.27594 -1.31411,0 -2.34467,-0.42531 -3.09169,-1.27594 -0.74157,-0.85607 -1.11236,-2.03386 -1.11236,-3.53336 0,-1.50495 0.37079,-2.68273 1.11236,-3.53336 0.74702,-0.85062 1.77758,-1.27593 3.09169,-1.27594"
         style="font-variant:normal;font-stretch:normal;font-family:OpenSymbol;-inkscape-font-specification:OpenSymbol"
         id="path3096" />
      <path
         d="m 527.82817,272.8457 0,5.52906 -1.50495,0 0,-5.47999 c 0,-0.86697 -0.16904,-1.51585 -0.5071,-1.94662 -0.33807,-0.43076 -0.84518,-0.64614 -1.52131,-0.64615 -0.81246,10e-6 -1.45315,0.25902 -1.92208,0.77702 -0.46894,0.51801 -0.70341,1.22414 -0.7034,2.11838 l 0,5.17736 -1.51313,0 0,-9.16057 1.51313,0 0,1.42316 c 0.35987,-0.55072 0.78246,-0.9624 1.26775,-1.23505 0.49074,-0.27262 1.0551,-0.40894 1.69307,-0.40895 1.05237,10e-6 1.84847,0.32717 2.3883,0.98149 0.53981,0.64888 0.80972,1.60583 0.80972,2.87086"
         style="font-variant:normal;font-stretch:normal;font-family:OpenSymbol;-inkscape-font-specification:OpenSymbol"
         id="path3098" />
      <path
         d="m 532.33485,266.61324 0,2.60095 3.09987,0 0,1.1696 -3.09987,0 0,4.97289 c -10e-6,0.74702 0.10087,1.22686 0.30262,1.43951 0.2072,0.21266 0.62434,0.31899 1.2514,0.31899 l 1.54585,0 0,1.25958 -1.54585,0 c -1.16143,0 -1.96298,-0.21539 -2.40465,-0.64615 -0.44167,-0.43622 -0.6625,-1.22686 -0.6625,-2.37193 l 0,-4.97289 -1.10418,0 0,-1.1696 1.10418,0 0,-2.60095 1.51313,0"
         style="font-variant:normal;font-stretch:normal;font-family:OpenSymbol;-inkscape-font-specification:OpenSymbol"
         id="path3100" />
      <path
         d="m 545.2578,273.41823 0,0.73612 -6.91951,0 c 0.0654,1.03602 0.37624,1.82666 0.93242,2.37193 0.56162,0.53982 1.34136,0.80973 2.33922,0.80973 0.57798,0 1.13688,-0.0709 1.67671,-0.21265 0.54526,-0.14177 1.08508,-0.35443 1.61946,-0.63797 l 0,1.42316 c -0.53983,0.22901 -1.09328,0.4035 -1.66036,0.52346 -0.56709,0.11996 -1.14235,0.17994 -1.72578,0.17994 -1.46134,0 -2.62004,-0.42531 -3.47611,-1.27594 -0.85063,-0.85062 -1.27594,-2.00114 -1.27594,-3.45157 0,-1.49949 0.4035,-2.68818 1.2105,-3.56608 0.81246,-0.88333 1.90573,-1.325 3.27982,-1.32501 1.2323,10e-6 2.20561,0.39806 2.91993,1.19415 0.71975,0.79065 1.07963,1.86756 1.07964,3.23073 m -1.50496,-0.44167 c -0.0109,-0.82335 -0.24265,-1.4804 -0.69522,-1.97116 -0.44713,-0.49073 -1.04147,-0.7361 -1.78304,-0.73611 -0.83972,10e-6 -1.51313,0.2372 -2.02023,0.71158 -0.50165,0.47439 -0.79065,1.14235 -0.86698,2.00387 l 5.36547,-0.008"
         style="font-variant:normal;font-stretch:normal;font-family:OpenSymbol;-inkscape-font-specification:OpenSymbol"
         id="path3102" />
      <path
         d="m 555.3426,272.8457 0,5.52906 -1.50495,0 0,-5.47999 c -1e-5,-0.86697 -0.16904,-1.51585 -0.5071,-1.94662 -0.33808,-0.43076 -0.84518,-0.64614 -1.52131,-0.64615 -0.81246,10e-6 -1.45316,0.25902 -1.92209,0.77702 -0.46893,0.51801 -0.7034,1.22414 -0.7034,2.11838 l 0,5.17736 -1.51313,0 0,-9.16057 1.51313,0 0,1.42316 c 0.35988,-0.55072 0.78247,-0.9624 1.26776,-1.23505 0.49074,-0.27262 1.0551,-0.40894 1.69307,-0.40895 1.05237,10e-6 1.84847,0.32717 2.38829,0.98149 0.53981,0.64888 0.80972,1.60583 0.80973,2.87086"
         style="font-variant:normal;font-stretch:normal;font-family:OpenSymbol;-inkscape-font-specification:OpenSymbol"
         id="path3104" />
      <path
         d="m 559.84928,266.61324 0,2.60095 3.09987,0 0,1.1696 -3.09987,0 0,4.97289 c -10e-6,0.74702 0.10087,1.22686 0.30262,1.43951 0.2072,0.21266 0.62433,0.31899 1.2514,0.31899 l 1.54585,0 0,1.25958 -1.54585,0 c -1.16143,0 -1.96298,-0.21539 -2.40465,-0.64615 -0.44167,-0.43622 -0.66251,-1.22686 -0.6625,-2.37193 l 0,-4.97289 -1.10418,0 0,-1.1696 1.10418,0 0,-2.60095 1.51313,0"
         style="font-variant:normal;font-stretch:normal;font-family:OpenSymbol;-inkscape-font-specification:OpenSymbol"
         id="path3106" />
    </g>
    <path
       style="fill:#004455;fill-opacity:1;fill-rule:evenodd;stroke:#004455;stroke-width:1.88399994;stroke-linecap:butt;stroke-linejoin:miter;stroke-miterlimit:4;stroke-opacity:1;stroke-dasharray:none;display:inline"
       d="m 408.05625,285.12726 155.36701,0 0,0.32293 0,0"
       id="path4564"
       inkscape:connector-curvature="0" />
  </g>
</svg>
