<?xml version="1.0" encoding="UTF-8" standalone="no"?>
<!-- Created with Inkscape (https://www.inkscape.org/) -->

<svg
   xmlns:dc="https://purl.org/dc/elements/1.1/"
   xmlns:cc="https://creativecommons.org/ns#"
   xmlns:rdf="https://www.w3.org/1999/02/22-rdf-syntax-ns#"
   xmlns:svg="https://www.w3.org/2000/svg"
   xmlns="https://www.w3.org/2000/svg"
   xmlns:xlink="https://www.w3.org/1999/xlink"
   xmlns:sodipodi="https://sodipodi.sourceforge.net/DTD/sodipodi-0.dtd"
   xmlns:inkscape="https://www.inkscape.org/namespaces/inkscape"
   width="600"
   height="183.3186"
   viewBox="0 0 600.00001 183.31861"
   id="svg2"
   version="1.1"
   inkscape:version="0.91 r13725"
   sodipodi:docname="doctales-logo.svg">
  <defs
     id="defs4">
    <linearGradient
       inkscape:collect="always"
       id="linearGradient4299">
      <stop
         style="stop-color:#ffff00;stop-opacity:1;"
         offset="0"
         id="stop4301" />
      <stop
         style="stop-color:#ff0000;stop-opacity:1"
         offset="1"
         id="stop4303" />
    </linearGradient>
    <linearGradient
       inkscape:collect="always"
       id="linearGradient4291">
      <stop
         style="stop-color:#ffff00;stop-opacity:1"
         offset="0"
         id="stop4293" />
      <stop
         style="stop-color:#ff0000;stop-opacity:1"
         offset="1"
         id="stop4295" />
    </linearGradient>
    <linearGradient
       inkscape:collect="always"
       id="linearGradient4283">
      <stop
         style="stop-color:#ff0000;stop-opacity:1;"
         offset="0"
         id="stop4285" />
      <stop
         style="stop-color:#ffff00;stop-opacity:1"
         offset="1"
         id="stop4287" />
    </linearGradient>
    <linearGradient
       inkscape:collect="always"
       id="linearGradient4243">
      <stop
         style="stop-color:#ff0000;stop-opacity:1;"
         offset="0"
         id="stop4245" />
      <stop
         style="stop-color:#ffff00;stop-opacity:1"
         offset="1"
         id="stop4247" />
    </linearGradient>
    <linearGradient
       inkscape:collect="always"
       xlink:href="#linearGradient4243"
       id="linearGradient4249"
       x1="107.91724"
       y1="236.45381"
       x2="100.9641"
       y2="260.73953"
       gradientUnits="userSpaceOnUse" />
    <linearGradient
       inkscape:collect="always"
       xlink:href="#linearGradient4283"
       id="linearGradient4289"
       x1="137.34804"
       y1="236.27524"
       x2="126.10921"
       y2="258.77524"
       gradientUnits="userSpaceOnUse" />
    <linearGradient
       inkscape:collect="always"
       xlink:href="#linearGradient4291"
       id="linearGradient4297"
       x1="148.33298"
       y1="267.21414"
       x2="172.78331"
       y2="234.35699"
       gradientUnits="userSpaceOnUse" />
    <linearGradient
       inkscape:collect="always"
       xlink:href="#linearGradient4299"
       id="linearGradient4305"
       x1="176.44678"
       y1="258.67618"
       x2="193.91887"
       y2="230.46188"
       gradientUnits="userSpaceOnUse" />
  </defs>
  <sodipodi:namedview
     id="base"
     pagecolor="#ffffff"
     bordercolor="#666666"
     borderopacity="1.0"
     inkscape:pageopacity="0.0"
     inkscape:pageshadow="2"
     inkscape:zoom="0.9899495"
     inkscape:cx="40.59138"
     inkscape:cy="-90.032806"
     inkscape:document-units="px"
     inkscape:current-layer="layer2"
     showgrid="false"
     inkscape:window-width="1920"
     inkscape:window-height="1028"
     inkscape:window-x="0"
     inkscape:window-y="0"
     inkscape:window-maximized="1"
     fit-margin-top="0"
     fit-margin-left="0"
     fit-margin-right="0"
     fit-margin-bottom="0" />
  <metadata
     id="metadata7">
    <rdf:RDF>
      <cc:Work
         rdf:about="">
        <dc:format>image/svg+xml</dc:format>
        <dc:type
           rdf:resource="https://purl.org/dc/dcmitype/StillImage" />
        <dc:title></dc:title>
      </cc:Work>
    </rdf:RDF>
  </metadata>
  <g
     inkscape:label="Ebene 1"
     inkscape:groupmode="layer"
     id="layer1"
     style="display:none"
     sodipodi:insensitive="true"
     transform="translate(-382.09441,-102.24105)">
    <path
       style="fill:#37abc8;fill-opacity:1;stroke:#006680;stroke-width:2.58400011;stroke-miterlimit:4;stroke-dasharray:none;stroke-opacity:1"
       d="m 313.92913,138.56891 a 66.436447,66.436447 0 0 0 -64.34375,50.22266 l 128.70899,0 a 66.436447,66.436447 0 0 0 -64.36524,-50.22266 z"
       id="path4377"
       inkscape:connector-curvature="0" />
    <rect
       style="opacity:0.81000001;fill:#000000;fill-opacity:0.86458333;stroke:#828082;stroke-width:1.24372447;stroke-opacity:1"
       id="rect4315-2"
       width="81.899139"
       height="32.541988"
       x="355.21115"
       y="176.25194" />
    <rect
       style="opacity:0.81000001;fill:#000000;fill-opacity:0.86458333;stroke:#828082;stroke-width:1.13290834;stroke-opacity:1"
       id="rect4315"
       width="67.724243"
       height="32.652802"
       x="277.53076"
       y="176.19655" />
    <path
       style="font-style:normal;font-variant:normal;font-weight:normal;font-stretch:normal;font-size:medium;line-height:125%;font-family:'SF Fedora Shadow';-inkscape-font-specification:'SF Fedora Shadow';letter-spacing:0px;word-spacing:0px;fill:#000000;fill-opacity:1;stroke:none"
       d="m 197.18059,231.73004 q -3.33985,11.95313 -5.54688,28.10547 l -2.61719,0.17578 q -0.11718,0.72266 -0.21484,1.42578 -0.0781,0.6836 -0.17578,1.40625 l -8.59375,0.56641 0.80078,-4.04297 q -1.03516,-0.11719 -2.05078,-0.11719 l -0.80078,0 -0.83985,1.5625 -1.44531,0.0781 -1.54297,2.91015 -8.92578,0.56641 q 1.67969,-2.89062 3.78906,-6.38672 2.12891,-3.51562 4.58985,-7.42187 2.46093,-3.92578 5.17578,-8.16407 2.73437,-4.25781 5.60547,-8.63281 l 1.03515,0 q 0.48828,-0.74219 0.95703,-1.48437 0.48829,-0.76172 0.9961,-1.52344 l 9.04297,-0.0391 0.76172,1.01562 0,0 z"
       id="path3361"
       inkscape:connector-curvature="0" />
    <path
       style="font-style:normal;font-variant:normal;font-weight:normal;font-stretch:normal;font-size:medium;line-height:125%;font-family:'SF Fedora Shadow';-inkscape-font-specification:'SF Fedora Shadow';letter-spacing:0px;word-spacing:0px;fill:url(#linearGradient4305);fill-opacity:1;stroke:none"
       d="m 187.82512,231.55426 q -5.76172,8.76953 -10.29297,15.95703 -4.51172,7.16797 -7.8711,12.96875 l 6.97266,-0.42969 2.38281,-4.45312 q 0.6836,-0.0781 1.38672,-0.11719 0.70313,-0.0391 1.38672,-0.0391 1.60156,0 2.98828,0.23437 l -0.76172,3.84766 6.89453,-0.44922 q 2.07032,-15.33203 5.50782,-27.55859 l -8.59375,0.0391 z"
       id="path4271"
       inkscape:connector-curvature="0" />
    <path
       style="font-style:normal;font-variant:normal;font-weight:normal;font-stretch:normal;font-size:medium;line-height:125%;font-family:'SF Fedora Shadow';-inkscape-font-specification:'SF Fedora Shadow';letter-spacing:0px;word-spacing:0px;fill:#000000;fill-opacity:1;stroke:none"
       d="m 173.23531,240.12848 -1.36718,2.94922 -5.83985,0.0781 q -3.125,6.75782 -5.70312,12.96875 -2.57813,6.19141 -4.60938,11.91407 l -1.875,-0.0781 q -0.3125,0.78125 -0.58594,1.54297 -0.27343,0.76172 -0.54687,1.54297 l -9.74609,-0.3711 q 2.46093,-7.10937 5.21484,-13.90625 2.75391,-6.79687 5.9375,-13.35937 l -7.71484,0.0781 4.27734,-9.35546 1.64062,0 1.34766,-3.00782 25.52734,-0.44922 -4.3164,9.41407 -1.64063,0.0391 z"
       id="path3359"
       inkscape:connector-curvature="0" />
    <path
       style="font-style:normal;font-variant:normal;font-weight:normal;font-stretch:normal;font-size:medium;line-height:125%;font-family:'SF Fedora Shadow';-inkscape-font-specification:'SF Fedora Shadow';letter-spacing:0px;word-spacing:0px;fill:#000000;fill-opacity:1;stroke:none"
       d="m 136.79,245.67535 q -0.21484,-4.02343 -2.69531,-4.02343 -1.54297,0 -3.10547,1.03515 -0.0977,0.0977 -0.17578,0.17578 -0.0586,0.0781 -0.11719,0.17579 l 0,-0.0391 q -1.44531,2.07032 -2.1875,4.02344 -0.72266,1.95313 -0.72266,3.82813 0,0.89843 0.35157,1.34765 0.37109,0.44922 1.17187,0.44922 0.78125,0 1.5625,-0.27344 0.80078,-0.27343 1.6211,-0.78125 l 0.2539,-0.35156 0.15625,0.0391 0.0391,0 q 0.72266,-0.54687 1.42579,-1.30859 0.70312,-0.76172 1.36718,-1.73828 l 7.12891,1.77734 q -2.57813,3.71094 -5.33203,6.03516 -1.19141,1.40625 -2.44141,2.51953 -1.25,1.11328 -2.55859,1.95312 -2.22656,1.48438 -4.45313,2.20704 -2.20703,0.72265 -4.49218,0.72265 -7.01172,0 -7.01172,-7.48047 0,-2.42187 0.78125,-4.98047 0.78125,-2.55859 2.30468,-5.3125 1.23047,-2.24609 2.77344,-4.10156 1.54297,-1.875 3.37891,-3.45703 1.97265,-2.26562 4.375,-4.08203 4.96094,-3.71094 9.96094,-3.71094 6.89453,0 7.91015,6.875 l -3.16406,2.12891 q 0.0391,0.21484 0.0781,0.44922 0.0586,0.21484 0.0977,0.42968 l -8.28125,5.46875 0,0 z"
       id="path3357"
       inkscape:connector-curvature="0" />
    <path
       style="font-style:normal;font-variant:normal;font-weight:normal;font-stretch:normal;font-size:medium;line-height:125%;font-family:'SF Fedora Shadow';-inkscape-font-specification:'SF Fedora Shadow';letter-spacing:0px;word-spacing:0px;fill:#000000;fill-opacity:1;stroke:none"
       d="m 118.80172,238.6441 q 0.15625,0.60547 0.23437,1.19141 0.0781,0.58594 0.0781,1.13281 0,1.05469 -0.33203,2.36328 -0.3125,1.3086 -0.91797,2.83204 -1.11328,2.65625 -2.8125,5 -1.69922,2.34375 -4.0625,4.35546 -0.74219,0.87891 -1.58203,1.69922 -0.82031,0.80078 -1.73828,1.54297 -5.56641,4.6875 -11.074222,4.6875 -7.128906,0 -7.128906,-7.55859 0,-2.42188 0.78125,-4.96094 0.78125,-2.53906 2.304688,-5.29297 1.210937,-2.1875 2.714843,-4.04297 1.503907,-1.85547 3.320313,-3.39843 1.992184,-2.32422 4.492184,-4.16016 5.07813,-3.71094 9.96094,-3.71094 6.89453,0 7.91016,6.875 l -2.14844,1.44531 0,0 z"
       id="path3355"
       inkscape:connector-curvature="0" />
    <path
       style="font-style:normal;font-variant:normal;font-weight:normal;font-stretch:normal;font-size:medium;line-height:125%;font-family:'SF Fedora Shadow';-inkscape-font-specification:'SF Fedora Shadow';letter-spacing:0px;word-spacing:0px;fill:url(#linearGradient4249);fill-opacity:1;stroke:none"
       d="m 120.07125,236.80817 q -0.85937,-5.6836 -7.03125,-5.6836 -4.64844,0 -9.49219,3.55469 -4.472653,3.30078 -7.324215,8.35938 -2.949219,5.23437 -2.949219,9.84375 0,6.75781 6.308594,6.75781 5.27344,0 10.56641,-4.47266 4.82421,-4.0625 7.01171,-9.3164 1.15235,-2.92969 1.15235,-4.88282 0,-1.26953 -0.44922,-2.67578 l 2.20703,-1.48437 0,0 z"
       id="path3405"
       inkscape:connector-curvature="0" />
    <path
       style="font-style:normal;font-variant:normal;font-weight:normal;font-stretch:normal;font-size:medium;line-height:125%;font-family:'SF Fedora Shadow';-inkscape-font-specification:'SF Fedora Shadow';letter-spacing:0px;word-spacing:0px;fill:#000000;fill-opacity:1;stroke:none"
       d="m 110.91109,241.55426 q 0.41016,0.9375 0.41016,1.97266 0,3.00781 -3.00781,6.38672 -3.04688,3.53515 -6.03516,3.53515 -2.363279,0 -2.363279,-2.8125 0,-3.6914 2.949219,-7.94922 3.18359,-4.53125 6.64062,-4.80468 l 0.44922,0 q 2.71485,0 3.32032,2.1289 l -2.36329,1.54297 z"
       id="path3407"
       inkscape:connector-curvature="0" />
    <path
       inkscape:connector-curvature="0"
       id="path3353"
       style="font-style:normal;font-variant:normal;font-weight:normal;font-stretch:normal;font-size:medium;line-height:125%;font-family:'SF Fedora Shadow';-inkscape-font-specification:'SF Fedora Shadow';letter-spacing:0px;word-spacing:0px;fill:#000000;fill-opacity:1;stroke:none"
       d="m 78.391563,247.92145 q 0,-1.21094 -0.546875,-2.12891 -0.527343,-0.9375 -1.601562,-1.66015 -0.46875,-0.35157 -0.9375,-0.56641 -1.582031,3.04687 -3.144531,6.64062 -1.5625,3.57422 -3.125,7.83204 1.71875,-0.50782 3.300781,-1.36719 1.601562,-0.87891 3.183594,-2.14844 0.07813,-0.0781 0.15625,-0.11719 0.664062,-0.8789 1.191406,-1.77734 0.527344,-0.89844 0.878906,-1.875 0.3125,-0.87891 0.46875,-1.58203 0.175781,-0.70313 0.175781,-1.25 z m 3.808594,-3.00781 q 0,1.25 -0.683594,3.125 -1.503906,3.94531 -5.527343,7.1289 -3.867188,3.125 -8.242188,4.04297 2.167969,-5.97656 4.238281,-10.625 2.089844,-4.66797 4.121094,-8.18359 l -1.542969,-1.64063 q 1.582032,0.19531 2.851563,0.60547 1.269531,0.41016 2.265625,1.07422 2.519531,1.67969 2.519531,4.47266 z m 8.242188,-2.75391 q 0,-5.46875 -5.253907,-8.32031 -4.140625,-2.2461 -10.15625,-2.2461 -1.601562,0 -3.222656,0.19532 -1.601562,0.17578 -3.300781,0.5664 l -1.796875,7.2461 q 0.605469,-0.15625 1.191406,-0.29297 0.605469,-0.15625 1.171875,-0.3125 -3.59375,7.20703 -6.660156,14.23828 -3.066406,7.01172 -5.664063,14.08203 5.644532,-0.35156 6.796875,-0.46875 7.832032,-0.64453 15.292969,-6.25 7.5,-5.625 10.390625,-12.91016 1.210938,-3.04687 1.210938,-5.52734 z m 0.800781,0 q 0,1.34766 -0.3125,2.8125 -0.3125,1.46484 -0.9375,2.98828 -2.441406,6.15234 -8.125,11.21094 -2.382813,2.67578 -5.546875,5.07812 -3.828125,2.85157 -7.734375,4.45313 -3.90625,1.60156 -7.949219,1.93359 -0.292969,0.0391 -1.054687,0.0977 -0.761719,0.0586 -1.855469,0.11719 -1.09375,0.0781 -2.441406,0.17578 -1.328125,0.0976 -2.734375,0.17578 2.65625,-7.20703 5.625,-14.16016 2.988281,-6.95312 6.386718,-13.84765 -0.546875,0.15625 -1.09375,0.29296 -0.527343,0.13672 -0.839843,0.19532 l 2.246093,-8.96485 q 1.171875,-0.29297 2.363282,-0.46875 l 0.644531,-2.51953 q 2.050781,-0.48828 3.808594,-0.70312 1.777343,-0.21485 3.339843,-0.21485 6.152344,0 10.527344,2.30469 2.832031,1.54297 4.257813,3.80859 1.425781,2.2461 1.425781,5.23438 z" />
    <path
       style="font-style:normal;font-variant:normal;font-weight:normal;font-stretch:normal;font-size:medium;line-height:125%;font-family:'SF Fedora Shadow';-inkscape-font-specification:'SF Fedora Shadow';letter-spacing:0px;word-spacing:0px;fill:#ffffff;fill-opacity:1;stroke:none"
       d="m 102.27828,252.64801 q 1.54297,0 3.14453,-1.13281 2.08985,-2.67578 2.08985,-5 0,-0.44922 -0.13672,-1.01563 -0.13672,-0.5664 -0.46875,-1.25 l 2.36328,-1.5625 q -0.60547,-0.99609 -2.32422,-0.99609 l -0.35156,0 q -1.42578,0.17578 -2.79297,1.07422 -0.0977,0.0977 -0.17578,0.19531 -0.0586,0.0977 -0.11719,0.19531 l 0,-0.0391 q -1.38672,2.03125 -2.08984,3.90625 -0.70313,1.875 -0.70313,3.61328 0,2.01172 1.5625,2.01172 z"
       id="path3409"
       inkscape:connector-curvature="0" />
    <path
       style="font-style:normal;font-variant:normal;font-weight:normal;font-stretch:normal;font-size:medium;line-height:125%;font-family:'SF Fedora Shadow';-inkscape-font-specification:'SF Fedora Shadow';letter-spacing:0px;word-spacing:0px;fill:url(#linearGradient4289);fill-opacity:1;stroke:none"
       d="m 147.18063,236.80817 q -0.85938,-5.6836 -7.03125,-5.6836 -4.70704,0 -9.49219,3.55469 -4.39453,3.30078 -7.32422,8.39844 -2.94922,5.23437 -2.94922,9.88281 0,6.67969 6.19141,6.67969 4.27734,0 8.53515,-2.79297 3.71094,-2.42188 6.46485,-6.36719 l -5.50782,-1.34765 q -1.28906,1.8164 -2.92968,2.94921 -1.95313,1.36719 -3.82813,1.36719 -2.32422,0 -2.32422,-2.59765 0,-3.86719 3.08594,-8.28125 3.37891,-4.72657 7.03125,-4.72657 3.32031,0 3.4375,3.35938 l 6.64063,-4.39453 0,0 z"
       id="path4281"
       inkscape:connector-curvature="0" />
    <path
       style="font-style:normal;font-variant:normal;font-weight:normal;font-stretch:normal;font-size:medium;line-height:125%;font-family:'SF Fedora Shadow';-inkscape-font-specification:'SF Fedora Shadow';letter-spacing:0px;word-spacing:0px;fill:url(#linearGradient4297);fill-opacity:1;stroke:none"
       d="m 154.19234,231.92535 -3.55468,7.75391 7.79297,-0.11719 q -3.35938,6.83594 -6.17188,13.65235 -2.79297,6.79687 -5.17578,13.71093 l 8.06641,0.27344 q 2.20703,-6.11328 4.96093,-12.69531 2.75391,-6.58203 6.17188,-13.78906 l -2.57813,-1.26953 10.64453,-0.15625 3.61329,-7.77344 -23.76954,0.41015 z"
       id="path4277"
       inkscape:connector-curvature="0" />
    <path
       style="font-style:normal;font-variant:normal;font-weight:normal;font-stretch:normal;font-size:medium;line-height:125%;font-family:'SF Fedora Shadow';-inkscape-font-specification:'SF Fedora Shadow';letter-spacing:0px;word-spacing:0px;fill:#000000;fill-opacity:1;stroke:none"
       d="m 187.86422,240.92926 q -0.625,3.02734 -1.07422,5.25391 -0.44922,2.22656 -0.72266,3.73047 -0.41015,-0.0391 -0.89843,-0.0586 -0.46875,-0.0195 -1.01563,-0.0195 -0.5664,0 -1.07422,0.0195 -0.48828,0.0195 -0.89843,0.0586 1.89453,-3.04688 3.28125,-5.27344 1.40625,-2.2461 2.40234,-3.71094 z"
       id="path4273"
       inkscape:connector-curvature="0" />
    <path
       style="font-style:normal;font-variant:normal;font-weight:normal;font-stretch:normal;font-size:medium;line-height:125%;font-family:'SF Fedora Shadow';-inkscape-font-specification:'SF Fedora Shadow';letter-spacing:0px;word-spacing:0px;fill:#000000;fill-opacity:1;stroke:none"
       d="m 207.31734,231.84723 q -3.35937,6.85547 -6.28906,13.92578 -2.92969,7.07031 -5.48828,14.51172 l 0.9375,0 q 3.28125,0 6.54297,-0.23438 3.26172,-0.2539 6.60156,-0.68359 l 3.20313,-6.67969 q -2.05078,0.3125 -3.88672,0.48828 -1.81641,0.15625 -3.51563,0.15625 l -0.625,0 q 1.77735,-4.70703 4.0625,-10.03906 2.30469,-5.35156 5.17578,-11.48437 l -6.71875,0.0391 z"
       id="path4267"
       inkscape:connector-curvature="0" />
    <path
       style="font-style:normal;font-variant:normal;font-weight:normal;font-stretch:normal;font-size:medium;line-height:125%;font-family:'SF Fedora Shadow';-inkscape-font-specification:'SF Fedora Shadow';letter-spacing:0px;word-spacing:0px;fill:#000000;fill-opacity:1;stroke:none"
       d="m 214.73922,232.12067 q -2.69531,5.76172 -4.88281,10.85937 -2.16797,5.09766 -3.90625,9.55078 3.125,-0.0586 8.28125,-0.8789 l -4.08203,8.47656 -1.67969,0.23437 -1.32813,2.75391 q -3.49609,0.48828 -6.89453,0.72266 -3.39844,0.23437 -6.77734,0.23437 l -2.05078,0 q 2.77343,-8.02734 5.85937,-15.54687 3.08594,-7.51953 6.50391,-14.49219 l 1.5625,0 1.44531,-2.98828 7.24609,-0.0391 0.70313,1.11328 0,0 z"
       id="path3363"
       inkscape:connector-curvature="0" />
    <path
       style="font-style:normal;font-variant:normal;font-weight:normal;font-stretch:normal;font-size:medium;line-height:125%;font-family:'SF Fedora Shadow';-inkscape-font-specification:'SF Fedora Shadow';letter-spacing:0px;word-spacing:0px;fill:#000000;fill-opacity:1;stroke:none"
       d="m 245.77438,230.75348 q -4.60938,0.44922 -9.49219,0.76172 -4.88281,0.29297 -10.25391,0.41015 l -2.32422,5.91797 2.36328,-0.0391 q -2.48046,5.48828 -4.76562,11.07422 -2.28516,5.56641 -4.43359,11.40625 4.49218,-0.52734 8.6914,-0.80078 4.19922,-0.27344 8.33985,-0.35156 l 2.59765,-6.32813 q -2.57812,0.0391 -5.09765,0.19531 -2.51954,0.15625 -5.0586,0.44922 0.39063,-1.28906 0.85938,-2.46094 0.48828,-1.1914 1.09375,-2.30468 1.99218,-0.27344 3.92578,-0.41016 1.93359,-0.15625 4.0039,-0.15625 l 0.9961,0 2.59765,-6.30859 q -2.1875,0.0391 -4.39453,0.15625 -2.1875,0.11718 -4.47265,0.39062 0.50781,-1.40625 0.95703,-2.57812 0.46875,-1.19141 0.91797,-2.12891 2.30468,-0.25391 4.80468,-0.39062 2.51954,-0.15625 5.27344,-0.21485 l 2.8711,-6.28906 0,0 z"
       id="path4263"
       inkscape:connector-curvature="0" />
    <path
       style="font-style:normal;font-variant:normal;font-weight:normal;font-stretch:normal;font-size:medium;line-height:125%;font-family:'SF Fedora Shadow';-inkscape-font-specification:'SF Fedora Shadow';letter-spacing:0px;word-spacing:0px;fill:#000000;fill-opacity:1;stroke:none"
       d="m 243.43063,237.84332 q -0.42969,0.0391 -0.85938,0.0391 -0.41016,0 -0.83984,0 l -1.3086,2.96875 q -2.26562,0.0586 -4.3164,0.15625 -2.05078,0.0781 -3.88672,0.23437 -0.0781,0.0781 -0.0781,0.15625 1.95313,-0.17578 4.17969,-0.25391 2.22656,-0.0977 4.70703,-0.13671 l -3.28125,7.91015 -1.75781,0 -1.25,3.00781 -1.52344,0 q -1.44531,0 -2.83203,0.0781 -1.38672,0.0781 -2.8125,0.23437 -0.0391,0.0586 -0.0586,0.13672 -0.0195,0.0586 -0.0586,0.15625 2.26563,-0.21484 4.76563,-0.35156 2.51953,-0.13672 5.48828,-0.17578 l -3.28125,7.91016 q -0.44922,0.0391 -0.89844,0.0586 -0.44922,0 -0.89844,0 l -1.21093,2.94922 q -4.29688,0.0976 -8.94532,0.41015 -4.6289,0.3125 -9.80468,0.91797 1.01562,-2.77343 2.1289,-5.66406 1.11328,-2.89062 2.28516,-5.76172 1.17187,-2.89062 2.36328,-5.70312 1.19141,-2.83203 2.38281,-5.46875 l -2.32422,0.0391 2.94922,-7.55859 q 0.44922,0 0.89844,0 0.46875,-0.0195 0.95703,-0.0586 l 1.15235,-2.94922 q 2.69531,-0.0586 5.54687,-0.17578 2.85156,-0.13672 5.64453,-0.29297 2.8125,-0.17578 5.46875,-0.37109 2.65625,-0.21484 4.94141,-0.44922 l -3.63281,8.00781 0,0 z"
       id="path3365"
       inkscape:connector-curvature="0" />
    <path
       style="font-style:normal;font-variant:normal;font-weight:normal;font-stretch:normal;font-size:medium;line-height:125%;font-family:'SF Fedora Shadow';-inkscape-font-specification:'SF Fedora Shadow';letter-spacing:0px;word-spacing:0px;fill:#000000;fill-opacity:1;stroke:none"
       d="m 267.53219,231.35895 q -0.83985,-0.0781 -1.73828,-0.13672 -0.87891,-0.0586 -1.81641,-0.0586 -3.82812,0 -6.23047,0.99609 -3.08594,1.28906 -5.37109,3.80859 -2.67578,2.91016 -2.67578,5.83985 0,1.07422 0.35156,2.79297 0.21484,0.99609 0.33203,1.67968 0.11719,0.6836 0.15625,1.07422 0.0391,0.44922 0.0586,0.9375 0.0195,0.46875 0.0195,0.9961 0,1.21093 -0.42969,1.77734 -0.41016,0.58594 -1.5625,0.97656 -0.97656,0.33203 -2.32422,0.60547 -1.32813,0.27344 -3.08594,0.46875 l -2.07031,7.16797 q 2.30469,-0.15625 4.41406,-0.58594 2.10938,-0.44922 4.0625,-1.13281 4.84375,-1.73828 7.07031,-4.72656 0.3711,-0.44922 0.6836,-1.07422 0.33203,-0.625 0.64453,-1.40625 0.68359,-1.81641 0.68359,-3.55469 0,-0.35156 -0.11718,-1.54297 -0.11719,-1.1914 -0.41016,-3.26172 -0.15625,-1.28906 -0.23438,-1.97265 -0.0781,-0.70313 -0.0781,-0.85938 0,-1.5625 2.67578,-1.97265 0.19531,-0.0391 3.84766,-0.15625 l 3.14453,-6.67969 0,0 z"
       id="path4259"
       inkscape:connector-curvature="0" />
    <path
       style="font-style:normal;font-variant:normal;font-weight:normal;font-stretch:normal;font-size:medium;line-height:125%;font-family:'SF Fedora Shadow';-inkscape-font-specification:'SF Fedora Shadow';letter-spacing:0px;word-spacing:0px;fill:#000000;fill-opacity:1;stroke:none"
       d="m 264.01656,238.83942 q -0.21484,0 -0.39062,0.0195 -0.17578,0.0195 -0.33203,0.0195 l -1.38672,2.96875 -0.83985,0 q -0.72265,0.0391 -1.26953,0.0586 -0.54687,0.0195 -0.97656,0.0195 0.0391,0.21485 0.0586,0.44922 0.0391,0.23438 0.0977,0.50782 0.27344,2.05078 0.39063,3.28125 0.13671,1.21093 0.13671,1.64062 0,1.93359 -0.72265,3.84766 -0.3125,0.82031 -0.66406,1.5039 -0.35157,0.66407 -0.78125,1.17188 -0.56641,0.72265 -1.23047,1.38672 -0.66407,0.64453 -1.48438,1.21093 -0.0586,0.0977 -0.13672,0.19532 -0.0781,0.0976 -0.13672,0.19531 -2.48046,3.22266 -7.4414,5 -2.03125,0.74219 -4.47266,1.21094 -2.4414,0.44922 -5.37109,0.64453 l 2.55859,-8.76953 q 0.60547,-0.0586 1.15235,-0.13672 0.54687,-0.0781 1.05468,-0.13672 l 0.80078,-2.73438 q 1.23047,-0.11718 2.28516,-0.27343 1.05469,-0.17578 1.91406,-0.39063 -0.0391,-0.33203 -0.0781,-0.66406 -0.0195,-0.33203 -0.0195,-0.66406 -0.0391,-0.33203 -0.15625,-0.97657 -0.0977,-0.66406 -0.3125,-1.66015 -0.17578,-0.87891 -0.27344,-1.60156 -0.0977,-0.74219 -0.0977,-1.36719 0,-3.26172 2.89063,-6.38672 l 0,0.0391 q 0.48828,-0.54687 1.01562,-1.03515 0.52735,-0.50782 1.05469,-0.9375 0.21484,-0.27344 0.44922,-0.52735 0.23437,-0.27344 0.48828,-0.54687 l 0,0.0391 q 1.19141,-1.34766 2.59766,-2.34375 1.40625,-0.99609 3.02734,-1.66016 2.55859,-1.07422 6.5625,-1.07422 0.97656,0 2.1875,0.0781 1.23047,0.0781 2.57813,0.23437 l -3.84766,8.16407 -0.87891,0 z"
       id="path3367"
       inkscape:connector-curvature="0" />
    <flowRoot
       xml:space="preserve"
       id="flowRoot3340"
       style="font-style:normal;font-weight:normal;font-size:40px;line-height:125%;font-family:sans-serif;letter-spacing:0px;word-spacing:0px;fill:#000000;fill-opacity:1;stroke:none"><flowRegion
         id="flowRegion3342"><rect
           id="rect3344"
           width="88.640884"
           height="48.739861"
           x="36.870567"
           y="305.10187" /></flowRegion><flowPara
         id="flowPara3346" /></flowRoot>    <rect
       style="opacity:0.81000001;fill:#000000;fill-opacity:0.86458333;stroke:#828082;stroke-width:0.82851201;stroke-opacity:1"
       id="rect4315-24"
       width="35.88578"
       height="32.957199"
       x="231.89639"
       y="176.04433" />
    <rect
       style="opacity:0.81000001;fill:#000000;fill-opacity:0.86458333;stroke:#828082;stroke-width:1.24372447;stroke-opacity:1"
       id="rect4315-24-6"
       width="81.899139"
       height="32.541988"
       x="447.12186"
       y="176.25194" />
    <rect
       style="opacity:0.81000001;fill:#000000;fill-opacity:0.86458333;stroke:#828082;stroke-width:0.48057991;stroke-opacity:1"
       id="rect4315-24-4"
       width="11.947998"
       height="33.30513"
       x="210.526"
       y="175.87038" />
    <circle
       style="fill:#37abc8;fill-opacity:1;stroke:#006680;stroke-width:2.58400011;stroke-miterlimit:4;stroke-dasharray:none;stroke-opacity:1"
       id="path4377-0"
       cx="468.21426"
       cy="192.00505"
       r="66.436447" />
    <circle
       style="fill:#aaeeff;fill-opacity:0.95977017;stroke:#d5f6ff;stroke-width:2.63499999;stroke-miterlimit:4;stroke-dasharray:none;stroke-opacity:1"
       id="path4377-9-9"
       cx="468.21426"
       cy="192.00505"
       r="43.407009" />
    <text
       xml:space="preserve"
       style="font-style:normal;font-weight:normal;font-size:40px;line-height:125%;font-family:sans-serif;letter-spacing:0px;word-spacing:0px;fill:#000000;fill-opacity:1;stroke:none"
       x="320"
       y="249.8622"
       id="text4550"
       sodipodi:linespacing="125%"><tspan
         sodipodi:role="line"
         id="tspan4552"
         x="320"
         y="249.8622" /></text>
    <text
       xml:space="preserve"
       style="font-style:normal;font-weight:normal;font-size:16.9826355px;line-height:125%;font-family:sans-serif;letter-spacing:0px;word-spacing:0px;fill:#000000;fill-opacity:1;stroke:none"
       x="259.15921"
       y="389.87442"
       id="text4581"
       sodipodi:linespacing="125%"><tspan
         sodipodi:role="line"
         id="tspan4583"
         x="259.15921"
         y="389.87442">publishing prozessing</tspan><tspan
         sodipodi:role="line"
         x="259.15921"
         y="411.10272"
         id="tspan4585">information architecture</tspan><tspan
         sodipodi:role="line"
         x="259.15921"
         y="432.33099"
         id="tspan4587">usable documentation</tspan></text>
    <text
       xml:space="preserve"
       style="font-style:normal;font-weight:normal;font-size:16.9826355px;line-height:125%;font-family:sans-serif;letter-spacing:0px;word-spacing:0px;fill:#000000;fill-opacity:1;stroke:none"
       x="259.41483"
       y="478.53653"
       id="text4581-0"
       sodipodi:linespacing="125%"><tspan
         sodipodi:role="line"
         x="259.41483"
         y="478.53653"
         id="tspan4587-1">Publikationen erzeugen</tspan><tspan
         sodipodi:role="line"
         x="259.41483"
         y="499.76483"
         id="tspan4618">Informationen strukturien</tspan><tspan
         sodipodi:role="line"
         x="259.41483"
         y="520.9931"
         id="tspan4620">Dokumentation entwerfen</tspan></text>
    <g
       id="g4658"
       transform="matrix(0.34256866,0,0,0.34256866,162.85999,251.56046)">
      <circle
         r="36.308071"
         cy="408.79077"
         cx="213.57143"
         id="path4377-0-6"
         style="fill:#37abc8;fill-opacity:1;stroke:#006680;stroke-width:1.41217756;stroke-miterlimit:4;stroke-dasharray:none;stroke-opacity:1" />
      <circle
         r="23.722292"
         cy="408.79077"
         cx="213.57143"
         id="path4377-9-9-8"
         style="fill:#aaeeff;fill-opacity:0.95977017;stroke:#d5f6ff;stroke-width:1.44004953;stroke-miterlimit:4;stroke-dasharray:none;stroke-opacity:1" />
    </g>
    <g
       id="g4662"
       transform="matrix(0.34256866,0,0,0.34256866,164.02408,312.06963)">
      <circle
         r="36.308071"
         cy="493.07648"
         cx="216.42856"
         id="path4377-0-6-9"
         style="fill:#37abc8;fill-opacity:1;stroke:#006680;stroke-width:1.41217756;stroke-miterlimit:4;stroke-dasharray:none;stroke-opacity:1" />
      <circle
         r="23.722292"
         cy="493.07648"
         cx="216.42856"
         id="path4377-9-9-8-6"
         style="fill:#aaeeff;fill-opacity:0.95977017;stroke:#d5f6ff;stroke-width:1.44004953;stroke-miterlimit:4;stroke-dasharray:none;stroke-opacity:1" />
    </g>
    <path
       inkscape:connector-curvature="0"
       id="path4517-3-8"
       style="font-style:normal;font-variant:normal;font-weight:normal;font-stretch:normal;font-size:medium;line-height:125%;font-family:'SF Fedora';-inkscape-font-specification:'SF Fedora';letter-spacing:0px;word-spacing:0px;fill:#004455;fill-opacity:1;stroke:#fefefe;stroke-width:0.5529002px;stroke-linecap:butt;stroke-linejoin:miter;stroke-opacity:1"
       d="m 233.7418,393.89334 0.50354,5.68187 -4.60682,0.31566 -0.46068,-5.86691 5.17463,-6.19346 4.58539,-0.0218 -5.19606,6.08461 z" />
    <path
       inkscape:connector-curvature="0"
       id="path4525-7-7"
       style="font-style:normal;font-variant:normal;font-weight:normal;font-stretch:normal;font-size:medium;line-height:125%;font-family:'SF Fedora';-inkscape-font-specification:'SF Fedora';letter-spacing:0px;word-spacing:0px;fill:#004455;fill-opacity:1;stroke:#fefefe;stroke-width:0.5529002px;stroke-linecap:butt;stroke-linejoin:miter;stroke-opacity:1"
       d="m 239.79464,395.20419 -4.69253,0.32654 5.39962,-6.19346 -0.41783,-5.61656 4.62824,-0.31566 0.39641,5.63833 -5.31391,6.16081 z" />
    <rect
       style="fill:#5fbcd3;fill-opacity:1;stroke:#004455;stroke-width:0.875;stroke-miterlimit:4;stroke-dasharray:none;stroke-opacity:1"
       id="rect4315-2-6-8"
       width="172.56566"
       height="27.137091"
       x="517.0329"
       y="293.15433" />
    <path
       inkscape:connector-curvature="0"
       id="path3370-1"
       style="font-style:normal;font-variant:normal;font-weight:normal;font-stretch:normal;font-size:medium;line-height:125%;font-family:'SF Fedora';-inkscape-font-specification:'SF Fedora';letter-spacing:0px;word-spacing:0px;fill:#004455;fill-opacity:1;stroke:#fefefe;stroke-width:0.875;stroke-linecap:butt;stroke-linejoin:miter;stroke-miterlimit:4;stroke-dasharray:none;stroke-opacity:1"
       d="m 542.31343,303.2475 q 0,-2.79296 -2.51953,-4.47264 -1.99219,-1.28907 -5.11719,-1.67969 l 1.5625,1.64062 q -2.05078,3.51563 -4.14062,8.16407 -2.07031,4.62889 -4.21875,10.64452 4.25781,-0.87891 8.22266,-4.04297 4.0039,-3.14453 5.52734,-7.12891 0.68359,-1.93359 0.68359,-3.125 z m 8.24219,-2.75389 q 0,2.48047 -1.21094,5.52733 -2.94922,7.40235 -10.39062,12.91017 -7.46094,5.60547 -15.29297,6.25 -1.11328,0.11718 -6.79688,0.46875 1.3086,-3.55469 2.71485,-7.05078 1.42578,-3.51563 2.94922,-7.03125 1.52343,-3.51563 3.18359,-7.05078 1.66016,-3.55469 3.47656,-7.1875 -0.5664,0.17578 -1.17187,0.3125 -0.58594,0.13671 -1.19141,0.29296 l 1.79688,-7.24609 q 3.28125,-0.76172 6.52343,-0.76172 6.01563,0 10.15625,2.2461 5.25391,2.85156 5.25391,8.32031 z" />
    <path
       inkscape:connector-curvature="0"
       id="path3372-9"
       style="font-style:normal;font-variant:normal;font-weight:normal;font-stretch:normal;font-size:medium;line-height:125%;font-family:'SF Fedora';-inkscape-font-specification:'SF Fedora';letter-spacing:0px;word-spacing:0px;fill:#004455;fill-opacity:1;stroke:#fefefe;stroke-width:0.875;stroke-linecap:butt;stroke-linejoin:miter;stroke-miterlimit:4;stroke-dasharray:none;stroke-opacity:1"
       d="m 568.18453,298.34516 q -0.60547,-2.12891 -3.32032,-2.12891 l -0.44921,0 q -3.47657,0.3125 -6.64063,4.80469 -2.94922,4.25781 -2.94922,7.94922 0,2.8125 2.36328,2.8125 2.98828,0 6.03516,-3.53516 3.00781,-3.3789 3.00781,-6.38671 0,-1.11329 -0.41015,-1.97266 l 2.36328,-1.54297 z m 4.58984,-1.71875 q 0.44922,1.46484 0.44922,2.67578 0,1.9336 -1.15234,4.88281 -2.26563,5.33204 -7.01172,9.31641 -5.29297,4.47266 -10.54688,4.47266 -6.32812,0 -6.32812,-6.75782 0,-4.58983 2.96875,-9.84375 1.42578,-2.55858 3.24218,-4.62889 1.81641,-2.07032 4.0625,-3.73048 4.90235,-3.55469 9.49219,-3.55469 6.17188,0 7.03125,5.6836 l -2.20703,1.48438 z" />
    <path
       inkscape:connector-curvature="0"
       id="path3374-8"
       style="font-style:normal;font-variant:normal;font-weight:normal;font-stretch:normal;font-size:medium;line-height:125%;font-family:'SF Fedora';-inkscape-font-specification:'SF Fedora';letter-spacing:0px;word-spacing:0px;fill:#004455;fill-opacity:1;stroke:#fefefe;stroke-width:0.875;stroke-linecap:butt;stroke-linejoin:miter;stroke-miterlimit:4;stroke-dasharray:none;stroke-opacity:1"
       d="m 589.6756,299.89371 q -0.11719,-3.35938 -3.4375,-3.35938 -3.65235,0 -7.03125,4.72656 -3.08594,4.41407 -3.08594,8.28125 0,2.59767 2.32422,2.59767 1.875,0 3.82812,-1.36719 1.6211,-1.09375 2.92969,-2.94923 l 5.50781,1.34767 q -2.7539,3.94531 -6.46484,6.36719 -4.25781,2.79297 -8.53516,2.79297 -6.1914,0 -6.1914,-6.67969 0,-4.62891 2.96875,-9.88281 2.89062,-5.09766 7.30468,-8.39844 4.78516,-3.55469 9.49219,-3.55469 6.17188,0 7.03125,5.6836 l -6.64062,4.39453 z" />
    <path
       inkscape:connector-curvature="0"
       id="path3376-6"
       style="font-style:normal;font-variant:normal;font-weight:normal;font-stretch:normal;font-size:medium;line-height:125%;font-family:'SF Fedora';-inkscape-font-specification:'SF Fedora';letter-spacing:0px;word-spacing:0px;fill:#004455;fill-opacity:1;stroke:#fefefe;stroke-width:0.875;stroke-linecap:butt;stroke-linejoin:miter;stroke-miterlimit:4;stroke-dasharray:none;stroke-opacity:1"
       d="m 623.00204,297.1225 -10.625,0.15625 2.55859,1.26954 q -3.39843,7.24609 -6.17187,13.78907 -2.75391,6.54297 -4.96094,12.69531 l -8.0664,-0.27344 q 1.1914,-3.47656 2.48046,-6.89453 1.28907,-3.4375 2.69532,-6.83594 1.40625,-3.39843 2.92968,-6.79687 1.54297,-3.39844 3.24219,-6.83594 l -7.79297,0.11719 3.55469,-7.75391 23.76953,-0.41015 -3.61328,7.77343 z" />
    <path
       inkscape:connector-curvature="0"
       id="path3378-3"
       style="font-style:normal;font-variant:normal;font-weight:normal;font-stretch:normal;font-size:medium;line-height:125%;font-family:'SF Fedora';-inkscape-font-specification:'SF Fedora';letter-spacing:0px;word-spacing:0px;fill:#004455;fill-opacity:1;stroke:#fefefe;stroke-width:0.875;stroke-linecap:butt;stroke-linejoin:miter;stroke-miterlimit:4;stroke-dasharray:none;stroke-opacity:1"
       d="m 628.02883,298.76313 q -0.99609,1.46484 -2.38281,3.71094 -1.36719,2.24609 -3.30078,5.27343 0.41015,-0.0391 0.89843,-0.0586 0.50782,-0.0195 1.07422,-0.0195 0.54688,0 1.01563,0.0195 0.48828,0.0195 0.89844,0.0586 0.27343,-1.50389 0.72265,-3.73046 0.44922,-2.22656 1.07422,-5.25391 z m 8.55469,-9.41406 q -3.39844,12.14843 -5.50781,27.55859 l -6.875,0.44922 0.74218,-3.84766 q -1.38672,-0.23437 -2.98828,-0.23437 -0.68359,0 -1.38672,0.0391 -0.70312,0.0391 -1.36718,0.11719 l -2.40235,4.45312 -6.97265,0.42969 q 1.69921,-2.92969 3.65234,-6.15234 1.97266,-3.24219 4.21875,-6.83594 2.26562,-3.59375 4.82422,-7.55858 2.55859,-3.98438 5.46875,-8.37892 l 8.59375,-0.0391 z" />
    <path
       inkscape:connector-curvature="0"
       id="path3380-2"
       style="font-style:normal;font-variant:normal;font-weight:normal;font-stretch:normal;font-size:medium;line-height:125%;font-family:'SF Fedora';-inkscape-font-specification:'SF Fedora';letter-spacing:0px;word-spacing:0px;fill:#004455;fill-opacity:1;stroke:#fefefe;stroke-width:0.875;stroke-linecap:butt;stroke-linejoin:miter;stroke-miterlimit:4;stroke-dasharray:none;stroke-opacity:1"
       d="m 648.99758,289.64204 q -2.89062,6.11328 -5.17578,11.48437 -2.26563,5.35156 -4.0625,10.03906 l 0.625,0 q 1.60156,0.0391 3.41797,-0.13672 1.8164,-0.19531 3.98437,-0.50781 l -3.20312,6.67969 q -3.4961,0.46875 -6.73828,0.72266 -3.24219,0.23437 -6.40625,0.19531 l -0.91797,0 q 5.05859,-14.78516 11.75781,-28.4375 l 6.71875,-0.0391 z" />
    <path
       inkscape:connector-curvature="0"
       id="path3382-1"
       style="font-style:normal;font-variant:normal;font-weight:normal;font-stretch:normal;font-size:medium;line-height:125%;font-family:'SF Fedora';-inkscape-font-specification:'SF Fedora';letter-spacing:0px;word-spacing:0px;fill:#004455;fill-opacity:1;stroke:#fefefe;stroke-width:0.875;stroke-linecap:butt;stroke-linejoin:miter;stroke-miterlimit:4;stroke-dasharray:none;stroke-opacity:1"
       d="m 670.66164,294.87641 q -2.7539,0.0586 -5.27343,0.21484 -2.5,0.13672 -4.80469,0.39063 -0.44922,0.9375 -0.91797,2.12891 -0.44922,1.17187 -0.95703,2.57812 2.28515,-0.27344 4.47265,-0.39062 2.20704,-0.11719 4.39454,-0.15625 l -2.59766,6.30859 -0.99609,0 q -1.9336,-0.0391 -3.88672,0.11719 -1.9336,0.13672 -4.04297,0.44922 -0.60547,1.11328 -1.09375,2.30468 -0.46875,1.17188 -0.85938,2.46094 2.53907,-0.29297 5.0586,-0.44922 2.51953,-0.15625 5.09765,-0.19531 l -2.59765,6.32812 q -4.14063,0.0781 -8.33985,0.35157 -4.19922,0.27343 -8.6914,0.80078 2.14843,-5.87891 4.41406,-11.40625 2.26562,-5.54688 4.78516,-11.07422 l -2.36329,0.0391 2.32422,-5.91797 q 5.39063,-0.11718 10.27344,-0.41015 4.88281,-0.3125 9.47266,-0.76172 l -2.8711,6.28906 z" />
    <path
       inkscape:connector-curvature="0"
       id="path3384-6"
       style="font-style:normal;font-variant:normal;font-weight:normal;font-stretch:normal;font-size:medium;line-height:125%;font-family:'SF Fedora';-inkscape-font-specification:'SF Fedora';letter-spacing:0px;word-spacing:0px;fill:#004455;fill-opacity:1;stroke:#fefefe;stroke-width:0.875;stroke-linecap:butt;stroke-linejoin:miter;stroke-miterlimit:4;stroke-dasharray:none;stroke-opacity:1"
       d="m 684.94289,295.8725 q -3.6914,0.11719 -3.84765,0.15625 -2.67578,0.41017 -2.67578,1.97267 0,0.15625 0.0781,0.85937 0.0781,0.68359 0.23438,1.97265 0.29296,2.07031 0.41015,3.26173 0.11719,1.19141 0.11719,1.54297 0,1.67969 -0.68359,3.55469 -0.625,1.62109 -1.3086,2.48047 -2.26562,2.96875 -7.08984,4.72656 -1.95313,0.68359 -4.0625,1.13281 -2.10938,0.42969 -4.41406,0.58594 l 2.07031,-7.16797 q 1.75781,-0.19531 3.10547,-0.46875 1.34765,-0.27344 2.30468,-0.60547 1.15235,-0.39063 1.5625,-0.97656 0.42969,-0.56642 0.42969,-1.77736 0,-0.52733 -0.0195,-0.99608 -0.0195,-0.48828 -0.0586,-0.9375 -0.0977,-0.76173 -0.46875,-2.75392 -0.3711,-1.67968 -0.3711,-2.79296 0,-2.92968 2.67578,-5.83985 2.28516,-2.51952 5.3711,-3.80858 2.36328,-0.99611 6.23047,-0.99611 0.9375,0 1.83593,0.0586 0.89844,0.0586 1.73829,0.13672 l -3.16407,6.67968 z" />
    <path
       inkscape:connector-curvature="0"
       id="path4517-9"
       style="font-style:normal;font-variant:normal;font-weight:normal;font-stretch:normal;font-size:medium;line-height:125%;font-family:'SF Fedora';-inkscape-font-specification:'SF Fedora';letter-spacing:0px;word-spacing:0px;fill:#004455;fill-opacity:1;stroke:#fefefe;stroke-width:0.875;stroke-linecap:butt;stroke-linejoin:miter;stroke-miterlimit:4;stroke-dasharray:none;stroke-opacity:1"
       d="m 514.77688,305.16026 0.91741,12.64633 -8.39322,0.70258 -0.83932,-13.0582 9.42773,-13.78498 8.35416,-0.0485 -9.46676,13.54273 z" />
    <path
       inkscape:connector-curvature="0"
       id="path4525-2"
       style="font-style:normal;font-variant:normal;font-weight:normal;font-stretch:normal;font-size:medium;line-height:125%;font-family:'SF Fedora';-inkscape-font-specification:'SF Fedora';letter-spacing:0px;word-spacing:0px;fill:#004455;fill-opacity:1;stroke:#fefefe;stroke-width:0.875;stroke-linecap:butt;stroke-linejoin:miter;stroke-miterlimit:4;stroke-dasharray:none;stroke-opacity:1"
       d="m 689.88628,316.14404 -9.50477,0.72468 10.937,-13.74494 -0.84631,-12.46465 9.37457,-0.70055 0.80292,12.51298 -10.76341,13.67248 z" />
    <path
       inkscape:connector-curvature="0"
       id="path4517-3-7"
       style="font-style:normal;font-variant:normal;font-weight:normal;font-stretch:normal;font-size:medium;line-height:125%;font-family:'SF Fedora';-inkscape-font-specification:'SF Fedora';letter-spacing:0px;word-spacing:0px;fill:#004455;fill-opacity:1;stroke:#fefefe;stroke-width:0.5529002px;stroke-linecap:butt;stroke-linejoin:miter;stroke-opacity:1"
       d="m 538.55755,340.9265 0.50354,5.68187 -4.60682,0.31566 -0.46068,-5.86691 5.17463,-6.19346 4.58539,-0.0218 -5.19606,6.08461 z" />
    <path
       inkscape:connector-curvature="0"
       id="path4525-7-9"
       style="font-style:normal;font-variant:normal;font-weight:normal;font-stretch:normal;font-size:medium;line-height:125%;font-family:'SF Fedora';-inkscape-font-specification:'SF Fedora';letter-spacing:0px;word-spacing:0px;fill:#004455;fill-opacity:1;stroke:#fefefe;stroke-width:0.5529002px;stroke-linecap:butt;stroke-linejoin:miter;stroke-opacity:1"
       d="m 544.61039,342.23735 -4.69253,0.32654 5.39962,-6.19346 -0.41783,-5.61656 4.62824,-0.31566 0.39641,5.63833 -5.31391,6.16081 z" />
    <text
       xml:space="preserve"
       style="font-style:normal;font-weight:normal;font-size:16.75075722px;line-height:125%;font-family:sans-serif;letter-spacing:0px;word-spacing:0px;fill:#004455;fill-opacity:1;stroke:none"
       x="551.79425"
       y="339.41608"
       id="text4554-2"
       sodipodi:linespacing="125%"><tspan
         sodipodi:role="line"
         id="tspan4556-5"
         x="551.79425"
         y="339.41608"
         style="font-style:normal;font-variant:normal;font-weight:normal;font-stretch:normal;font-family:OpenSymbol;-inkscape-font-specification:OpenSymbol">push for content</tspan></text>
    <path
       style="fill:#004455;fill-opacity:1;fill-rule:evenodd;stroke:#004455;stroke-width:1.17262435;stroke-linecap:butt;stroke-linejoin:miter;stroke-miterlimit:4;stroke-dasharray:none;stroke-opacity:1"
       d="m 534.72122,346.96949 154.71774,0 0,0.12562 0,0"
       id="path4564-1"
       inkscape:connector-curvature="0" />
  </g>
  <g
     inkscape:groupmode="layer"
     id="layer2"
     inkscape:label="Ebene"
     transform="translate(-382.09441,-102.24105)">
    <rect
       style="opacity:1;fill:#5fbcd3;fill-opacity:1;stroke:#004455;stroke-width:2.69118261;stroke-miterlimit:4;stroke-dasharray:none;stroke-opacity:1"
       id="rect4315-2-6-8-9"
       width="530.74933"
       height="83.463844"
       x="415.97995"
       y="117.85411"
       inkscape:export-xdpi="207.33"
       inkscape:export-ydpi="207.33" />
    <path
       inkscape:connector-curvature="0"
       id="path3370-1-1"
       style="font-style:normal;font-variant:normal;font-weight:normal;font-stretch:normal;font-size:medium;line-height:125%;font-family:'SF Fedora';-inkscape-font-specification:'SF Fedora';letter-spacing:0px;word-spacing:0px;opacity:1;fill:#004455;fill-opacity:1;stroke:#fefefe;stroke-width:2.69118261;stroke-linecap:butt;stroke-linejoin:miter;stroke-miterlimit:4;stroke-dasharray:none;stroke-opacity:1"
       d="m 493.73375,148.89703 q 0,-8.59013 -7.74916,-13.75622 -6.12725,-3.96471 -15.73862,-5.16612 l 4.80569,5.04596 q -6.30746,10.8128 -12.73505,25.10971 -6.36752,14.23679 -12.97534,32.73868 13.09548,-2.7032 25.28992,-12.4347 12.31454,-9.67144 17.00009,-21.92594 2.10247,-5.94703 2.10247,-9.61137 z m 25.34999,-8.46997 q 0,7.62903 -3.72441,17.00006 -9.07073,22.76695 -31.95778,39.707 -22.94714,17.2404 -47.03563,19.22274 -3.42404,0.3604 -20.90473,1.4417 4.02478,-10.93294 8.34989,-21.68564 4.38518,-10.8128 9.07073,-21.62557 4.68552,-10.81281 9.79157,-21.68565 5.10605,-10.93293 10.69264,-22.10614 -1.74204,0.54064 -3.60425,0.96114 -1.80214,0.42047 -3.66435,0.90104 l 5.52656,-22.28635 q 10.09193,-2.34277 20.0637,-2.34277 18.50189,0 31.23694,6.90819 16.15912,8.77036 16.15912,25.59025 z"
       inkscape:export-xdpi="207.33"
       inkscape:export-ydpi="207.33" />
    <path
       inkscape:connector-curvature="0"
       id="path3372-9-6"
       style="font-style:normal;font-variant:normal;font-weight:normal;font-stretch:normal;font-size:medium;line-height:125%;font-family:'SF Fedora';-inkscape-font-specification:'SF Fedora';letter-spacing:0px;word-spacing:0px;opacity:1;fill:#004455;fill-opacity:1;stroke:#fefefe;stroke-width:2.69118261;stroke-linecap:butt;stroke-linejoin:miter;stroke-miterlimit:4;stroke-dasharray:none;stroke-opacity:1"
       d="m 573.30387,133.81921 q -1.86221,-6.54775 -10.2121,-6.54775 l -1.38161,0 q -10.69266,0.96113 -20.42416,14.77748 -9.07073,13.09548 -9.07073,24.44891 0,8.65023 7.26859,8.65023 9.19086,0 18.56196,-10.87287 9.25093,-10.39227 9.25093,-19.6432 0,-3.42407 -1.26147,-6.06718 l 7.26859,-4.74562 z m 14.11668,-5.28625 q 1.38164,4.50531 1.38164,8.22973 0,5.94705 -3.54418,15.01775 -6.96825,16.39942 -21.56551,28.6539 -16.27925,13.75628 -32.43837,13.75628 -19.463,0 -19.463,-20.78461 0,-14.11665 9.1308,-30.2758 4.38518,-7.86926 9.97176,-14.23679 5.58662,-6.36755 12.49478,-11.4736 15.07785,-10.93294 29.19453,-10.93294 18.98247,0 21.62558,17.48069 l -6.78803,4.56542 z"
       inkscape:export-xdpi="207.33"
       inkscape:export-ydpi="207.33" />
    <path
       inkscape:connector-curvature="0"
       id="path3374-8-6"
       style="font-style:normal;font-variant:normal;font-weight:normal;font-stretch:normal;font-size:medium;line-height:125%;font-family:'SF Fedora';-inkscape-font-specification:'SF Fedora';letter-spacing:0px;word-spacing:0px;opacity:1;fill:#004455;fill-opacity:1;stroke:#fefefe;stroke-width:2.69118261;stroke-linecap:butt;stroke-linejoin:miter;stroke-miterlimit:4;stroke-dasharray:none;stroke-opacity:1"
       d="m 639.4026,138.58199 q -0.36043,-10.33224 -10.5725,-10.33224 -11.2333,0 -21.62557,14.53719 -9.49123,13.57608 -9.49123,25.47012 0,7.98949 7.14845,7.98949 5.76682,0 11.77391,-4.20498 4.98592,-3.36398 9.01067,-9.07076 l 16.94002,4.14494 q -8.47,12.13434 -19.8835,19.58317 -13.09548,8.59016 -26.25106,8.59016 -19.0425,0 -19.0425,-20.5443 0,-14.23685 9.1308,-30.39594 8.8905,-15.67855 22.46655,-25.83056 14.71741,-10.93293 29.19453,-10.93293 18.98246,0 21.62557,17.48069 l -20.42414,13.51598 z"
       inkscape:export-xdpi="207.33"
       inkscape:export-ydpi="207.33" />
    <path
       inkscape:connector-curvature="0"
       id="path3376-6-2"
       style="font-style:normal;font-variant:normal;font-weight:normal;font-stretch:normal;font-size:medium;line-height:125%;font-family:'SF Fedora';-inkscape-font-specification:'SF Fedora';letter-spacing:0px;word-spacing:0px;opacity:1;fill:#004455;fill-opacity:1;stroke:#fefefe;stroke-width:2.69118261;stroke-linecap:butt;stroke-linejoin:miter;stroke-miterlimit:4;stroke-dasharray:none;stroke-opacity:1"
       d="m 741.90261,130.05875 -32.67864,0.48057 7.86929,3.90464 q -10.45234,22.28635 -18.98243,42.41018 -8.47,20.1238 -15.25802,39.04617 l -24.80932,-0.841 q 3.66431,-10.69264 7.62899,-21.20508 3.96471,-10.5725 8.28983,-21.02487 4.32511,-10.45234 9.01063,-20.9047 4.74562,-10.45237 9.97177,-21.02488 l -23.96832,0.36044 10.93294,-23.84822 73.10642,-1.26147 -11.11314,23.90825 z"
       inkscape:export-xdpi="207.33"
       inkscape:export-ydpi="207.33" />
    <path
       inkscape:connector-curvature="0"
       id="path3378-3-3"
       style="font-style:normal;font-variant:normal;font-weight:normal;font-stretch:normal;font-size:medium;line-height:125%;font-family:'SF Fedora';-inkscape-font-specification:'SF Fedora';letter-spacing:0px;word-spacing:0px;opacity:1;fill:#004455;fill-opacity:1;stroke:#fefefe;stroke-width:2.69118261;stroke-linecap:butt;stroke-linejoin:miter;stroke-miterlimit:4;stroke-dasharray:none;stroke-opacity:1"
       d="m 757.36319,135.10473 q -3.06361,4.50532 -7.32865,11.41351 -4.20499,6.90816 -10.15201,16.21916 1.26148,-0.12026 2.76325,-0.18024 1.56187,-0.06 3.30391,-0.06 1.682,0 3.12371,0.06 1.50177,0.06 2.76327,0.18024 0.84098,-4.62542 2.22261,-11.47355 1.38164,-6.84809 3.30391,-16.15912 z m 26.31113,-28.95423 q -10.45237,37.36416 -16.94003,84.76023 l -21.145,1.38163 2.28267,-11.834 q -4.26504,-0.72084 -9.19086,-0.72084 -2.10248,0 -4.26505,0.12026 -2.16254,0.12025 -4.20495,0.36043 l -7.38876,13.69618 -21.44534,1.32157 q 5.22616,-9.01066 11.23327,-18.92236 6.06719,-9.9718 12.97535,-21.02487 6.96822,-11.05308 14.83755,-23.24745 7.86929,-12.25451 16.81989,-25.77052 l 26.43126,-0.12026 z"
       inkscape:export-xdpi="207.33"
       inkscape:export-ydpi="207.33" />
    <path
       inkscape:connector-curvature="0"
       id="path3380-2-8"
       style="font-style:normal;font-variant:normal;font-weight:normal;font-stretch:normal;font-size:medium;line-height:125%;font-family:'SF Fedora';-inkscape-font-specification:'SF Fedora';letter-spacing:0px;word-spacing:0px;opacity:1;fill:#004455;fill-opacity:1;stroke:#fefefe;stroke-width:2.69118261;stroke-linecap:butt;stroke-linejoin:miter;stroke-miterlimit:4;stroke-dasharray:none;stroke-opacity:1"
       d="m 821.85546,107.05157 q -8.8905,18.80223 -15.91882,35.32176 -6.96826,16.45945 -12.49478,30.8765 l 1.92228,0 q 4.92581,0.12026 10.51243,-0.4205 5.58659,-0.6007 12.25448,-1.56184 l -9.85164,20.5443 q -10.75273,1.44171 -20.7245,2.22264 -9.9718,0.72084 -19.7033,0.60071 l -2.82334,0 q 15.55838,-45.47379 36.16275,-87.46344 l 20.66444,-0.12025 z"
       inkscape:export-xdpi="207.33"
       inkscape:export-ydpi="207.33" />
    <path
       inkscape:connector-curvature="0"
       id="path3382-1-0"
       style="font-style:normal;font-variant:normal;font-weight:normal;font-stretch:normal;font-size:medium;line-height:125%;font-family:'SF Fedora';-inkscape-font-specification:'SF Fedora';letter-spacing:0px;word-spacing:0px;opacity:1;fill:#004455;fill-opacity:1;stroke:#fefefe;stroke-width:2.69118261;stroke-linecap:butt;stroke-linejoin:miter;stroke-miterlimit:4;stroke-dasharray:none;stroke-opacity:1"
       d="m 888.48625,123.15059 q -8.47,0.18024 -16.21916,0.66077 -7.68909,0.4205 -14.77748,1.20144 -1.38164,2.88341 -2.82334,6.54775 -1.38164,3.60425 -2.94348,7.92937 7.02829,-0.84101 13.75625,-1.20141 6.78805,-0.36043 13.51601,-0.48057 l -7.98946,19.40294 -3.06361,0 q -5.94705,-0.12026 -11.95414,0.36043 -5.94705,0.4205 -12.43471,1.38164 -1.86221,3.42404 -3.36398,7.08836 -1.4417,3.60428 -2.64314,7.56896 7.80926,-0.90107 15.55842,-1.38164 7.74916,-0.48057 15.67852,-0.6007 l -7.98943,19.463 q -12.73508,0.2402 -25.65035,1.0813 -12.91528,0.84097 -26.7316,2.46291 6.6078,-18.0814 13.57605,-35.08149 6.96823,-17.06019 14.71742,-34.06028 l -7.26862,0.12026 7.14845,-18.20153 q 16.57962,-0.36041 31.59738,-1.26148 15.01775,-0.96113 29.13446,-2.34277 l -8.83046,19.34287 z"
       inkscape:export-xdpi="207.33"
       inkscape:export-ydpi="207.33" />
    <path
       inkscape:connector-curvature="0"
       id="path3384-6-8"
       style="font-style:normal;font-variant:normal;font-weight:normal;font-stretch:normal;font-size:medium;line-height:125%;font-family:'SF Fedora';-inkscape-font-specification:'SF Fedora';letter-spacing:0px;word-spacing:0px;opacity:1;fill:#004455;fill-opacity:1;stroke:#fefefe;stroke-width:2.69118261;stroke-linecap:butt;stroke-linejoin:miter;stroke-miterlimit:4;stroke-dasharray:none;stroke-opacity:1"
       d="m 932.41019,126.2142 q -11.3534,0.36044 -11.83397,0.48057 -8.22973,1.26154 -8.22973,6.06722 0,0.48057 0.24021,2.64311 0.2402,2.10248 0.72086,6.06716 0.90104,6.36752 1.26148,10.03189 0.36043,3.66435 0.36043,4.74562 0,5.16612 -2.10247,10.93294 -1.92228,4.98588 -4.02478,7.62902 -6.96823,9.1308 -21.80578,14.53719 -6.00712,2.10247 -12.49477,3.48411 -6.48769,1.32157 -13.57605,1.80214 l 6.36752,-22.04608 q 5.40639,-0.6007 9.5513,-1.4417 4.14488,-0.841 7.08836,-1.86221 3.54421,-1.20143 4.80568,-3.00354 1.32157,-1.7421 1.32157,-5.46652 0,-1.62187 -0.06,-3.06358 -0.06,-1.50177 -0.18023,-2.88341 -0.30049,-2.3428 -1.44171,-8.47006 -1.14137,-5.16608 -1.14137,-8.59013 0,-9.01063 8.22973,-17.96126 7.02832,-7.74913 16.51956,-11.71381 7.26859,-3.06367 19.16266,-3.06367 2.88341,0 5.64666,0.18023 2.76327,0.18023 5.34634,0.4205 l -9.73153,20.54427 z"
       inkscape:export-xdpi="207.33"
       inkscape:export-ydpi="207.33" />
    <path
       inkscape:connector-curvature="0"
       id="path4517-9-6"
       style="font-style:normal;font-variant:normal;font-weight:normal;font-stretch:normal;font-size:medium;line-height:125%;font-family:'SF Fedora';-inkscape-font-specification:'SF Fedora';letter-spacing:0px;word-spacing:0px;fill:#004455;fill-opacity:1;stroke:#fefefe;stroke-width:2.69118261;stroke-linecap:butt;stroke-linejoin:miter;stroke-miterlimit:4;stroke-dasharray:none;stroke-opacity:1"
       d="m 409.04132,154.77998 2.82162,38.89553 -25.8145,2.16088 -2.58145,-40.16229 28.99628,-42.39759 25.69437,-0.14917 -29.11632,41.65252 z"
       inkscape:export-xdpi="207.33"
       inkscape:export-ydpi="207.33" />
    <path
       inkscape:connector-curvature="0"
       id="path4525-2-4"
       style="font-style:normal;font-variant:normal;font-weight:normal;font-stretch:normal;font-size:medium;line-height:125%;font-family:'SF Fedora';-inkscape-font-specification:'SF Fedora';letter-spacing:0px;word-spacing:0px;fill:#004455;fill-opacity:1;stroke:#fefefe;stroke-width:2.69118261;stroke-linecap:butt;stroke-linejoin:miter;stroke-miterlimit:4;stroke-dasharray:none;stroke-opacity:1"
       d="m 947.61427,188.56211 -29.23323,2.22885 33.63825,-42.27445 -2.60295,-38.33674 28.83278,-2.15464 2.46949,38.48539 -33.10434,42.05159 z"
       inkscape:export-xdpi="207.33"
       inkscape:export-ydpi="207.33" />
    <path
       inkscape:connector-curvature="0"
       id="path4517-3-7-7"
       style="font-style:normal;font-variant:normal;font-weight:normal;font-stretch:normal;font-size:medium;line-height:125%;font-family:'SF Fedora';-inkscape-font-specification:'SF Fedora';letter-spacing:0px;word-spacing:0px;fill:#004455;fill-opacity:1;stroke:#fefefe;stroke-width:1.7005204px;stroke-linecap:butt;stroke-linejoin:miter;stroke-opacity:1"
       d="m 482.18203,264.78396 1.54871,17.47537 -14.16891,0.97086 -1.41689,-18.04449 15.91529,-19.04883 14.103,-0.067 -15.9812,18.71405 z"
       inkscape:export-xdpi="207.33"
       inkscape:export-ydpi="207.33" />
    <path
       inkscape:connector-curvature="0"
       id="path4525-7-9-8"
       style="font-style:normal;font-variant:normal;font-weight:normal;font-stretch:normal;font-size:medium;line-height:125%;font-family:'SF Fedora';-inkscape-font-specification:'SF Fedora';letter-spacing:0px;word-spacing:0px;fill:#004455;fill-opacity:1;stroke:#fefefe;stroke-width:1.7005204px;stroke-linecap:butt;stroke-linejoin:miter;stroke-opacity:1"
       d="m 500.79837,268.81566 -14.43252,1.00432 16.60727,-19.04884 -1.28509,-17.2745 14.23479,-0.97085 1.21921,17.34146 -16.34366,18.94841 z"
       inkscape:export-xdpi="207.33"
       inkscape:export-ydpi="207.33" />
    <path
       style="fill:#004455;fill-opacity:1;fill-rule:evenodd;stroke:#004455;stroke-width:3.60656714;stroke-linecap:butt;stroke-linejoin:miter;stroke-miterlimit:4;stroke-dasharray:none;stroke-opacity:1"
       d="m 470.38287,283.37001 475.8556,0 0,0.38636 0,0"
       id="path4564-1-7"
       inkscape:connector-curvature="0"
       inkscape:export-xdpi="207.33"
       inkscape:export-ydpi="207.33" />
    <g
       style="font-style:normal;font-weight:normal;font-size:16.75075722px;line-height:125%;font-family:sans-serif;letter-spacing:0px;word-spacing:0px;fill:#004455;fill-opacity:1;stroke:none;stroke-width:1px;stroke-linecap:butt;stroke-linejoin:miter;stroke-opacity:1"
       id="text4554-2-15"
       transform="matrix(3.0756372,0,0,3.0756372,-793.08938,-592.71823)">
      <path
         d="m 427.95331,266.61776 10.33017,0 0,1.39045 -4.33491,0 0,10.82092 -1.66035,0 0,-10.82092 -4.33491,0 0,-1.39045 z"
         style="font-style:normal;font-variant:normal;font-weight:normal;font-stretch:normal;font-family:OpenSymbol;-inkscape-font-specification:OpenSymbol"
         id="path4274"
         inkscape:connector-curvature="0" />
      <path
         d="m 447.43588,273.30007 0,5.52906 -1.50496,0 0,-5.47998 q 0,-1.30048 -0.5071,-1.94662 -0.5071,-0.64615 -1.52131,-0.64615 -1.21868,0 -1.92208,0.77701 -0.7034,0.77701 -0.7034,2.11838 l 0,5.17736 -1.51313,0 0,-12.72665 1.51313,0 0,4.98924 q 0.53982,-0.82609 1.26776,-1.23504 0.73611,-0.40895 1.69307,-0.40895 1.57856,0 2.38829,0.98149 0.80973,0.97331 0.80973,2.87085 z"
         style="font-style:normal;font-variant:normal;font-weight:normal;font-stretch:normal;font-family:OpenSymbol;-inkscape-font-specification:OpenSymbol"
         id="path4276"
         inkscape:connector-curvature="0" />
      <path
         d="m 458.28951,273.87261 0,0.73612 -6.9195,0 q 0.0982,1.55402 0.93242,2.37193 0.84244,0.80973 2.33921,0.80973 0.86699,0 1.67672,-0.21266 0.8179,-0.21265 1.61945,-0.63797 l 0,1.42316 q -0.80972,0.34353 -1.66035,0.52347 -0.85062,0.17994 -1.72579,0.17994 -2.19199,0 -3.4761,-1.27594 -1.27594,-1.27594 -1.27594,-3.45157 0,-2.24925 1.2105,-3.56608 1.21869,-1.32501 3.27981,-1.32501 1.84848,0 2.91994,1.19414 1.07963,1.18597 1.07963,3.23074 z m -1.50495,-0.44167 q -0.0163,-1.23504 -0.69522,-1.97116 -0.67068,-0.73612 -1.78304,-0.73612 -1.25958,0 -2.02023,0.71158 -0.75248,0.71158 -0.86698,2.00388 l 5.36547,-0.008 z"
         style="font-style:normal;font-variant:normal;font-weight:normal;font-stretch:normal;font-family:OpenSymbol;-inkscape-font-specification:OpenSymbol"
         id="path4278"
         inkscape:connector-curvature="0" />
      <path
         d="m 467.80996,267.97549 0,9.49591 1.9957,0 q 2.52734,0 3.69694,-1.14507 1.17779,-1.14507 1.17779,-3.61515 0,-2.45372 -1.17779,-3.59062 -1.1696,-1.14507 -3.69694,-1.14507 l -1.9957,0 z m -1.65217,-1.35773 3.39432,0 q 3.54972,0 5.21007,1.48042 1.66036,1.47223 1.66036,4.613 0,3.15712 -1.66854,4.63754 -1.66853,1.48041 -5.20189,1.48041 l -3.39432,0 0,-12.21137 z"
         style="font-style:normal;font-variant:normal;font-weight:normal;font-stretch:normal;font-family:OpenSymbol;-inkscape-font-specification:OpenSymbol"
         id="path4280"
         inkscape:connector-curvature="0" />
      <path
         d="m 479.04802,266.61776 1.65218,0 0,12.21137 -1.65218,0 0,-12.21137 z"
         style="font-style:normal;font-variant:normal;font-weight:normal;font-stretch:normal;font-family:OpenSymbol;-inkscape-font-specification:OpenSymbol"
         id="path4282"
         inkscape:connector-curvature="0" />
      <path
         d="m 482.29512,266.61776 10.33018,0 0,1.39045 -4.33492,0 0,10.82092 -1.66035,0 0,-10.82092 -4.33491,0 0,-1.39045 z"
         style="font-style:normal;font-variant:normal;font-weight:normal;font-stretch:normal;font-family:OpenSymbol;-inkscape-font-specification:OpenSymbol"
         id="path4284"
         inkscape:connector-curvature="0" />
      <path
         d="m 497.00111,268.2454 -2.24107,6.07706 4.49031,0 -2.24924,-6.07706 z m -0.93242,-1.62764 1.87301,0 4.6539,12.21137 -1.71761,0 -1.11236,-3.13259 -5.50452,0 -1.11235,3.13259 -1.74215,0 4.66208,-12.21137 z"
         style="font-style:normal;font-variant:normal;font-weight:normal;font-stretch:normal;font-family:OpenSymbol;-inkscape-font-specification:OpenSymbol"
         id="path4286"
         inkscape:connector-curvature="0" />
      <path
         d="m 517.02349,267.01854 0,1.61128 q -0.94059,-0.44985 -1.77486,-0.67069 -0.83426,-0.22083 -1.61128,-0.22083 -1.34955,0 -2.08566,0.52346 -0.72794,0.52346 -0.72794,1.48859 0,0.80973 0.48256,1.22686 0.49075,0.40896 1.84848,0.66251 l 0.99784,0.20448 q 1.84848,0.3517 2.72364,1.24322 0.88334,0.88334 0.88334,2.37193 0,1.77486 -1.19415,2.69092 -1.18596,0.91606 -3.48429,0.91606 -0.86698,0 -1.84847,-0.1963 -0.97331,-0.1963 -2.02023,-0.58072 l 0,-1.70125 q 1.00603,0.56436 1.97116,0.85063 0.96513,0.28627 1.89754,0.28627 1.41499,0 2.18382,-0.55618 0.76883,-0.55618 0.76883,-1.58674 0,-0.8997 -0.55617,-1.4068 -0.548,-0.50711 -1.80758,-0.76066 l -1.00603,-0.1963 q -1.84847,-0.36806 -2.67456,-1.15325 -0.82608,-0.78519 -0.82608,-2.18381 0,-1.61946 1.13689,-2.55188 1.14507,-0.93241 3.14894,-0.93241 0.85881,0 1.75033,0.1554 0.89152,0.1554 1.82393,0.46621 z"
         style="font-style:normal;font-variant:normal;font-weight:normal;font-stretch:normal;font-family:OpenSymbol;-inkscape-font-specification:OpenSymbol"
         id="path4288"
         inkscape:connector-curvature="0" />
      <path
         d="m 521.75918,267.06761 0,2.60095 3.09987,0 0,1.16961 -3.09987,0 0,4.97288 q 0,1.12054 0.30263,1.43952 0.3108,0.31898 1.25139,0.31898 l 1.54585,0 0,1.25958 -1.54585,0 q -1.74214,0 -2.40464,-0.64615 -0.66251,-0.65432 -0.66251,-2.37193 l 0,-4.97288 -1.10418,0 0,-1.16961 1.10418,0 0,-2.60095 1.51313,0 z"
         style="font-style:normal;font-variant:normal;font-weight:normal;font-stretch:normal;font-family:OpenSymbol;-inkscape-font-specification:OpenSymbol"
         id="path4290"
         inkscape:connector-curvature="0" />
      <path
         d="m 530.39629,270.72366 q -1.2105,0 -1.91391,0.94878 -0.7034,0.94059 -0.7034,2.58459 0,1.64399 0.69522,2.59276 0.70341,0.9406 1.92209,0.9406 1.20232,0 1.90572,-0.94877 0.70341,-0.94878 0.70341,-2.58459 0,-1.62764 -0.70341,-2.57641 -0.7034,-0.95696 -1.90572,-0.95696 z m 0,-1.27593 q 1.96298,0 3.08351,1.27593 1.12054,1.27594 1.12054,3.53337 0,2.24924 -1.12054,3.53336 -1.12053,1.27594 -3.08351,1.27594 -1.97116,0 -3.09169,-1.27594 -1.11236,-1.28412 -1.11236,-3.53336 0,-2.25743 1.11236,-3.53337 1.12053,-1.27593 3.09169,-1.27593 z"
         style="font-style:normal;font-variant:normal;font-weight:normal;font-stretch:normal;font-family:OpenSymbol;-inkscape-font-specification:OpenSymbol"
         id="path4292"
         inkscape:connector-curvature="0" />
      <path
         d="m 542.395,271.07536 q -0.25355,-0.14722 -0.55617,-0.21265 -0.29445,-0.0736 -0.65433,-0.0736 -1.27594,0 -1.96298,0.83426 -0.67886,0.82609 -0.67886,2.38011 l 0,4.82566 -1.51313,0 0,-9.16057 1.51313,0 0,1.42316 q 0.47438,-0.83426 1.23504,-1.23504 0.76065,-0.40895 1.84847,-0.40895 0.1554,0 0.34352,0.0245 0.18812,0.0164 0.41713,0.0573 l 0.008,1.54584 z"
         style="font-style:normal;font-variant:normal;font-weight:normal;font-stretch:normal;font-family:OpenSymbol;-inkscape-font-specification:OpenSymbol"
         id="path4294"
         inkscape:connector-curvature="0" />
      <path
         d="m 543.98992,269.66856 1.50496,0 0,9.16057 -1.50496,0 0,-9.16057 z m 0,-3.56608 1.50496,0 0,1.90573 -1.50496,0 0,-1.90573 z"
         style="font-style:normal;font-variant:normal;font-weight:normal;font-stretch:normal;font-family:OpenSymbol;-inkscape-font-specification:OpenSymbol"
         id="path4296"
         inkscape:connector-curvature="0" />
      <path
         d="m 556.4712,273.87261 0,0.73612 -6.9195,0 q 0.0981,1.55402 0.93241,2.37193 0.84245,0.80973 2.33922,0.80973 0.86698,0 1.67671,-0.21266 0.81791,-0.21265 1.61946,-0.63797 l 0,1.42316 q -0.80973,0.34353 -1.66036,0.52347 -0.85062,0.17994 -1.72578,0.17994 -2.192,0 -3.47611,-1.27594 -1.27594,-1.27594 -1.27594,-3.45157 0,-2.24925 1.21051,-3.56608 1.21868,-1.32501 3.27981,-1.32501 1.84847,0 2.91993,1.19414 1.07964,1.18597 1.07964,3.23074 z m -1.50495,-0.44167 q -0.0164,-1.23504 -0.69523,-1.97116 -0.67068,-0.73612 -1.78303,-0.73612 -1.25958,0 -2.02024,0.71158 -0.75247,0.71158 -0.86698,2.00388 l 5.36548,-0.008 z"
         style="font-style:normal;font-variant:normal;font-weight:normal;font-stretch:normal;font-family:OpenSymbol;-inkscape-font-specification:OpenSymbol"
         id="path4298"
         inkscape:connector-curvature="0" />
      <path
         d="m 564.78114,269.93847 0,1.42316 q -0.63797,-0.32716 -1.32501,-0.49074 -0.68704,-0.16359 -1.42316,-0.16359 -1.12053,0 -1.68489,0.34353 -0.55618,0.34352 -0.55618,1.03056 0,0.52346 0.40078,0.82609 0.40077,0.29444 1.61128,0.56435 l 0.51528,0.11451 q 1.6031,0.34352 2.27378,0.97331 0.67887,0.62161 0.67887,1.74215 0,1.27593 -1.01421,2.02023 -1.00603,0.7443 -2.77271,0.7443 -0.73611,0 -1.53766,-0.14723 -0.79337,-0.13904 -1.67672,-0.42531 l 0,-1.55403 q 0.83427,0.4335 1.644,0.65433 0.80973,0.21266 1.6031,0.21266 1.06328,0 1.63582,-0.35988 0.57253,-0.36806 0.57253,-1.03057 0,-0.61343 -0.41713,-0.94059 -0.40896,-0.32716 -1.80758,-0.62979 l -0.52346,-0.12269 q -1.39862,-0.29444 -2.02023,-0.8997 -0.62161,-0.61343 -0.62161,-1.67671 0,-1.29229 0.91605,-1.99569 0.91606,-0.7034 2.60095,-0.7034 0.83427,0 1.57039,0.12268 0.73611,0.12269 1.35772,0.36806 z"
         style="font-style:normal;font-variant:normal;font-weight:normal;font-stretch:normal;font-family:OpenSymbol;-inkscape-font-specification:OpenSymbol"
         id="path4300"
         inkscape:connector-curvature="0" />
    </g>
  </g>
</svg>
