<?xml version="1.0" encoding="UTF-8" standalone="no"?>
<!-- Created with Inkscape (https://www.inkscape.org/) -->

<svg
   xmlns:dc="https://purl.org/dc/elements/1.1/"
   xmlns:cc="https://creativecommons.org/ns#"
   xmlns:rdf="https://www.w3.org/1999/02/22-rdf-syntax-ns#"
   xmlns:svg="https://www.w3.org/2000/svg"
   xmlns="https://www.w3.org/2000/svg"
   xmlns:sodipodi="https://sodipodi.sourceforge.net/DTD/sodipodi-0.dtd"
   xmlns:inkscape="https://www.inkscape.org/namespaces/inkscape"
   width="196.47469"
   height="59.982262"
   viewBox="0 0 196.47469 59.982263"
   id="svg2"
   version="1.1"
   inkscape:version="0.91 r13725"
   sodipodi:docname="doctales-knowledge.svg">
  <defs
     id="defs4" />
  <sodipodi:namedview
     id="base"
     pagecolor="#ffffff"
     bordercolor="#666666"
     borderopacity="1.0"
     inkscape:pageopacity="0.0"
     inkscape:pageshadow="2"
     inkscape:zoom="2.8"
     inkscape:cx="-66.868527"
     inkscape:cy="-87.14458"
     inkscape:document-units="px"
     inkscape:current-layer="layer2"
     showgrid="false"
     inkscape:window-width="1920"
     inkscape:window-height="1029"
     inkscape:window-x="0"
     inkscape:window-y="0"
     inkscape:window-maximized="1"
     fit-margin-top="0"
     fit-margin-left="0"
     fit-margin-right="0"
     fit-margin-bottom="0" />
  <metadata
     id="metadata7">
    <rdf:RDF>
      <cc:Work
         rdf:about="">
        <dc:format>image/svg+xml</dc:format>
        <dc:type
           rdf:resource="https://purl.org/dc/dcmitype/StillImage" />
        <dc:title />
      </cc:Work>
    </rdf:RDF>
  </metadata>
  <g
     inkscape:groupmode="layer"
     id="layer2"
     inkscape:label="Ebene"
     transform="translate(-382.09442,-225.9562)"
     style="display:inline">
    <rect
       style="fill:#ffffff;fill-opacity:1;stroke:none;stroke-opacity:1"
       id="rect3443"
       width="195.46452"
       height="59.598999"
       x="383.10458"
       y="226.33946" />
    <rect
       style="opacity:1;fill:#5fbcd3;fill-opacity:1;stroke:#004455;stroke-width:0.875;stroke-miterlimit:4;stroke-dasharray:none;stroke-opacity:1"
       id="rect4315-2-6-8-9"
       width="172.56566"
       height="27.137091"
       x="393.11182"
       y="231.03256"
       inkscape:export-xdpi="207.33"
       inkscape:export-ydpi="207.33" />
    <path
       inkscape:connector-curvature="0"
       id="path3370-1-1"
       style="font-style:normal;font-variant:normal;font-weight:normal;font-stretch:normal;font-size:medium;line-height:125%;font-family:'SF Fedora';-inkscape-font-specification:'SF Fedora';letter-spacing:0px;word-spacing:0px;opacity:1;fill:#004455;fill-opacity:1;stroke:#fefefe;stroke-width:0.875;stroke-linecap:butt;stroke-linejoin:miter;stroke-miterlimit:4;stroke-dasharray:none;stroke-opacity:1"
       d="m 418.39237,241.12573 q 0,-2.79296 -2.51953,-4.47264 -1.99219,-1.28907 -5.11719,-1.67969 l 1.5625,1.64062 q -2.05078,3.51563 -4.14062,8.16407 -2.07031,4.62889 -4.21875,10.64452 4.25781,-0.87891 8.22266,-4.04297 4.0039,-3.14453 5.52734,-7.12891 0.68359,-1.93359 0.68359,-3.125 z m 8.24219,-2.75389 q 0,2.48047 -1.21094,5.52733 -2.94922,7.40235 -10.39062,12.91017 -7.46094,5.60547 -15.29297,6.25 -1.11328,0.11718 -6.79688,0.46875 1.3086,-3.55469 2.71485,-7.05078 1.42578,-3.51563 2.94922,-7.03125 1.52343,-3.51563 3.18359,-7.05078 1.66016,-3.55469 3.47656,-7.1875 -0.5664,0.17578 -1.17187,0.3125 -0.58594,0.13671 -1.19141,0.29296 l 1.79688,-7.24609 q 3.28125,-0.76172 6.52343,-0.76172 6.01563,0 10.15625,2.2461 5.25391,2.85156 5.25391,8.32031 z"
       inkscape:export-xdpi="207.33"
       inkscape:export-ydpi="207.33" />
    <path
       inkscape:connector-curvature="0"
       id="path3372-9-6"
       style="font-style:normal;font-variant:normal;font-weight:normal;font-stretch:normal;font-size:medium;line-height:125%;font-family:'SF Fedora';-inkscape-font-specification:'SF Fedora';letter-spacing:0px;word-spacing:0px;opacity:1;fill:#004455;fill-opacity:1;stroke:#fefefe;stroke-width:0.875;stroke-linecap:butt;stroke-linejoin:miter;stroke-miterlimit:4;stroke-dasharray:none;stroke-opacity:1"
       d="m 444.26347,236.22339 q -0.60547,-2.12891 -3.32032,-2.12891 l -0.44921,0 q -3.47657,0.3125 -6.64063,4.80469 -2.94922,4.25781 -2.94922,7.94922 0,2.8125 2.36328,2.8125 2.98828,0 6.03516,-3.53516 3.00781,-3.3789 3.00781,-6.38671 0,-1.11329 -0.41015,-1.97266 l 2.36328,-1.54297 z m 4.58984,-1.71875 q 0.44922,1.46484 0.44922,2.67578 0,1.9336 -1.15234,4.88281 -2.26563,5.33204 -7.01172,9.31641 -5.29297,4.47266 -10.54688,4.47266 -6.32812,0 -6.32812,-6.75782 0,-4.58983 2.96875,-9.84375 1.42578,-2.55858 3.24218,-4.62889 1.81641,-2.07032 4.0625,-3.73048 4.90235,-3.55469 9.49219,-3.55469 6.17188,0 7.03125,5.6836 l -2.20703,1.48438 z"
       inkscape:export-xdpi="207.33"
       inkscape:export-ydpi="207.33" />
    <path
       inkscape:connector-curvature="0"
       id="path3374-8-6"
       style="font-style:normal;font-variant:normal;font-weight:normal;font-stretch:normal;font-size:medium;line-height:125%;font-family:'SF Fedora';-inkscape-font-specification:'SF Fedora';letter-spacing:0px;word-spacing:0px;opacity:1;fill:#004455;fill-opacity:1;stroke:#fefefe;stroke-width:0.875;stroke-linecap:butt;stroke-linejoin:miter;stroke-miterlimit:4;stroke-dasharray:none;stroke-opacity:1"
       d="m 465.75454,237.77194 q -0.11719,-3.35938 -3.4375,-3.35938 -3.65235,0 -7.03125,4.72656 -3.08594,4.41407 -3.08594,8.28125 0,2.59767 2.32422,2.59767 1.875,0 3.82812,-1.36719 1.6211,-1.09375 2.92969,-2.94923 l 5.50781,1.34767 q -2.7539,3.94531 -6.46484,6.36719 -4.25781,2.79297 -8.53516,2.79297 -6.1914,0 -6.1914,-6.67969 0,-4.62891 2.96875,-9.88281 2.89062,-5.09766 7.30468,-8.39844 4.78516,-3.55469 9.49219,-3.55469 6.17188,0 7.03125,5.6836 l -6.64062,4.39453 z"
       inkscape:export-xdpi="207.33"
       inkscape:export-ydpi="207.33" />
    <path
       inkscape:connector-curvature="0"
       id="path3376-6-2"
       style="font-style:normal;font-variant:normal;font-weight:normal;font-stretch:normal;font-size:medium;line-height:125%;font-family:'SF Fedora';-inkscape-font-specification:'SF Fedora';letter-spacing:0px;word-spacing:0px;opacity:1;fill:#004455;fill-opacity:1;stroke:#fefefe;stroke-width:0.875;stroke-linecap:butt;stroke-linejoin:miter;stroke-miterlimit:4;stroke-dasharray:none;stroke-opacity:1"
       d="m 499.08097,235.00073 -10.625,0.15625 2.55859,1.26954 q -3.39843,7.24609 -6.17187,13.78907 -2.7539,6.54297 -4.96093,12.69531 l -8.0664,-0.27344 q 1.1914,-3.47656 2.48046,-6.89453 1.28907,-3.4375 2.69532,-6.83594 1.40625,-3.39843 2.92968,-6.79687 1.54297,-3.39844 3.24218,-6.83594 l -7.79296,0.11719 3.55469,-7.75391 23.76952,-0.41015 -3.61328,7.77343 z"
       inkscape:export-xdpi="207.33"
       inkscape:export-ydpi="207.33" />
    <path
       inkscape:connector-curvature="0"
       id="path3378-3-3"
       style="font-style:normal;font-variant:normal;font-weight:normal;font-stretch:normal;font-size:medium;line-height:125%;font-family:'SF Fedora';-inkscape-font-specification:'SF Fedora';letter-spacing:0px;word-spacing:0px;opacity:1;fill:#004455;fill-opacity:1;stroke:#fefefe;stroke-width:0.875;stroke-linecap:butt;stroke-linejoin:miter;stroke-miterlimit:4;stroke-dasharray:none;stroke-opacity:1"
       d="m 504.10776,236.64136 q -0.99609,1.46484 -2.38281,3.71094 -1.36719,2.24609 -3.30078,5.27343 0.41015,-0.0391 0.89843,-0.0586 0.50782,-0.0195 1.07422,-0.0195 0.54688,0 1.01563,0.0195 0.48828,0.0195 0.89844,0.0586 0.27343,-1.50389 0.72265,-3.73046 0.44922,-2.22656 1.07422,-5.25391 z m 8.55469,-9.41406 q -3.39844,12.14843 -5.50781,27.55859 l -6.875,0.44922 0.74218,-3.84766 q -1.38672,-0.23437 -2.98828,-0.23437 -0.68359,0 -1.38672,0.0391 -0.70312,0.0391 -1.36718,0.11719 l -2.40235,4.45312 -6.97265,0.42969 q 1.69921,-2.92969 3.65234,-6.15234 1.97266,-3.24219 4.21875,-6.83594 2.26562,-3.59375 4.82422,-7.55858 2.55859,-3.98438 5.46875,-8.37892 l 8.59375,-0.0391 z"
       inkscape:export-xdpi="207.33"
       inkscape:export-ydpi="207.33" />
    <path
       inkscape:connector-curvature="0"
       id="path3380-2-8"
       style="font-style:normal;font-variant:normal;font-weight:normal;font-stretch:normal;font-size:medium;line-height:125%;font-family:'SF Fedora';-inkscape-font-specification:'SF Fedora';letter-spacing:0px;word-spacing:0px;opacity:1;fill:#004455;fill-opacity:1;stroke:#fefefe;stroke-width:0.875;stroke-linecap:butt;stroke-linejoin:miter;stroke-miterlimit:4;stroke-dasharray:none;stroke-opacity:1"
       d="m 525.07651,227.52027 q -2.89062,6.11328 -5.17578,11.48437 -2.26563,5.35156 -4.0625,10.03906 l 0.625,0 q 1.60156,0.0391 3.41797,-0.13672 1.8164,-0.19531 3.98437,-0.50781 l -3.20312,6.67969 q -3.4961,0.46875 -6.73828,0.72266 -3.24219,0.23437 -6.40625,0.19531 l -0.91797,0 q 5.05859,-14.78516 11.75781,-28.4375 l 6.71875,-0.0391 z"
       inkscape:export-xdpi="207.33"
       inkscape:export-ydpi="207.33" />
    <path
       inkscape:connector-curvature="0"
       id="path3382-1-0"
       style="font-style:normal;font-variant:normal;font-weight:normal;font-stretch:normal;font-size:medium;line-height:125%;font-family:'SF Fedora';-inkscape-font-specification:'SF Fedora';letter-spacing:0px;word-spacing:0px;opacity:1;fill:#004455;fill-opacity:1;stroke:#fefefe;stroke-width:0.875;stroke-linecap:butt;stroke-linejoin:miter;stroke-miterlimit:4;stroke-dasharray:none;stroke-opacity:1"
       d="m 546.74057,232.75464 q -2.7539,0.0586 -5.27343,0.21484 -2.5,0.13672 -4.80469,0.39063 -0.44922,0.9375 -0.91797,2.12891 -0.44922,1.17187 -0.95703,2.57812 2.28515,-0.27344 4.47265,-0.39062 2.20704,-0.11719 4.39454,-0.15625 l -2.59766,6.30859 -0.99609,0 q -1.9336,-0.0391 -3.88672,0.11719 -1.9336,0.13672 -4.04297,0.44922 -0.60547,1.11328 -1.09375,2.30468 -0.46875,1.17188 -0.85938,2.46094 2.53907,-0.29297 5.0586,-0.44922 2.51953,-0.15625 5.09765,-0.19531 l -2.59765,6.32812 q -4.14063,0.0781 -8.33985,0.35157 -4.19922,0.27343 -8.6914,0.80078 2.14843,-5.87891 4.41406,-11.40625 2.26562,-5.54688 4.78516,-11.07422 l -2.36329,0.0391 2.32422,-5.91797 q 5.39063,-0.11718 10.27344,-0.41015 4.88281,-0.3125 9.47266,-0.76172 l -2.8711,6.28906 z"
       inkscape:export-xdpi="207.33"
       inkscape:export-ydpi="207.33" />
    <path
       inkscape:connector-curvature="0"
       id="path3384-6-8"
       style="font-style:normal;font-variant:normal;font-weight:normal;font-stretch:normal;font-size:medium;line-height:125%;font-family:'SF Fedora';-inkscape-font-specification:'SF Fedora';letter-spacing:0px;word-spacing:0px;opacity:1;fill:#004455;fill-opacity:1;stroke:#fefefe;stroke-width:0.875;stroke-linecap:butt;stroke-linejoin:miter;stroke-miterlimit:4;stroke-dasharray:none;stroke-opacity:1"
       d="m 561.02182,233.75073 q -3.6914,0.11719 -3.84765,0.15625 -2.67578,0.41017 -2.67578,1.97267 0,0.15625 0.0781,0.85937 0.0781,0.68359 0.23438,1.97265 0.29296,2.07031 0.41015,3.26173 0.11719,1.19141 0.11719,1.54297 0,1.67969 -0.68359,3.55469 -0.625,1.62109 -1.3086,2.48047 -2.26562,2.96875 -7.08984,4.72656 -1.95313,0.68359 -4.0625,1.13281 -2.10938,0.42969 -4.41406,0.58594 l 2.07031,-7.16797 q 1.75781,-0.19531 3.10547,-0.46875 1.34765,-0.27344 2.30468,-0.60547 1.15235,-0.39063 1.5625,-0.97656 0.42969,-0.56642 0.42969,-1.77736 0,-0.52733 -0.0195,-0.99608 -0.0195,-0.48828 -0.0586,-0.9375 -0.0977,-0.76173 -0.46875,-2.75392 -0.3711,-1.67968 -0.3711,-2.79296 0,-2.92968 2.67578,-5.83985 2.28516,-2.51952 5.3711,-3.80858 2.36328,-0.99611 6.23047,-0.99611 0.9375,0 1.83593,0.0586 0.89844,0.0586 1.73829,0.13672 l -3.16407,6.67968 z"
       inkscape:export-xdpi="207.33"
       inkscape:export-ydpi="207.33" />
    <path
       inkscape:connector-curvature="0"
       id="path4517-9-6"
       style="font-style:normal;font-variant:normal;font-weight:normal;font-stretch:normal;font-size:medium;line-height:125%;font-family:'SF Fedora';-inkscape-font-specification:'SF Fedora';letter-spacing:0px;word-spacing:0px;fill:#004455;fill-opacity:1;stroke:#fefefe;stroke-width:0.875;stroke-linecap:butt;stroke-linejoin:miter;stroke-miterlimit:4;stroke-dasharray:none;stroke-opacity:1"
       d="m 390.85582,243.03849 0.91741,12.64633 -8.39322,0.70258 -0.83932,-13.0582 9.42773,-13.78498 8.35416,-0.0485 -9.46676,13.54273 z"
       inkscape:export-xdpi="207.33"
       inkscape:export-ydpi="207.33" />
    <path
       inkscape:connector-curvature="0"
       id="path4525-2-4"
       style="font-style:normal;font-variant:normal;font-weight:normal;font-stretch:normal;font-size:medium;line-height:125%;font-family:'SF Fedora';-inkscape-font-specification:'SF Fedora';letter-spacing:0px;word-spacing:0px;fill:#004455;fill-opacity:1;stroke:#fefefe;stroke-width:0.875;stroke-linecap:butt;stroke-linejoin:miter;stroke-miterlimit:4;stroke-dasharray:none;stroke-opacity:1"
       d="m 565.96521,254.02227 -9.50477,0.72468 10.937,-13.74494 -0.84631,-12.46465 9.37457,-0.70055 0.80292,12.51298 -10.76341,13.67248 z"
       inkscape:export-xdpi="207.33"
       inkscape:export-ydpi="207.33" />
    <path
       inkscape:connector-curvature="0"
       id="path4517-3-7-7"
       style="font-style:normal;font-variant:normal;font-weight:normal;font-stretch:normal;font-size:medium;line-height:125%;font-family:'SF Fedora';-inkscape-font-specification:'SF Fedora';letter-spacing:0px;word-spacing:0px;fill:#004455;fill-opacity:1;stroke:#fefefe;stroke-width:0.5529002px;stroke-linecap:butt;stroke-linejoin:miter;stroke-opacity:1"
       d="m 414.63649,278.80473 0.50354,5.68187 -4.60682,0.31566 -0.46068,-5.86691 5.17463,-6.19346 4.58539,-0.0218 -5.19606,6.08461 z"
       inkscape:export-xdpi="207.33"
       inkscape:export-ydpi="207.33" />
    <path
       inkscape:connector-curvature="0"
       id="path4525-7-9-8"
       style="font-style:normal;font-variant:normal;font-weight:normal;font-stretch:normal;font-size:medium;line-height:125%;font-family:'SF Fedora';-inkscape-font-specification:'SF Fedora';letter-spacing:0px;word-spacing:0px;fill:#004455;fill-opacity:1;stroke:#fefefe;stroke-width:0.5529002px;stroke-linecap:butt;stroke-linejoin:miter;stroke-opacity:1"
       d="m 420.68933,280.11558 -4.69253,0.32654 5.39962,-6.19346 -0.41783,-5.61656 4.62824,-0.31566 0.39641,5.63833 -5.31391,6.16081 z"
       inkscape:export-xdpi="207.33"
       inkscape:export-ydpi="207.33" />
    <path
       style="fill:#004455;fill-opacity:1;fill-rule:evenodd;stroke:#004455;stroke-width:1.17262435;stroke-linecap:butt;stroke-linejoin:miter;stroke-miterlimit:4;stroke-dasharray:none;stroke-opacity:1"
       d="m 410.80016,284.84772 154.71773,0 0,0.12562 0,0"
       id="path4564-1-7"
       inkscape:connector-curvature="0"
       inkscape:export-xdpi="207.33"
       inkscape:export-ydpi="207.33" />
    <text
       xml:space="preserve"
       style="font-style:normal;font-weight:normal;font-size:16.75075722px;line-height:125%;font-family:sans-serif;letter-spacing:0px;word-spacing:0px;display:inline;fill:#004455;fill-opacity:1;stroke:none"
       x="427.84921"
       y="279.60941"
       id="text4554-2-6"
       sodipodi:linespacing="125%"><tspan
         sodipodi:role="line"
         id="tspan4556-5-9"
         x="427.84921"
         y="279.60941"
         style="font-style:normal;font-variant:normal;font-weight:normal;font-stretch:normal;font-family:OpenSymbol;-inkscape-font-specification:OpenSymbol">Wiki</tspan></text>
  </g>
</svg>
