<?xml version="1.0" encoding="UTF-8" standalone="no"?>
<!-- Created with Inkscape (http://www.inkscape.org/) -->

<svg
   xmlns:dc="http://purl.org/dc/elements/1.1/"
   xmlns:cc="http://creativecommons.org/ns#"
   xmlns:rdf="http://www.w3.org/1999/02/22-rdf-syntax-ns#"
   xmlns:svg="http://www.w3.org/2000/svg"
   xmlns="http://www.w3.org/2000/svg"
   xmlns:sodipodi="http://sodipodi.sourceforge.net/DTD/sodipodi-0.dtd"
   xmlns:inkscape="http://www.inkscape.org/namespaces/inkscape"
   width="26.565573mm"
   height="4.2333364mm"
   viewBox="0 0 94.129979 15.000011"
   id="svg4783"
   version="1.1"
   inkscape:version="0.91 r13725"
   sodipodi:docname="icon-oncampus.svg">
  <defs
     id="defs4785" />
  <sodipodi:namedview
     id="base"
     pagecolor="#ffffff"
     bordercolor="#666666"
     borderopacity="1.0"
     inkscape:pageopacity="0.0"
     inkscape:pageshadow="2"
     inkscape:zoom="2.8"
     inkscape:cx="53.048763"
     inkscape:cy="-21.382696"
     inkscape:document-units="px"
     inkscape:current-layer="layer2"
     showgrid="false"
     fit-margin-top="0"
     fit-margin-left="0"
     fit-margin-right="0"
     fit-margin-bottom="0"
     inkscape:window-width="1920"
     inkscape:window-height="1028"
     inkscape:window-x="0"
     inkscape:window-y="0"
     inkscape:window-maximized="1" />
  <metadata
     id="metadata4788">
    <rdf:RDF>
      <cc:Work
         rdf:about="">
        <dc:format>image/svg+xml</dc:format>
        <dc:type
           rdf:resource="http://purl.org/dc/dcmitype/StillImage" />
        <dc:title></dc:title>
      </cc:Work>
    </rdf:RDF>
  </metadata>
  <g
     inkscape:label="oncampus"
     inkscape:groupmode="layer"
     id="layer1"
     style="display:inline"
     transform="translate(-50.125853,-645.63614)">
    <g
       id="g5399" />
    <path
       style="fill:#d42c2c"
       d="m 118.95498,660.55408 c -0.0386,-0.0624 -0.0749,-2.46833 -0.0809,-5.3466 -0.006,-2.87828 -0.008,-5.30607 -0.005,-5.39509 0.004,-0.11479 0.29123,-0.16188 0.98795,-0.16188 0.97272,0 0.98393,0.004 1.12911,0.3885 0.0807,0.21367 0.19829,0.38848 0.26143,0.38848 0.0631,0 0.28526,-0.14344 0.49361,-0.31876 0.20836,-0.17532 0.59554,-0.37896 0.86042,-0.45252 0.26487,-0.0736 0.70792,-0.13407 0.98455,-0.13447 0.27663,-3.1e-4 0.74281,0.0701 1.03597,0.15676 0.3349,0.099 0.77834,0.40131 1.19308,0.8135 0.4623,0.45946 0.72865,0.86249 0.88896,1.34513 0.17448,0.52531 0.21566,0.97065 0.17325,1.87355 -0.0423,0.90035 -0.12686,1.3242 -0.35256,1.76717 -0.16331,0.3205 -0.48003,0.77722 -0.70383,1.01494 -0.22379,0.23771 -0.63828,0.55139 -0.92107,0.69706 -0.2828,0.14566 -0.87006,0.29341 -1.30501,0.32833 -0.62769,0.0504 -0.92233,0.005 -1.42827,-0.21849 -0.35059,-0.15508 -0.66657,-0.29337 -0.70218,-0.3073 -0.0356,-0.014 -0.0939,0.79049 -0.1295,1.78761 -0.0647,1.81295 -0.0647,1.81295 -1.18717,1.85021 -0.61734,0.0205 -1.15397,-0.0138 -1.19251,-0.0761 z m 4.58535,-5.14317 c 0.20893,-0.10805 0.48087,-0.38484 0.60431,-0.61511 0.14697,-0.27415 0.22446,-0.70923 0.22446,-1.2604 0,-0.55117 -0.0775,-0.98624 -0.22446,-1.26039 -0.12344,-0.23027 -0.39538,-0.50707 -0.60431,-0.61511 -0.20892,-0.10804 -0.54972,-0.19644 -0.75732,-0.19644 -0.2076,0 -0.53806,0.12633 -0.73435,0.28074 -0.1963,0.1544 -0.43725,0.47303 -0.53545,0.70807 -0.0982,0.23503 -0.17855,0.75158 -0.17855,1.14788 0,0.3963 0.0812,0.91502 0.18056,1.1527 0.0993,0.23768 0.31623,0.52718 0.48205,0.64332 0.16582,0.11615 0.49537,0.21117 0.73234,0.21117 0.23697,0 0.6018,-0.0884 0.81072,-0.19643 z m -48.945863,4.79391 c -0.534318,-0.17295 -1.357326,-0.58102 -1.84813,-0.91638 -0.486663,-0.33252 -1.117862,-0.86931 -1.402665,-1.19286 -0.284803,-0.32355 -0.686596,-0.88466 -0.89287,-1.24689 -0.206276,-0.36224 -0.505596,-1.03739 -0.665156,-1.50034 -0.224318,-0.65083 -0.292489,-1.15009 -0.300596,-2.20144 -0.0085,-1.10784 0.04774,-1.53841 0.303871,-2.32442 0.172898,-0.53059 0.599232,-1.39063 0.947411,-1.9112 0.348178,-0.52057 0.960336,-1.21309 1.360351,-1.53895 0.400015,-0.32585 1.055691,-0.75822 1.45706,-0.96083 0.401369,-0.20261 1.083154,-0.45996 1.515076,-0.57188 0.431924,-0.11193 1.274551,-0.20349 1.872508,-0.20349 0.597956,0 1.429134,0.0891 1.847062,0.19792 0.417928,0.10885 1.172835,0.41479 1.677571,0.67985 0.518298,0.27219 1.260839,0.82009 1.706129,1.25891 0.433638,0.42734 0.953842,1.06138 1.156009,1.40897 0.202168,0.34761 0.505844,1.01293 0.674839,1.4785 0.168992,0.46557 0.3414,1.28921 0.383127,1.83031 0.0436,0.56544 0.0077,1.38766 -0.0843,1.93343 -0.100539,0.59606 -0.355502,1.34264 -0.684832,2.0053 -0.387667,0.78006 -0.767233,1.29594 -1.453689,1.97576 -0.59705,0.59129 -1.22809,1.06729 -1.765936,1.33207 -0.4603,0.2266 -1.154768,0.4966 -1.543265,0.59998 -0.401111,0.10675 -1.265963,0.18614 -2.00132,0.18372 -1.006509,-0.003 -1.509532,-0.0737 -2.258251,-0.31604 z m 3.73261,-1.23833 c 0.312338,-0.072 0.895069,-0.28829 1.294962,-0.48063 0.403118,-0.19389 1.075923,-0.69671 1.510009,-1.12851 0.430611,-0.42833 0.882229,-0.99155 1.003596,-1.2516 0.121364,-0.26004 0.220445,-0.63882 0.220178,-0.84172 -3.14e-4,-0.20291 -0.114026,-0.55513 -0.252797,-0.78272 -0.169816,-0.27851 -0.421521,-0.46451 -0.769788,-0.56885 -0.409139,-0.12259 -0.601057,-0.12042 -0.916733,0.0104 -0.219595,0.091 -0.645094,0.48821 -0.945554,0.88277 -0.317133,0.41646 -0.785702,0.84374 -1.117018,1.01858 -0.431421,0.22766 -0.779113,0.30088 -1.424459,0.29996 -0.710615,-7.5e-4 -0.96742,-0.0664 -1.531918,-0.39016 -0.494495,-0.28359 -0.785425,-0.57263 -1.074102,-1.06712 -0.362549,-0.62104 -0.392656,-0.76187 -0.357297,-1.67132 0.03352,-0.86223 0.09028,-1.06664 0.430625,-1.55089 0.215605,-0.30677 0.652437,-0.71862 0.970737,-0.91523 0.318301,-0.1966 0.841561,-0.39337 1.1628,-0.43727 0.321241,-0.0439 0.82233,-0.0157 1.113533,0.0628 0.291204,0.0784 0.725192,0.27447 0.964421,0.43569 0.239229,0.16121 0.633466,0.55468 0.876083,0.87437 0.242618,0.31969 0.56558,0.65203 0.71769,0.73853 0.152112,0.0865 0.500918,0.15935 0.775128,0.16187 0.397687,0.004 0.587643,-0.0845 0.938847,-0.43569 0.352491,-0.3525 0.440286,-0.54255 0.440286,-0.95315 0,-0.33658 -0.115614,-0.68599 -0.336357,-1.01655 -0.184999,-0.27702 -0.549208,-0.72529 -0.809352,-0.99614 -0.260146,-0.27086 -0.739926,-0.66395 -1.06618,-0.87354 -0.326252,-0.20958 -0.938121,-0.50376 -1.35971,-0.65371 -0.554036,-0.19707 -1.071648,-0.27189 -1.86724,-0.26992 -0.778359,0.002 -1.325203,0.0818 -1.86724,0.27264 -0.421589,0.14846 -1.048933,0.45115 -1.394101,0.67264 -0.345166,0.22149 -0.865899,0.67285 -1.157182,1.00303 -0.291285,0.33017 -0.690259,0.92082 -0.886613,1.31254 -0.196353,0.39173 -0.430471,1.02379 -0.520261,1.40459 -0.09551,0.40506 -0.136926,1.10361 -0.0998,1.68345 0.03606,0.56313 0.18621,1.3112 0.347738,1.73243 0.156354,0.40773 0.532032,1.07788 0.834839,1.48921 0.302809,0.41134 0.88317,0.97697 1.28969,1.25695 0.406523,0.27998 1.131213,0.64268 1.61042,0.806 0.581557,0.19819 1.172724,0.29699 1.777762,0.29711 0.498561,10e-5 1.162023,-0.0587 1.474359,-0.13075 z m -0.62669,-4.6906 c 0.110102,-0.0868 0.299491,-0.30184 0.420863,-0.47793 0.121371,-0.1761 0.220674,-0.517 0.220674,-0.75756 0,-0.32474 -0.113379,-0.55075 -0.440287,-0.87766 -0.349319,-0.34931 -0.544029,-0.44028 -0.942406,-0.44028 -0.276167,0 -0.631968,0.0909 -0.790667,0.2021 -0.158699,0.11116 -0.38078,0.38047 -0.493511,0.59846 -0.133171,0.25753 -0.176728,0.54687 -0.124353,0.82606 0.04716,0.25139 0.244114,0.56728 0.474633,0.76125 0.287947,0.24229 0.539507,0.33044 0.934444,0.32743 0.297233,-0.002 0.630507,-0.0751 0.74061,-0.16187 z m -25.207797,3.06448 c -0.293057,-0.10394 -0.776141,-0.39724 -1.07352,-0.65178 -0.297381,-0.25455 -0.693584,-0.76221 -0.880455,-1.12815 -0.249214,-0.48801 -0.355474,-0.92709 -0.398712,-1.64755 -0.04072,-0.67845 0.0062,-1.20645 0.151814,-1.70722 0.115919,-0.39875 0.399648,-0.97058 0.630508,-1.27072 0.230861,-0.30014 0.731926,-0.72108 1.113479,-0.93541 0.540487,-0.30362 0.901514,-0.40303 1.634365,-0.45007 0.667161,-0.0428 1.128441,0.002 1.586605,0.15419 0.355282,0.11801 0.889592,0.42309 1.187354,0.67796 0.297761,0.25488 0.699259,0.76281 0.892219,1.12874 0.313678,0.59486 0.350848,0.80248 0.350937,1.9603 8.1e-5,1.05256 -0.05207,1.40783 -0.27862,1.89793 -0.153295,0.33164 -0.521917,0.839 -0.819161,1.12746 -0.303669,0.2947 -0.850303,0.64041 -1.247717,0.78911 -0.453115,0.16953 -0.996375,0.26095 -1.511771,0.2544 -0.442471,-0.005 -1.044267,-0.0953 -1.337325,-0.19919 z m 2.436207,-1.16576 c 0.19218,-0.0982 0.494117,-0.36822 0.670969,-0.60008 0.176853,-0.23186 0.390305,-0.59613 0.474339,-0.80949 0.08404,-0.21335 0.154876,-0.76805 0.157425,-1.23266 0.0031,-0.57741 -0.07803,-1.0282 -0.256566,-1.42446 -0.14366,-0.31884 -0.437177,-0.74471 -0.652258,-0.94638 -0.215081,-0.20167 -0.616287,-0.41728 -0.891569,-0.47914 -0.275281,-0.0619 -0.712786,-0.0646 -0.972233,-0.006 -0.259447,0.0585 -0.597651,0.1946 -0.751566,0.3024 -0.153914,0.10781 -0.41963,0.38548 -0.59048,0.61706 -0.170849,0.23157 -0.376961,0.74053 -0.458025,1.13102 -0.08188,0.39443 -0.107628,0.97514 -0.05792,1.3066 0.04921,0.32814 0.195129,0.80195 0.324269,1.0529 0.12914,0.25095 0.400388,0.61194 0.602774,0.8022 0.202385,0.19025 0.57193,0.40411 0.82121,0.47525 0.24928,0.0711 0.628056,0.0978 0.841725,0.0593 0.213669,-0.0385 0.545729,-0.15031 0.737909,-0.24849 z m 34.587184,1.14065 c -0.371168,-0.1203 -0.924759,-0.39707 -1.230211,-0.61506 -0.330765,-0.23606 -0.707873,-0.6777 -0.932454,-1.09202 -0.285056,-0.52589 -0.391578,-0.92152 -0.436474,-1.62112 -0.04111,-0.64054 0.0081,-1.15759 0.159808,-1.67948 0.175288,-0.60297 0.36848,-0.90331 0.96432,-1.49915 0.617947,-0.61794 0.89493,-0.79138 1.622993,-1.01626 0.519765,-0.16053 1.228898,-0.27086 1.738344,-0.27043 0.47325,3.1e-4 1.07898,0.0614 1.346071,0.13558 0.412425,0.11454 0.48411,0.18762 0.475657,0.4849 -0.0053,0.19251 -0.07916,0.57947 -0.163747,0.85991 -0.153795,0.50988 -0.153795,0.50988 -1.258119,0.51798 -0.836108,0.006 -1.190978,0.0649 -1.461135,0.24175 -0.196246,0.12852 -0.470363,0.41988 -0.609143,0.64749 -0.16128,0.26451 -0.252503,0.64818 -0.252811,1.06332 -3.15e-4,0.37824 0.09817,0.83796 0.235718,1.10072 0.14583,0.27859 0.455475,0.56553 0.809348,0.75002 0.4791,0.24975 0.732496,0.29226 1.544116,0.25899 0.970958,-0.0398 0.970958,-0.0398 1.084493,0.71454 0.07305,0.48531 0.0672,0.80066 -0.01627,0.88417 -0.0714,0.0714 -0.355462,0.18217 -0.63126,0.24615 -0.27579,0.064 -0.909353,0.11417 -1.407916,0.11152 -0.498555,-0.003 -1.210148,-0.10324 -1.581316,-0.22352 z m 7.109854,0.0596 c -0.23556,-0.0853 -0.628245,-0.35068 -0.872641,-0.58964 -0.244395,-0.23896 -0.502957,-0.64546 -0.574582,-0.90332 -0.07162,-0.25787 -0.13056,-0.60777 -0.130958,-0.77757 -3.15e-4,-0.16979 0.0699,-0.5444 0.156195,-0.83245 0.0863,-0.28805 0.355553,-0.72238 0.598343,-0.96517 0.242783,-0.24278 0.70803,-0.55571 1.033883,-0.69538 0.325845,-0.13968 1.090943,-0.32518 1.700214,-0.41222 0.820223,-0.11718 1.107758,-0.20799 1.107758,-0.34985 0,-0.10539 -0.203955,-0.29349 -0.453233,-0.41802 -0.249285,-0.12453 -0.65952,-0.2265 -0.911648,-0.22662 -0.25212,-1.1e-4 -0.801975,0.0893 -1.221901,0.19867 -0.419917,0.10937 -0.831015,0.17295 -0.913545,0.14128 -0.08253,-0.0317 -0.223673,-0.32051 -0.313643,-0.64187 -0.08998,-0.32136 -0.127485,-0.64271 -0.08335,-0.71412 0.0441,-0.0714 0.385485,-0.23625 0.758565,-0.36634 0.498218,-0.17372 1.057486,-0.23652 2.106249,-0.23652 1.277161,0 1.495779,0.0349 2.070759,0.33082 0.37112,0.19098 0.79378,0.54677 0.99993,0.84172 0.1979,0.28315 0.41628,0.83441 0.48986,1.23659 0.0731,0.39912 0.11682,1.76855 0.0973,3.04316 -0.0354,2.31748 -0.0354,2.31748 -1.03163,2.35517 -0.926,0.035 -1.00708,0.0168 -1.15064,-0.25899 -0.0849,-0.16318 -0.172325,-0.31761 -0.194188,-0.34319 -0.0219,-0.0256 -0.203363,0.0675 -0.403328,0.20681 -0.199957,0.13932 -0.561653,0.3205 -0.803753,0.40262 -0.2421,0.0821 -0.708293,0.14487 -1.035968,0.13945 -0.327683,-0.005 -0.788513,-0.0797 -1.024073,-0.16502 z m 2.647809,-1.82716 c 0.148478,-0.104 0.34047,-0.35931 0.426653,-0.56738 0.08618,-0.20806 0.137918,-0.57458 0.114968,-0.81451 -0.04155,-0.43399 -0.04485,-0.43605 -0.662468,-0.40425 -0.341408,0.0176 -0.795526,0.12235 -1.009156,0.23282 -0.21363,0.11047 -0.444188,0.34754 -0.512348,0.52683 -0.06817,0.17928 -0.12393,0.40958 -0.12393,0.51178 0,0.1022 0.116543,0.30236 0.25899,0.44481 0.167573,0.16758 0.431655,0.25899 0.748163,0.25899 0.269048,0 0.610651,-0.0851 0.759128,-0.18909 z m 31.280276,1.83848 c -0.23551,-0.0754 -0.65485,-0.3946 -0.93186,-0.70931 -0.34873,-0.39618 -0.54811,-0.77815 -0.64815,-1.24175 -0.0876,-0.40617 -0.1286,-1.6629 -0.10411,-3.19473 0.0403,-2.52518 0.0403,-2.52518 1.20585,-2.52518 1.16547,0 1.16547,0 1.23021,2.46043 0.0433,1.6454 0.11935,2.55597 0.22959,2.74883 0.0907,0.15862 0.27622,0.34801 0.41235,0.42086 0.13613,0.0728 0.43,0.13247 0.65302,0.13247 0.22304,0 0.5169,-0.0596 0.65304,-0.13247 0.13612,-0.0728 0.32168,-0.26224 0.41234,-0.42086 0.11023,-0.19286 0.18629,-1.10343 0.22959,-2.74883 0.0647,-2.46043 0.0647,-2.46043 1.23021,-2.46043 1.16547,0 1.16547,0 1.23022,3.69065 0.0356,2.02985 0.043,3.7658 0.0165,3.85767 -0.0352,0.12179 -0.31274,0.15686 -1.02482,0.1295 -0.9766,-0.0375 -0.9766,-0.0375 -1.12084,-0.46713 -0.14424,-0.42958 -0.14424,-0.42958 -0.64182,-0.0342 -0.27366,0.21749 -0.70909,0.45418 -0.96762,0.52599 -0.25854,0.0718 -0.7323,0.12495 -1.0528,0.11807 -0.32051,-0.007 -0.77542,-0.0742 -1.01094,-0.14961 z m 8.62521,-0.0418 c -0.33481,-0.10301 -0.64674,-0.24877 -0.69318,-0.32391 -0.0464,-0.0751 -0.047,-0.38685 -7.5e-4,-0.69269 0.0458,-0.30583 0.16202,-0.66359 0.25813,-0.79503 0.15294,-0.20917 0.21978,-0.21846 0.53571,-0.0745 0.19854,0.0905 0.65356,0.21996 1.01119,0.28778 0.43559,0.0826 0.78753,0.078 1.06622,-0.014 0.22881,-0.0755 0.45009,-0.22611 0.49175,-0.33465 0.0416,-0.10855 0.0185,-0.30419 -0.0513,-0.43476 -0.0699,-0.13056 -0.53833,-0.39874 -1.041,-0.59596 -0.50267,-0.19722 -1.09601,-0.49289 -1.31852,-0.65706 -0.22252,-0.16417 -0.51103,-0.45993 -0.64113,-0.65724 -0.14576,-0.22104 -0.2369,-0.59686 -0.23742,-0.97902 -4.8e-4,-0.36389 0.10498,-0.82774 0.25521,-1.12219 0.14083,-0.27606 0.43641,-0.63035 0.65685,-0.78731 0.22044,-0.15697 0.66807,-0.36584 0.99474,-0.46415 0.32665,-0.0983 0.90229,-0.17875 1.27919,-0.17875 0.3769,0 0.98352,0.064 1.34804,0.14214 0.37788,0.081 0.69602,0.22879 0.74012,0.34371 0.0425,0.11087 0.006,0.46938 -0.0812,0.79671 -0.0872,0.32733 -0.19951,0.63655 -0.24952,0.68716 -0.05,0.0506 -0.40061,0.002 -0.77912,-0.10971 -0.41009,-0.12021 -0.86678,-0.16823 -1.13013,-0.11882 -0.25129,0.0472 -0.50295,0.19688 -0.58335,0.3471 -0.11018,0.20587 -0.0957,0.31468 0.0656,0.4929 0.11384,0.12578 0.6169,0.38953 1.11791,0.58609 0.50101,0.19657 1.08475,0.50366 1.2972,0.68242 0.21245,0.17877 0.47159,0.49002 0.57586,0.69167 0.10429,0.20164 0.1896,0.63362 0.1896,0.95995 0,0.32633 -0.0812,0.78773 -0.18051,1.02533 -0.0993,0.2376 -0.38801,0.59028 -0.64164,0.78373 -0.25362,0.19345 -0.73525,0.43422 -1.07028,0.53505 -0.33504,0.10083 -1.05152,0.17928 -1.59217,0.17432 -0.54066,-0.005 -1.25695,-0.0933 -1.59176,-0.19631 z m -79.145427,-0.0286 c -0.04,-0.0647 -0.07613,-1.74304 -0.08028,-3.72962 -0.0041,-1.98659 -0.0059,-3.68481 -0.0038,-3.77384 0.0025,-0.10435 0.205938,-0.16187 0.572682,-0.16187 0.399284,0 0.592312,0.0611 0.647481,0.20484 0.04323,0.11266 0.0786,0.31661 0.0786,0.45323 0,0.13662 0.06515,0.2484 0.144774,0.2484 0.07963,0 0.340264,-0.17163 0.579193,-0.38142 0.238931,-0.20978 0.654537,-0.44255 0.92357,-0.51727 0.269032,-0.0747 0.738682,-0.13616 1.043669,-0.13656 0.304983,-3e-4 0.770374,0.0895 1.034201,0.19971 0.263826,0.11023 0.617266,0.32876 0.78542,0.48562 0.168155,0.15684 0.43118,0.51827 0.584501,0.80316 0.261747,0.48636 0.278763,0.69585 0.278763,3.43165 0,2.91366 0,2.91366 -0.647481,2.91366 -0.64748,0 -0.64748,0 -0.712229,-2.65467 -0.05396,-2.2122 -0.102968,-2.72461 -0.294061,-3.07431 -0.126122,-0.2308 -0.371564,-0.51285 -0.545424,-0.62677 -0.173862,-0.11391 -0.536857,-0.23465 -0.806657,-0.26829 -0.350162,-0.0436 -0.656463,0.0245 -1.070315,0.23828 -0.340092,0.17565 -0.688062,0.48682 -0.841725,0.75268 -0.231867,0.40118 -0.269392,0.75072 -0.326703,3.04316 -0.06475,2.58992 -0.06475,2.58992 -0.668124,2.62892 -0.331856,0.0215 -0.6361,-0.014 -0.676097,-0.0787 z m 44.530947,-0.18194 c -0.0398,-0.16299 -0.0561,-1.89886 -0.0361,-3.8575 0.0364,-3.56114 0.0364,-3.56114 0.98423,-3.59937 0.94789,-0.0383 0.94789,-0.0383 1.09673,0.35612 0.0819,0.21689 0.21636,0.39434 0.29885,0.39434 0.0825,0 0.22998,-0.0966 0.32773,-0.21476 0.0977,-0.11813 0.41082,-0.3208 0.6957,-0.4504 0.2849,-0.1296 0.79361,-0.23691 1.13048,-0.23847 0.33686,-0.001 0.84782,0.0913 1.13545,0.2064 0.28762,0.11509 0.66262,0.38771 0.83332,0.60583 0.31037,0.39657 0.31037,0.39657 0.79758,-0.0312 0.26796,-0.23529 0.67897,-0.5079 0.91333,-0.60583 0.23437,-0.0979 0.7301,-0.17805 1.10163,-0.17805 0.41488,0 0.88569,0.10176 1.2203,0.26373 0.31162,0.15086 0.68761,0.47954 0.87847,0.76795 0.18352,0.27732 0.39605,0.75594 0.47227,1.06361 0.0824,0.33259 0.12347,1.60944 0.10127,3.14931 -0.0374,2.58992 -0.0374,2.58992 -1.12697,2.62788 -0.78431,0.0273 -1.11939,-0.009 -1.19586,-0.12949 -0.0584,-0.0921 -0.10712,-1.2047 -0.10821,-2.47245 -0.001,-1.77135 -0.046,-2.39018 -0.19229,-2.673 -0.10467,-0.20241 -0.35234,-0.42253 -0.55036,-0.48915 -0.19803,-0.0666 -0.50048,-0.0861 -0.67212,-0.0434 -0.17164,0.0428 -0.43386,0.2407 -0.58273,0.43981 -0.24632,0.32944 -0.27649,0.5854 -0.33541,2.84583 -0.0647,2.48382 -0.0647,2.48382 -1.15438,2.52178 -0.78431,0.0273 -1.11939,-0.009 -1.19585,-0.1295 -0.0584,-0.0921 -0.10734,-1.21637 -0.1087,-2.49838 -0.002,-2.05919 -0.0311,-2.37796 -0.24844,-2.7343 -0.13804,-0.22639 -0.38871,-0.43066 -0.57131,-0.46556 -0.17894,-0.0342 -0.5005,0.0115 -0.71457,0.10146 -0.21408,0.09 -0.46666,0.29952 -0.5613,0.46556 -0.1191,0.20896 -0.192,1.05937 -0.23682,2.76233 -0.0647,2.46043 -0.0647,2.46043 -1.19412,2.4978 -1.08369,0.0358 -1.13229,0.0253 -1.2018,-0.259 z"
       id="path5403"
       inkscape:connector-curvature="0" />
  </g>
  <g
     inkscape:groupmode="layer"
     id="layer2"
     inkscape:label="C"
     transform="translate(-50.125853,-645.63614)">
    <path
       style="fill:#000000;fill-opacity:1;stroke:none"
       d="m 74.594467,660.20482 c -0.534318,-0.17295 -1.357326,-0.58102 -1.84813,-0.91638 -0.486663,-0.33252 -1.117862,-0.86931 -1.402665,-1.19286 -0.284803,-0.32355 -0.686596,-0.88466 -0.89287,-1.24689 -0.206276,-0.36224 -0.505596,-1.03739 -0.665156,-1.50034 -0.224318,-0.65083 -0.292489,-1.15009 -0.300596,-2.20144 -0.0085,-1.10784 0.04774,-1.53841 0.303871,-2.32442 0.172898,-0.53059 0.599232,-1.39063 0.947411,-1.9112 0.348178,-0.52057 0.960336,-1.21309 1.360351,-1.53895 0.400015,-0.32585 1.055691,-0.75822 1.45706,-0.96083 0.401369,-0.20261 1.083154,-0.45996 1.515076,-0.57188 0.431924,-0.11193 1.274551,-0.20349 1.872508,-0.20349 0.597956,0 1.429134,0.0891 1.847062,0.19792 0.417928,0.10885 1.172835,0.41479 1.677571,0.67985 0.518298,0.27219 1.260839,0.82009 1.706129,1.25891 0.433638,0.42734 0.953842,1.06138 1.156009,1.40897 0.202168,0.34761 0.505844,1.01293 0.674839,1.4785 0.168992,0.46557 0.3414,1.28921 0.383127,1.83031 0.0436,0.56544 0.0077,1.38766 -0.0843,1.93343 -0.100539,0.59606 -0.355502,1.34264 -0.684832,2.0053 -0.387667,0.78006 -0.767233,1.29594 -1.453689,1.97576 -0.59705,0.59129 -1.22809,1.06729 -1.765936,1.33207 -0.4603,0.2266 -1.154768,0.4966 -1.543265,0.59998 -0.401111,0.10675 -1.265963,0.18614 -2.00132,0.18372 -1.006509,-0.003 -1.509532,-0.0737 -2.258251,-0.31604 z m 3.73261,-1.23833 c 0.312338,-0.072 0.895069,-0.28829 1.294962,-0.48063 0.403118,-0.19389 1.075923,-0.69671 1.510009,-1.12851 0.430611,-0.42833 0.882229,-0.99155 1.003596,-1.2516 0.121364,-0.26004 0.220445,-0.63882 0.220178,-0.84172 -3.14e-4,-0.20291 -0.114026,-0.55513 -0.252797,-0.78272 -0.169816,-0.27851 -0.421521,-0.46451 -0.769788,-0.56885 -0.409139,-0.12259 -0.601057,-0.12042 -0.916733,0.0104 -0.219595,0.091 -0.645094,0.48821 -0.945554,0.88277 -0.317133,0.41646 -0.785702,0.84374 -1.117018,1.01858 -0.431421,0.22766 -0.779113,0.30088 -1.424459,0.29996 -0.710615,-7.5e-4 -0.96742,-0.0664 -1.531918,-0.39016 -0.494495,-0.28359 -0.785425,-0.57263 -1.074102,-1.06712 -0.362549,-0.62104 -0.392656,-0.76187 -0.357297,-1.67132 0.03352,-0.86223 0.09028,-1.06664 0.430625,-1.55089 0.215605,-0.30677 0.652437,-0.71862 0.970737,-0.91523 0.318301,-0.1966 0.841561,-0.39337 1.1628,-0.43727 0.321241,-0.0439 0.82233,-0.0157 1.113533,0.0628 0.291204,0.0784 0.725192,0.27447 0.964421,0.43569 0.239229,0.16121 0.633466,0.55468 0.876083,0.87437 0.242618,0.31969 0.56558,0.65203 0.71769,0.73853 0.152112,0.0865 0.500918,0.15935 0.775128,0.16187 0.397687,0.004 0.587643,-0.0845 0.938847,-0.43569 0.352491,-0.3525 0.440286,-0.54255 0.440286,-0.95315 0,-0.33658 -0.115614,-0.68599 -0.336357,-1.01655 -0.184999,-0.27702 -0.549208,-0.72529 -0.809352,-0.99614 -0.260146,-0.27086 -0.739926,-0.66395 -1.06618,-0.87354 -0.326252,-0.20958 -0.938121,-0.50376 -1.35971,-0.65371 -0.554036,-0.19707 -1.071648,-0.27189 -1.86724,-0.26992 -0.778359,0.002 -1.325203,0.0818 -1.86724,0.27264 -0.421589,0.14846 -1.048933,0.45115 -1.394101,0.67264 -0.345166,0.22149 -0.865899,0.67285 -1.157182,1.00303 -0.291285,0.33017 -0.690259,0.92082 -0.886613,1.31254 -0.196353,0.39173 -0.430471,1.02379 -0.520261,1.40459 -0.09551,0.40506 -0.136926,1.10361 -0.0998,1.68345 0.03606,0.56313 0.18621,1.3112 0.347738,1.73243 0.156354,0.40773 0.532032,1.07788 0.834839,1.48921 0.302809,0.41134 0.88317,0.97697 1.28969,1.25695 0.406523,0.27998 1.131213,0.64268 1.61042,0.806 0.581557,0.19819 1.172724,0.29699 1.777762,0.29711 0.498561,10e-5 1.162023,-0.0587 1.474359,-0.13075 z m -0.62669,-4.6906 c 0.110102,-0.0868 0.299491,-0.30184 0.420863,-0.47793 0.121371,-0.1761 0.220674,-0.517 0.220674,-0.75756 0,-0.32474 -0.113379,-0.55075 -0.440287,-0.87766 -0.349319,-0.34931 -0.544029,-0.44028 -0.942406,-0.44028 -0.276167,0 -0.631968,0.0909 -0.790667,0.2021 -0.158699,0.11116 -0.38078,0.38047 -0.493511,0.59846 -0.133171,0.25753 -0.176728,0.54687 -0.124353,0.82606 0.04716,0.25139 0.244114,0.56728 0.474633,0.76125 0.287947,0.24229 0.539507,0.33044 0.934444,0.32743 0.297233,-0.002 0.630507,-0.0751 0.74061,-0.16187 z"
       id="path5403-3"
       inkscape:connector-curvature="0"
       sodipodi:nodetypes="ssssssssssssssssssssssssscssscsscsscsssssssssscssssssssssssssssssccsssssssssss" />
  </g>
</svg>
