<?xml version="1.0" encoding="UTF-8" standalone="no"?>
<!-- Generator: Adobe Illustrator 18.1.1, SVG Export Plug-In . SVG Version: 6.00 Build 0)  -->

<svg
   xmlns:dc="http://purl.org/dc/elements/1.1/"
   xmlns:cc="http://creativecommons.org/ns#"
   xmlns:rdf="http://www.w3.org/1999/02/22-rdf-syntax-ns#"
   xmlns:svg="http://www.w3.org/2000/svg"
   xmlns="http://www.w3.org/2000/svg"
   xmlns:sodipodi="http://sodipodi.sourceforge.net/DTD/sodipodi-0.dtd"
   xmlns:inkscape="http://www.inkscape.org/namespaces/inkscape"
   version="1.1"
   id="hs-hannover"
   x="0px"
   y="0px"
   viewBox="215.9974 0 67.85554 19.999992"
   enable-background="new 215.9974 0 396.0027 792"
   xml:space="preserve"
   inkscape:version="0.91 r13725"
   sodipodi:docname="icon-hs-hannover.svg"
   width="67.855537"
   height="19.999992"><metadata
     id="metadata6221"><rdf:RDF><cc:Work
         rdf:about=""><dc:format>image/svg+xml</dc:format><dc:type
           rdf:resource="http://purl.org/dc/dcmitype/StillImage" /><dc:title></dc:title></cc:Work></rdf:RDF></metadata><defs
     id="defs6219" /><sodipodi:namedview
     pagecolor="#ffffff"
     bordercolor="#666666"
     borderopacity="1"
     objecttolerance="10"
     gridtolerance="10"
     guidetolerance="10"
     inkscape:pageopacity="0"
     inkscape:pageshadow="2"
     inkscape:window-width="1920"
     inkscape:window-height="1028"
     id="namedview6217"
     showgrid="false"
     showguides="true"
     inkscape:guide-bbox="true"
     fit-margin-top="0"
     fit-margin-left="0"
     fit-margin-right="0"
     fit-margin-bottom="0"
     inkscape:zoom="0.21070354"
     inkscape:cx="-806.32744"
     inkscape:cy="-492.03716"
     inkscape:window-x="0"
     inkscape:window-y="0"
     inkscape:window-maximized="1"
     inkscape:current-layer="hs-hannover" /><path
     d="m 217.69692,15.325937 c 0.31165,0 0.57874,-0.26702 0.57874,-0.57838 l 0,-6.28976 5.40528,0 0,6.28976 c 0,0.31136 0.26715,0.57838 0.57894,0.57838 l 1.12057,0 c 0.31165,0 0.57874,-0.26702 0.57874,-0.57838 l 0,-14.16923996 c 0,-0.31137 -0.26709,-0.578249998984 -0.57874,-0.578249998984 l -1.12057,0 c -0.31179,0 -0.57894,0.266879998984 -0.57894,0.578249998984 l 0,5.73273996 -5.40528,0 0,-5.73273996 c 0,-0.31137 -0.26709,-0.578249998984 -0.57874,-0.578249998984 l -1.12071,0 c -0.31164,0 -0.5788,0.266879998984 -0.5788,0.578249998984 l 0,14.16923996 c 0,0.31137 0.26716,0.57838 0.5788,0.57838 l 1.12071,0 0,0 z"
     id="path6212"
     inkscape:connector-curvature="0"
     style="fill:#e74e0f" /><path
     d="m 225.3835,19.923627 c 0.30996,0 0.57572,-0.26948 0.57572,-0.58393 l 0,-1.13091 c 0,-0.31453 -0.26576,-0.584 -0.57572,-0.584 l -8.81028,0 c -0.30996,0 -0.57578,0.26947 -0.57578,0.584 l 0,1.13091 c 0,0.31445 0.26582,0.58393 0.57578,0.58393 l 8.81028,0 z"
     id="path6214"
     inkscape:connector-curvature="0"
     style="fill:#e74e0f" /><rect
     id="hs-hannover-svgid"
     x="215.99744"
     width="9.9618502"
     height="19.92363"
     y="0"
     style="fill:none" /><g
     transform="matrix(0.88470998,0,0,0.88470998,126.09733,-122.70373)"
     class="st0"
     id="g6844"><path
       inkscape:connector-curvature="0"
       class="st2"
       d="m 115.24024,151.47129 0.90587,0 0,4.12171 4.03113,0 0,-4.12171 0.90587,0 0,9.69282 -0.90587,0 0,-4.80112 -4.03113,0 0,4.80112 -0.90587,0 z m 11.86691,4.84641 c 0,-0.40764 -0.0906,-0.76999 -0.22646,-0.99646 -0.13589,-0.22647 -0.45294,-0.36235 -0.90588,-0.36235 -0.36234,0 -0.72469,0.0453 -1.04175,0.18117 -0.31705,0.13589 -0.63411,0.27177 -0.95116,0.49823 l -0.31706,-0.63411 c 0.31706,-0.22646 0.67941,-0.40764 1.08705,-0.54352 0.40764,-0.13588 0.81528,-0.22647 1.3588,-0.22647 0.63411,0 1.08705,0.13588 1.40411,0.45294 0.31705,0.31705 0.49822,0.81528 0.49822,1.49469 l 0,4.98229 -0.58881,0 -0.22647,-0.81528 c -0.0906,0.0906 -0.18117,0.22646 -0.31705,0.31705 -0.13589,0.0906 -0.27177,0.22647 -0.40765,0.31706 -0.18117,0.0906 -0.31705,0.18117 -0.54352,0.22646 -0.18117,0.0453 -0.40764,0.0906 -0.58882,0.0906 -0.63411,0 -1.08704,-0.18117 -1.44939,-0.54352 -0.36235,-0.36235 -0.54352,-0.86058 -0.54352,-1.49469 0,-0.7247 0.22646,-1.26822 0.6794,-1.63057 0.45294,-0.36235 1.22293,-0.54352 2.26468,-0.54352 l 0.86058,0 0,-0.76999 z m 0,1.4041 -0.76999,0 c -0.40764,0 -0.76999,0.0453 -1.04175,0.0906 -0.27176,0.0453 -0.49823,0.13588 -0.6794,0.27176 -0.18118,0.13588 -0.27176,0.27176 -0.31706,0.49823 -0.0453,0.18117 -0.0906,0.40764 -0.0906,0.6794 0,0.45294 0.0906,0.81528 0.27177,0.99646 0.18117,0.18117 0.49823,0.31705 0.90587,0.31705 0.40764,0 0.76999,-0.0906 1.04175,-0.31705 0.27176,-0.18118 0.49823,-0.40764 0.6794,-0.63411 l 0,-1.90233 z m 3.30643,-3.30643 0.58882,0 0.18117,0.99646 c 0.31706,-0.31706 0.67941,-0.58882 1.04176,-0.81529 0.36234,-0.22647 0.76999,-0.31705 1.17763,-0.31705 0.49823,0 0.86058,0.13588 1.17763,0.40764 0.31706,0.27176 0.45294,0.7247 0.45294,1.31351 l 0,5.16347 -0.86058,0 0,-4.937 c 0,-0.45294 -0.0906,-0.76999 -0.22647,-0.95116 -0.18117,-0.18118 -0.40764,-0.27177 -0.76999,-0.27177 -0.31705,0 -0.6794,0.0906 -0.99646,0.27177 -0.31705,0.18117 -0.63411,0.40764 -0.95116,0.6794 l 0,5.20876 -0.86058,0 0,-6.74874 z m 7.11109,0 0.58882,0 0.18117,0.99646 c 0.31706,-0.31706 0.67941,-0.58882 1.04176,-0.81529 0.36234,-0.22647 0.76999,-0.31705 1.17763,-0.31705 0.49823,0 0.86058,0.13588 1.17763,0.40764 0.31706,0.27176 0.45294,0.7247 0.45294,1.31351 l 0,5.16347 -0.86058,0 0,-4.937 c 0,-0.45294 -0.0906,-0.76999 -0.22647,-0.95116 -0.18117,-0.18118 -0.40764,-0.27177 -0.76999,-0.27177 -0.31705,0 -0.6794,0.0906 -0.99646,0.27177 -0.31705,0.18117 -0.63411,0.40764 -0.95116,0.6794 l 0,5.20876 -0.86058,0 0,-6.74874 z m 9.42107,6.88462 c -0.40765,0 -0.76999,-0.0453 -1.08705,-0.18117 -0.31705,-0.13588 -0.63411,-0.31706 -0.86058,-0.63411 -0.22647,-0.27177 -0.40764,-0.63411 -0.54352,-1.08705 -0.13588,-0.45294 -0.18117,-0.99646 -0.18117,-1.58527 0,-0.63411 0.0453,-1.17764 0.18117,-1.63057 0.13588,-0.45294 0.31705,-0.81529 0.54352,-1.08705 0.22647,-0.27176 0.49823,-0.49823 0.86058,-0.63411 0.31706,-0.13588 0.6794,-0.18117 1.08705,-0.18117 0.40764,0 0.72469,0.0453 1.08704,0.18117 0.31706,0.13588 0.63411,0.31706 0.86058,0.63411 0.22647,0.31706 0.40764,0.63411 0.54352,1.08705 0.13588,0.45293 0.22647,0.99646 0.22647,1.63057 0,0.63411 -0.0453,1.17763 -0.18117,1.58527 -0.13588,0.45294 -0.31706,0.81528 -0.54353,1.08705 -0.22646,0.27176 -0.49823,0.49823 -0.86057,0.63411 -0.40765,0.13588 -0.77,0.18117 -1.13234,0.18117 z m 0,-0.6794 c 0.27176,0 0.54352,-0.0453 0.76999,-0.13588 0.22646,-0.0906 0.40764,-0.27177 0.54352,-0.45294 0.13588,-0.18117 0.27176,-0.49823 0.31705,-0.86058 0.0906,-0.36235 0.0906,-0.81528 0.0906,-1.31351 0,-0.54352 -0.0453,-0.99646 -0.13588,-1.35881 -0.0906,-0.36235 -0.18117,-0.6794 -0.36235,-0.90587 -0.13588,-0.22647 -0.31705,-0.40764 -0.54352,-0.49823 -0.22647,-0.0906 -0.49823,-0.13588 -0.76999,-0.13588 -0.27176,0 -0.54352,0.0453 -0.76999,0.13588 -0.22647,0.0906 -0.40764,0.27176 -0.54352,0.45294 -0.13589,0.22646 -0.27177,0.49823 -0.31706,0.86057 -0.0906,0.36235 -0.0906,0.81529 -0.0906,1.35881 0,0.54352 0.0453,0.99646 0.13588,1.35881 0.0906,0.36235 0.18118,0.63411 0.36235,0.86058 0.13588,0.22646 0.31706,0.36235 0.54353,0.49823 0.18117,0.0906 0.45293,0.13588 0.76999,0.13588 z m 3.94054,-6.20522 0.90587,0 1.3588,4.25759 c 0.0906,0.27176 0.18118,0.58882 0.27177,0.95117 0.0906,0.31705 0.13588,0.58881 0.18117,0.81528 0.0453,-0.22647 0.0906,-0.49823 0.18117,-0.81528 l 0.27177,-0.95117 1.31351,-4.25759 0.86058,0 -2.26468,6.74874 -0.86058,0 z m 7.51873,3.4876 c 0,0.49823 0.0453,0.95117 0.13588,1.26822 0.0906,0.36235 0.18117,0.63411 0.31705,0.81529 0.13589,0.22646 0.31706,0.36235 0.54353,0.45293 0.22647,0.0906 0.49823,0.13588 0.81528,0.13588 0.40764,0 0.7247,-0.0453 0.99646,-0.18117 0.27176,-0.13588 0.49823,-0.27176 0.7247,-0.45294 l 0.45293,0.58882 c -0.27176,0.22647 -0.58881,0.40764 -0.95116,0.54352 -0.31706,0.13588 -0.7247,0.18118 -1.22293,0.18118 -0.40764,0 -0.76999,-0.0453 -1.08704,-0.18118 -0.31706,-0.13588 -0.63411,-0.31705 -0.86058,-0.58881 -0.22647,-0.27177 -0.40764,-0.63411 -0.54352,-1.08705 -0.13589,-0.45294 -0.22647,-0.99646 -0.22647,-1.63057 0,-0.63411 0.0453,-1.17763 0.18117,-1.63057 0.13588,-0.45293 0.31706,-0.81528 0.54352,-1.08704 0.22647,-0.27176 0.49823,-0.49823 0.81529,-0.63411 0.31705,-0.13588 0.6794,-0.18118 1.04175,-0.18118 0.76999,0 1.4041,0.27176 1.81174,0.76999 0.40765,0.49823 0.63411,1.35881 0.63411,2.53644 l 0,0.36235 z m 3.21584,-0.63411 c 0,-0.45293 -0.0453,-0.81528 -0.0906,-1.08704 -0.0453,-0.27176 -0.18117,-0.54353 -0.27176,-0.7247 -0.13588,-0.18117 -0.27176,-0.31706 -0.49823,-0.36235 -0.18117,-0.0906 -0.40764,-0.0906 -0.6794,-0.0906 -0.22647,0 -0.45293,0.0453 -0.63411,0.0906 -0.18117,0.0906 -0.36235,0.18118 -0.49823,0.36235 -0.13588,0.18117 -0.27176,0.40764 -0.36235,0.7247 -0.0906,0.31705 -0.13588,0.6794 -0.18117,1.08704 l 3.21584,0 z m 2.98938,-2.85349 0.58881,0 0.18118,1.13234 c 0.27176,-0.36235 0.58881,-0.63411 0.95116,-0.86058 0.31706,-0.22647 0.7247,-0.36235 1.13234,-0.36235 l 0.22647,0 -0.0906,0.90587 c -0.0453,-0.0453 -0.13588,-0.0453 -0.31705,-0.0453 -0.36235,0 -0.67941,0.0906 -0.95117,0.27176 -0.27176,0.18117 -0.58881,0.40764 -0.86057,0.76999 l 0,4.98229 -0.86058,0 0,-6.79403 z"
       id="path6846"
       sodipodi:nodetypes="cccccccccccccccscccssssccccccsssssccccssccscsccccccccscsccscsccccccccccscsccscsccccccsccsscscsccsscscsscscscccscccscccsccccccccccccccccsccccscccscccssscccsccscsccccccccsccscccccc" /></g><path
     inkscape:connector-curvature="0"
     class="st2"
     d="m 228.15333,0.53762704 0.80143,0 0,3.64651996 3.56638,0 0,-3.64651996 0.80143,0 0,8.57533996 -0.80143,0 0,-4.2476 -3.56638,0 0,4.2476 -0.80143,0 z m 9.49698,8.69554996 c -0.36064,0 -0.68122,-0.0401 -0.96172,-0.16028 -0.2805,-0.12022 -0.561,-0.28051 -0.76136,-0.56101 -0.20036,-0.24043 -0.36064,-0.561 -0.48086,-0.96172 -0.12021,-0.40072 -0.16028,-0.88158 -0.16028,-1.4025 0,-0.56101 0.0401,-1.04187 0.16028,-1.44259 0.12022,-0.40072 0.2805,-0.72129 0.48086,-0.96172 0.20036,-0.24043 0.44079,-0.44079 0.76136,-0.561 0.2805,-0.12022 0.60108,-0.16029 0.96172,-0.16029 0.36065,0 0.64115,0.0401 0.96172,0.16029 0.2805,0.12021 0.56101,0.2805 0.76137,0.561 0.20035,0.24043 0.36064,0.561 0.48085,0.96172 0.12022,0.40072 0.20036,0.88158 0.20036,1.44259 0,0.561 -0.0401,1.04186 -0.16028,1.4025 -0.12022,0.40072 -0.2805,0.72129 -0.48086,0.96172 -0.20036,0.24043 -0.44079,0.44079 -0.76136,0.56101 -0.32058,0.12021 -0.64115,0.16028 -1.0018,0.16028 z m 0,-0.60107 c 0.24043,0 0.48087,-0.0401 0.68122,-0.12022 0.20036,-0.0802 0.36065,-0.24043 0.48086,-0.40072 0.12022,-0.20036 0.24043,-0.44079 0.2805,-0.76136 0.0401,-0.32058 0.0801,-0.72129 0.0801,-1.16208 0,-0.48085 -0.0401,-0.88157 -0.12022,-1.20215 -0.0801,-0.32057 -0.16028,-0.60107 -0.32057,-0.80143 -0.12021,-0.20036 -0.2805,-0.36064 -0.48086,-0.44079 -0.20036,-0.0802 -0.44079,-0.12021 -0.68122,-0.12021 -0.24043,0 -0.48086,0.0401 -0.68122,0.12021 -0.20035,0.0802 -0.36064,0.24043 -0.48086,0.40072 -0.12021,0.20035 -0.24042,0.44079 -0.2805,0.76136 -0.0801,0.32057 -0.0801,0.72129 -0.0801,1.20215 0,0.48086 0.0401,0.88158 0.12021,1.20215 0.0801,0.32058 0.16029,0.561 0.32058,0.76136 0.12021,0.20036 0.2805,0.32058 0.48085,0.44079 0.20036,0.0802 0.44079,0.12022 0.68122,0.12022 z m 6.17104,0.60107 c -0.36065,0 -0.64115,-0.0401 -0.96172,-0.16028 -0.2805,-0.12022 -0.52093,-0.28051 -0.76136,-0.56101 -0.20036,-0.24043 -0.36064,-0.561 -0.48086,-0.96172 -0.12022,-0.40072 -0.16029,-0.88158 -0.16029,-1.44258 0,-0.56101 0.0401,-1.04186 0.16029,-1.44258 0.12022,-0.40071 0.2805,-0.72129 0.48086,-0.96172 0.20036,-0.24043 0.44079,-0.44079 0.72129,-0.561 0.2805,-0.12022 0.60107,-0.16029 0.96172,-0.16029 0.36064,0 0.68122,0.0802 0.96172,0.20036 0.24043,0.12021 0.48086,0.2805 0.72129,0.52093 l -0.44079,0.52093 c -0.16028,-0.20035 -0.36065,-0.32057 -0.52093,-0.44079 -0.16029,-0.12022 -0.44079,-0.16028 -0.72129,-0.16028 -0.24043,0 -0.48086,0.0401 -0.64115,0.12021 -0.20036,0.0802 -0.36064,0.20036 -0.48086,0.40072 -0.12021,0.20035 -0.24043,0.44079 -0.2805,0.76136 -0.0801,0.32057 -0.0801,0.72129 -0.0801,1.20215 0,0.48086 0.0401,0.88158 0.0801,1.20215 0.0802,0.32058 0.16029,0.561 0.2805,0.76136 0.12022,0.20036 0.2805,0.32058 0.48086,0.40072 0.20036,0.0802 0.44079,0.12021 0.68122,0.12021 0.32057,0 0.561,-0.0802 0.76136,-0.20035 0.20036,-0.12022 0.36065,-0.28051 0.48086,-0.40072 l 0.48086,0.48086 c -0.20036,0.24043 -0.44079,0.40072 -0.72129,0.561 -0.20036,0.12021 -0.561,0.20036 -1.00179,0.20036 z m 3.40609,-9.05619996 0.76137,0 0,3.76673996 c 0.2805,-0.28051 0.60107,-0.48086 0.88157,-0.68122 0.28051,-0.16029 0.64115,-0.2805 1.00179,-0.2805 0.44079,0 0.76137,0.12021 1.04187,0.36065 0.2805,0.24043 0.40072,0.64114 0.40072,1.16207 l 0,4.60825 -0.76137,0 0,-4.36782 c 0,-0.40072 -0.0801,-0.68122 -0.20035,-0.8415 -0.16029,-0.16029 -0.36065,-0.24044 -0.68122,-0.24044 -0.28051,0 -0.60108,0.0802 -0.88158,0.24044 -0.2805,0.16028 -0.561,0.36065 -0.84151,0.60107 l 0,4.60825 -0.76136,0 0,-8.93598996 z m 7.61362,9.05619996 c -0.40071,0 -0.76136,-0.0802 -1.08193,-0.20036 -0.32058,-0.12021 -0.60108,-0.2805 -0.84151,-0.44079 l 0.32058,-0.52093 c 0.24043,0.16029 0.48085,0.32058 0.72128,0.40072 0.24043,0.12021 0.56101,0.16029 0.88158,0.16029 0.44079,0 0.76136,-0.0802 0.96172,-0.28051 0.20036,-0.20036 0.2805,-0.44079 0.2805,-0.76136 0,-0.20035 -0.0401,-0.32057 -0.0801,-0.44079 -0.0401,-0.12022 -0.12022,-0.24043 -0.24043,-0.32057 -0.12022,-0.0802 -0.24043,-0.16029 -0.40072,-0.24043 -0.16029,-0.0802 -0.40072,-0.16029 -0.64115,-0.24043 -0.24043,-0.0802 -0.44078,-0.16029 -0.60107,-0.24043 -0.20036,-0.0802 -0.36065,-0.20036 -0.48086,-0.36065 -0.12022,-0.16028 -0.24043,-0.32057 -0.32057,-0.48085 -0.0802,-0.20036 -0.12022,-0.44079 -0.12022,-0.68122 0,-0.20036 0.0401,-0.40072 0.12022,-0.60108 0.0801,-0.20036 0.16028,-0.36064 0.32057,-0.48086 0.16029,-0.12021 0.32057,-0.24043 0.561,-0.32057 0.24043,-0.0802 0.48086,-0.12022 0.76136,-0.12022 0.36065,0 0.68122,0.0401 0.92165,0.12022 0.24043,0.0802 0.48086,0.16029 0.68122,0.2805 l -0.2805,0.60107 c -0.20036,-0.12021 -0.44079,-0.20036 -0.64115,-0.2805 -0.20035,-0.0802 -0.44079,-0.0802 -0.72129,-0.0802 -0.36064,0 -0.60107,0.0802 -0.80143,0.20036 -0.20036,0.16029 -0.2805,0.36065 -0.2805,0.68122 0,0.16028 0.0401,0.32057 0.0801,0.40071 0.0401,0.0802 0.12022,0.20036 0.20036,0.28051 0.0802,0.0802 0.20036,0.16028 0.36065,0.20035 0.16028,0.0802 0.32057,0.12022 0.52093,0.20036 0.24043,0.0802 0.48086,0.16029 0.68122,0.28051 0.20035,0.0802 0.40071,0.20036 0.561,0.36064 0.16029,0.12022 0.2805,0.32058 0.36064,0.52094 0.0802,0.20035 0.12022,0.48085 0.12022,0.76135 0,0.60108 -0.16029,1.00179 -0.52093,1.2823 -0.24043,0.24043 -0.72129,0.36064 -1.36244,0.36064 z m 5.77032,0 c -0.36064,0 -0.64114,-0.0401 -0.96172,-0.16028 -0.2805,-0.12022 -0.52093,-0.28051 -0.76136,-0.56101 -0.20036,-0.24043 -0.36065,-0.561 -0.48086,-0.96172 -0.12021,-0.40072 -0.16029,-0.88158 -0.16029,-1.44258 0,-0.56101 0.0401,-1.04186 0.16029,-1.44258 0.12021,-0.40071 0.2805,-0.72129 0.48086,-0.96172 0.20036,-0.24043 0.44079,-0.44079 0.72129,-0.561 0.2805,-0.12022 0.60108,-0.16029 0.96172,-0.16029 0.36065,0 0.68122,0.0802 0.96172,0.20036 0.24043,0.12021 0.48086,0.2805 0.72129,0.52093 l -0.44079,0.52093 c -0.16029,-0.20035 -0.36064,-0.32057 -0.52093,-0.44079 -0.16028,-0.12022 -0.44079,-0.16028 -0.72129,-0.16028 -0.24043,0 -0.48086,0.0401 -0.64114,0.12021 -0.20037,0.0802 -0.36065,0.20036 -0.48087,0.40072 -0.12021,0.20035 -0.24043,0.44079 -0.2805,0.76136 -0.0801,0.32057 -0.0801,0.72129 -0.0801,1.20215 0,0.48086 0.0401,0.88158 0.0801,1.20215 0.0802,0.32058 0.16029,0.561 0.2805,0.76136 0.12022,0.20036 0.2805,0.32058 0.48087,0.40072 0.20035,0.0802 0.44078,0.12021 0.68121,0.12021 0.32058,0 0.56101,-0.0802 0.76136,-0.20035 0.20036,-0.12022 0.36065,-0.28051 0.48086,-0.40072 l 0.48086,0.48086 c -0.20035,0.24043 -0.44078,0.40072 -0.72129,0.561 -0.24043,0.12021 -0.561,0.20036 -1.00179,0.20036 z m 3.40609,-9.05619996 0.76137,0 0,3.76673996 c 0.2805,-0.28051 0.60107,-0.48086 0.88157,-0.68122 0.2805,-0.16029 0.64115,-0.2805 1.0018,-0.2805 0.44078,0 0.76136,0.12021 1.04186,0.36065 0.2805,0.24043 0.40071,0.64114 0.40071,1.16207 l 0,4.60825 -0.76136,0 0,-4.36782 c 0,-0.40072 -0.0801,-0.68122 -0.20036,-0.8415 -0.16028,-0.16029 -0.36064,-0.24044 -0.68122,-0.24044 -0.2805,0 -0.60107,0.0802 -0.88157,0.24044 -0.2805,0.16028 -0.561,0.36065 -0.8415,0.60107 l 0,4.60825 -0.76137,0 0,-8.93598996 z m 7.77391,9.05619996 c -0.44079,0 -0.80143,-0.12021 -1.08194,-0.40072 -0.2805,-0.24043 -0.44078,-0.64114 -0.44078,-1.20214 l 0,-4.52811 0.72129,0 0,4.32775 c 0,0.40072 0.0801,0.68121 0.24043,0.88157 0.16028,0.16029 0.40071,0.24043 0.68121,0.24043 0.28051,0 0.60108,-0.0801 0.88158,-0.24043 0.2805,-0.16029 0.56101,-0.36064 0.84151,-0.561 l 0,-4.64832 0.76136,0 0,6.01076 -0.52094,0 -0.16028,-0.80144 c -0.2805,0.2805 -0.561,0.48086 -0.88158,0.68122 -0.32057,0.16028 -0.68122,0.24043 -1.04186,0.24043 z m 5.85047,-0.0401 c -0.28051,0 -0.52094,-0.0802 -0.7213,-0.24043 -0.16028,-0.16029 -0.2805,-0.48086 -0.2805,-0.92165 l 0,-7.85404996 0.76137,0 0,7.93418996 c 0,0.20036 0.0401,0.32058 0.12021,0.40072 0.0802,0.0802 0.16028,0.0802 0.32057,0.0802 0.0802,0 0.20036,0 0.2805,-0.0401 l 0.12022,0.52094 c -0.0802,0.0401 -0.16029,0.0801 -0.2805,0.0801 -0.12022,0.0401 -0.20036,0.0401 -0.32057,0.0401 z m 2.56458,-2.96531 c 0,0.44079 0.0401,0.84151 0.12022,1.12201 0.0802,0.32058 0.16028,0.561 0.2805,0.7213 0.12021,0.20035 0.2805,0.32057 0.48085,0.40071 0.20036,0.0801 0.44079,0.12021 0.7213,0.12021 0.36064,0 0.64115,-0.0401 0.88158,-0.16028 0.24043,-0.12022 0.44079,-0.24043 0.64114,-0.40072 l 0.40072,0.52093 c -0.24043,0.20036 -0.52094,0.36065 -0.84151,0.48086 -0.2805,0.12021 -0.64114,0.16029 -1.08193,0.16029 -0.36064,0 -0.68122,-0.0401 -0.96172,-0.16029 -0.2805,-0.12021 -0.56101,-0.2805 -0.76137,-0.52093 -0.20035,-0.24043 -0.36064,-0.561 -0.48086,-0.96172 -0.12021,-0.40072 -0.20036,-0.88158 -0.20036,-1.44258 0,-0.561 0.0401,-1.04186 0.1603,-1.44258 0.12021,-0.40071 0.28049,-0.72129 0.48085,-0.96172 0.20036,-0.24043 0.44079,-0.44079 0.7213,-0.561 0.2805,-0.12021 0.60107,-0.16029 0.92164,-0.16029 0.68122,0 1.24223,0.24043 1.60287,0.68121 0.36064,0.44079 0.561,1.20216 0.561,2.24402 l 0,0.32057 z m 2.88516,-0.561 c 0,-0.40071 -0.0401,-0.72129 -0.0802,-0.96172 -0.0401,-0.24042 -0.16028,-0.48086 -0.24042,-0.64114 -0.12022,-0.16029 -0.24043,-0.28051 -0.44079,-0.32058 -0.16029,-0.0802 -0.36065,-0.0802 -0.60108,-0.0802 -0.20036,0 -0.40071,0.0401 -0.561,0.0802 -0.16028,0.0802 -0.32058,0.16029 -0.44079,0.32058 -0.12021,0.16028 -0.24043,0.36064 -0.32057,0.64114 -0.0802,0.2805 -0.12022,0.60108 -0.16029,0.96172 l 2.84509,0 z"
     id="path6846-6"
     sodipodi:nodetypes="cccccccccccccsccsscscsccssccsssccsssccscccssccssccssssssccccscscscccsccccsccccsssccscssccccccccccscscccccscscscsccccscscccccccscccsccssssssccccscccscccsccccsccccsssccscsscccccscsccscsccccccccsccsccscscccccccccsccccsscssssssssccccccscscccc" /></svg>