<?xml version="1.0" encoding="UTF-8" standalone="no"?>
<!-- Created with Inkscape (http://www.inkscape.org/) -->

<svg
   xmlns:dc="http://purl.org/dc/elements/1.1/"
   xmlns:cc="http://creativecommons.org/ns#"
   xmlns:rdf="http://www.w3.org/1999/02/22-rdf-syntax-ns#"
   xmlns:svg="http://www.w3.org/2000/svg"
   xmlns="http://www.w3.org/2000/svg"
   xmlns:sodipodi="http://sodipodi.sourceforge.net/DTD/sodipodi-0.dtd"
   xmlns:inkscape="http://www.inkscape.org/namespaces/inkscape"
   id="svg2985"
   version="1.1"
   inkscape:version="0.91 r13725"
   width="132.19177"
   height="20"
   xml:space="preserve"
   sodipodi:docname="icon-dakosy.svg"><metadata
     id="metadata2991"><rdf:RDF><cc:Work
         rdf:about=""><dc:format>image/svg+xml</dc:format><dc:type
           rdf:resource="http://purl.org/dc/dcmitype/StillImage" /><dc:title></dc:title></cc:Work></rdf:RDF></metadata><defs
     id="defs2989"><clipPath
       clipPathUnits="userSpaceOnUse"
       id="clipPath3003"><path
         d="m 0,595.28 841.89,0 L 841.89,0 0,0 0,595.28 Z"
         id="path3005"
         inkscape:connector-curvature="0" /></clipPath></defs><sodipodi:namedview
     pagecolor="#ffffff"
     bordercolor="#666666"
     borderopacity="1"
     objecttolerance="10"
     gridtolerance="10"
     guidetolerance="10"
     inkscape:pageopacity="0"
     inkscape:pageshadow="2"
     inkscape:window-width="1920"
     inkscape:window-height="1028"
     id="namedview2987"
     showgrid="false"
     fit-margin-top="0"
     fit-margin-left="0"
     fit-margin-right="0"
     fit-margin-bottom="0"
     inkscape:zoom="0.63432338"
     inkscape:cx="-139.48373"
     inkscape:cy="-194.64169"
     inkscape:window-x="0"
     inkscape:window-y="0"
     inkscape:window-maximized="1"
     inkscape:current-layer="g2993" /><g
     id="g2993"
     inkscape:groupmode="layer"
     inkscape:label="DAKOSY-SCHRIFTZUG_CMYK"
     transform="matrix(1.25,0,0,-1.25,-179.76024,391.85683)"><g
       id="g3050"
       transform="matrix(0.93268636,0,0,0.93268636,9.6802456,54.859941)"><g
         transform="matrix(0.22482993,0,0,0.22482993,245.67644,260.61836)"
         id="g2995"><path
           inkscape:connector-curvature="0"
           id="path2997"
           style="fill:#ed1c24;fill-opacity:1;fill-rule:nonzero;stroke:none"
           d="m 0,0 25.657,0 0,31.519 25.571,40.35 -27.424,0 L 12.01,53.745 1.404,71.869 l -26.424,0 24.62,-40.35 0,-31.119" /></g><g
         transform="matrix(0.22482993,0,0,0.22482993,111.47581,195.85943)"
         id="g2999"><g
           clip-path="url(#clipPath3003)"
           id="g3001"><g
             transform="translate(171.3252,310.5791)"
             id="g3007"><path
               inkscape:connector-curvature="0"
               id="path3009"
               style="fill:#ed1c24;fill-opacity:1;fill-rule:nonzero;stroke:none"
               d="m 0,0 1.944,0 c 8.848,0 15.637,3.518 15.637,12.996 0,10.15 -5.914,14.023 -15.637,14.023 L 0,27.019 0,0 Z m -27.517,49.443 27.903,0 c 24.599,0 42.853,-10.02 42.853,-36.543 0,-21.447 -14.934,-35.471 -36.422,-35.471 l -34.334,0 0,72.014 z" /></g><g
             transform="translate(509.2598,315.0508)"
             id="g3011"><path
               inkscape:connector-curvature="0"
               id="path3013"
               style="fill:#ed1c24;fill-opacity:1;fill-rule:nonzero;stroke:none"
               d="m 0,0 1.342,-1.06 c 4.695,-3.657 10.347,-7.639 16.383,-7.639 2.587,0 6.708,1.058 6.708,4.33 0,3.272 -3.451,3.56 -5.846,4.041 l -5.27,0.963 c -10.251,1.828 -18.874,9.89 -18.874,21.246 0,17.224 15.618,24.848 31.329,24.848 8.242,0 15.81,-2.022 22.9,-6.351 l -7.09,-17.572 c -4.503,3.079 -9.581,4.483 -15.233,4.483 -2.3,0 -5.654,-0.865 -5.654,-3.848 0,-2.695 3.258,-3.08 5.27,-3.56 l 5.939,-1.348 c 11.116,-2.502 19.163,-8.468 19.163,-20.785 0,-17.32 -15.713,-25.886 -31.33,-25.886 -10.482,0 -18.64,5.559 -26.785,9.697 L 0,0 Z" /></g><g
             transform="translate(323.9409,360.0361)"
             id="g3015"><path
               inkscape:connector-curvature="0"
               id="path3017"
               style="fill:#ed1c24;fill-opacity:1;fill-rule:nonzero;stroke:none"
               d="m 0,0 0,-71.849 27.396,0 0,30.646 19.112,-30.646 27.692,0 L 48.615,-36.632 73.932,0 46.301,0 26.932,-31.23 26.932,0 0,0 Z" /></g><g
             transform="translate(259.958,315.3555)"
             id="g3019"><path
               inkscape:connector-curvature="0"
               id="path3021"
               style="fill:#ed1c24;fill-opacity:1;fill-rule:nonzero;stroke:none"
               d="M 0,0 5.85,22.242 11.785,0 0,0 Z m 18.823,44.534 -26.46,0 -26.474,-71.702 27.819,0 2.516,8.671 20.127,0 2.574,-8.671 28.103,0 -28.205,71.702 z" /></g><g
             transform="translate(447.1924,309.7168)"
             id="g3023"><path
               inkscape:connector-curvature="0"
               id="path3025"
               style="fill:#ed1c24;fill-opacity:1;fill-rule:nonzero;stroke:none"
               d="m 0,0 c -7.91,0 -14.323,6.414 -14.323,14.324 0,7.91 6.413,14.324 14.323,14.324 7.911,0 14.324,-6.414 14.324,-14.324 C 14.324,6.414 7.911,0 0,0 m 0.001,52.475 c -21.069,0 -38.15,-17.08 -38.15,-38.151 0,-21.07 17.081,-38.15 38.15,-38.15 21.07,0 38.15,17.08 38.15,38.15 0,21.071 -17.08,38.151 -38.15,38.151" /></g><g
             transform="translate(229.0352,260.8027)"
             id="g3027" /><g
             transform="translate(249.8159,263.6113)"
             id="g3031" /><g
             transform="translate(261.6841,273.0547)"
             id="g3035" /><g
             transform="translate(274.9561,265.2813)"
             id="g3039" /><g
             transform="translate(282.0054,266.0801)"
             id="g3043" /><g
             transform="translate(301.332,264.8711)"
             id="g3047" /><g
             transform="translate(315.0166,263.9492)"
             id="g3051" /><g
             transform="translate(327.3208,266.0801)"
             id="g3055" /><g
             transform="translate(349.603,266.0801)"
             id="g3059" /><g
             transform="translate(383.0488,261.8184)"
             id="g3063" /><g
             transform="translate(387.459,266.0801)"
             id="g3067" /><g
             transform="translate(414.8506,264.8711)"
             id="g3073" /><g
             transform="translate(432.168,263.6113)"
             id="g3077" /><g
             transform="translate(444.0117,273.0547)"
             id="g3081" /><g
             transform="translate(461.4492,263.9492)"
             id="g3087" /><g
             transform="translate(473.7549,266.0801)"
             id="g3091" /><g
             transform="translate(489.377,261.2129)"
             id="g3095" /><g
             transform="translate(501.3408,261.2129)"
             id="g3099" /><g
             transform="translate(516.0898,269.8584)"
             id="g3103" /><g
             transform="translate(527.0137,261.2129)"
             id="g3107" /><g
             transform="translate(543.1191,273.0547)"
             id="g3111" /><g
             transform="translate(556.3906,265.2813)"
             id="g3115" /><g
             transform="translate(563.4414,266.0801)"
             id="g3119" /><g
             transform="translate(600.1328,264.9668)"
             id="g3123" /><g
             transform="translate(622.5586,258.7676)"
             id="g3127" /></g></g></g></g></svg>